<svg xmlns="http://www.w3.org/2000/svg" width="453.709" height="435.901" viewBox="0 0 453.709 435.901">
  <g id="Group_42341" data-name="Group 42341" transform="translate(9038.498 1675.84)">
    <path id="Rectangle_38216" data-name="Rectangle 38216" d="M0,0H426.972a14,14,0,0,1,14,14V411.818a23,23,0,0,1-23,23H0a0,0,0,0,1,0,0V0A0,0,0,0,1,0,0Z" transform="translate(-9025.761 -1675.84)" fill="#78c5ff"/>
    <path id="Rectangle_38217" data-name="Rectangle 38217" d="M0,0H440.972a0,0,0,0,1,0,0V88.918a20,20,0,0,1-20,20H0a0,0,0,0,1,0,0V0A0,0,0,0,1,0,0Z" transform="translate(-9025.761 -1348.858)" fill="#051e47"/>
    <g id="Group_42294" data-name="Group 42294" transform="translate(-8931.59 -1614.144)" opacity="0.5">
      <rect id="Rectangle_38222" data-name="Rectangle 38222" width="16.829" height="28.048" transform="translate(69.946 101.236)" fill="#3d93c9"/>
      <rect id="Rectangle_38223" data-name="Rectangle 38223" width="48.946" height="3.63" transform="translate(20.287 177.548)" fill="#e09e48"/>
      <path id="Rectangle_38224" data-name="Rectangle 38224" d="M0,0H46.416a4.84,4.84,0,0,1,4.84,4.84v0a4.84,4.84,0,0,1-4.84,4.84H0a0,0,0,0,1,0,0V0A0,0,0,0,1,0,0Z" transform="translate(17.977 167.869)" fill="#3d93c9"/>
      <path id="Path_96841" data-name="Path 96841" d="M4521.508,1439.418h-28.817v-7.26h28.817a3.63,3.63,0,0,1,3.63,3.63h0A3.63,3.63,0,0,1,4521.508,1439.418Z" transform="translate(-4474.714 -1263.079)" fill="#f4f4f4"/>
      <path id="Rectangle_38225" data-name="Rectangle 38225" d="M3.85,0H52.136a0,0,0,0,1,0,0V7.7a0,0,0,0,1,0,0H3.85A3.85,3.85,0,0,1,0,3.85v0A3.85,3.85,0,0,1,3.85,0Z" transform="translate(12.807 181.178)" fill="#2a2a75"/>
      <path id="Path_96842" data-name="Path 96842" d="M4557.275,1492.349h29.2v-5.83h-29.2a2.914,2.914,0,0,0-2.914,2.915h0A2.914,2.914,0,0,0,4557.275,1492.349Z" transform="translate(-4521.536 -1304.351)" fill="#f4f4f4"/>
      <rect id="Rectangle_38226" data-name="Rectangle 38226" width="44.462" height="3.297" transform="translate(70.525 243.012)" fill="#e09e48"/>
      <path id="Path_96843" data-name="Path 96843" d="M4744.384,1711.491h-42.163V1702.7h42.163a4.4,4.4,0,0,1,4.4,4.4h0A4.4,4.4,0,0,1,4744.384,1711.491Z" transform="translate(-4633.794 -1468.479)" fill="#3d93c9"/>
      <path id="Path_96844" data-name="Path 96844" d="M4728.4,1713.858h-26.177v-6.595H4728.4a3.3,3.3,0,0,1,3.3,3.3h0A3.3,3.3,0,0,1,4728.4,1713.858Z" transform="translate(-4633.794 -1471.944)" fill="#f4f4f4"/>
      <path id="Path_96845" data-name="Path 96845" d="M4686.213,1759.9h43.863v-6.994h-43.863a3.5,3.5,0,0,0-3.5,3.5h0A3.5,3.5,0,0,0,4686.213,1759.9Z" transform="translate(-4618.986 -1506.6)" fill="#2a2a75"/>
      <path id="Rectangle_38227" data-name="Rectangle 38227" d="M2.648,0H29.175a0,0,0,0,1,0,0V5.3a0,0,0,0,1,0,0H2.648A2.648,2.648,0,0,1,0,2.648v0A2.648,2.648,0,0,1,2.648,0Z" transform="translate(81.915 247.208)" fill="#f4f4f4"/>
      <rect id="Rectangle_38228" data-name="Rectangle 38228" width="48.946" height="3.63" transform="translate(100.196 59.612) rotate(180)" fill="#e09e48"/>
      <path id="Path_96846" data-name="Path 96846" d="M4635.718,931.926h46.416v-9.679h-46.416a4.84,4.84,0,0,0-4.84,4.84h0A4.84,4.84,0,0,0,4635.718,931.926Z" transform="translate(-4579.628 -875.944)" fill="#3d93c9"/>
      <path id="Path_96847" data-name="Path 96847" d="M4712.623,934.531h28.817v-7.259h-28.817a3.629,3.629,0,0,0-3.63,3.63h0A3.629,3.629,0,0,0,4712.623,934.531Z" transform="translate(-4638.935 -879.759)" fill="#f4f4f4"/>
      <path id="Rectangle_38229" data-name="Rectangle 38229" d="M3.85,0H52.136a0,0,0,0,1,0,0V7.7a0,0,0,0,1,0,0H3.85A3.85,3.85,0,0,1,0,3.85v0A3.85,3.85,0,0,1,3.85,0Z" transform="translate(107.675 67.312) rotate(180)" fill="#2a2a75"/>
      <path id="Rectangle_38230" data-name="Rectangle 38230" d="M2.915,0h29.2a0,0,0,0,1,0,0V5.83a0,0,0,0,1,0,0H2.915A2.915,2.915,0,0,1,0,2.915v0A2.915,2.915,0,0,1,2.915,0Z" transform="translate(87.657 66.432) rotate(-180)" fill="#f4f4f4"/>
      <g id="Group_42290" data-name="Group 42290" transform="translate(16.987 19.63)">
        <rect id="Rectangle_38231" data-name="Rectangle 38231" width="8.799" height="43.007" transform="translate(17.599 5.17)" fill="#2a2a75"/>
        <rect id="Rectangle_38232" data-name="Rectangle 38232" width="7.479" height="38.167" transform="translate(0.44 10.009)" fill="#f4f4f4"/>
        <rect id="Rectangle_38233" data-name="Rectangle 38233" width="7.919" height="0.99" transform="translate(0 19.139)" fill="#2a2a75"/>
        <rect id="Rectangle_38234" data-name="Rectangle 38234" width="7.919" height="0.99" transform="translate(0 28.598)" fill="#2a2a75"/>
        <path id="Path_96848" data-name="Path 96848" d="M4521.47,875.946h9.68V832.939l-9.68,9.679Z" transform="translate(-4513.55 -827.77)" fill="#3d93c9"/>
        <path id="Path_96849" data-name="Path 96849" d="M4521.47,811.469v14.849l9.68-9.679v-5.169Z" transform="translate(-4513.55 -811.469)" fill="#3d93c9"/>
        <g id="Group_42289" data-name="Group 42289" transform="translate(19.254 15.624)">
          <path id="Path_96850" data-name="Path 96850" d="M4571.289,881.848a2.744,2.744,0,1,1,2.745-2.744A2.746,2.746,0,0,1,4571.289,881.848Zm0-5.06a2.315,2.315,0,1,0,2.316,2.315A2.318,2.318,0,0,0,4571.289,876.788Z" transform="translate(-4568.545 -876.359)" fill="#f4f4f4"/>
        </g>
      </g>
      <g id="Group_42292" data-name="Group 42292" transform="translate(77.378 140.89)">
        <rect id="Rectangle_38235" data-name="Rectangle 38235" width="8.799" height="43.007" transform="translate(8.799 48.176) rotate(180)" fill="#2a2a75"/>
        <rect id="Rectangle_38236" data-name="Rectangle 38236" width="7.479" height="38.167" transform="translate(25.958 48.176) rotate(180)" fill="#f4f4f4"/>
        <path id="Path_96851" data-name="Path 96851" d="M4775.938,1379.56h9.679v-43.007l-9.679,9.679Z" transform="translate(-4767.14 -1331.383)" fill="#3d93c9"/>
        <path id="Path_96852" data-name="Path 96852" d="M4775.938,1315.083v14.849l9.679-9.679v-5.17Z" transform="translate(-4767.14 -1315.083)" fill="#3d93c9"/>
        <g id="Group_42291" data-name="Group 42291" transform="translate(1.655 15.624)">
          <path id="Path_96853" data-name="Path 96853" d="M4746.269,1382.718a2.744,2.744,0,1,1,2.745,2.744A2.748,2.748,0,0,1,4746.269,1382.718Zm.43,0a2.315,2.315,0,1,0,2.315-2.315A2.317,2.317,0,0,0,4746.7,1382.718Z" transform="translate(-4746.269 -1379.973)" fill="#f4f4f4"/>
        </g>
      </g>
      <g id="Group_42293" data-name="Group 42293" transform="translate(74.571 107.506)">
        <path id="Path_96854" data-name="Path 96854" d="M4731.7,1184.353a3.96,3.96,0,1,1,3.959-3.959A3.964,3.964,0,0,1,4731.7,1184.353Zm0-7.3a3.34,3.34,0,1,0,3.34,3.341A3.344,3.344,0,0,0,4731.7,1177.053Z" transform="translate(-4727.736 -1176.434)" fill="#f4f4f4"/>
      </g>
      <rect id="Rectangle_38237" data-name="Rectangle 38237" width="6.764" height="35.637" transform="translate(19.792 94.175)" fill="#f4f4f4"/>
      <rect id="Rectangle_38238" data-name="Rectangle 38238" width="7.809" height="40.752" transform="translate(26.556 89.06)" fill="#3d93c9"/>
      <rect id="Rectangle_38239" data-name="Rectangle 38239" width="5.665" height="31.513" transform="translate(34.366 98.3)" fill="#2a2a75"/>
      <rect id="Rectangle_38240" data-name="Rectangle 38240" width="6.764" height="35.637" transform="translate(94.914 94.175)" fill="#f4f4f4"/>
      <rect id="Rectangle_38241" data-name="Rectangle 38241" width="7.809" height="40.752" transform="translate(101.678 89.06)" fill="#3d93c9"/>
      <rect id="Rectangle_38242" data-name="Rectangle 38242" width="5.665" height="37.901" transform="translate(109.488 91.911)" fill="#2a2a75"/>
      <rect id="Rectangle_38243" data-name="Rectangle 38243" width="4.4" height="32.502" transform="matrix(0.997, -0.083, 0.083, 0.997, 86.539, 97.019)" fill="#e09e48"/>
      <rect id="Rectangle_38244" data-name="Rectangle 38244" width="5.004" height="43.004" transform="translate(36.996 90.354) rotate(-22.655)" fill="#3d93c9"/>
      <rect id="Rectangle_38245" data-name="Rectangle 38245" width="6.764" height="35.637" transform="translate(52.019 252.874) rotate(180)" fill="#f4f4f4"/>
      <rect id="Rectangle_38246" data-name="Rectangle 38246" width="7.809" height="40.752" transform="translate(45.255 252.874) rotate(180)" fill="#3d93c9"/>
      <rect id="Rectangle_38247" data-name="Rectangle 38247" width="5.665" height="31.513" transform="translate(37.445 252.874) rotate(180)" fill="#2a2a75"/>
      <rect id="Rectangle_38248" data-name="Rectangle 38248" width="5.004" height="43.004" transform="matrix(-0.923, -0.385, 0.385, -0.923, 18.25, 253.101)" fill="#3d93c9"/>
      <path id="Path_96855" data-name="Path 96855" d="M4418.03,729.941V995.227h3.96V987h113.34v8.225h3.96V729.941Zm117.3,3.96v63.847H4421.99V733.9ZM4421.99,859.288V801.707h113.34v57.581Zm113.34,3.96v55.759H4421.99V863.248ZM4421.99,983.043V922.967h113.34v60.076Z" transform="translate(-4418.03 -729.941)" fill="#3d93c9"/>
    </g>
    <g id="Group_42298" data-name="Group 42298" transform="translate(-8707.933 -1493.28)" opacity="0.5">
      <rect id="Rectangle_38249" data-name="Rectangle 38249" width="16.829" height="28.048" transform="translate(51.314 129.284) rotate(180)" fill="#3d93c9"/>
      <rect id="Rectangle_38250" data-name="Rectangle 38250" width="48.946" height="3.63" transform="translate(21.064 55.983)" fill="#e09e48"/>
      <path id="Path_96856" data-name="Path 96856" d="M5471.226,1433.9H5424.81v-9.679h46.417a4.84,4.84,0,0,1,4.839,4.84h0A4.84,4.84,0,0,1,5471.226,1433.9Z" transform="translate(-5406.055 -1377.913)" fill="#3d93c9"/>
      <path id="Path_96857" data-name="Path 96857" d="M5453.627,1436.5H5424.81v-7.259h28.817a3.629,3.629,0,0,1,3.629,3.63h0A3.629,3.629,0,0,1,5453.627,1436.5Z" transform="translate(-5406.055 -1381.728)" fill="#f4f4f4"/>
      <path id="Rectangle_38251" data-name="Rectangle 38251" d="M3.85,0H52.136a0,0,0,0,1,0,0V7.7a0,0,0,0,1,0,0H3.85A3.85,3.85,0,0,1,0,3.85v0A3.85,3.85,0,0,1,3.85,0Z" transform="translate(13.585 59.612)" fill="#2a2a75"/>
      <path id="Rectangle_38252" data-name="Rectangle 38252" d="M2.915,0h29.2a0,0,0,0,1,0,0V5.83a0,0,0,0,1,0,0H2.915A2.915,2.915,0,0,1,0,2.915v0A2.915,2.915,0,0,1,2.915,0Z" transform="translate(33.603 60.602)" fill="#f4f4f4"/>
      <g id="Group_42296" data-name="Group 42296" transform="translate(77.875 19.63)">
        <rect id="Rectangle_38253" data-name="Rectangle 38253" width="8.799" height="43.007" transform="translate(8.799 48.176) rotate(180)" fill="#2a2a75"/>
        <rect id="Rectangle_38254" data-name="Rectangle 38254" width="7.479" height="38.167" transform="translate(25.958 48.176) rotate(180)" fill="#f4f4f4"/>
        <rect id="Rectangle_38255" data-name="Rectangle 38255" width="7.919" height="0.99" transform="translate(26.398 20.128) rotate(180)" fill="#2a2a75"/>
        <rect id="Rectangle_38256" data-name="Rectangle 38256" width="7.919" height="0.99" transform="translate(26.398 29.588) rotate(180)" fill="#2a2a75"/>
        <path id="Path_96858" data-name="Path 96858" d="M5716.572,1377.915h-9.679v-43.007l9.679,9.679Z" transform="translate(-5698.094 -1329.739)" fill="#3d93c9"/>
        <path id="Path_96859" data-name="Path 96859" d="M5716.572,1313.438v14.849l-9.679-9.679v-5.17Z" transform="translate(-5698.094 -1313.438)" fill="#3d93c9"/>
        <g id="Group_42295" data-name="Group 42295" transform="translate(1.655 15.624)">
          <path id="Path_96860" data-name="Path 96860" d="M5677.223,1381.073a2.744,2.744,0,1,1,2.744,2.744A2.748,2.748,0,0,1,5677.223,1381.073Zm.429,0a2.315,2.315,0,1,0,2.315-2.315A2.318,2.318,0,0,0,5677.652,1381.073Z" transform="translate(-5677.223 -1378.329)" fill="#f4f4f4"/>
        </g>
      </g>
      <g id="Group_42297" data-name="Group 42297" transform="translate(38.77 107.506)">
        <path id="Path_96861" data-name="Path 96861" d="M5507.936,1682.363a3.96,3.96,0,1,1,3.96,3.96A3.964,3.964,0,0,1,5507.936,1682.363Zm.62,0a3.34,3.34,0,1,0,3.34-3.34A3.344,3.344,0,0,0,5508.556,1682.363Z" transform="translate(-5507.936 -1678.403)" fill="#f4f4f4"/>
      </g>
      <rect id="Rectangle_38257" data-name="Rectangle 38257" width="6.764" height="35.637" transform="translate(101.468 129.812) rotate(180)" fill="#f4f4f4"/>
      <rect id="Rectangle_38258" data-name="Rectangle 38258" width="7.809" height="40.752" transform="translate(94.704 129.812) rotate(180)" fill="#3d93c9"/>
      <rect id="Rectangle_38259" data-name="Rectangle 38259" width="5.665" height="31.513" transform="translate(86.894 129.812) rotate(180)" fill="#2a2a75"/>
      <rect id="Rectangle_38260" data-name="Rectangle 38260" width="6.764" height="35.637" transform="translate(26.346 129.812) rotate(180)" fill="#f4f4f4"/>
      <rect id="Rectangle_38261" data-name="Rectangle 38261" width="7.809" height="40.752" transform="translate(19.582 129.812) rotate(180)" fill="#3d93c9"/>
      <rect id="Rectangle_38262" data-name="Rectangle 38262" width="5.665" height="37.901" transform="translate(11.772 129.812) rotate(180)" fill="#2a2a75"/>
      <rect id="Rectangle_38263" data-name="Rectangle 38263" width="4.4" height="32.502" transform="matrix(-0.997, -0.083, 0.083, -0.997, 32.035, 129.411)" fill="#e09e48"/>
      <rect id="Rectangle_38264" data-name="Rectangle 38264" width="5.004" height="43.004" transform="translate(67.699 130.04) rotate(-157.345)" fill="#3d93c9"/>
      <path id="Path_96862" data-name="Path 96862" d="M5464.219,1375.29h3.959V1231.91H5346.919V1375.29h3.96v-10.073h113.34Zm0-75.573h-113.34V1235.87h113.34Zm0,61.541h-113.34v-57.581h113.34Z" transform="translate(-5346.919 -1231.91)" fill="#3d93c9"/>
    </g>
    <g id="Group_42303" data-name="Group 42303" transform="translate(-9038.498 -1464.676)">
      <g id="Group_42301" data-name="Group 42301" transform="translate(0 0)">
        <g id="Group_42299" data-name="Group 42299" transform="translate(57.154 59.089)">
          <path id="Path_96863" data-name="Path 96863" d="M4214.066,1670.436l-1.982-.158c2.808-35.259-.657-73.595-.692-73.978l1.98-.183C4213.408,1596.5,4216.889,1635,4214.066,1670.436Z" transform="translate(-4211.392 -1596.117)" fill="#051e47"/>
        </g>
        <path id="Path_96864" data-name="Path 96864" d="M4093.306,1445.367c-2.005.825-4.845,1.805-10.358-10.157s-6.013-15.292-8.131-17.9-15.595-22.037-23.064-25.82c0,0,7.75-1.587,13.843,2.982,0,0-.95.892-.529,1.026.258.082.86-.547.86-.547s11,11.681,14.682,16.737c0,0-1.481,2.965-.87,4.412s2.409-2.637,2.409-2.637,9.424,12.359,11.687,18.069S4097.985,1443.442,4093.306,1445.367Z" transform="translate(-4033.036 -1381.466)" fill="#051e47"/>
        <path id="Path_96865" data-name="Path 96865" d="M4308.49,1620.012s7.263,1.095,14.556-5.678c0,0-2.229-2.72-1.129-3.735s3.589,1.605,3.589,1.605,3.793-5.5,6.229-7.378,5.255-3.852,8-3.829c0,0-5.2-.515-5.1-1.505s8.83-4.622,16.195.482c0,0-.92-5.838-7.923-5.783a7.8,7.8,0,0,1,1.321-3.242,10.865,10.865,0,0,0-5.6-1.513,16.483,16.483,0,0,1-2.072,3.251c-1.125,1.263-2.152.286-1.771-2.3,0,0-4.958,3.381-9.907,2.891a1.627,1.627,0,1,1-2.511.126s-2.9,4.085-5.13,5.113-8.6,3.521-10.361,7.469S4303.662,1615.785,4308.49,1620.012Z" transform="translate(-4225.468 -1531.945)" fill="#2a2a75"/>
        <path id="Path_96866" data-name="Path 96866" d="M4262.281,1623s-1.12.682-2.971,2.035a74.834,74.834,0,0,0-7.29,6.091,60.293,60.293,0,0,0-8.732,10.241,44.837,44.837,0,0,0-3.684,6.693c-1.056,2.407-1.759,4.931-2.756,7.335-.961,2.394-2.037,4.771-3.172,7.068s-2.308,4.534-3.489,6.673c-2.362,4.278-4.73,8.184-6.817,11.493s-3.9,6.017-5.189,7.9l-2.039,2.935,1.766,1.238,2-3.021c1.253-1.929,3.02-4.7,5.052-8.073s4.326-7.362,6.614-11.728a128.815,128.815,0,0,0,6.437-14.064c.956-2.454,1.609-5.008,2.556-7.353a43.935,43.935,0,0,1,3.419-6.647,60.339,60.339,0,0,1,8.322-10.4,74.59,74.59,0,0,1,7.07-6.3C4261.185,1623.72,4262.281,1623,4262.281,1623Z" transform="translate(-4157.845 -1557.44)" fill="#051e47"/>
        <path id="Path_96867" data-name="Path 96867" d="M4262.538,1455.308a62.825,62.825,0,0,0,21.219-23.042s-4.973-2.653-4.476-3.813,4.144.166,5.305,0,5.635-3.316,9.448-11.936c0,0-4.807-.663-4.476-1.989s1.907-1.658,5.346-.995c0,0,3.274-7.459,4.932-9.449,0,0-2.32-.663-2.155-1.492s5.968-2.155,5.968-2.155-9.117-2.652-22.213,3.15c0,0,.5,2.984-1.16,3.15s-1.658-1.99-1.658-1.99-6.7,3.481-8.4,6.631-.878,11.272-1.873,12.1-2.984.166-4.145-1.326c0,0-4.145,1.99-4.974,13.759S4262.538,1455.308,4262.538,1455.308Z" transform="translate(-4190.469 -1388.005)" fill="#2a2a75"/>
        <path id="Path_96868" data-name="Path 96868" d="M4257.015,1417.492s-1.666,1.2-4.336,3.6c-1.348,1.186-2.918,2.7-4.66,4.5-.87.9-1.763,1.888-2.715,2.922-.9,1.074-1.913,2.159-2.852,3.383s-1.96,2.467-2.906,3.836c-.48.679-.989,1.358-1.47,2.07l-1.424,2.2c-1,1.461-1.833,3.088-2.774,4.693-.451.814-.843,1.672-1.273,2.519-.406.859-.886,1.694-1.234,2.6-.737,1.791-1.566,3.582-2.152,5.494-.315.947-.654,1.892-.958,2.856q-.42,1.437-.846,2.887c-1.122,3.877-2.229,7.834-3.211,11.82s-1.883,8-2.575,12c-.712,3.989-1.215,7.94-1.8,11.71s-1.3,7.419-1.926,10.871c-.652,3.454-1.269,6.719-1.837,9.732-1.159,6.022-2.208,11.021-3.01,14.495s-1.364,5.41-1.364,5.41l1.84.526s.584-2,1.389-5.5,1.864-8.525,3.026-14.562c.586-3.018,1.192-6.292,1.808-9.759s1.283-7.106,1.866-10.932,1.045-7.74,1.726-11.69c.664-3.953,1.486-7.945,2.424-11.915s1.982-7.917,3.054-11.8q.409-1.455.813-2.9c.285-.943.6-1.874.9-2.8.55-1.878,1.344-3.643,2.044-5.41.33-.893.793-1.719,1.183-2.568.413-.837.787-1.686,1.222-2.492l1.316-2.378c.416-.794.867-1.556,1.336-2.293s.911-1.478,1.356-2.2.945-1.4,1.405-2.078c.9-1.376,1.876-2.636,2.79-3.861s1.856-2.346,2.714-3.446c.9-1.061,1.752-2.077,2.58-3,1.668-1.844,3.159-3.423,4.428-4.683s2.3-2.215,3.006-2.867S4257.015,1417.492,4257.015,1417.492Z" transform="translate(-4154.461 -1401.412)" fill="#051e47"/>
        <path id="Path_96869" data-name="Path 96869" d="M4098.125,1415.029c-3.054.142-7.294.166-9.283-12.93s-1.161-16.411-2.818-19.561-10.941-25.86-19.229-31.828c0,0,9.284.995,14.92,5.968,0,0-1.161,1.326-.332,2.487s2.321-1.492,2.321-1.492,9.946,15.417,12.6,21.384c0,0-3.314,2.337-3.149,3.9s3.813,0,3.813,0,6.217,13.336,6.673,19.47S4105.253,1414.7,4098.125,1415.029Z" transform="translate(-4044.456 -1350.709)" fill="#2a2a75"/>
        <g id="Group_42300" data-name="Group 42300" transform="translate(53.009 61.082)">
          <path id="Path_96870" data-name="Path 96870" d="M4199.148,1675.939l-1.989-.02c.327-33.543-2.947-70.976-2.98-71.35l1.982-.175C4196.193,1604.769,4199.477,1642.3,4199.148,1675.939Z" transform="translate(-4194.18 -1604.394)" fill="#2a2a75"/>
        </g>
        <path id="Path_96871" data-name="Path 96871" d="M4020.52,1568.608s-10.32-4.973-11.812-13.8-1.74-16.121-5.222-20.183a6.315,6.315,0,0,1,3.108,0s-4.476-2.942-5.47-5.18-6.838-10.2-27.1-11.065c0,0,9.822-3.606,17.779,0,0,0,1.119-.647-1.491-3.369a34.309,34.309,0,0,1,11.935,2s-.373,5.1.871,5.1.995-4.476.995-4.476a27.754,27.754,0,0,1,10.851,5.595s-2.273,5.719-1.775,6.092,3.108-2.735,3.606-4.1a40.444,40.444,0,0,1,6.838,11.4l-4.725,7.5,6.223-4.5s3.72,6.916,4.15,14.045S4026.736,1567.116,4020.52,1568.608Z" transform="translate(-3974.021 -1475.445)" fill="#051e47"/>
        <path id="Path_96872" data-name="Path 96872" d="M4140.805,1626.319s1.026,4.026,2.469,10.079c.751,3.019,1.543,6.561,2.427,10.346.852,3.792,1.729,7.844,2.523,11.911s1.55,8.141,2.161,11.974c.32,1.915.613,3.767.854,5.53s.509,3.422.7,4.962.381,2.948.542,4.2c.133,1.253.249,2.344.345,3.244.189,1.8.3,2.826.3,2.826l1.979-.195-.335-2.846c-.107-.905-.238-2-.389-3.265-.178-1.257-.379-2.674-.6-4.221-.2-1.549-.5-3.214-.795-4.978s-.626-3.621-.993-5.536c-.705-3.836-1.558-7.908-2.457-11.966s-1.872-8.1-2.816-11.88c-.49-1.885-.937-3.715-1.426-5.432s-.936-3.345-1.356-4.845C4142.2,1630.236,4140.805,1626.319,4140.805,1626.319Z" transform="translate(-4100.647 -1559.958)" fill="#2a2a75"/>
        <path id="Path_96873" data-name="Path 96873" d="M4034.021,1744.229s-3.854-26.813-4.6-30.543-11.936-15.79-20.763-17.157-15.417-1.36-19.146,1.185c0,0,3.6-5.785,13.676-4.79l-2.114-1.243a64.014,64.014,0,0,0,7.833.87c2.736,0,3.2,1.741,4.523,1.741a7.588,7.588,0,0,1,5.051,2.486s14.422,4.849,13.179,16.66l3.73,30.792Z" transform="translate(-3985.782 -1609.581)" fill="#051e47"/>
      </g>
      <g id="Group_42302" data-name="Group 42302" transform="translate(27.579 125.824)">
        <path id="Path_96874" data-name="Path 96874" d="M4161.521,1873.28c-6.859,30.752-13.5,34.513-13.5,34.513h-31.857a289.159,289.159,0,0,1-9.6-34.513Z" transform="translate(-4102.229 -1873.28)" fill="#3d93c9"/>
        <path id="Path_96875" data-name="Path 96875" d="M4092.9,1873.28a289.322,289.322,0,0,0,9.6,34.513h-3.1c-7.743-13.717-10.84-34.513-10.84-34.513Z" transform="translate(-4088.563 -1873.28)" fill="#f4f4f4"/>
      </g>
    </g>
    <g id="Group_42306" data-name="Group 42306" transform="translate(-8746.874 -1578.311)" opacity="0.5">
      <path id="Path_96876" data-name="Path 96876" d="M5427.135,898.107l-2.433,38.165,4.3.034Z" transform="translate(-5367.033 -893.45)" fill="#183055"/>
      <path id="Path_96877" data-name="Path 96877" d="M5434.806,921.585V878.762h33.356v43.424Z" transform="translate(-5374.704 -878.762)" fill="#2a2a75"/>
      <path id="Path_96878" data-name="Path 96878" d="M5383.828,939.186c-1.259-.473-2.33.931-2.993,2.154a19.326,19.326,0,0,0-.864,1.819c.091-1.811.224-4.624.308-7.2a51.371,51.371,0,0,0,4.232-4.045c.719-.978,1.414-1.852-.09-2.421s-2.777,1.107-3.564,2.569c-.187.349-.355.686-.506,1.005.005-.424.008-.82.006-1.178a40.419,40.419,0,0,0,.865-5.613c-.068-1.2-.082-2.3-1.868-2.067s-1.706,2.311-1.34,3.967a24.972,24.972,0,0,0,1.106,3.581c.009.024.024.043.036.066,0,.6-.005,1.309-.023,2.094a23.74,23.74,0,0,0-1.535-2.7c-.634-.8-1.188-1.552-1.972-.46s.293,2.492,1.3,3.45a20.545,20.545,0,0,0,2.147,1.765c-.078,2.344-.195,4.9-.283,6.691a36.509,36.509,0,0,0-.985-4.477c-.451-1.127-.827-2.178-2.1-1.2s-.526,2.943.3,4.383a25.461,25.461,0,0,0,2.028,2.98.729.729,0,0,0,.658.3c-.011.211-.018.334-.019.345a.6.6,0,0,0,.567.633h.033a.6.6,0,0,0,.6-.568c0-.032.007-.114.014-.235a.351.351,0,0,0,.307-.095,48.239,48.239,0,0,0,3.7-3.517C5384.5,940.391,5385.086,939.659,5383.828,939.186Z" transform="translate(-5329.313 -913.245)" fill="#2a2a75"/>
      <path id="Path_96879" data-name="Path 96879" d="M5354.632,1007.106c2.105,10.621,4.143,11.92,4.143,11.92h9.78a109.857,109.857,0,0,0,2.948-11.92Z" transform="translate(-5313.834 -976.204)" fill="#fdb813"/>
      <path id="Path_96880" data-name="Path 96880" d="M5415.407,1007.106a110.253,110.253,0,0,1-2.949,11.92h.951c2.376-4.737,3.327-11.92,3.327-11.92Z" transform="translate(-5357.737 -976.204)" fill="#f4f4f4"/>
      <path id="Path_96881" data-name="Path 96881" d="M5312.765,975.648s1.034-3.965,6.723-5.861a8.686,8.686,0,0,1-2.327,6.637h-4.4Z" transform="translate(-5282.048 -947.87)" fill="#2a2a75"/>
      <path id="Path_96882" data-name="Path 96882" d="M5283.1,962.563s-2.328-4.654,1.724-11.033c0,0,3.879,3.534,1.81,11.033Z" transform="translate(-5259.022 -934.009)" fill="#2a2a75"/>
      <path id="Path_96883" data-name="Path 96883" d="M5304.532,950.929a13.364,13.364,0,0,0,1.982-5.6,23.077,23.077,0,0,0-.991-7.757s2.8,1.551,2.543,7.326l-.258,5.775Z" transform="translate(-5275.798 -923.41)" fill="#2a2a75"/>
      <g id="Group_42304" data-name="Group 42304" transform="translate(20.805 9.074)">
        <path id="Path_96884" data-name="Path 96884" d="M5281.508,935.5a.344.344,0,0,1-.342-.31c-1.094-10.94-9.364-18.06-9.448-18.131a.345.345,0,0,1,.446-.526c.085.073,8.565,7.374,9.688,18.588a.345.345,0,0,1-.309.377Z" transform="translate(-5271.597 -916.449)" fill="#2a2a75"/>
      </g>
      <g id="Group_42305" data-name="Group 42305" transform="translate(13.409 1.076)">
        <path id="Path_96885" data-name="Path 96885" d="M5250.077,892.745c.5,0,.81-.039.81-.039-.6-8.627-10.006-9.474-10.006-9.474.021.232.045.476.075.728C5243.2,884.387,5249.3,886.152,5250.077,892.745Z" transform="translate(-5240.881 -883.232)" fill="#3d93c9"/>
        <path id="Path_96886" data-name="Path 96886" d="M5250.313,895.039c-.781-6.592-6.878-8.358-9.122-8.785a11.335,11.335,0,0,0,2.856,6.513C5245.841,894.816,5248.872,895.053,5250.313,895.039Z" transform="translate(-5241.117 -885.526)" fill="#2a2a75"/>
      </g>
      <path id="Path_96887" data-name="Path 96887" d="M5298.81,914.192s-.045,5.717-5.22,6.5c0,0-.547-2.786,1-4.378A7.051,7.051,0,0,1,5298.81,914.192Z" transform="translate(-5267.419 -905.661)" fill="#2a2a75"/>
      <path id="Path_96888" data-name="Path 96888" d="M5257.649,931.051s4.928-2.9,8.26,1.138c0,0-2.109,1.9-4.268,1.393A7.054,7.054,0,0,1,5257.649,931.051Z" transform="translate(-5240.203 -917.696)" fill="#2a2a75"/>
      <path id="Path_96889" data-name="Path 96889" d="M5272.16,944.806s-2.046-4.678-6.57-5.163c0,0-.623,3.844,2.609,5.353S5272.16,944.806,5272.16,944.806Z" transform="translate(-5246.195 -924.984)" fill="#2a2a75"/>
      <path id="Path_96890" data-name="Path 96890" d="M5292.7,1056.613H5186.92a1.728,1.728,0,1,0,0,3.456h11.022l2.725,16.829h2.4l2.725-16.829h66.973l2.726,16.829h2.4l2.724-16.829H5292.7a1.728,1.728,0,1,0,0-3.456Z" transform="translate(-5185.192 -1013.79)" fill="#3d93c9"/>
      <path id="Path_96891" data-name="Path 96891" d="M5250.506,991.713c3.105,13.923,6.11,15.627,6.11,15.627h14.424a131.072,131.072,0,0,0,4.349-15.627Z" transform="translate(-5234.78 -964.517)" fill="#3d93c9"/>
      <path id="Path_96892" data-name="Path 96892" d="M5340.14,991.713a130.818,130.818,0,0,1-4.348,15.627h1.4c3.506-6.211,4.909-15.627,4.909-15.627Z" transform="translate(-5299.53 -964.517)" fill="#f4f4f4"/>
      <path id="Path_96893" data-name="Path 96893" d="M5481.664,938.021h0a6.94,6.94,0,0,1-6.919-6.92h0a6.94,6.94,0,0,1,6.919-6.92h0a6.94,6.94,0,0,1,6.92,6.92h0A6.94,6.94,0,0,1,5481.664,938.021Z" transform="translate(-5405.026 -913.245)" fill="#f4f4f4"/>
      <rect id="Rectangle_38265" data-name="Rectangle 38265" width="20.435" height="2.479" transform="translate(65.812 29.901)" fill="#f4f4f4"/>
      <rect id="Rectangle_38266" data-name="Rectangle 38266" width="20.435" height="2.479" transform="translate(65.812 33.77)" fill="#f4f4f4"/>
    </g>
    <g id="Group_42311" data-name="Group 42311" transform="translate(-8807.017 -1449.784)" opacity="0.5">
      <g id="Group_42309" data-name="Group 42309" transform="translate(0 0)">
        <g id="Group_42307" data-name="Group 42307" transform="translate(37.897 34.754)">
          <path id="Path_96894" data-name="Path 96894" d="M5093.446,1600.613l1.167-.093c-1.651-20.738.386-43.286.407-43.511l-1.165-.107C5093.833,1557.128,5091.787,1579.772,5093.446,1600.613Z" transform="translate(-5092.797 -1556.901)" fill="#051e47"/>
        </g>
        <path id="Path_96895" data-name="Path 96895" d="M5089.05,1468.235c1.18.485,2.85,1.062,6.093-5.974s3.537-8.994,4.782-10.53,9.172-12.961,13.565-15.186a11.145,11.145,0,0,0-8.142,1.754s.559.525.311.6c-.15.048-.506-.322-.506-.322s-6.467,6.87-8.634,9.844c0,0,.872,1.744.512,2.595s-1.417-1.551-1.417-1.551-5.543,7.269-6.874,10.628S5086.3,1467.1,5089.05,1468.235Z" transform="translate(-5050.764 -1430.651)" fill="#051e47"/>
        <path id="Path_96896" data-name="Path 96896" d="M4960.31,1570.955s-4.271.644-8.562-3.339c0,0,1.312-1.6.664-2.2s-2.111.944-2.111.944a26.749,26.749,0,0,0-3.664-4.34c-1.433-1.107-3.091-2.265-4.706-2.252,0,0,3.057-.3,3-.885s-5.193-2.719-9.524.283c0,0,.541-3.434,4.659-3.4a4.578,4.578,0,0,0-.777-1.907,6.394,6.394,0,0,1,3.293-.89,9.655,9.655,0,0,0,1.218,1.912c.661.743,1.266.169,1.042-1.352a10.236,10.236,0,0,0,5.828,1.7.957.957,0,1,0,1.476.074s1.708,2.4,3.017,3.008,5.056,2.071,6.094,4.392S4963.149,1568.469,4960.31,1570.955Z" transform="translate(-4935.406 -1519.157)" fill="#2a2a75"/>
        <path id="Path_96897" data-name="Path 96897" d="M4986.525,1572.715s.658.4,1.747,1.2a44.017,44.017,0,0,1,4.289,3.583,35.5,35.5,0,0,1,5.136,6.024,26.387,26.387,0,0,1,2.166,3.937c.621,1.415,1.035,2.9,1.62,4.314.566,1.408,1.2,2.806,1.867,4.157s1.357,2.667,2.052,3.925c1.39,2.516,2.783,4.813,4.01,6.76s2.3,3.539,3.052,4.648l1.2,1.727-1.039.728-1.177-1.777c-.737-1.134-1.775-2.763-2.971-4.748s-2.544-4.33-3.89-6.9a75.6,75.6,0,0,1-3.786-8.271c-.562-1.444-.947-2.946-1.5-4.325a25.856,25.856,0,0,0-2.01-3.91,35.527,35.527,0,0,0-4.9-6.115,43.8,43.8,0,0,0-4.158-3.7C4987.17,1573.137,4986.525,1572.715,4986.525,1572.715Z" transform="translate(-4974.216 -1534.153)" fill="#051e47"/>
        <path id="Path_96898" data-name="Path 96898" d="M4989.344,1474.083a36.957,36.957,0,0,1-12.48-13.553s2.925-1.56,2.633-2.243-2.438.1-3.12,0-3.315-1.95-5.558-7.02c0,0,2.828-.39,2.632-1.17s-1.121-.975-3.145-.585a39.34,39.34,0,0,0-2.9-5.558s1.366-.39,1.268-.877-3.51-1.267-3.51-1.267,5.363-1.56,13.065,1.852c0,0-.292,1.755.682,1.853s.976-1.17.976-1.17,3.939,2.048,4.943,3.9.518,6.63,1.1,7.118,1.755.1,2.438-.78c0,0,2.438,1.17,2.925,8.093A22.381,22.381,0,0,1,4989.344,1474.083Z" transform="translate(-4957.999 -1434.497)" fill="#2a2a75"/>
        <path id="Path_96899" data-name="Path 96899" d="M4991.123,1451.84s.98.705,2.55,2.117c.794.7,1.717,1.588,2.742,2.645.511.529,1.037,1.11,1.6,1.719.532.632,1.125,1.27,1.678,1.99s1.153,1.451,1.709,2.256c.283.4.582.8.864,1.218l.838,1.293c.59.86,1.078,1.816,1.632,2.76.266.479.495.983.749,1.481s.521,1,.726,1.529c.433,1.053.921,2.107,1.266,3.231.186.557.385,1.113.563,1.68s.332,1.13.5,1.7c.659,2.28,1.311,4.608,1.888,6.953s1.107,4.708,1.515,7.056.713,4.67,1.061,6.888.765,4.363,1.133,6.394.746,3.952,1.08,5.724c.682,3.542,1.3,6.482,1.771,8.525s.8,3.182.8,3.182l-1.083.309s-.343-1.176-.817-3.238-1.1-5.014-1.78-8.565c-.345-1.775-.7-3.7-1.063-5.74s-.755-4.18-1.1-6.43-.615-4.552-1.015-6.876-.874-4.673-1.425-7.008-1.167-4.656-1.8-6.937q-.242-.856-.478-1.7c-.168-.555-.356-1.1-.532-1.649-.323-1.1-.79-2.143-1.2-3.182-.194-.525-.466-1.011-.7-1.51s-.463-.992-.719-1.466l-.774-1.4c-.244-.467-.51-.915-.786-1.349l-.8-1.294c-.27-.42-.557-.821-.827-1.222-.532-.809-1.1-1.55-1.641-2.271s-1.092-1.38-1.6-2.027c-.532-.624-1.03-1.221-1.518-1.767-.981-1.084-1.857-2.013-2.6-2.754s-1.353-1.3-1.767-1.686S4991.123,1451.84,4991.123,1451.84Z" transform="translate(-4977.708 -1442.382)" fill="#051e47"/>
        <path id="Path_96900" data-name="Path 96900" d="M5099.649,1450.392c1.8.083,4.291.1,5.46-7.605s.683-9.653,1.657-11.5,6.436-15.21,11.31-18.72c0,0-5.459.585-8.774,3.51,0,0,.682.78.2,1.463s-1.366-.878-1.366-.878-5.849,9.068-7.41,12.578c0,0,1.951,1.375,1.853,2.3s-2.243,0-2.243,0-3.655,7.844-3.924,11.451S5095.456,1450.2,5099.649,1450.392Z" transform="translate(-5057.48 -1412.561)" fill="#2a2a75"/>
        <g id="Group_42308" data-name="Group 42308" transform="translate(39.62 35.926)">
          <path id="Path_96901" data-name="Path 96901" d="M5099.967,1603.849l1.169-.012c-.192-19.729,1.733-41.745,1.753-41.965l-1.165-.1C5101.7,1561.99,5099.773,1584.062,5099.967,1603.849Z" transform="translate(-5099.953 -1561.769)" fill="#2a2a75"/>
        </g>
        <path id="Path_96902" data-name="Path 96902" d="M5111.737,1540.721s6.069-2.925,6.946-8.117,1.024-9.482,3.072-11.871a3.711,3.711,0,0,0-1.828,0s2.633-1.731,3.218-3.047,4.022-6,15.941-6.508c0,0-5.777-2.121-10.457,0,0,0-.658-.38.877-1.982a20.175,20.175,0,0,0-7.02,1.177s.219,3-.512,3-.585-2.633-.585-2.633a16.323,16.323,0,0,0-6.383,3.291s1.337,3.364,1.044,3.583-1.828-1.609-2.121-2.413a23.789,23.789,0,0,0-4.022,6.7l2.778,4.412-3.66-2.646a23.066,23.066,0,0,0-2.44,8.261C5106.334,1536.123,5108.081,1539.844,5111.737,1540.721Z" transform="translate(-5065.351 -1485.925)" fill="#051e47"/>
        <path id="Path_96903" data-name="Path 96903" d="M5117.032,1574.665s-.6,2.368-1.452,5.928c-.442,1.775-.908,3.859-1.427,6.085-.5,2.23-1.017,4.614-1.484,7.006s-.912,4.788-1.271,7.043c-.188,1.126-.361,2.216-.5,3.252s-.3,2.013-.409,2.918l-.318,2.469c-.078.737-.146,1.379-.2,1.908-.111,1.058-.174,1.662-.174,1.662l-1.165-.115.2-1.674c.063-.532.14-1.179.228-1.92.1-.739.224-1.573.353-2.482s.293-1.891.467-2.928.368-2.129.583-3.256c.416-2.256.917-4.651,1.446-7.038s1.1-4.765,1.656-6.988c.288-1.109.551-2.185.838-3.2s.55-1.967.8-2.85C5116.213,1576.969,5117.032,1574.665,5117.032,1574.665Z" transform="translate(-5066.918 -1535.634)" fill="#2a2a75"/>
        <path id="Path_96904" data-name="Path 96904" d="M5121.263,1644.015s2.267-15.771,2.706-17.964,7.02-9.287,12.212-10.091,9.068-.8,11.262.7c0,0-2.121-3.4-8.044-2.818l1.243-.731a37.653,37.653,0,0,1-4.607.512c-1.608,0-1.883,1.024-2.66,1.024a4.461,4.461,0,0,0-2.97,1.462s-8.483,2.852-7.751,9.8l-2.194,18.111Z" transform="translate(-5075.902 -1564.82)" fill="#051e47"/>
      </g>
      <g id="Group_42310" data-name="Group 42310" transform="translate(22.64 74.005)">
        <path id="Path_96905" data-name="Path 96905" d="M5029.435,1719.918c4.033,18.087,7.937,20.3,7.937,20.3h18.738a170.2,170.2,0,0,0,5.648-20.3Z" transform="translate(-5029.435 -1719.918)" fill="#3d93c9"/>
        <path id="Path_96906" data-name="Path 96906" d="M5145.87,1719.918a170.292,170.292,0,0,1-5.648,20.3h1.822c4.554-8.067,6.375-20.3,6.375-20.3Z" transform="translate(-5113.546 -1719.918)" fill="#f4f4f4"/>
      </g>
    </g>
    <g id="Group_42335" data-name="Group 42335" transform="translate(-8961.361 -1588.292)">
      <g id="Group_42314" data-name="Group 42314" transform="translate(87.234 106.485)">
        <path id="Path_96926" data-name="Path 96926" d="M4684.5,1290.473a8.778,8.778,0,0,0-2.054-1.223c-3.509-1.858-5.72-5.755-9.433-7.161a16.213,16.213,0,0,0-4.051-.786c-2.928-.312-8.35-1.432-11.278-1.744l.176,1.913c-.957,3.069.253,4.95-1.184,7.826a42.315,42.315,0,0,0,6.705,3.666,56.235,56.235,0,0,1,6.343,2.859c.729.43,1.427.916,2.19,1.281a4.541,4.541,0,0,0,2.454.508,2.5,2.5,0,0,0,2-1.352,2.99,2.99,0,0,0,.623,0,2.33,2.33,0,0,0,1.948-1.443l-.084-.021.007-.013c.045.018.089.037.136.054a2.788,2.788,0,0,0,2.181-.052,1.8,1.8,0,0,0,1-1.748,4.088,4.088,0,0,0,.46.2,1.963,1.963,0,0,0,2.391-.6A1.88,1.88,0,0,0,4684.5,1290.473Z" transform="translate(-4656.681 -1279.559)" fill="#fdd0cd"/>
      </g>
      <g id="Group_42315" data-name="Group 42315" transform="translate(91.904 104.687)">
        <path id="Path_96927" data-name="Path 96927" d="M4686.161,1275.977a11.977,11.977,0,0,0-4.132-.255c-.94.117-1.843.468-2.787.555a3.512,3.512,0,0,1-2.672-.7c-.412-.368-.681-1.03-.335-1.46.314-.389.9-.338,1.4-.383,1.213-.11,2.217-.97,3.372-1.359a8.954,8.954,0,0,1,3.593-.192,29.1,29.1,0,0,1,5.547.817c1.1.311,2.167.752,3.281,1.022,1.43.347,4.188-.258,5.64-.5,1.423,3.21,1.171,7.254,1.837,10.7a2,2,0,0,0-1.541.648,28.4,28.4,0,0,1-6.494-4.567,28.636,28.636,0,0,0-3.085-2.745A9.866,9.866,0,0,0,4686.161,1275.977Z" transform="translate(-4676.076 -1272.094)" fill="#e8c0bf"/>
      </g>
      <g id="Group_42324" data-name="Group 42324" transform="translate(113.695 0)">
        <path id="Path_96928" data-name="Path 96928" d="M5122.037,2056.617v-8.067l-10.7,2.631v6.488Z" transform="translate(-5028.33 -1756.909)" fill="#01013a"/>
        <path id="Path_96929" data-name="Path 96929" d="M5260.491,2053.959l1.615,6.839,13.044-.526-2.172-7.716Z" transform="translate(-5141.568 -1759.95)" fill="#01013a"/>
        <g id="Group_42316" data-name="Group 42316" transform="translate(0 53.883)">
          <path id="Path_96930" data-name="Path 96930" d="M4817.564,1108.238a54.392,54.392,0,0,1-8.493,5.711c-13.053,4.246-39.416,11-39.416,11l-3.075-12.877s41.356-10.394,43.471-13.31,17.672-33.133,17.672-33.133,6.5-10.437,13.7.371a6.3,6.3,0,0,1,.9,2.4,101.582,101.582,0,0,1-6.224,13.866C4832.231,1089.319,4820.384,1105.628,4817.564,1108.238Z" transform="translate(-4766.581 -1061.095)" fill="#081858"/>
          <path id="Path_96931" data-name="Path 96931" d="M4947.836,1135.285c-1.218.487-2.857,1.059-4.78,1.685a54.44,54.44,0,0,0,8.493-5.711c2.819-2.611,14.666-18.92,18.536-25.977a101.854,101.854,0,0,0,6.224-13.867C4978.427,1103.207,4956.648,1131.76,4947.836,1135.285Z" transform="translate(-4900.564 -1084.115)" fill="#01013a"/>
        </g>
        <path id="Path_96932" data-name="Path 96932" d="M5062.015,1380.807s-15.063-1.461-23.044-3.843-28.282-2.27-34.279-.825-16.531-2.158-16.531-2.158l3.881-26.933,58.438-6.223S5054.754,1373.178,5062.015,1380.807Z" transform="translate(-4934.81 -1219.589)" fill="#01013a"/>
        <path id="Path_96933" data-name="Path 96933" d="M5044.934,2074.988s-19.673,2.86-19.718,7.551l-.023,2.345,33.377.322a45.492,45.492,0,0,0,.1-10.086Z" transform="translate(-4962.924 -1776.981)" fill="#603913"/>
        <path id="Path_96934" data-name="Path 96934" d="M5067.143,1341.67s6.715,83.563,19.834,167.64l-15.628,2.895s-7.958-29.594-14.816-63.661c-7.783-38.656-15.361-64.638-15.361-64.638s1.92,40.561,3.916,66.254c1.853,23.854,4.634,59.583,4.634,59.583l-15.447,2.146s-4.844-39.092-10.736-67.04-12.327-68.3-10.616-106.1C5012.922,1338.745,5049,1326.048,5067.143,1341.67Z" transform="translate(-4953.395 -1214.315)" fill="#081858"/>
        <path id="Path_96935" data-name="Path 96935" d="M5014.664,1381.668s27.64-6.732,51.31-4.461l.823,2.512s-29.248-1.239-52.069,4.313Z" transform="translate(-4954.931 -1246.855)" fill="#603913"/>
        <path id="Path_96936" data-name="Path 96936" d="M5207.406,2073.817s-19.6,3.345-19.525,8.035l.036,2.346,33.375-.5a45.5,45.5,0,0,0-.152-10.085Z" transform="translate(-5086.44 -1775.935)" fill="#603913"/>
        <g id="Group_42317" data-name="Group 42317" transform="translate(98.835 135.306)">
          <path id="Path_96937" data-name="Path 96937" d="M5187.846,1401.324a.36.36,0,0,0-.085-.692l-10.292-1.37a.36.36,0,1,0-.095.713l10.292,1.37A.353.353,0,0,0,5187.846,1401.324Z" transform="translate(-5177.062 -1399.26)" fill="#01013a"/>
        </g>
        <g id="Group_42318" data-name="Group 42318" transform="translate(63.642 138.019)">
          <path id="Path_96938" data-name="Path 96938" d="M5031.312,1413.219l.015,0,10.194-1.972a.36.36,0,0,0,.284-.422.345.345,0,0,0-.421-.285l-10.195,1.972a.36.36,0,0,0,.122.709Z" transform="translate(-5030.898 -1410.526)" fill="#01013a"/>
        </g>
        <g id="Group_42319" data-name="Group 42319" transform="translate(96.88 47.093)">
          <path id="Path_96939" data-name="Path 96939" d="M5217.337,1074.009a41.161,41.161,0,0,1,2.9,7.857c4.6,15.131,8.487,42.552,8.487,42.552L5215.8,1127s-8.439-45.18-10.887-48.294-30.327-31.562-30.327-31.562-13.1-10.125.638-14.069a18.439,18.439,0,0,1,3.085-.177,10.6,10.6,0,0,1,6.447,2.136,86.073,86.073,0,0,1,10.144,8.825C5201.207,1050.106,5215.433,1070.266,5217.337,1074.009Z" transform="translate(-5168.943 -1032.894)" fill="#081858"/>
        </g>
        <path id="Path_96940" data-name="Path 96940" d="M5047.576,1033.467s-15.905,1.438-22.859,4.226l-22.825,81.894a166.777,166.777,0,0,1,57.85-2.69S5048.223,1055.4,5047.576,1033.467Z" transform="translate(-4945.233 -986.236)" fill="#fff"/>
        <path id="Path_96941" data-name="Path 96941" d="M5181.572,1026.2s-1.443,24.323,1.493,40.635,10.927,48.616,13.066,53.266c0,0,4.866,18.444,12.456,21.835,0,0-5.952-27.768-7.819-50.269-1.948-23.487-.531-38.5-2.479-49.3C5197.122,1035.9,5198.745,1027.306,5181.572,1026.2Z" transform="translate(-5081.381 -980.722)" fill="#081858"/>
        <path id="Path_96942" data-name="Path 96942" d="M5017.511,1035.036s-15.747,49.671-22.1,86.014c0,0-.53,12.243-7.252,20.77,0,0,.98-7.828,1.316-19.277.547-18.67,3.212-23.675,2.633-35.463a142.191,142.191,0,0,1,1.081-25.943c1.133-9.718,3.875-18.62,11.184-22.192A46.372,46.372,0,0,1,5017.511,1035.036Z" transform="translate(-4934.81 -987.427)" fill="#081858"/>
        <path id="Path_96943" data-name="Path 96943" d="M5035.475,1036.2l-13.753,23.845,4.856,5.13-6.773,1.908-1.523,53.68s14.4-59.769,22.329-86.039C5040.61,1034.72,5038.642,1034.171,5035.475,1036.2Z" transform="translate(-4957.677 -987.136)" fill="#1a387b"/>
        <path id="Path_96944" data-name="Path 96944" d="M5180.4,1026.2s-2.267,26.005,1.211,43.545,10.417,40.953,10.417,40.953-6.992-40.943-3.95-57.233l-5.407-3.026,6.072-3.822Z" transform="translate(-5080.211 -980.722)" fill="#1a387b"/>
        <path id="Path_96945" data-name="Path 96945" d="M5088.31,1063.512s-11.144,18.342-10.021,69.443l10.475,13.636,5.871-15.475a386.77,386.77,0,0,1-2.335-67.629l2.169-3.028a2.168,2.168,0,0,0,.228-2.12l-.763-1.77a1.668,1.668,0,0,0-1.59-1.007l-2.932.1a2.046,2.046,0,0,0-1.388.61l-1.235,1.255a2.264,2.264,0,0,0-.351,2.709Z" transform="translate(-5003.175 -1003.01)" fill="#dd4b1d"/>
        <g id="Group_42320" data-name="Group 42320" transform="translate(66.299)">
          <path id="Path_96946" data-name="Path 96946" d="M5047.569,854.332s-3.338,4.986-2.319,13.355c0,0-2.893,4.072-3.3,7.08-.342,2.542,3.392,1.887,3.392,1.887s.3,5.526.486,7.711.314,3.979,3.014,4.291,7.836.143,9.018,2.541.5,7.093.5,7.093,4.916,1.212,7.642.613a43.577,43.577,0,0,0,9.161-3.151s-3.636-15.259-.383-21.828,4.264-15.986-1.713-20.059S5051.591,846.565,5047.569,854.332Z" transform="translate(-5041.932 -846.64)" fill="#fdd0cd"/>
          <path id="Path_96947" data-name="Path 96947" d="M5095.363,959.118a6.837,6.837,0,0,1-1.438.694s-.55,4.162-1.142,4.982-7.152,5.489-15.042,6.275c0,0,11.94-2.338,14.335-2.122s1.64,1.182.986,1.766-4.434,10.593-4.434,10.593,5.993,1.222,13.726-3.162c0,0-1.477-14.9-1.125-18.3S5095.363,959.118,5095.363,959.118Z" transform="translate(-5069.12 -929.032)" fill="#e8c0bf"/>
          <path id="Path_96948" data-name="Path 96948" d="M5055.032,844.216a9.409,9.409,0,0,1,2.137-2.705c1.672-1.578,3.2-3.66,8.34-3.929s12.591-1.126,16.5,2.686c0,0,7.073,2.872,7.914,10.254a17.719,17.719,0,0,1-2.988,12.237l-.647,2.244c-.521,1.848-1.662,3.44-2.531,3.479a12.962,12.962,0,0,1-4.975-.952s4.726-3.808,4.393-7.277-3.013-3.1-3.752-2.756-2.542,1.079-2.993,2.73c-.319,1.168-.829,2.848-.829,2.848a7.7,7.7,0,0,1-3.7-3,16.9,16.9,0,0,1-.893-4.765c-.313-4.826,3.18-10.3,2.094-10.356-10.571-.541-13.173,2.973-15.6,2.971C5055.354,847.928,5055.2,846.82,5055.032,844.216Z" transform="translate(-5051.877 -837.308)" fill="#081858"/>
        </g>
        <path id="Path_96949" data-name="Path 96949" d="M5143.621,1019.847a34.993,34.993,0,0,1-11.079,6.976l3.642,8.316s6.138-4.661,7.964-7.446l.557-8.649-1.251-.919Z" transform="translate(-5044.426 -974.588)" fill="#e6e7e8"/>
        <path id="Path_96950" data-name="Path 96950" d="M5101.548,1035.027l3.291,2.272-2.973,8.9-3.319-4.192,1.834-7.668,1.139-2.126Z" transform="translate(-5018.616 -985.286)" fill="#e6e7e8"/>
        <g id="Group_42323" data-name="Group 42323" transform="translate(119.784 136.582)">
          <path id="Path_96951" data-name="Path 96951" d="M5367.191,1475.477a1.227,1.227,0,0,0,1.487.813c.747-.1,1.292-.629,1.217-1.18a1.228,1.228,0,0,0-1.487-.813C5367.661,1474.4,5367.116,1474.927,5367.191,1475.477Z" transform="translate(-5342.354 -1457.493)" fill="#fdd0cd"/>
          <g id="Group_42322" data-name="Group 42322" transform="translate(0 12.806)">
            <g id="Group_42321" data-name="Group 42321" transform="translate(21.992)">
              <path id="Path_96952" data-name="Path 96952" d="M5357.925,1470.625a1.207,1.207,0,0,0,1.007-1.378l-.947-6.1,18.161-2.822.947,6.1a1.207,1.207,0,1,0,2.385-.37l-1.132-7.288a1.207,1.207,0,0,0-1.377-1.007l-20.545,3.193a1.206,1.206,0,0,0-1.006,1.377l1.132,7.288A1.206,1.206,0,0,0,5357.925,1470.625Z" transform="translate(-5355.401 -1457.745)" fill="#081858"/>
            </g>
            <path id="Path_96953" data-name="Path 96953" d="M5273.137,1529.725l63.685-9.9a2.8,2.8,0,0,0,2.34-3.2l-5.838-37.573a2.8,2.8,0,0,0-3.2-2.34l-63.685,9.9a2.8,2.8,0,0,0-2.34,3.2l5.838,37.573A2.8,2.8,0,0,0,5273.137,1529.725Z" transform="translate(-5264.063 -1472.122)" fill="#01013a"/>
          </g>
          <path id="Path_96954" data-name="Path 96954" d="M5368.79,1424.178a4.915,4.915,0,0,1-.485,2.481l-1.139,5.13,2.973-.494s2.135,1.83.04,2.436c-1.67.484-1.555,1.414-1.022,2.224a3.735,3.735,0,0,0,2.791,1.615c3.1.29,6.935-.269,9.268-2.276,1.681-1.446,1.678-3.366-.608-9.205-1.7-4.345-1.657-6.426-1.657-6.426l-10.637,2.069A6.649,6.649,0,0,1,5368.79,1424.178Z" transform="translate(-5342.341 -1416.026)" fill="#fdd0cd"/>
          <rect id="Rectangle_38269" data-name="Rectangle 38269" width="15.018" height="6.082" transform="matrix(-0.981, 0.196, -0.196, -0.981, 38.562, 5.964)" fill="#1a387b"/>
        </g>
      </g>
      <g id="Group_42334" data-name="Group 42334" transform="translate(0 12.708)">
        <g id="Group_42326" data-name="Group 42326" transform="translate(31.996 46.468)">
          <g id="Group_42325" data-name="Group 42325">
            <path id="Path_96955" data-name="Path 96955" d="M4436.088,1083.769s27.136,18.8,30.263,20.333,42.305-8.412,42.305-8.412l3.52,12.435s-32.962,8.209-42.611,9.282-30.3-11.236-30.3-11.236-12.85-3.961-11.951-15.177S4436.088,1083.769,4436.088,1083.769Z" transform="translate(-4427.267 -1083.08)" fill="#081858"/>
            <path id="Path_96956" data-name="Path 96956" d="M4767.033,1120.928a12.273,12.273,0,0,0,4.21-1.205c1.3-.884,2.733-2.9,5.344-4.465s4.49-.7,4.507-.092-3.3,1.444-4.211,3.3a55.742,55.742,0,0,1,6.46-2.163c1.842-.336,4.352-1.255,5.028-.148s3.035,6.077,1.807,8.083-9.053,6.471-13.931,5.866-6.647-.107-6.647-.107Z" transform="translate(-4685.225 -1106.838)" fill="#fdd0cd"/>
          </g>
          <path id="Path_96957" data-name="Path 96957" d="M4753.191,1133.957l3.4-.783s1.545,8.478,3.641,13.136l-3.021.781A33.753,33.753,0,0,1,4753.191,1133.957Z" transform="translate(-4674.715 -1121.112)" fill="#1a387b"/>
        </g>
        <g id="Group_42327" data-name="Group 42327" transform="translate(30.978 281.469)">
          <path id="Path_96958" data-name="Path 96958" d="M4431.294,2059.5l-.165,7.58,9.5.207,1.033-8.2Z" transform="translate(-4429.182 -2059.083)" fill="#01013a"/>
          <path id="Path_96959" data-name="Path 96959" d="M4425.022,2085.637s1.272,1.847,9.614.637c0,0,13.338,2.853,15.576,3.115s3.292.926,3.579,2.427a12.489,12.489,0,0,1-.079,3.629l-30.616.189S4422.525,2087.505,4425.022,2085.637Z" transform="translate(-4423.04 -2079.244)" fill="#603913"/>
        </g>
        <g id="Group_42328" data-name="Group 42328" transform="translate(0 277.985)">
          <path id="Path_96960" data-name="Path 96960" d="M4312.58,2044.61l-2.021,7.307,9.16,2.533,3.015-7.7Z" transform="translate(-4306.664 -2044.61)" fill="#01013a"/>
          <path id="Path_96961" data-name="Path 96961" d="M4298.7,2068.547s.78,2.1,9.163,2.979a34.624,34.624,0,0,0,7.518,3.594c3.028.928,6.162.59,7.1.946,2.1.8,2.963,1.706,2.874,3.232s-1.8,3.238-1.8,3.238l-15.141,0-14.027-4.774S4295.825,2069.745,4298.7,2068.547Z" transform="translate(-4294.382 -2062.784)" fill="#603913"/>
        </g>
        <path id="Path_96962" data-name="Path 96962" d="M4435.337,1519.336c1.118-9.781,3.821-43.732,3.821-43.732l3.747-27.339-17.824-3.274-.983,15.263c-2.3,14.471-1.2,64.6-1.2,64.6-6.409,36.02-2.455,71.411-2.455,71.411l6.333-.3c0-6.252-.05-20.961,1.128-31.09C4429.5,1551.187,4434.219,1529.117,4435.337,1519.336Z" transform="translate(-4389.175 -1311.383)" fill="#01013a"/>
        <path id="Path_96963" data-name="Path 96963" d="M4467.015,1521.1c2.316-14.221,7.768-76.1,7.768-76.1h-8.762l-3.094,30.612s-2.7,33.95-3.821,43.732-5.838,31.851-7.431,45.539c-1.179,10.129-1.131,24.838-1.129,31.09h7.7S4464.7,1535.318,4467.015,1521.1Z" transform="translate(-4412.945 -1311.383)" fill="#081858"/>
        <path id="Path_96964" data-name="Path 96964" d="M4325.645,1430.228s-2.975,9.352-.309,38.4,1.648,40.643,1.648,40.643l-18.782,70.471,15.061,3.934s20.344-54.672,24.184-72.814c2.03-9.594,5.033-29.679,7.413-46.478l4.208-30.6Z" transform="translate(-4304.875 -1300.174)" fill="#081858"/>
        <path id="Path_96965" data-name="Path 96965" d="M4506.919,1480.724c1.922-13.573,3.4-24.781,3.4-24.781Z" transform="translate(-4455.745 -1319.697)" fill="#081858"/>
        <g id="Group_42329" data-name="Group 42329" transform="translate(23.556 133.544)">
          <path id="Path_96966" data-name="Path 96966" d="M4421.744,1446.937s-18.631-.906-29.27-2.216a2.3,2.3,0,0,0-.041,2.139s22.4,2.272,38.147,2.5l-.044-2.013Z" transform="translate(-4392.213 -1444.721)" fill="#01013a"/>
          <path id="Path_96967" data-name="Path 96967" d="M4519.608,1451.436l-5.541-.473-.361,3.109,5.49.228Z" transform="translate(-4484.454 -1449.46)" fill="#dd4b1d"/>
        </g>
        <path id="Path_96968" data-name="Path 96968" d="M4329.169,1063.176s-14.9,5.379-15.8,11.765,12.713,56.925,17.265,78.756c0,0,32.626,4.918,40.055,1.08,0,0-4-39.069-6.185-51.775s-.086-34.931-18.954-37.378C4337.165,1064.537,4329.169,1063.176,4329.169,1063.176Z" transform="translate(-4308.767 -1021.5)" fill="#f4f4f4"/>
        <path id="Path_96969" data-name="Path 96969" d="M4322.873,1068.216s16.974,6.96,18.357,9.72,6.663,21.155,5.211,34.514-2.317,12.837-1.116,29.219-9.163,20.663-9.163,20.663l-15.739,3.3s1.646-18.73-.743-34.641-10.33-38.281-10.694-46.4S4310.838,1071.844,4322.873,1068.216Z" transform="translate(-4305.442 -1025.327)" fill="#081858"/>
        <path id="Path_96970" data-name="Path 96970" d="M4466.172,1079.009l-.9,6.445s3.259,9.5,6.48,16.188,7.623,7.4,9.939,25.743l1.06,8.03s3.316-6.5,2.348-19.551S4474.023,1078.049,4466.172,1079.009Z" transform="translate(-4424.128 -1033.5)" fill="#081858"/>
        <path id="Path_96971" data-name="Path 96971" d="M4354.129,1072.44l17.771,17.394,4.95,1.17h-6.57Z" transform="translate(-4339.743 -1028.534)" fill="#01013a"/>
        <path id="Path_96972" data-name="Path 96972" d="M4432.321,1149.54l-3.864,6.66,6.092,37.075-7.356-36.193Z" transform="translate(-4395.215 -1087.069)" fill="#1a387b"/>
        <path id="Path_96973" data-name="Path 96973" d="M4390.584,1444.992s-1.635,3.243-15.536,5.74l-.171,4.457S4387.688,1451.4,4390.584,1444.992Z" transform="translate(-4355.496 -1311.383)" fill="#01013a"/>
        <g id="Group_42330" data-name="Group 42330" transform="translate(36.528 50.799)">
          <path id="Path_96974" data-name="Path 96974" d="M4448.884,1103.13a3.079,3.079,0,0,0,.012-1.28l-2.228-.786-.579,2.665a1.974,1.974,0,0,0,1.2.89c1.441,2.3,4.17,16.522,7.641,40.2,2.659,18.137,3,15.038,4.354,34.189l4.472,4.864,2.923-5.566s-6.041-28.946-9.294-48C4454.839,1115.4,4450.639,1104.885,4448.884,1103.13Z" transform="translate(-4446.09 -1101.064)" fill="#dd4b1d"/>
        </g>
        <g id="Group_42332" data-name="Group 42332" transform="translate(12.459 52.124)">
          <g id="Group_42331" data-name="Group 42331">
            <path id="Path_96975" data-name="Path 96975" d="M4374.312,1150.068a51.325,51.325,0,0,0,8.674,4.526c12.773,2.561,38.347,5.963,38.347,5.963l1.3-12.858s-40.094-5.147-42.437-7.724-21.885-29.225-21.885-29.225-6.172-10.157-11.6,1.187a6.31,6.31,0,0,0-.552,2.435,101.2,101.2,0,0,0,7.551,12.709C4358.214,1133.464,4371.344,1147.871,4374.312,1150.068Z" transform="translate(-4346.152 -1106.568)" fill="#081858"/>
            <path id="Path_96976" data-name="Path 96976" d="M4378.264,1178.137c1.2.328,2.812.687,4.694,1.064a51.341,51.341,0,0,1-8.674-4.526c-2.968-2.2-16.1-16.6-20.6-22.987a101.2,101.2,0,0,1-7.551-12.709C4345.6,1150.67,4369.56,1175.769,4378.264,1178.137Z" transform="translate(-4346.125 -1131.175)" fill="#01013a"/>
          </g>
          <path id="Path_96977" data-name="Path 96977" d="M4647.517,1273.194l3.595.76-1.4,13.359-3.771-.25Z" transform="translate(-4573.75 -1233.074)" fill="#1a387b"/>
        </g>
        <g id="Group_42333" data-name="Group 42333" transform="translate(3.145)">
          <path id="Path_96978" data-name="Path 96978" d="M4372.815,897.543s4.287,4.237,4.962,12.679c0,0,3.848,3.547,4.638,6.531.259.979-2.933,2.313-2.933,2.313s.812,5.5,1.069,7.687.49,3.979-2.1,4.828-7.684,1.713-8.366,4.31-.238,7.314-.238,7.314a36,36,0,0,0-5.52-5.421c-2.329-1.563-6.067-4.562-10.937-5.608,0,0,1.1-4.077-3.426-9.889s-7.4-14.877-2.339-20.086S4367.3,890.706,4372.815,897.543Z" transform="translate(-4335.916 -893.472)" fill="#fdd0cd"/>
          <path id="Path_96979" data-name="Path 96979" d="M4379.287,1014.76a6.88,6.88,0,0,0,1.555.394s1.378,3.986,2.125,4.674,8.141,3.967,16.063,3.157c0,0-12.222.095-14.535.789s-1.377,1.493-.615,1.936,5.344,5.271,5.344,5.271a38.447,38.447,0,0,0-13.447-4.232s-.365-6.853-1.394-10.126S4379.287,1014.76,4379.287,1014.76Z" transform="translate(-4358.175 -984.513)" fill="#e8c0bf"/>
          <path id="Path_96980" data-name="Path 96980" d="M4351.379,917.634s-14.244-.546-17.962-7.838a17.548,17.548,0,0,0-.37-3.707c-.91-4.529-4.1-6.214-3.254-6.924,7.1-5.924,13.656-3.058,16.093-3.709,2.162-.577-4.224-6.382-14.622-5.213-5.313.6-9.06.982-14.5,4.373a3.773,3.773,0,0,0-1.395-2.391c-1.323-1.15-5.15-1.672-5.64.587,0,0-2.832,1.327-2.181,4.148.39,1.7.733,2.292,3.023,2.488s2.689-.27,2.689-.27-3.714,5.772,4.125,15.258h0a29.051,29.051,0,0,0,2.748,3.757c.993,1.563,2.559,3.631,3.441,3.434a14.444,14.444,0,0,0,4.761-2.208s-5.719-2.243-6.265-5.526a2.768,2.768,0,0,1,3.073-3.542c.83.117,2.829.313,3.7,1.714.617.99,1.558,2.4,1.558,2.4a13.244,13.244,0,0,1,.557,8.431s3.927,6.812,6.569,8.691,12.726,3.27,14.464,2.716,3.914-1.115,3.722-2.686C4355.07,926.374,4351.379,917.634,4351.379,917.634Z" transform="translate(-4307.446 -890.088)" fill="#081858"/>
        </g>
      </g>
    </g>
    <g id="Group_42340" data-name="Group 42340" transform="translate(-9038.498 -1464.676)">
      <path id="Path_97002" data-name="Path 97002" d="M4093.306,1445.367c-2.005.825-4.845,1.805-10.358-10.157s-6.013-15.292-8.131-17.9-15.595-22.037-23.064-25.82c0,0,7.75-1.587,13.843,2.982,0,0-.95.892-.529,1.026.258.082.86-.547.86-.547s11,11.681,14.682,16.737c0,0-1.481,2.965-.87,4.412s2.409-2.637,2.409-2.637,9.424,12.359,11.687,18.069S4097.985,1443.442,4093.306,1445.367Z" transform="translate(-4033.036 -1381.466)" fill="#051e47"/>
      <path id="Path_97003" data-name="Path 97003" d="M4098.125,1415.029c-3.054.142-7.294.166-9.283-12.93s-1.161-16.411-2.818-19.561-10.941-25.86-19.229-31.828c0,0,9.284.995,14.92,5.968,0,0-1.161,1.326-.332,2.487s2.321-1.492,2.321-1.492,9.946,15.417,12.6,21.384c0,0-3.314,2.337-3.149,3.9s3.813,0,3.813,0,6.217,13.336,6.673,19.47S4105.253,1414.7,4098.125,1415.029Z" transform="translate(-4044.456 -1350.709)" fill="#2a2a75"/>
      <path id="Path_97004" data-name="Path 97004" d="M4020.52,1568.608s-10.32-4.973-11.812-13.8-1.74-16.121-5.222-20.183a6.315,6.315,0,0,1,3.108,0s-4.476-2.942-5.47-5.18-6.838-10.2-27.1-11.065c0,0,9.822-3.606,17.779,0,0,0,1.119-.647-1.491-3.369a34.309,34.309,0,0,1,11.935,2s-.373,5.1.871,5.1.995-4.476.995-4.476a27.754,27.754,0,0,1,10.851,5.595s-2.273,5.719-1.775,6.092,3.108-2.735,3.606-4.1a40.444,40.444,0,0,1,6.838,11.4l-4.725,7.5,6.223-4.5s3.72,6.916,4.15,14.045S4026.736,1567.116,4020.52,1568.608Z" transform="translate(-3974.021 -1475.445)" fill="#051e47"/>
    </g>
  </g>
</svg>
