<svg xmlns="http://www.w3.org/2000/svg" xmlns:xlink="http://www.w3.org/1999/xlink" width="284.969" height="283.082" viewBox="0 0 284.969 283.082">
  <defs>
    <radialGradient id="radial-gradient" cx="0.5" cy="0.5" r="0.386" gradientTransform="matrix(-1.268, 0.153, 0.256, 1.284, 34.441, -1.999)" gradientUnits="objectBoundingBox">
      <stop offset="0" stop-color="#cba365"/>
      <stop offset="0.903" stop-color="#fff"/>
    </radialGradient>
    <clipPath id="clip-path">
      <circle id="Ellipse_134" data-name="Ellipse 134" cx="32.915" cy="32.915" r="32.915" transform="translate(458.879 167.098) rotate(-45)" fill="#7ab6f6"/>
    </clipPath>
    <clipPath id="clip-path-2">
      <path id="Path_95408" data-name="Path 95408" d="M636.514,172.706a42.4,42.4,0,1,1-58.609-12.644A42.395,42.395,0,0,1,636.514,172.706Z" fill="none"/>
    </clipPath>
    <clipPath id="clip-path-3">
      <path id="Path_95417" data-name="Path 95417" d="M693.384,145.784a24.024,24.024,0,1,1-33.21-7.164A24.026,24.026,0,0,1,693.384,145.784Z" fill="#cbcfff"/>
    </clipPath>
    <clipPath id="clip-path-4">
      <circle id="Ellipse_137" data-name="Ellipse 137" cx="18.75" cy="18.75" r="18.75" transform="translate(550.75 108.75)" fill="#fff" opacity="0.3"/>
    </clipPath>
    <clipPath id="clip-path-5">
      <circle id="Ellipse_139" data-name="Ellipse 139" cx="19" cy="19" r="19" transform="translate(662.61 211.719)" fill="#fff"/>
    </clipPath>
    <clipPath id="clip-path-6">
      <circle id="Ellipse_141" data-name="Ellipse 141" cx="17.25" cy="17.25" r="17.25" transform="translate(444.736 224.282)" fill="#cbcfff"/>
    </clipPath>
  </defs>
  <g id="Group_42090" data-name="Group 42090" transform="translate(-746.731 -1378.209)">
    <circle id="Ellipse_132" data-name="Ellipse 132" cx="94.49" cy="94.49" r="94.49" transform="translate(815.808 1378.209)" fill="#cbcfff" opacity="0.6"/>
    <path id="Path_95112" data-name="Path 95112" d="M714.453,241.575a69.731,69.731,0,1,1-92.312-34.687A69.731,69.731,0,0,1,714.453,241.575Z" transform="translate(311 1275)" fill="#da97b8" opacity="0.3"/>
    <path id="Path_95113" data-name="Path 95113" d="M611.183,217.294a91.817,91.817,0,1,1-121.55-45.674A91.818,91.818,0,0,1,611.183,217.294Z" transform="translate(311 1275)" fill="#cae1fc"/>
    <g id="Group_41880" data-name="Group 41880" transform="translate(311 1275)">
      <g id="Group_41879" data-name="Group 41879">
        <path id="Path_95364" data-name="Path 95364" d="M508.689,260.833s-14.65,5.85-15.146,21.454l4.75,5.732S507.358,266.673,508.689,260.833Z" fill="#e7a588"/>
        <path id="Path_95365" data-name="Path 95365" d="M505.381,263.2s-8.435,6.433-6.708,24.2l4.248.653S505.074,268.762,505.381,263.2Z" fill="#f4d7b6" style="mix-blend-mode: multiply;isolation: isolate"/>
        <path id="Path_95366" data-name="Path 95366" d="M515.371,256.524s-12.394.915-16.13,24.371l6.992,2.186S514.039,262.364,515.371,256.524Z" fill="#e7a588"/>
        <path id="Path_95367" data-name="Path 95367" d="M513.331,257.475s-8.434,6.434-6.707,24.2l4.249.653S513.023,263.034,513.331,257.475Z" fill="#f4d7b6" style="mix-blend-mode: multiply;isolation: isolate"/>
        <path id="Path_95368" data-name="Path 95368" d="M521.556,251.075s-11.686,2.62-15.308,27.763l8.109.046S520.239,257.332,521.556,251.075Z" fill="#e7a588"/>
        <path id="Path_95369" data-name="Path 95369" d="M523.439,250.069s-10.366,7.649-8.717,28.128l5.125.645S522.929,256.5,523.439,250.069Z" fill="#f4d7b6" style="mix-blend-mode: multiply;isolation: isolate"/>
        <path id="Path_95370" data-name="Path 95370" d="M531.162,321.894c-2.25,2.064-9.893,5.983-11.18,11.829l-.075,11.236s-1.075,2.757-10.891,6.444-20.171,2.111-20.171,2.111l5.028-21.977c-4.6-16.306-.33-49.25-.33-49.25.114-3.28,20.369-6.239,20.591-3.3.427-2.851.449-3.092.989-5.7,1.387-8.375,6.536-22.893,6.536-22.893,1.98-6.708,3.307-8.513,6.013-8.133s.575,6.4.463,9.676c0,0-6.227,25.885-4.808,40.185s3.01,10.918,5.692,10.268,2.776-4.421,6.169-12.81c3.782-10.494,8.233-6.833,8.233-6.833C539.577,312.458,537.905,315.694,531.162,321.894Z" fill="#e7a588"/>
      </g>
      <path id="Path_95371" data-name="Path 95371" d="M543.28,283.623a7.748,7.748,0,0,0-4.231,6.088l3.124.617Z" fill="#f4d7b6" style="mix-blend-mode: multiply;isolation: isolate"/>
    </g>
    <path id="Path_95372" data-name="Path 95372" d="M670.784,287.612s-7.776-10.4-12.05-8.8S644.691,293.01,646.6,296.259s4.772-6.1,9.893-8.824,8.785,8.652,12.243,8.31S670.784,287.612,670.784,287.612Z" transform="translate(311 1275)" fill="#ee9a7c"/>
    <path id="Path_95373" data-name="Path 95373" d="M664.206,268.468s-9.919-9.216-16.239-1.6-14.5,20.587-10.917,23.169,6.826-7.929,12.691-13.437c4.624-4.338,14.47,3.495,17.37,1.07S664.206,268.468,664.206,268.468Z" transform="translate(311 1275)" fill="#ee9a7c"/>
    <path id="Path_95374" data-name="Path 95374" d="M625.847,182.039A42.4,42.4,0,1,1,567.238,169.4,42.395,42.395,0,0,1,625.847,182.039Z" transform="translate(311 1275)" fill="#7ab6f6"/>
    <path id="Path_95375" data-name="Path 95375" d="M613.2,240.646a42.558,42.558,0,0,0,4.52-3.37c-2.136-7.779-2.767-13.4-5.266-15.307-2.84-2.171-12.193-8.35-12.193-8.35-10.354,7.515-19.2.334-19.2.334s-8.85,5.344-12.358,8.684c-2.455,2.338-4.009,10.808-4.721,15.683A42.4,42.4,0,0,0,613.2,240.646Z" transform="translate(311 1275)" fill="#fa7071"/>
    <path id="Path_95376" data-name="Path 95376" d="M665.37,275.347s-13.1-5.264-15.94-1.064-10.619,22.259-6.992,24.228,7.221-8.665,10.142-14.483,12.953,2.952,15.816.479S665.37,275.347,665.37,275.347Z" transform="translate(311 1275)" fill="#eea386"/>
    <path id="Path_95377" data-name="Path 95377" d="M666.563,285.353s-11.919-4.84-14.636-.644-10.33,22.128-7.042,23.971,6.861-8.694,9.693-14.479,11.843,2.572,14.539.07S666.563,285.353,666.563,285.353Z" transform="translate(311 1275)" fill="#eea386"/>
    <path id="Path_95378" data-name="Path 95378" d="M637.879,285.591c1.64,10.568,9.56,18.115,17.693,16.852s13.395-10.852,11.754-21.422-9.558-18.116-17.692-16.854S636.239,275.021,637.879,285.591Z" transform="translate(311 1275)" fill="url(#radial-gradient)" style="mix-blend-mode: multiply;isolation: isolate"/>
    <path id="Path_95379" data-name="Path 95379" d="M661.63,259.013s-17.891-4.248-23.191,5.333c-4.24,7.66-6.727,14.763-3.7,17.158s4.708-10.216,13.094-12.336,14.345,4.391,14.345,4.391S666.193,259.123,661.63,259.013Z" transform="translate(311 1275)" fill="#e7a588"/>
    <path id="Path_95380" data-name="Path 95380" d="M632.865,230.061s-.063,9.045,10.351,25.839l-2.578,1.664,1.585-1.024-2.579,1.662c-11.006-16.41-19.273-20.08-19.273-20.08Z" transform="translate(311 1275)" fill="#445998"/>
    <path id="Path_95381" data-name="Path 95381" d="M677.4,299.151a5.77,5.77,0,0,1,.651,4.7,7.263,7.263,0,0,1-3.089,4.111l-.847.547c-3.345,2.158-7.614,1.49-9.539-1.49l-30.286-46.947a4.881,4.881,0,0,1-.551-3.976,6.141,6.141,0,0,1,2.615-3.481l2.93-1.89c2.679-1.73,6.1-1.195,7.644,1.194Z" transform="translate(311 1275)" fill="#7ab6f6"/>
    <path id="Path_95382" data-name="Path 95382" d="M636.514,172.706a42.4,42.4,0,1,1-58.609-12.644A42.395,42.395,0,0,1,636.514,172.706Z" transform="translate(311 1275)" fill="#fff" opacity="0.4"/>
    <g id="Group_41881" data-name="Group 41881" transform="translate(311 1275)">
      <rect id="Rectangle_38179" data-name="Rectangle 38179" width="20.605" height="16.75" transform="translate(601.773 135.308) rotate(-75.25)" fill="#fff" opacity="0.8"/>
      <path id="Path_95383" data-name="Path 95383" d="M625.239,121.784a4.035,4.035,0,1,1-2.875-4.931A4.035,4.035,0,0,1,625.239,121.784Z" fill="#fa968d"/>
      <path id="Path_95384" data-name="Path 95384" d="M619.419,119.5l1.17,2.876,3.7-2.665-2.949,1.043Z" fill="#fff"/>
      <rect id="Rectangle_38180" data-name="Rectangle 38180" width="0.625" height="10.25" transform="matrix(0.255, -0.967, 0.967, 0.255, 608.179, 123.745)" fill="#cbcfff"/>
      <rect id="Rectangle_38181" data-name="Rectangle 38181" width="0.625" height="10.25" transform="matrix(0.255, -0.967, 0.967, 0.255, 607.605, 125.921)" fill="#cbcfff"/>
      <rect id="Rectangle_38182" data-name="Rectangle 38182" width="0.625" height="10.251" transform="translate(607.032 128.097) rotate(-75.253)" fill="#cbcfff"/>
      <rect id="Rectangle_38183" data-name="Rectangle 38183" width="0.625" height="10.25" transform="matrix(0.255, -0.967, 0.967, 0.255, 606.46, 130.273)" fill="#cbcfff"/>
    </g>
    <g id="Group_41885" data-name="Group 41885" transform="translate(311 1275)">
      <rect id="Rectangle_38201" data-name="Rectangle 38201" width="16.75" height="20.605" transform="translate(515.385 214.558) rotate(-17.312)" fill="#fff" opacity="0.8"/>
      <path id="Path_95386" data-name="Path 95386" d="M534.225,210.313a4.036,4.036,0,1,1-5.054-2.653A4.035,4.035,0,0,1,534.225,210.313Z" fill="#7ab6f6"/>
      <rect id="Rectangle_38202" data-name="Rectangle 38202" width="10.25" height="0.625" transform="translate(520.622 220.434) rotate(-17.314)" fill="#cbcfff"/>
      <rect id="Rectangle_38203" data-name="Rectangle 38203" width="10.249" height="0.625" transform="translate(521.29 222.582) rotate(-17.311)" fill="#cbcfff"/>
      <rect id="Rectangle_38204" data-name="Rectangle 38204" width="10.251" height="0.625" transform="matrix(0.955, -0.298, 0.298, 0.955, 521.96, 224.731)" fill="#cbcfff"/>
      <rect id="Rectangle_38205" data-name="Rectangle 38205" width="10.25" height="0.625" transform="translate(522.63 226.878) rotate(-17.311)" fill="#cbcfff"/>
      <g id="Group_41884" data-name="Group 41884">
        <path id="Path_95387" data-name="Path 95387" d="M531.5,212.207l-.9.288-.156-.485a1.188,1.188,0,0,1-.076-.5,1.855,1.855,0,0,1,.2-.515l.394-.766a.736.736,0,0,0,.024-.551.7.7,0,0,0-.347-.427.689.689,0,0,0-.556-.037.75.75,0,0,0-.444.348.792.792,0,0,0-.075.572l-.961.308a1.7,1.7,0,0,1,.2-1.285,1.852,1.852,0,0,1,1.05-.78,1.782,1.782,0,0,1,1.276.016,1.417,1.417,0,0,1,.79.934,1.265,1.265,0,0,1-.007.878,3.549,3.549,0,0,1-.144.344c-.036.07-.084.161-.145.271s-.113.205-.153.285-.075.148-.1.2a.791.791,0,0,0,.015.539Zm.133,1.9a.644.644,0,0,1-.489-.032.574.574,0,0,1-.315-.354.591.591,0,0,1,.045-.475.623.623,0,0,1,.373-.313.65.65,0,0,1,.488.032.578.578,0,0,1,.316.355.6.6,0,0,1-.045.474A.62.62,0,0,1,531.635,214.109Z" fill="#fff"/>
      </g>
    </g>
    <path id="Path_95388" data-name="Path 95388" d="M641.279,169.629a48.069,48.069,0,1,0-14.334,66.453A48.067,48.067,0,0,0,641.279,169.629ZM623.87,231.313a42.4,42.4,0,1,1,12.644-58.607A42.4,42.4,0,0,1,623.87,231.313Z" transform="translate(311 1275)" fill="#2a2b7c"/>
    <path id="Path_95389" data-name="Path 95389" d="M679.689,287.112c-4.173-8.587-11.317-24.88-17.461-27.833s-2.5,6.78-2.5,6.78a115.827,115.827,0,0,0,3.777,12.909c2.518,7.067,1.35,16.09-.329,16.705s-5.321-32.521-14.126-34.35c-5.853-1.218-.807,20.117-1.368,42.537s.1,20.466,6.776,32.372,2.754,17.232,10.882,36.568c7.983-2.3,23.341-2.552,29.984-7.008-4.141-13.449-13.571-25.636-14.732-36.2C678.868,313.876,683.863,295.7,679.689,287.112Z" transform="translate(311 1275)" fill="#e7a588"/>
    <path id="Path_95390" data-name="Path 95390" d="M653.389,268.95l-5.821.962s-1.245-5.516,1.309-6.15C652.687,262.814,653.389,268.95,653.389,268.95Z" transform="translate(311 1275)" fill="#fff" opacity="0.3"/>
    <path id="Path_95391" data-name="Path 95391" d="M490.5,334.5l32-.5-9,40.5s-2.833,4.5-24.167,5.833S469.5,375,469.5,375Z" transform="translate(311 1275)" fill="#2a2b7c"/>
    <path id="Path_95392" data-name="Path 95392" d="M652.5,342l34-11,18,42s-5.832,4.667-19.166,10.667S662,383.5,662,383.5Z" transform="translate(311 1275)" fill="#2a2b7c"/>
    <path id="Path_95393" data-name="Path 95393" d="M612.789,163.271s-28.582-12.037-46.7,29.5C566.092,192.775,565.286,146.1,612.789,163.271Z" transform="translate(311 1275)" fill="#fff"/>
    <g id="Group_41889" data-name="Group 41889" transform="translate(311 1275)">
      <g id="Group_41888" data-name="Group 41888">
        <circle id="Ellipse_133" data-name="Ellipse 133" cx="32.915" cy="32.915" r="32.915" transform="translate(458.879 167.098) rotate(-45)" fill="#7ab6f6"/>
        <g id="Group_41887" data-name="Group 41887" clip-path="url(#clip-path)">
          <g id="Group_41886" data-name="Group 41886">
            <path id="Path_95394" data-name="Path 95394" d="M519.2,162.791a17,17,0,0,0-2.226-8.46c-4.3-6.729-12.385-10.226-19.476-5.349a8.891,8.891,0,0,0-3.831,6.741c-.225,2.6,2.024,7.083.182,9.346-1.5,1.839-4.58,3.039-6.372,4.744-2.513,2.39-5.353,6.242-6.084,9.638-1.229,5.71,3.177,10.39,8.2,12.165,7.866,2.778,15.67,1.406,23.332-1.137,4.428-1.47,12.893-.12,14.89-5.264,1.462-3.769-3.642-5.684-5.55-7.94C518.948,173.354,519.483,167.969,519.2,162.791Z" fill="#2e3054"/>
            <path id="Path_95395" data-name="Path 95395" d="M481,193.787s5.161,5.012,22.453,6.833,25.4-6.833,25.4-6.833c-1.191-3.135-5.568-12.533-16.318-16.223,0,0-13.381-.776-15.126-.971C497.407,176.593,483.758,181.447,481,193.787Z" fill="#fff"/>
            <path id="Path_95396" data-name="Path 95396" d="M502.768,164.782c-.93,1.542.14,5.17-.646,6.785A10.879,10.879,0,0,1,498.081,176c-1.614.939-1.007,1.457.146,3.284,1.339,2.124,9.251,10.16,11.735,9.018,4.374-2.011,5.621-8.453,2.646-11.791a11.525,11.525,0,0,1-2.76-4.8c-.431-1.684.529-5.947-.676-6.932-.6-.492-5.11-.9-5.82-.55A1.4,1.4,0,0,0,502.768,164.782Z" fill="#e6975e"/>
            <path id="Path_95397" data-name="Path 95397" d="M511.666,175.364a10.36,10.36,0,0,1-1.818-3.648c-.431-1.684.529-5.947-.676-6.932-.473-.386-3.354-.721-4.913-.678.036,1.512.217,3.164-.247,4.117a5.48,5.48,0,0,1-1.308,1.7,9.1,9.1,0,0,0,6.219,5.56A4.564,4.564,0,0,0,511.666,175.364Z" fill="#b9b3c0" style="mix-blend-mode: multiply;isolation: isolate"/>
            <path id="Path_95398" data-name="Path 95398" d="M516.932,157.271s1.589,16.723-6.339,16.872-11.437-8.992-11.852-15.615c-.461-7.414.273-9.648,9.526-9.928C517.188,148.329,516.932,157.271,516.932,157.271Z" fill="#e6975e"/>
            <path id="Path_95399" data-name="Path 95399" d="M503.176,147.846c-3.371,1.434-4.984,4.361-5.377,8.327-.375,3.78,2.244,7.225,2.265,10.964.04-2.5-.256-7.89,3.088-8.287,4.033-.478,7.34,2,11.244,2.027a5.938,5.938,0,0,0,5.78-6.754c-2.67,1.709-3.375-.268-4.294-2.544C514.148,147.285,507.271,146.1,503.176,147.846Z" fill="#2e3054"/>
          </g>
        </g>
      </g>
    </g>
    <g id="Group_41892" data-name="Group 41892" transform="translate(311 1275)">
      <g id="Group_41891" data-name="Group 41891" clip-path="url(#clip-path-2)">
        <g id="Group_41890" data-name="Group 41890">
          <path id="Path_95400" data-name="Path 95400" d="M578.662,188.461a8.457,8.457,0,0,0-2.946,6.375,7.254,7.254,0,0,0,.793,3.634c.53,1.055,1.748,2.125,2.024,3.176-1.75.105-3.234.129-4.687,1.36-4.61,3.909-4.828,13.131,1.674,15.563a5.491,5.491,0,0,0,3.562.209c-2.194-1.285-4.987,2.8-3.154,4.927,2.152,2.5,7.455,2.591,10.508,2.731,3.506.161,8.794.752,11.648-1.539,2.182-1.751,3.334-5.437,3.809-7.986.878,2.014,1.792,4.543,4.05,5.287a5.682,5.682,0,0,0,6.049-2.355,5.227,5.227,0,0,0-.494-5.9c-.592-.778-4.1-4.94-5.078-4.566,4.383-1.673,4.392-6.371,3.492-10.736-2.689-13.058-21.244-19.561-31.069-10.346C578.782,188.347,578.723,188.4,578.662,188.461Z" fill="#454f6b"/>
          <path id="Path_95401" data-name="Path 95401" d="M595.894,195.773c1.258,1.258.245,9.578.643,11.643.9,4.626,3.6,6.306,6.969,9.307,2.2,1.959,6.221,4.282,7.133,7.145,1,3.144-2.95,5.434-5.637,7.014-3.643,2.143-7.213,2.084-11.334,2.951-1.816.38-3.268,1.3-5.261,1.5a30.767,30.767,0,0,1-6.263-.264,27.489,27.489,0,0,1-10.71-3.307c-3.663-2.193-6.051-3.844-3-7.89,1.888-2.507,5.283-3.6,7.64-5.386,5.414-4.107,10.123-8.413,9.719-15.667C585.483,197.3,592.833,192.711,595.894,195.773Z" fill="#ecb49f"/>
          <path id="Path_95402" data-name="Path 95402" d="M581.059,213.953s8.851,7.181,19.2-.334c0,0,9.353,6.179,12.193,8.35s3.264,9.116,6.225,18.586c0,0-21.756,17.153-55.159,1.287,0,0,1.67-15.865,5.178-19.205S581.059,213.953,581.059,213.953Z" fill="#fa968d"/>
          <path id="Path_95403" data-name="Path 95403" d="M596.84,202.708l-.2-4.814c-3.061-3.063-11.209-1.645-10.9,3.868,0,.038,0,.964,0,1,1.024,1.711,3.526,5.747,5.176,5.511C594.42,207.774,595.705,205.9,596.84,202.708Z" fill="#ecb49f" style="mix-blend-mode: multiply;isolation: isolate"/>
          <path id="Path_95404" data-name="Path 95404" d="M581.758,188.8s2.265,17.016,8.779,17.475,8.627-9.221,9.139-15.913c.572-7.49-.117-9.763-9.238-10.194C581.644,179.748,581.758,188.8,581.758,188.8Z" fill="#ecb49f"/>
          <path id="Path_95405" data-name="Path 95405" d="M601.516,186.423c-.077.527-.215,1.1-.338,1.7,2.32-.051,2.259,3.684,1.5,5.005-.127.223-.973.923-.975,1.078-.006.475.922.422.8,1.179a2.155,2.155,0,0,1-2.692,1.521c-.822-.31-.65-1.264-.765-2.006a6.237,6.237,0,0,0-2.246-3.991c-.965-.944-2.7-2.263-2.825-3.651-1.785,3.181-5.673,3.712-8.955,2.976-.461,1.917-.107,2.961-2.006,4.082-1.834,1.084-2.152.136-3.658-.88a4.353,4.353,0,0,1,1.7-3.906c-2.235-2.161-.346-5.554,1.778-7.827a11.164,11.164,0,0,1,9.434-3.653,9.3,9.3,0,0,1,5.262,2.149c.957.942,1.983,1.523,2.1,3.636C601.5,184.06,601.707,185.083,601.516,186.423Z" fill="#454f6b"/>
          <path id="Path_95406" data-name="Path 95406" d="M587.3,199.587a8.114,8.114,0,0,0,7.859-.109S591.416,207.383,587.3,199.587Z" fill="#fff"/>
          <path id="Path_95407" data-name="Path 95407" d="M582.4,212.45l-1.336,1.5s2.338,3.34,9.019,3.507a13.53,13.53,0,0,0,10.186-3.841l-1.836-1.336S588.908,218.628,582.4,212.45Z" fill="#fff"/>
        </g>
      </g>
    </g>
    <g id="Group_41897" data-name="Group 41897" transform="translate(311 1275)">
      <g id="Group_41896" data-name="Group 41896">
        <path id="Path_95409" data-name="Path 95409" d="M693.384,145.784a24.024,24.024,0,1,1-33.21-7.164A24.026,24.026,0,0,1,693.384,145.784Z" fill="#cbcfff"/>
        <g id="Group_41895" data-name="Group 41895" clip-path="url(#clip-path-3)">
          <g id="Group_41894" data-name="Group 41894">
            <path id="Path_95410" data-name="Path 95410" d="M676.754,155.126s.335,7.825,1.245,9.333,4.607,2.551,7.8,4.325-6.918,8.693-16.675,7.273-9.4-5.854-9.4-5.854l8.806-5.477A7.72,7.72,0,0,0,670.9,159.2C670.723,156.011,674.979,153.35,676.754,155.126Z" fill="#ecb49f"/>
            <path id="Path_95411" data-name="Path 95411" d="M676.8,159.71l-.115-2.789c-1.775-1.775-6.032.887-5.854,4.079v.066a2.981,2.981,0,0,0,2.317,1.707C675.048,162.859,676.144,161.559,676.8,159.71Z" fill="#ecb49f" style="mix-blend-mode: multiply;isolation: isolate"/>
            <path id="Path_95412" data-name="Path 95412" d="M668.066,151.761s.532,9.656,5.33,9.815,5.362-5.094,5.675-8.922c.35-4.284-.073-5.584-5.675-5.831C668,146.585,668.066,151.761,668.066,151.761Z" fill="#ecb49f"/>
            <path id="Path_95413" data-name="Path 95413" d="M681.022,149.584a1.686,1.686,0,0,1,.044.378c.013,1.459-1.028,3.262-2.622,3.24-1.618-.022-2.034-1.487-3.168-2.2a2.313,2.313,0,0,0-2.211.177c-1.817.8-3.334,2.377-5.437,2.374a2.416,2.416,0,0,1-2.458-1.492c-.261-.789-.023-2.523,1.141-2.27a1.6,1.6,0,0,1-1.046-2.217c.493-.872,1.519-.777,2.368-.826a2.887,2.887,0,0,1,1.952-2.585c1.506-.654,3.9-1.168,5.49-.544a5.906,5.906,0,0,1,3.222,4.356,8.519,8.519,0,0,1,1.851.5A1.792,1.792,0,0,1,681.022,149.584Z" fill="#2e3054"/>
            <path id="Path_95414" data-name="Path 95414" d="M670.841,157.756a4.7,4.7,0,0,0,4.554-.062S673.226,162.273,670.841,157.756Z" fill="#fff"/>
            <g id="Group_41893" data-name="Group 41893">
              <path id="Path_95415" data-name="Path 95415" d="M690.769,177.76a25.228,25.228,0,0,0-4.249-8.537l-5.881-2.99a4.975,4.975,0,0,0-.565.443,15.1,15.1,0,0,1-3.975,1.485,13.757,13.757,0,0,1-9.7-2.128l-6.357,3.367a25.214,25.214,0,0,0-4.192,8.36,20.031,20.031,0,0,0,14.227,6.2C679.375,184.222,690.769,177.76,690.769,177.76Z" fill="#2a2b7c"/>
            </g>
            <path id="Path_95416" data-name="Path 95416" d="M664.609,166.982l-.275.147a20.316,20.316,0,0,0,9.611,2.852,11.061,11.061,0,0,0,7.916-3.121c-.011-.013-.249-.132-.249-.132C675.3,172.7,666.415,168.038,664.609,166.982Z" fill="#fff"/>
          </g>
        </g>
      </g>
    </g>
    <g id="Group_41903" data-name="Group 41903" transform="translate(311 1275)">
      <circle id="Ellipse_135" data-name="Ellipse 135" cx="18.75" cy="18.75" r="18.75" transform="translate(550.75 108.75)" fill="#2a2b7c"/>
      <g id="Group_41902" data-name="Group 41902">
        <circle id="Ellipse_136" data-name="Ellipse 136" cx="18.75" cy="18.75" r="18.75" transform="translate(550.75 108.75)" fill="#fff" opacity="0.3"/>
        <g id="Group_41901" data-name="Group 41901" clip-path="url(#clip-path-4)">
          <path id="Path_95418" data-name="Path 95418" d="M574.541,120.571a11.724,11.724,0,0,1,1.149,3.855c.353,1.684,1.22,3.138.97,4.923a5.064,5.064,0,0,1-4.3,3.6,3.534,3.534,0,0,0,1.106,2.209,8.558,8.558,0,0,0,3.312,2.014s-.194,5.977-8.705,4.093-7.861-4.483-7.861-4.483,2.6-.714,3.443-1.689.651-7.081.651-7.081-1.561-3.768-.585-6.042S569.766,115.666,574.541,120.571Z" fill="#fabba4"/>
          <path id="Path_95419" data-name="Path 95419" d="M567.751,129.894c-.13.91.714,1.754,1.559,2.533s3.053.52,3.053.52a2.115,2.115,0,0,0,.367,1.21C566.791,134.821,567.751,129.894,567.751,129.894Z" fill="#f89b79"/>
          <path id="Path_95420" data-name="Path 95420" d="M568.592,122.517a2.69,2.69,0,0,1,.9.714,1.866,1.866,0,0,1,.419,1.656c-.109.262-1.383,1.079-1.442.59a.8.8,0,0,1-.9.847c-.7,0-.74-.453-1.171-.9.387.4-1.631,1.118-2.245.67a2.5,2.5,0,0,1-.889-2.294c.26-.992,1.831-1.267,2.74-1.469A3.931,3.931,0,0,1,568.592,122.517Z" fill="#2e3054"/>
          <path id="Path_95421" data-name="Path 95421" d="M555.983,142.975c.632-5.584,7.97-8.155,7.97-8.155l8.99,3.323,1.076-2.639c3.12.914,8.254,5.383,10.374,7.314v2.861s-2.143,5-14.144,4.071-14.29-4.071-14.29-4.071Z" fill="#fff"/>
          <path id="Path_95422" data-name="Path 95422" d="M574.019,140.586l4.408,5.093h-5l-.287-5-.978-.586.391-1.955h.391l1.857,1.368Z" fill="#fa6462"/>
          <g id="Group_41898" data-name="Group 41898">
            <path id="Path_95423" data-name="Path 95423" d="M570.7,125.44c0-.97.571-1.76,1.272-1.76s1.271.79,1.271,1.76-.57,1.76-1.271,1.76S570.7,126.41,570.7,125.44Zm.1,0c0,.915.525,1.66,1.172,1.66s1.172-.745,1.172-1.66-.526-1.66-1.172-1.66S570.795,124.524,570.795,125.44Z" fill="#2e3054"/>
          </g>
          <g id="Group_41899" data-name="Group 41899">
            <path id="Path_95424" data-name="Path 95424" d="M574.408,125.147c0-.971.57-1.76,1.272-1.76s1.271.789,1.271,1.76-.57,1.759-1.271,1.759S574.408,126.117,574.408,125.147Zm.1,0c0,.915.526,1.66,1.172,1.66s1.172-.745,1.172-1.66-.526-1.66-1.172-1.66S574.508,124.231,574.508,125.147Z" fill="#2e3054"/>
          </g>
          <path id="Path_95425" data-name="Path 95425" d="M574.063,124.806l1.127,3.964-1.19.414Z" fill="#ec9177"/>
          <g id="Group_41900" data-name="Group 41900">
            <rect id="Rectangle_38206" data-name="Rectangle 38206" width="1.559" height="0.1" transform="translate(573.09 125.879)" fill="#2e3054"/>
          </g>
        </g>
      </g>
    </g>
    <g id="Group_41907" data-name="Group 41907" transform="translate(311 1275)">
      <g id="Group_41906" data-name="Group 41906">
        <circle id="Ellipse_138" data-name="Ellipse 138" cx="19" cy="19" r="19" transform="translate(662.61 211.719)" fill="#fff"/>
        <g id="Group_41905" data-name="Group 41905" clip-path="url(#clip-path-5)">
          <g id="Group_41904" data-name="Group 41904">
            <path id="Path_95426" data-name="Path 95426" d="M695.476,246.98v-1.447a15.408,15.408,0,0,0-3.445-5.788A12.939,12.939,0,0,0,686.2,236.5a16.36,16.36,0,0,0-12.456,2.01,11.272,11.272,0,0,0-2.713,2.9,35.724,35.724,0,0,0-2.837,5.576s5.461,5.05,14.961,4.537S695.476,246.98,695.476,246.98Z" fill="#7ab6f6"/>
            <path id="Path_95427" data-name="Path 95427" d="M684.623,230.238c.761.763.433,2.423.651,3.385a7.422,7.422,0,0,0,2.257,3.342c.492.457-.659-.454-2.772,1.688a11.581,11.581,0,0,1-7.229,3.283,3.048,3.048,0,0,1-2.9-.917c-1.159-1.524.642-2.451,1.483-3.67a8.852,8.852,0,0,0,1.649-5.969C677.62,228.864,683.224,228.839,684.623,230.238Z" fill="#ba6b4f"/>
            <path id="Path_95428" data-name="Path 95428" d="M684.151,233.413a43.072,43.072,0,0,1-6.591.514,7.575,7.575,0,0,1-.883,2.512C677.325,236.394,682.231,235.974,684.151,233.413Z" fill="#ecb49f" style="mix-blend-mode: multiply;isolation: isolate"/>
            <path id="Path_95429" data-name="Path 95429" d="M675.328,226.042a9.512,9.512,0,0,0-.546,3.207,9.638,9.638,0,0,0,.685,3.9c1.593,3.1,6.755,1.026,8.479-.858a10.114,10.114,0,0,0,1.806-2.665c.718-1.734-.083-3.742-.955-5.285a8.061,8.061,0,0,0-1.936-2.249c-.781-.484-2.3-.352-3.171-.386C677.559,221.618,676.072,223.822,675.328,226.042Z" fill="#ba6b4f"/>
            <path id="Path_95430" data-name="Path 95430" d="M675.621,227.316s-1.5,3.442-1.557,3.343a14.045,14.045,0,0,1,1.851.386Z" fill="#ba6b4f"/>
            <path id="Path_95431" data-name="Path 95431" d="M675.621,227.316s-1.5,3.442-1.557,3.343a14.045,14.045,0,0,1,1.851.386Z" fill="#ecb49f" style="mix-blend-mode: multiply;isolation: isolate"/>
            <path id="Path_95432" data-name="Path 95432" d="M679.26,226.4c.737.074,2.443-.367,3.016-.093.868.413.442,2.785.253,3.545-.449,1.8-1.525,3.019-2.529,4.478,3.565.239,7.265-.631,8.036-4.549.691-3.509-1.185-7.743-4.665-8.978-1.961-.7-4.78-.691-6.466.684-.969.79-2.174,3.2-.937,4.275C676.809,226.5,678.251,226.3,679.26,226.4Z" fill="#2e3054"/>
            <path id="Path_95433" data-name="Path 95433" d="M681.407,231.2a.548.548,0,1,0,.548-.548A.548.548,0,0,0,681.407,231.2Z" fill="#fff"/>
          </g>
        </g>
      </g>
    </g>
    <g id="Group_41912" data-name="Group 41912" transform="translate(311 1275)">
      <g id="Group_41911" data-name="Group 41911">
        <circle id="Ellipse_140" data-name="Ellipse 140" cx="17.25" cy="17.25" r="17.25" transform="translate(444.736 224.282)" fill="#cbcfff"/>
        <g id="Group_41910" data-name="Group 41910" clip-path="url(#clip-path-6)">
          <g id="Group_41909" data-name="Group 41909">
            <path id="Path_95439" data-name="Path 95439" d="M473.475,251.645A44.62,44.62,0,0,0,466.5,248.5l-.838-10.182c-1.617-1.741-5.036,2.917-5.036,2.917l-1.718,7.438-7.608,3s-.192,2.21,2.594,4.08h18.48C474.539,254.292,474.875,252.483,473.475,251.645Z" fill="#ba6b4f"/>
            <path id="Path_95440" data-name="Path 95440" d="M466.256,246.519c.014-.014-.447-8.28-.447-8.28-1.616-1.741-5.036,2.917-5.036,2.917l-1.451,5.539C461.087,248.741,463.115,249.218,466.256,246.519Z" fill="#ecb49f" style="mix-blend-mode: multiply;isolation: isolate"/>
            <path id="Path_95441" data-name="Path 95441" d="M458.765,237.914c-.023.123-.047.243-.074.359a28.492,28.492,0,0,0-.464,3.188,6.6,6.6,0,0,0,1.125,4.506c1.829,2.064,4.726,2.766,7.189-.062,3.218-3.694.252-14.131-5.107-11.77-.887.39-1.464.38-1.985,1.236A7.714,7.714,0,0,0,458.765,237.914Z" fill="#ba6b4f"/>
            <path id="Path_95442" data-name="Path 95442" d="M458.606,240.97c-.335-.479-.952-1.137-.965-.065a4.986,4.986,0,0,0,.556,1.939c.347-.158.479-.606.59-.965Z" fill="#ba6b4f"/>
            <path id="Path_95443" data-name="Path 95443" d="M473.978,251.736a34.265,34.265,0,0,0-4.565-2.175c-.362-.1-1.828-.729-1.828-.729-5.142,7.358-9.548.316-9.548.316-.024,0-.984.254-1.008.25l-5.809,2.293a16.291,16.291,0,0,0-.472,4.064s1.312,4.117,9.543,4.843,14.394-4.843,14.394-4.843C474.772,254.037,474.7,252.167,473.978,251.736Z" fill="#445998"/>
            <path id="Path_95444" data-name="Path 95444" d="M468.645,249.273l-.1-.041a6.273,6.273,0,0,1-5.295,3.813,5.631,5.631,0,0,1-5.605-2.409A6.755,6.755,0,0,1,457,249.41l-.1.041a6.89,6.89,0,0,0,.654,1.251,5.573,5.573,0,0,0,4.9,2.5c.256,0,.523-.012.8-.039A6.383,6.383,0,0,0,468.645,249.273Z" fill="#fff"/>
            <path id="Path_95445" data-name="Path 95445" d="M462.263,240.2a4.375,4.375,0,0,1,3.673,1.417c-.017-.3-.162-.586-.186-.881a1.615,1.615,0,0,1,.952.284,1.889,1.889,0,0,1-.118-.809,1.568,1.568,0,0,1,1.247.488c-.036-1.249-.191-2.4-1.256-3.1a4.262,4.262,0,0,0-4.382-.018Z" fill="#002c43"/>
            <path id="Path_95446" data-name="Path 95446" d="M457.689,238.814s.147-4.624,4.657-5.037c4.891-.448,5.287,3.947,5.42,5.337a42.389,42.389,0,0,1-5.908.355C459.193,239.384,458.818,239.314,457.689,238.814Z" fill="#445998"/>
            <path id="Path_95447" data-name="Path 95447" d="M457.725,238.808s-4.183,1.771-.89,2.2,10.7-1.792,10.7-1.792S459.663,239.767,457.725,238.808Z" fill="#7ab6f6"/>
            <path id="Path_95448" data-name="Path 95448" d="M462.3,241.206l-.313,3.371h1.043Z" fill="#ecb49f" style="mix-blend-mode: multiply;isolation: isolate"/>
          </g>
        </g>
      </g>
    </g>
    <path id="Path_95449" data-name="Path 95449" d="M581.051,294.949a16.986,16.986,0,1,1-16.986-16.985A16.986,16.986,0,0,1,581.051,294.949Z" transform="translate(311 1275)" fill="#da97b8" opacity="0.3"/>
    <g id="Group_41916" data-name="Group 41916" transform="translate(311 1275)">
      <g id="Group_41913" data-name="Group 41913">
        <path id="Path_95450" data-name="Path 95450" d="M556.445,265.134a.627.627,0,1,1-1.227,0V262.68a.627.627,0,1,1,1.227,0Z" fill="#454f6b"/>
        <path id="Path_95451" data-name="Path 95451" d="M556.445,255.507a.627.627,0,1,1-1.227,0v-2.454a.627.627,0,1,1,1.227,0Z" fill="#454f6b"/>
      </g>
      <g id="Group_41914" data-name="Group 41914">
        <path id="Path_95452" data-name="Path 95452" d="M561.37,261.583a.627.627,0,1,1-.613,1.063l-2.125-1.228a.627.627,0,1,1,.612-1.063Z" fill="#454f6b"/>
        <path id="Path_95453" data-name="Path 95453" d="M553.033,256.769a.627.627,0,1,1-.613,1.063l-2.125-1.227a.627.627,0,1,1,.614-1.063Z" fill="#454f6b"/>
      </g>
      <g id="Group_41915" data-name="Group 41915">
        <path id="Path_95454" data-name="Path 95454" d="M560.757,255.542a.627.627,0,1,1,.613,1.063l-2.126,1.227a.627.627,0,1,1-.612-1.063Z" fill="#454f6b"/>
        <path id="Path_95455" data-name="Path 95455" d="M552.42,260.355a.626.626,0,1,1,.613,1.062l-2.124,1.227a.627.627,0,1,1-.614-1.062Z" fill="#454f6b"/>
      </g>
    </g>
    <g id="Group_41920" data-name="Group 41920" transform="translate(311 1275)">
      <g id="Group_41919" data-name="Group 41919">
        <g id="Group_41917" data-name="Group 41917">
          <path id="Path_95456" data-name="Path 95456" d="M606.654,277.688a8.991,8.991,0,1,1,2-17.758.676.676,0,1,1-.3,1.318,7.629,7.629,0,1,0,5.679,5.457.676.676,0,0,1,1.3-.353,9,9,0,0,1-8.682,11.336Z" fill="#fa6082"/>
        </g>
        <g id="Group_41918" data-name="Group 41918">
          <path id="Path_95457" data-name="Path 95457" d="M606.55,270.633a.679.679,0,0,1-.454-.174l-4.9-4.436a.676.676,0,1,1,.907-1L606.5,269l11.125-12.42a.675.675,0,1,1,1.006.9l-11.577,12.928a.682.682,0,0,1-.47.224Z" fill="#fa6082"/>
        </g>
      </g>
    </g>
  </g>
</svg>
