<svg xmlns="http://www.w3.org/2000/svg" width="311.783" height="304.774" viewBox="0 0 311.783 304.774">
  <g id="Group_42089" data-name="Group 42089" transform="translate(-1108.307 -1384.074)">
    <circle id="Ellipse_143" data-name="Ellipse 143" cx="104.425" cy="104.425" r="104.425" transform="translate(1124.73 1541.168) rotate(-45)" fill="#cae1fc"/>
    <path id="Path_95548" data-name="Path 95548" d="M1065.762,191.307a82.233,82.233,0,1,1-82.232-82.233A82.233,82.233,0,0,1,1065.762,191.307Z" transform="translate(311 1275)" fill="#da97b8" opacity="0.3"/>
    <path id="Path_95549" data-name="Path 95549" d="M991.83,248.763A97.262,97.262,0,1,1,894.568,151.5,97.261,97.261,0,0,1,991.83,248.763Z" transform="translate(311 1275)" fill="#cbcfff" opacity="0.6"/>
    <circle id="Ellipse_144" data-name="Ellipse 144" cx="43" cy="43" r="43" transform="translate(1192 1499.5)" fill="#fff" opacity="0.3"/>
    <g id="Group_41961" data-name="Group 41961" transform="translate(311 1275)">
      <path id="Path_95550" data-name="Path 95550" d="M1029.646,338.387a15.957,15.957,0,0,1-11.769-16.2c.243-4.071,2.059-3.562,4.531-6.024,2.619-2.608,1.186-3.593-1.033-6.488-4.066-5.3-7.887-11.253-6.232-18.313,1.564-6.677,9.473-6.564,7.724-13.543-2.246-8.976-1.354-17.9-.317-27.113.607-5.394,2.572-18.559,9.991-18.759,7-.189,6.66,12.861,6.8,17.282.134,4.12-.742,6.971,2.421,9.293,4.046,2.973,8.732,3.957,9.576,9.9.995,7-6.758,9.952-7.143,16.169-.318,5.154,7.069,8.141,9.694,12.386,4.927,7.972-4.668,8.027-5.475,14.392a2.9,2.9,0,0,1-.506,1.045c2.69,2.03,6.4,3.109,7.932,6.384,1.783,3.8.478,7.706-2.151,10.637-5.286,5.889-15.213,11.078-23.156,9.188Q1030.086,338.515,1029.646,338.387Z" fill="#f3a9b8"/>
      <path id="Path_95551" data-name="Path 95551" d="M1046.265,384.607c0,.583-5.864,1.056-13.1,1.056s-13.1-.473-13.1-1.056,5.864-1.057,13.1-1.057S1046.265,384.022,1046.265,384.607Z" fill="#b0bcd8"/>
      <g id="Group_41958" data-name="Group 41958">
        <g id="Group_41956" data-name="Group 41956">
          <rect id="Rectangle_38209" data-name="Rectangle 38209" width="0.356" height="148.781" transform="translate(1032.363 231.95)" fill="#fff"/>
        </g>
        <g id="Group_41957" data-name="Group 41957">
          <path id="Path_95552" data-name="Path 95552" d="M1032.666,285.842l18.475-18.473c-.036-.135-.072-.265-.11-.4l-18.616,18.62Z" fill="#fff"/>
          <path id="Path_95553" data-name="Path 95553" d="M1032.666,280.2l16.531-16.532c-.078-.087-.16-.174-.242-.259l-16.54,16.539Z" fill="#fff"/>
          <path id="Path_95554" data-name="Path 95554" d="M1032.666,305.771l14.945-14.945c-.087-.082-.171-.163-.259-.244l-14.937,14.938Z" fill="#fff"/>
          <path id="Path_95555" data-name="Path 95555" d="M1032.415,255.512l.251.252,6.673-6.674c-.005-.155-.01-.317-.011-.49Z" fill="#fff"/>
          <path id="Path_95556" data-name="Path 95556" d="M1032.415,308.9l.251.251,16.75-16.749c-.092-.077-.183-.153-.272-.231Z" fill="#fff"/>
          <path id="Path_95557" data-name="Path 95557" d="M1051.4,317.363l-18.989,18.988.251.252,18.986-18.988Z" fill="#fff"/>
          <path id="Path_95558" data-name="Path 95558" d="M1032.415,315.672l.251.25,18.986-18.987-.248-.25Z" fill="#fff"/>
          <path id="Path_95559" data-name="Path 95559" d="M1032.853,294.992l-11.409-11.41c-.081.086-.162.172-.247.254l11.406,11.406Z" fill="#fff"/>
          <path id="Path_95560" data-name="Path 95560" d="M1032.853,299.128l-13.591-13.592-.272.232,13.613,13.611Z" fill="#fff"/>
          <path id="Path_95561" data-name="Path 95561" d="M1032.853,324.7l-9.56-9.561c-.065.094-.136.19-.215.289l9.525,9.523Z" fill="#fff"/>
          <path id="Path_95562" data-name="Path 95562" d="M1032.415,330.712l.251.251,17.246-17.248c-.1-.061-.211-.123-.314-.185Z" fill="#fff"/>
          <path id="Path_95563" data-name="Path 95563" d="M1024.48,240.873l8.123,8.121.25-.25-8.25-8.25C1024.563,240.621,1024.52,240.744,1024.48,240.873Z" fill="#fff"/>
          <path id="Path_95564" data-name="Path 95564" d="M1032.853,268.3l-10.984-10.985c-.013.155-.026.31-.038.463l10.772,10.773Z" fill="#fff"/>
          <path id="Path_95565" data-name="Path 95565" d="M1032.853,272.056l-11.241-11.241c-.009.158-.017.318-.025.476l11.016,11.016Z" fill="#fff"/>
        </g>
      </g>
      <g id="Group_41959" data-name="Group 41959">
        <rect id="Rectangle_38210" data-name="Rectangle 38210" width="0.582" height="41.838" transform="translate(1032.469 338.894)" fill="#2a2b7c"/>
      </g>
      <path id="Path_95566" data-name="Path 95566" d="M1034.8,383.853s-10.256-36.741-16.822-20.7S1034.8,383.853,1034.8,383.853Z" fill="#2a2b7c"/>
      <g id="Group_41960" data-name="Group 41960">
        <path id="Path_95567" data-name="Path 95567" d="M1034.5,385.355l-.062-1.1c-.067-1.18-1.549-28.97,5.8-36.748a5.856,5.856,0,0,1,5.123-1.979,4.193,4.193,0,0,1,3.545,2.381c3.944,8.274-13.09,35.366-13.814,36.513Zm10.125-39.163a5.215,5.215,0,0,0-3.867,1.8c-6.319,6.685-5.862,29.656-5.662,35.069,3.062-5.007,16.542-27.777,13.172-34.849a3.481,3.481,0,0,0-2.989-1.981A5.39,5.39,0,0,0,1044.629,346.192Z" fill="#2a2b7c"/>
      </g>
    </g>
    <g id="Group_41983" data-name="Group 41983" transform="translate(311 1275)">
      <path id="Path_95594" data-name="Path 95594" d="M982.679,370.98c0,1.739-12.281,3.149-27.429,3.149s-27.427-1.41-27.427-3.149,12.279-3.148,27.427-3.148S982.679,369.242,982.679,370.98Z" fill="#a8bcff" opacity="0.3"/>
      <path id="Path_95595" data-name="Path 95595" d="M942.533,366.248c-.136,2.205-3.638,3.127-4.723,4.842,1.126.461,5.081.254,6.176-.5,1.511-1.043.385-3.678,2.138-5.189Z" fill="#2e3054"/>
      <path id="Path_95596" data-name="Path 95596" d="M967.761,365.559c.114,1.713-.474,3.39-.377,5.154a37.25,37.25,0,0,0,7.468.73c-.622-1.613-2-1.916-3.43-2.878-2.31-1.553-1.205-2.631-2.035-4.852Z" fill="#2e3054"/>
      <path id="Path_95597" data-name="Path 95597" d="M962.255,272.482s.274,6.347,1.013,7.57c.955,1.59,2.97.643,3.419,2.678.281,1.271-.491,2.991-1.165,4.031-2.04,3.16-5.7,2.737-9.06,3.322a3.97,3.97,0,0,1-4.63-2.524,6.992,6.992,0,0,1,1.08-5.618c.673-.778,1.911-.973,2.676-1.672a6.258,6.258,0,0,0,1.921-4.477C957.364,273.2,960.817,271.043,962.255,272.482Z" fill="#ecb49f"/>
      <path id="Path_95598" data-name="Path 95598" d="M937.79,311.109a25.194,25.194,0,0,0-2.745,4.135c.6-.013,1.022-.466,1.526-.738-.681,1.429-1.8,3.577-1.351,5.161a25.65,25.65,0,0,0,1.248-2.25,5.761,5.761,0,0,0-.252,2.384c.658-.485.871-1.769,1.121-2.565a16,16,0,0,0,.535,2.521,23.208,23.208,0,0,0,.564-2.474c.2.636.323,1.4.6,2.041.478-1.211-.052-2.982.126-4.29.126-.917,1.248-2.47,1.074-3.213Z" fill="#ecb49f"/>
      <path id="Path_95599" data-name="Path 95599" d="M950.274,305.418l-9.052,61.334,4.452.146,13.841-41.2,7,42.079,4.134-.293s.32-27.857.16-36.509.317-20.671-3.341-25.8C967.467,305.175,955.355,308.3,950.274,305.418Z" fill="#0b1238"/>
      <path id="Path_95600" data-name="Path 95600" d="M956.977,278.317a3.345,3.345,0,0,0,2.466,1.342,3.925,3.925,0,0,0,3.337-1.418c-.375-2.3-.525-5.759-.525-5.759a1.635,1.635,0,0,0-1.167-.434,4.754,4.754,0,0,0-2.163.882,3.577,3.577,0,0,0-1.416,2.862A5.246,5.246,0,0,1,956.977,278.317Z" fill="#ecb49f" style="mix-blend-mode: multiply;isolation: isolate"/>
      <path id="Path_95601" data-name="Path 95601" d="M956.168,268.716s-2.78,8.208.584,9.681,5.483-2.755,6.962-5.86c1.649-3.478,1.773-4.68-2.136-6.45C957.81,264.379,956.168,268.716,956.168,268.716Z" fill="#ecb49f"/>
      <path id="Path_95602" data-name="Path 95602" d="M955.588,280.269l1.043-1.275,2.886,2.133,3.387-2.258.364,1.184-3.375,24.037-1.883-.376Z" fill="#bfd4f8"/>
      <path id="Path_95603" data-name="Path 95603" d="M959.642,281.126l-.815,1.725.47,1.036-2.071,18.351,1.882,4.235,2.447-4.141L960.144,283.7l.188-.848Z" fill="#fa7071"/>
      <path id="Path_95604" data-name="Path 95604" d="M960.27,320.4c8.03-.5,11.04-1.632,11.04-1.632s-3.426-13.934-3.359-14.58c.218-2.118.421-4.238.648-6.356a34.006,34.006,0,0,1,1.1-5.146,18.615,18.615,0,0,0-.833-10.88c-.279-.817-.74-2.53-1.724-2.814-.531-.154-.773.226-1.253.34a14.216,14.216,0,0,1-3.011.37l-3.863,23.883s-4.063-21.543-3.236-23.751c-.167.441-4.8-1.042-5.291-1.1a2.662,2.662,0,0,0-2.643,1.768,10.188,10.188,0,0,0-.834,5.861,62.042,62.042,0,0,0,1.132,6.327,34.253,34.253,0,0,1,1.1,5.146c.226,2.118-.1,3.744-.057,6.5s-2.22,15.059-2.22,15.059A43.193,43.193,0,0,0,960.27,320.4Z" fill="#2e3054"/>
      <path id="Path_95605" data-name="Path 95605" d="M955.438,317.579l13.928-2.447.377,9.223-12.8,3.953Z" fill="#bfd4f8"/>
      <path id="Path_95606" data-name="Path 95606" d="M962.4,313.249a6.714,6.714,0,0,0-1.788,5.082c.029.573.079,1.765.655,2.075.536.289,1.8-.231,2.342-.3a9.1,9.1,0,0,1-.059-3.071,9.959,9.959,0,0,0,.544-2.938Z" fill="#ecb49f"/>
      <path id="Path_95607" data-name="Path 95607" d="M959.683,264.31a1.928,1.928,0,0,1-.744.348c-.2.029-.484-.263-.715-.262a3.307,3.307,0,0,0-1.573.169c-3.532,1.716-1.511,5.918,1.464,6.727,1.386.376,2.818-.52,4.165.028a1.857,1.857,0,0,0,1.462,2.741c3.759.5,4.2-5.659,2.472-7.684-1.091-1.279-4.256-3-5.893-2.418A2.972,2.972,0,0,0,959.683,264.31Z" fill="#2e3054"/>
      <path id="Path_95608" data-name="Path 95608" d="M967.477,303.869c-.846.247-1.82.394-2.661.565-1.338.274-2.687.488-4.04.66a33.681,33.681,0,0,1-5.764.3,20.6,20.6,0,0,1-5.1-1.094c-.075.718.163,1.62.15,2.391a29.575,29.575,0,0,1,3.51.627,35.5,35.5,0,0,0,4.962.378,26.306,26.306,0,0,0,6.517-1.19c.677-.173,2.214-.218,2.732-.691.367-.339,0-2.032.12-2.075C967.763,303.784,967.623,303.828,967.477,303.869Z" fill="#2e3054"/>
      <path id="Path_95609" data-name="Path 95609" d="M949.988,279.254c-1.924-.16-2.717,3.15-3.389,4.507-1.943,3.923-2.986,8.4-4.3,12.564-1.371,4.329-4.853,13.517-5.116,15.293a18.454,18.454,0,0,1,2.884,1.883c2.28-3.775,9.161-19.7,9.912-23.717S949.988,279.254,949.988,279.254Z" fill="#0b1238"/>
      <path id="Path_95610" data-name="Path 95610" d="M967.547,279.37l8.785,18.571-12.047,17.943-2.761-2.383,8.408-14.431-3.763-10.163S965.289,280.248,967.547,279.37Z" fill="#0b1238"/>
      <path id="Path_95611" data-name="Path 95611" d="M959.517,281.126l-.69,1.725-3.012-1.411,3.387,1.882Z" fill="#2e3054"/>
      <path id="Path_95612" data-name="Path 95612" d="M959.642,281.126l.69,1.725,3.011-1.411-3.387,1.882Z" fill="#2e3054"/>
      <path id="Path_95613" data-name="Path 95613" d="M955.438,279.746l-2.164-.282,1.6,5.459-1.789.658s5.271,17.881,5.835,17.881S955.061,280.781,955.438,279.746Z" fill="#0b1238"/>
      <path id="Path_95614" data-name="Path 95614" d="M962.88,279.7l1.781.042-1.223,4.988,1.316.564-5.271,17.6Z" fill="#0b1238"/>
    </g>
    <path id="Path_95628" data-name="Path 95628" d="M933.5,361.107c0,.583-4.237,1.056-9.465,1.056s-9.465-.473-9.465-1.056,4.238-1.057,9.465-1.057S933.5,360.522,933.5,361.107Z" transform="translate(311 1275)" fill="#b0bcd8"/>
    <g id="Group_41985" data-name="Group 41985" transform="translate(311 1275)">
      <path id="Path_95629" data-name="Path 95629" d="M841.906,326.581l-.32,59.215-19.608-11.665.063-55.309Z" fill="#4a63b1"/>
      <path id="Path_95630" data-name="Path 95630" d="M876.414,325.8l-35.45.257v59.78l36.235-.98Z" fill="#2a2b7c"/>
      <path id="Path_95631" data-name="Path 95631" d="M822.04,318.822h39.081l15.293,6.974-34.508.785Z" fill="#445998"/>
    </g>
    <g id="Group_42000" data-name="Group 42000" transform="translate(311 1275)">
      <path id="Path_95645" data-name="Path 95645" d="M839.259,280.288l-1.87,42.6s7.236,1.786,8.548,2.041-3.7-2.936-4.292-4.486-1.49-2.114-.713-5.882,6.867-47.535,6.867-47.535h-7.66Z" fill="#f5b29c"/>
      <path id="Path_95646" data-name="Path 95646" d="M839.1,249.593c-.018.068-.037.134-.055.2a16.211,16.211,0,0,0,5.867.3,11.911,11.911,0,0,0,5.632-2.269l-.09-.193C846.025,251.024,840.447,249.93,839.1,249.593Z" fill="#fff"/>
      <path id="Path_95647" data-name="Path 95647" d="M842.59,321.665c-2.688.867-4.293.312-5.126-.256l-.075,1.476s7.236,1.786,8.548,2.041C846.965,325.12,844.171,323.241,842.59,321.665Z" fill="#2e3054"/>
      <path id="Path_95648" data-name="Path 95648" d="M846.931,229.954c-1.526,1.383-2.051,3.326.9,4.464s9.417,2.955,14.395-1.6,6.023-7.83,6.023-7.83l-2.013-1.617s-3.438,5.552-8.763,7.113S848.682,228.36,846.931,229.954Z" fill="#7ab6f6"/>
      <path id="Path_95649" data-name="Path 95649" d="M850.059,209.448l11.652,29s2.883-1.119,3.006-.708c0,0,10.466-3.79,6.782-10.944s-9.413-14.491-7.994-19.837S850.059,209.448,850.059,209.448Z" fill="#df5244"/>
      <path id="Path_95650" data-name="Path 95650" d="M848.51,281.168l5.669,42.158s7.428.091,8.766.038-4.21-2.019-5.11-3.4-1.89-1.725-1.9-5.582.053-47.741.053-47.741l-9.661-1.231Z" fill="#f5b29c"/>
      <path id="Path_95651" data-name="Path 95651" d="M846.9,231.013c.248,1.265-2.248,4.12-3.261,4.7-1.823,1.046-4.443.6-6.315-.074-1.014-.362-3.234-.261-3.64-1.352-.661-1.766,2.2-2.317,3.076-2.88,1.3-.835,1.759-3.331,1.548-4.722a40.5,40.5,0,0,1,4.054-.686,4.947,4.947,0,0,0,2.62,3.834C845.435,230.089,846.793,230.477,846.9,231.013Z" fill="#f5b29c"/>
      <path id="Path_95652" data-name="Path 95652" d="M859.007,320.947c-2.447,1.46-4.126,1.286-5.056.921l.228,1.458s7.428.091,8.766.038C863.985,323.321,860.874,322.127,859.007,320.947Z" fill="#2e3054"/>
      <path id="Path_95653" data-name="Path 95653" d="M846.014,257.031c.617,2.453-.725,4.276-1.252,6.621a25.069,25.069,0,0,0-.348,6.908,57.579,57.579,0,0,0,3.051,14.213c1.516,4.594,4.681,33.171,4.681,33.171s4.039-.781,5.42-.395c-.307-5.117.935-31.476,1.012-36.721.066-4.508-.642-9.176-.971-13.7-.317-4.361-1-8.42-4.2-11.39Z" fill="#2e3054"/>
      <path id="Path_95654" data-name="Path 95654" d="M841,256.427c.1,2.536-2.014,3.219-3.011,5.387-.929,2.03-1.011,5.262-1.319,7.457a57.834,57.834,0,0,0,.068,14.57c.536,4.833.119,29.582-.016,34.033,1.469.369,3.124-.277,4.391.416.748-5.064,3.891-29.384,5.041-34.488.986-4.387,2.56-11.689,3.164-16.183.584-4.331,1.683-7.142-.827-10.771Z" fill="#3d4166"/>
      <path id="Path_95655" data-name="Path 95655" d="M837.7,232.2a2.708,2.708,0,0,1-.639-.9c-.114-.3-4.18,1.657-4.518,1.951-1.721,1.492-1.405,2.248-1,4.183.957,4.5,3.8,8.324,5.142,12.7.747,2.432,1.945,4.774,1.793,7.385-.138,2.375-1.277,4.01,1.5,5.159,3.029,1.255,12.086-.732,14.809-2.41,1.9-1.173,1.493-2.217,1.626-4.432a33.751,33.751,0,0,0-3.059-16c-1.145-2.671-2.251-6.015-3.9-8.4-.792-1.153-.615-1.329-2.041-1.711a16.587,16.587,0,0,0-2.437.127c0,.069.1,3.372-1.705,4.107a4.114,4.114,0,0,1-4.053-.461A16.979,16.979,0,0,1,837.7,232.2Z" fill="#7ab6f6"/>
      <path id="Path_95656" data-name="Path 95656" d="M895.314,181.408c2.586,11.016-2.765,21.694-11.956,23.851L852.514,212.5c-9.186,2.156-18.731-5.024-21.319-16.041l-.387-1.662c-2.587-11.015,2.763-21.693,11.953-23.852l30.842-7.239c9.19-2.157,18.735,5.024,21.322,16.038Z" fill="#fa7071"/>
      <path id="Path_95657" data-name="Path 95657" d="M843.153,228.183a4.586,4.586,0,0,1-.8-2.182,40.5,40.5,0,0,0-4.054.686,4.248,4.248,0,0,1,.036.427A4.379,4.379,0,0,0,843.153,228.183Z" fill="#b9b3c0" style="mix-blend-mode: multiply;isolation: isolate"/>
      <path id="Path_95658" data-name="Path 95658" d="M843.135,226.183c3.9-2.259,1.9-7.176-.661-9.636-1.33-1.271-3.4-2.612-5.319-2.149-1.873.457-4.894,2.162-4.626,4.392.141,1.133,1.246,2,1.778,2.992a13.845,13.845,0,0,0,2.658,4.047C838.835,227.53,841.04,227.4,843.135,226.183Z" fill="#f5b29c"/>
      <path id="Path_95659" data-name="Path 95659" d="M837.078,223.816c-.92.411-1.6-.314-1.6-1.223-.014-1.671,1.029-.884,1.861-1.185h0l-.314-2.038s3.546-.639,2.38-2.022c1.189-.132,4.3-.349,4.229-2.131-.125-3.306-5.739-1.779-7.3-1.079a7.49,7.49,0,0,0-3.883,3.743c-1.006,2.852,2.143,9.057,5.689,8.231Z" fill="#0b1238"/>
      <path id="Path_95660" data-name="Path 95660" d="M866.519,165.473l9.8,41.755c24.7-4.778,38.67,6.806,38.67,6.806L898.117,142.17S890.764,158.759,866.519,165.473Z" fill="#fff"/>
      <path id="Path_95661" data-name="Path 95661" d="M846.577,210.265s10.142,13.319,14.656,28.293c0,0,10.47-3.793,6.786-10.944s-9.414-14.493-8-19.837S846.577,210.265,846.577,210.265Z" fill="#fa7071"/>
      <path id="Path_95662" data-name="Path 95662" d="M935.026,171.336c4.774,20.325-1.99,39.3-15.1,42.376s-27.612-10.9-32.383-31.229,1.989-39.3,15.1-42.377S930.255,151.008,935.026,171.336Z" fill="#7ab6f6"/>
      <path id="Path_95663" data-name="Path 95663" d="M934.078,171.557c4.2,17.888-1.752,34.583-13.29,37.292s-24.3-9.594-28.5-27.48,1.754-34.585,13.292-37.295S929.881,153.672,934.078,171.557Z" fill="#fff"/>
      <path id="Path_95664" data-name="Path 95664" d="M884.28,183.349c2.7,11.485-1.22,22.233-8.752,24s-15.82-6.114-18.517-17.6,1.222-22.232,8.753-24S881.585,171.859,884.28,183.349Z" fill="#fff"/>
      <path id="Path_95665" data-name="Path 95665" d="M913.281,161.934s-8.686,4.446-21.637.3a46.77,46.77,0,0,0,.643,19.132c2.051,8.733,5.483,15.113,10.479,20.087,1.644-2.173,5.731-7.609,17.5-11.877C912.1,181.474,908.9,166.746,913.281,161.934Z" fill="#fa7071"/>
      <path id="Path_95666" data-name="Path 95666" d="M925.586,173.8c1.814,7.723-.756,14.933-5.74,16.1s-10.491-4.144-12.307-11.869.759-14.932,5.742-16.1S923.77,166.077,925.586,173.8Z" fill="#df5244"/>
      <path id="Path_95667" data-name="Path 95667" d="M834.239,233.827c-2.124,1.962-2.854,4.707,1.266,6.323s13.139,4.192,20.08-2.248,8.393-11.079,8.393-11.079l-2.81-2.291s-4.791,7.855-12.216,10.061S836.68,231.573,834.239,233.827Z" fill="#bfd4f8"/>
      <path id="Path_95668" data-name="Path 95668" d="M866.345,224.134c-.385.715-1.245,1.218-1.714,1.918a24.234,24.234,0,0,0-1.675,3.261c-.575-.712-1.224-1.365-1.827-2.074-.811-.952-.806-1.054-.175-2.134.405-.693.848-1.429,1.179-2.154.069-.149,1.3-3.574,1.467-3.425.516.469.2,1.389.738,1.774.5-.506.53-1.226,1.1-1.631a4.314,4.314,0,0,1-.116,2.429c.193-.407.427-.46.737-.665a2.023,2.023,0,0,1-.114,1.581c.115-.156.372-.326.507-.507C866.339,222.662,866.556,223.738,866.345,224.134Z" fill="#f5b29c"/>
      <path id="Path_95669" data-name="Path 95669" d="M865.9,217.5c-.736.462-.391,1.367.5,1.058a7.5,7.5,0,0,0,.078,2.046,1.579,1.579,0,0,0,.966-.934,12.465,12.465,0,0,0,.094,2.387c1.28-.135,1.327-1.872.8-2.777s-1.754-1.353-2.486-2.141Z" fill="#f5b29c"/>
      <path id="Path_95670" data-name="Path 95670" d="M870.222,274.457h0Z" fill="#2e3054"/>
    </g>
    <path id="Path_95671" data-name="Path 95671" d="M1013.9,388.373c0,1.637-12.339,2.966-27.56,2.966s-27.558-1.329-27.558-2.966,12.337-2.965,27.558-2.965S1013.9,386.736,1013.9,388.373Z" transform="translate(311 1275)" fill="#a8bcff" opacity="0.3"/>
    <g id="Group_42001" data-name="Group 42001" transform="translate(311 1275)">
      <path id="Path_95672" data-name="Path 95672" d="M1008.767,348.037c-1.84-1.244.93-6.068,1.4-7.723.641-2.235.692-4.59-1.54-5.946-4.105-2.492-7.781,2.695-8.3,6.359a3.283,3.283,0,0,0,1.441,3.483c1.694,1,2.3.145,1.615,2.42a8.866,8.866,0,0,0-.344,4.608c.371,1.662,1.45,3.3,1.647,4.951Z" fill="#ba6b4f"/>
      <path id="Path_95673" data-name="Path 95673" d="M1014.1,374.068s5.741,12.515-4.446,12.814-25.8-.38-28.713-.28-22.5,1.272-22.5,1.272l-4.452-5.9a.152.152,0,0,1,.164-.236c1.207.362,4.59,1.516,5.807,3.408l19.137-4.784Z" fill="#d6874f"/>
      <path id="Path_95674" data-name="Path 95674" d="M957.625,383.128a26.533,26.533,0,0,0,2.158,4.463,1.153,1.153,0,0,1,.1.167l-1.436.115-4.522-5.991a.151.151,0,0,1,.137-.242,6.734,6.734,0,0,1,3.311,1.3Z" fill="#0b1238"/>
      <path id="Path_95675" data-name="Path 95675" d="M1007.619,376.767s-27.015-11.937-29.1-11.937-14.295,22.077-14.295,22.077-4,.475-4.642,2.165l8.137-.74a11.446,11.446,0,0,1,1.964-3.326c3.978-4.753,8.984-6.778,8.8-11.8l20.434,10S1009.655,380.99,1007.619,376.767Z" fill="#ba6b4f"/>
      <path id="Path_95676" data-name="Path 95676" d="M1011.287,350.135c-3.852-4.389-7.065-1.82-8.994-.006s-3.858,5.725-3.953,7.07,2.038,2.995,2.85,6.354,5.422,14.485,5.422,14.485,11.993,7.325,7.993-3.626S1015.138,354.524,1011.287,350.135Z" fill="#bfd4f8"/>
      <path id="Path_95677" data-name="Path 95677" d="M978.435,352.479l3.187,2.06,1.4,10.422-3.281-.854Z" fill="#0e2437"/>
      <path id="Path_95678" data-name="Path 95678" d="M978.859,353.061l2.413,1.542,1.4,10.424-2.721-.581Z" fill="#fff"/>
      <path id="Path_95679" data-name="Path 95679" d="M982.312,365.752s-4.012,13.629-.944,21.2c0,0,29.067.572,31.162-.027s6.154-4.408,1.682-13.694c0,0-6.466,2.311-9.458.515C1004.754,373.748,986.526,367.127,982.312,365.752Z" fill="#2a2b7c"/>
      <path id="Path_95680" data-name="Path 95680" d="M1009.464,350.483c2.851,1.4,1.578,21.668-1.974,22.417s-12.341-5.877-12.341-5.877a70.455,70.455,0,0,0-6.414-3.714c-2.036-.895-3.494-1.5-4.354-.66,0,0-.788-.156-.248-.718s2.09-2.7,5.9.069c0,0,11.781,4.8,14.738,5.406,1.278.264.011-6.786.1-9.143C1005.057,353.111,1007.257,349.4,1009.464,350.483Z" fill="#ba6b4f"/>
      <path id="Path_95681" data-name="Path 95681" d="M978.023,352.478l1.26,12.634s10.041,3.3,10.489,3.256.361-1.094-.879-1.6-8.4-2.685-8.4-2.685l-1.234-10.291S978.924,352.19,978.023,352.478Z" fill="#0b1238"/>
      <path id="Path_95682" data-name="Path 95682" d="M1005.84,332.068c-.077-.022-.154-.048-.23-.078-.91-.359-1.4-2.017-2.6-1.112-1.928,1.454,3.24,7.4,5.056,7.021,0,0,1.505-.274,1.078.979-.563,1.645-2.322.484-2.891,1.877-.436,1.068.665,2.426.112,3.733-.631,1.5-1.241,2.367-1.35,4.055-.219,3.4-.291,8.554,2.733,10.815a12.945,12.945,0,0,0,9.386,2.055c3.2-.772,4.241-4.666,2.615-7.276-.718-1.154-2.812-2.489-2.945-3.916-.18-1.932,1.318-1.108,2.149-2.284,1.068-1.51-.713-2.9-1.7-3.846-1.735-1.656-2.383-2.066-2.259-4.339.193-3.547-1.641-8.237-6.005-7.882A9.13,9.13,0,0,1,1005.84,332.068Z" fill="#0b1238"/>
      <path id="Path_95683" data-name="Path 95683" d="M1017.775,341.292a.672.672,0,0,1-.924.065c-.357-.216-.519-.6-.364-.852a.676.676,0,0,1,.925-.067C1017.768,340.655,1017.932,341.037,1017.775,341.292Z" fill="#0b1238"/>
      <path id="Path_95684" data-name="Path 95684" d="M968.164,387.3a1.574,1.574,0,0,1-.772,1.463l-7.69.616a.169.169,0,0,1-.159-.087.2.2,0,0,1,0-.19c.737-1.342,2.8-1.849,3.918-2.066C965.095,388.114,968.164,387.3,968.164,387.3Z" fill="#2e3054"/>
    </g>
    <path id="Path_95685" data-name="Path 95685" d="M1082,157a18.667,18.667,0,1,1-18.666-18.667A18.666,18.666,0,0,1,1082,157Z" transform="translate(311 1275)" fill="#bfd4f8"/>
    <circle id="Ellipse_145" data-name="Ellipse 145" cx="12.375" cy="12.375" r="12.375" transform="translate(1183.125 1538.125)" fill="#da97b8" opacity="0.3"/>
    <g id="Group_42002" data-name="Group 42002" transform="translate(311 1275)">
      <path id="Path_95686" data-name="Path 95686" d="M939.817,389.953c0,3.265-17.477,5.912-39.037,5.912s-39.035-2.647-39.035-5.912,17.481-5.916,39.035-5.916S939.817,386.688,939.817,389.953Z" fill="#a8bcff" opacity="0.3"/>
      <path id="Path_95687" data-name="Path 95687" d="M924.365,386.494c3.284,1.471,3.284,4.642,3.623,4.642s.965-1.771,1.729-1.508,3.453,1.361,5.956.867-5.531-1.736-8.817-5.645Z" fill="#f59c6f"/>
      <path id="Path_95688" data-name="Path 95688" d="M887.436,381.248c11.041,2,17.288,1.891,22.9.707s10.685-1.3,12.22,2.122-6.02,8.5-14.043,7.788c-4.923-.433-9.766-1.748-14.7-1.145-4.23.514-9.5-1.938-11.5-5.887C880.172,380.619,884.029,380.632,887.436,381.248Z" fill="#312555"/>
      <path id="Path_95689" data-name="Path 95689" d="M880.942,381.29c4.334-1.3,25.037,7.425,27.225,8.075-.117,1.225.158,1.833,0,3.075-.256-.023-16.315.909-21.927-1.435S876.608,382.583,880.942,381.29Z" fill="#3d4166"/>
      <path id="Path_95690" data-name="Path 95690" d="M892.42,385.376a3.5,3.5,0,0,0-.292.279c-1.978,2.165-.663,4.867,1.621,6.168,2.362,1.346,5.345.86,7.947,1.243a16.5,16.5,0,0,0,5.119.24c3.532-.566,5.533-2.95,3.613-6.313-.635-1.112-1.311-3.081-2.394-3.777q-5.088.5-10.177.992C896.021,384.388,893.833,384.169,892.42,385.376Z" fill="#3d4166"/>
      <path id="Path_95691" data-name="Path 95691" d="M882.294,384.428a7.633,7.633,0,0,1-3.169,2.107c-.888.382-1.856.713-2.724,1.089-.888.382-1.756.655-2.13,1.77,2.263-.82,3.2-.485,4.813-.566a4.182,4.182,0,0,1,1.824.085c.6.275.8.807,1.551.9.439-.408.2-.732.191-1.2a2.52,2.52,0,0,1,.53-1.815c.41-.507,1.639-1.024.82-1.807Z" fill="#f59c6f"/>
      <path id="Path_95692" data-name="Path 95692" d="M893.349,361.83c2.347-.277,4.943-2.434,5.244-4.6,1.576-.071,3.228-.072,4.8,0,.1,1.872-.064,3.693,1.275,5.2a20.592,20.592,0,0,1-6.285.518Z" fill="#f59c6f"/>
      <path id="Path_95693" data-name="Path 95693" d="M905.194,387.323a16.987,16.987,0,0,0,3.509-.823c1.749-.624,3.35-1.06,3.07-3.065-.323-2.331-1.969-4.55-2.947-6.652,2.659-.115,8.534,6.215,11.461,7.755a38.179,38.179,0,0,1,4.927,3.484l4.245-2.548s-4.187-3.721-6.88-6.71c-3.349-3.719-7.789-6.46-10.985-10.275-3.452-4.121-4.131-6.616-9.944-7.136-3.491-.312-6.52-1.564-9.169,1.311a17.791,17.791,0,0,0-3.639,6.827c-1.927,6.436-2.468,16.644,6.425,17.558A43.165,43.165,0,0,0,905.194,387.323Z" fill="#445998"/>
      <path id="Path_95694" data-name="Path 95694" d="M899.775,358.313c2.486,2.788,7.959-1.472,7.932-4.034a7.508,7.508,0,0,0-3.912-6.722c-2.752-2.493-4.076-2.492-6.89-1.2C896.905,346.355,892.425,350.063,899.775,358.313Z" fill="#f59c6f"/>
      <path id="Path_95695" data-name="Path 95695" d="M902.906,348.734c-1.061.862-.637,1.394-.384,3.1.405,2.705.836,6.745-2.659,7.5-3.934.848-7.084-6.768-6.683-9.723.351-2.589,4.5-4.949,6.78-5.418,1.025-.209,3.284-.682,4.17-.114.871.558.618,2.423-.031,1.9,1.624,1.311.319,1.714-.8,2.473C903.15,348.546,903.019,348.642,902.906,348.734Z" fill="#0b1238"/>
      <path id="Path_95696" data-name="Path 95696" d="M890.392,367.129c-2.856,2.354-3.349,6.961-5.086,10.107a26.389,26.389,0,0,1-6.345,7.914,11.485,11.485,0,0,1,5.988.971c2.208-2.519,3.306-5.21,6.464-6.763Z" fill="#445998"/>
    </g>
    <g id="Group_42004" data-name="Group 42004" transform="translate(311 1275)">
      <path id="Path_95697" data-name="Path 95697" d="M916.193,347.9c0,7.3,3.045,13.208,6.807,13.208s6.807-5.912,6.807-13.208Z" fill="#5c75c3"/>
      <g id="Group_42003" data-name="Group 42003">
        <path id="Path_95698" data-name="Path 95698" d="M924.341,348.85c2.056-1.148,6.058-2.325,6.882-5.086,1.335-4.463-3.959-3.469-6.177-2.454,1.253-1.208,6.6-3.728,5.339-6.06-1.292-2.378-5.255,1.423-5.008,3.461,1.582-3.223,2.56-11.063.384-14.224-1.952-2.825-3.921-.4-4.313,2.1A16.543,16.543,0,0,0,923,336.235c-.993-1.511-3.139-4.952-5.351-3.3.306,3.01,3.461,5.888,4.775,8.492-1.4-.965-5.858-2.255-5.654.7.18,2.585,5.339,3.354,6.31,5.042Z" fill="#f3a9b8"/>
        <path id="Path_95699" data-name="Path 95699" d="M923.713,348.009c.387-1.611.674-4.642,1.929-5.878,1.911-1.882,1.72.955.881,2.131,1.983-1.64,4.982-6.383,7.49-6.91,3.735-.778-1.7,4.338-2.3,5.157,1.569-.157,7.151-2.7,7.321-.169.2,2.844-6.524,3.181-8.325,3.828,1.166.688,2.5,1.781,2.207,3.274-2.412.867-3.459-.355-5.426-1.247a3.017,3.017,0,0,1-4.622.237Z" fill="#7ab6f6"/>
        <path id="Path_95700" data-name="Path 95700" d="M924.341,349.27c-.413-.58-3.469-10.142-4.461-5.943-1.054-2.023-4.317-9.019-7.253-5.816-2.8,3.057,1.366,7.3,4.5,7.55-1.389,1-3.4,2.737-.767,3.579,1.819.58,4.281-.6,6.088-.631Z" fill="#2a2b7c"/>
      </g>
    </g>
    <g id="Group_42023" data-name="Group 42023" transform="translate(311 1275)">
      <path id="Path_95701" data-name="Path 95701" d="M826.418,373.141c1.3-2.534,3.354-3.786,2.543-7.081-.326-1.314-1.317-2.138-1.773-3.3-.571-1.447-.094-1.73.1-3.254.41-3.3-1.663-3.978-2.857-6.486-.834-1.75-.586-3.8-1.7-5.653-1.131-1.883-3.24-3.557-3.661-5.8-.311,3.963-2.829,10.049.2,13.389a4.419,4.419,0,0,0-1.319,5.517c.4.9,1.722,1.6,1.955,2.55.322,1.3-.484,1.346-.588,2.484-.332,3.605,10.141,8.747,7.379,12.359Z" fill="#2e3054"/>
      <g id="Group_42005" data-name="Group 42005">
        <path id="Path_95702" data-name="Path 95702" d="M820.347,349.381a8.635,8.635,0,0,1-2.376-1.328c.014-.111.03-.219.047-.328a8.15,8.15,0,0,0,2.276,1.334c-.078-.494-.153-.987-.225-1.473-.064-.43-.129-.859-.195-1.29-.065-.4-.147-.81-.228-1.2-.069-.336-.14-.68-.194-1.015-.038-.209-.086-.454-.139-.71-.1-.525-.215-1.093-.265-1.61,0-.063.012-.125.016-.188a5.157,5.157,0,0,0,.442,1.3c.03.153.06.3.088.447.054.258.1.5.137.718.057.33.125.674.2,1,.081.4.163.808.227,1.216.069.428.131.86.2,1.292.16,1.074.329,2.178.544,3.272.962-.6,1.4-2.311,1.611-3.8.077.115.151.232.221.351-.241,1.52-.731,3.17-1.774,3.747.026.117.048.24.074.36.231,1.057.5,2.106.8,3.145a9.874,9.874,0,0,0,1.983-3.7c.039.191.077.384.121.575a10.258,10.258,0,0,1-2.009,3.446c.259.893.532,1.775.8,2.645.018.057.026.084.035.11.075.243.15.486.226.734a8.687,8.687,0,0,1,.742-.927,8.57,8.57,0,0,0,.729-.9,6.961,6.961,0,0,0,.874-2.118c.073.1.145.192.215.285a7,7,0,0,1-.85,1.991,9.124,9.124,0,0,1-.756.936,7.458,7.458,0,0,0-.8,1.027l-.072-.046c.339,1.111.677,2.244.98,3.382.015.057.028.118.045.178a6.269,6.269,0,0,1,1-1.228,6.815,6.815,0,0,0,.6-.672,12.031,12.031,0,0,0,1.533-2.739,5,5,0,0,1,.091.541,13.642,13.642,0,0,1-1.393,2.36,6.572,6.572,0,0,1-.627.71,3.713,3.713,0,0,0-1.075,1.508c.477,1.808.993,3.71,1.527,5.567a28.786,28.786,0,0,1,.783,4.249c.017.109.03.219.047.329-.052.089-.1.184-.151.28l.062,1.105c-.088-.561-.164-1.125-.239-1.677a28.423,28.423,0,0,0-.777-4.207c-.539-1.866-1.053-3.777-1.533-5.591-.061-.235-.118-.439-.169-.641-.105-.4-.219-.8-.332-1.206a8.612,8.612,0,0,0-1.806-.354,12.162,12.162,0,0,1-1.439-.243,7.828,7.828,0,0,1-2.646-1.315c-.017-.123-.024-.246-.031-.37a8.027,8.027,0,0,0,2.75,1.408,11.341,11.341,0,0,0,1.4.235,10.725,10.725,0,0,1,1.674.308c-.273-.946-.564-1.888-.85-2.81a2.964,2.964,0,0,0-.995-.3,4.579,4.579,0,0,1-.832-.2,6.721,6.721,0,0,1-2.4-1.346c.055-.079.112-.154.173-.227a6.378,6.378,0,0,0,2.328,1.308,4.866,4.866,0,0,0,.782.183,5.074,5.074,0,0,1,.827.194c-.428-1.384-.857-2.8-1.227-4.231-.1,0-.209,0-.318-.012a6.892,6.892,0,0,1-2.885-1.011c-.02-.125-.041-.254-.06-.381a6.42,6.42,0,0,0,3.191,1.12q-.172-.678-.318-1.352C820.593,350.821,820.463,350.1,820.347,349.381Z" fill="#fff"/>
        <path id="Path_95703" data-name="Path 95703" d="M826.684,375.4c-.04-.2-.079-.41-.113-.614a5.545,5.545,0,0,1,.3.575Z" fill="#fff"/>
      </g>
      <path id="Path_95704" data-name="Path 95704" d="M808.081,356.949c2.737,1.6,10.541.761,9.5,5.671,3.6-.494,4.72.924,4.493,4.338.025-.369,1.324-.116,1.509-.006a3.587,3.587,0,0,1,.868,1.1,8.707,8.707,0,0,1,.778,3.293,28.671,28.671,0,0,0,.812,3.986c-2.31-2.8-10.623-2.747-9.157-6.183-1.288.164-3.658.6-4.689-.45-1.323-1.344.23-2.745,1.408-3.421-5.007-.633-4.485-2.811-3.806-5.275l-.88-1.053A5.673,5.673,0,0,1,808.081,356.949Z" fill="#5c75c3"/>
      <g id="Group_42022" data-name="Group 42022">
        <g id="Group_42006" data-name="Group 42006">
          <path id="Path_95705" data-name="Path 95705" d="M826.627,376.079c6.848-4.208,6.828-21.173,6.828-21.344l-.225,0c0,.169.022,17.008-6.721,21.151Z" fill="#97b8da"/>
        </g>
        <g id="Group_42007" data-name="Group 42007">
          <path id="Path_95706" data-name="Path 95706" d="M828.982,373.506c.008.075-.857-3.968-2.708-3.669s2.716,3.744,2.716,3.744Z" fill="#97b8da"/>
        </g>
        <g id="Group_42008" data-name="Group 42008">
          <path id="Path_95707" data-name="Path 95707" d="M830.381,371.377s-1.762-4.612-3.159-3.688S830.381,371.377,830.381,371.377Z" fill="#97b8da"/>
        </g>
        <g id="Group_42009" data-name="Group 42009">
          <path id="Path_95708" data-name="Path 95708" d="M831.339,368.765s-2.248-4.95-3.966-3.69C826.074,366.026,831.339,368.765,831.339,368.765Z" fill="#97b8da"/>
        </g>
        <g id="Group_42010" data-name="Group 42010">
          <path id="Path_95709" data-name="Path 95709" d="M832.442,364.117s-1.715-4.843-3.076-3.623S832.442,364.117,832.442,364.117Z" fill="#97b8da"/>
        </g>
        <g id="Group_42011" data-name="Group 42011">
          <path id="Path_95710" data-name="Path 95710" d="M832.2,365.926s-2.862-4.338-3.846-2.8C827.7,364.163,832.2,365.926,832.2,365.926Z" fill="#97b8da"/>
        </g>
        <g id="Group_42012" data-name="Group 42012">
          <path id="Path_95711" data-name="Path 95711" d="M832.891,360.973s-1.994-5.261-3.335-3.893S832.891,360.973,832.891,360.973Z" fill="#97b8da"/>
        </g>
        <g id="Group_42013" data-name="Group 42013">
          <path id="Path_95712" data-name="Path 95712" d="M833.072,357.482s-1.162-4.607-1.9-3.237S833.072,357.482,833.072,357.482Z" fill="#97b8da"/>
        </g>
        <g id="Group_42014" data-name="Group 42014">
          <path id="Path_95713" data-name="Path 95713" d="M833.373,356.242s1.826-4.218.4-4.2S833.373,356.242,833.373,356.242Z" fill="#97b8da"/>
        </g>
        <g id="Group_42015" data-name="Group 42015">
          <path id="Path_95714" data-name="Path 95714" d="M833.072,357.482s4.293-1.272,3.089-2.483S833.072,357.482,833.072,357.482Z" fill="#97b8da"/>
        </g>
        <g id="Group_42016" data-name="Group 42016">
          <path id="Path_95715" data-name="Path 95715" d="M833.014,360.13s5.035-1.364,4.448-3.1S833.014,360.13,833.014,360.13Z" fill="#97b8da"/>
        </g>
        <g id="Group_42017" data-name="Group 42017">
          <path id="Path_95716" data-name="Path 95716" d="M832.5,362.753s6.671-1.562,5.628-3.319S832.5,362.753,832.5,362.753Z" fill="#97b8da"/>
        </g>
        <g id="Group_42018" data-name="Group 42018">
          <path id="Path_95717" data-name="Path 95717" d="M832.057,365.294s7.521-.761,6.972-2.8S832.057,365.294,832.057,365.294Z" fill="#97b8da"/>
        </g>
        <g id="Group_42019" data-name="Group 42019">
          <path id="Path_95718" data-name="Path 95718" d="M830.982,369.494s6.7-2.544,7.234-.648S830.982,369.494,830.982,369.494Z" fill="#97b8da"/>
        </g>
        <g id="Group_42020" data-name="Group 42020">
          <path id="Path_95719" data-name="Path 95719" d="M831.96,366.932s5.521-3.092,6.228-1.264S831.96,366.932,831.96,366.932Z" fill="#97b8da"/>
        </g>
        <g id="Group_42021" data-name="Group 42021">
          <path id="Path_95720" data-name="Path 95720" d="M830.485,370.986s6-1.478,5.641.524-5.745-.133-5.745-.133Z" fill="#97b8da"/>
        </g>
      </g>
      <path id="Path_95721" data-name="Path 95721" d="M819.024,372.169c0,8.1,2.9,14.661,6.474,14.661s6.477-6.564,6.477-14.661Z" fill="#7ab6f6"/>
      <path id="Path_95722" data-name="Path 95722" d="M819.024,386.307c0,.5,2.9.9,6.474.9s6.477-.4,6.477-.9Z" fill="#b0bcd8"/>
      <path id="Path_95723" data-name="Path 95723" d="M820.286,374.59a1.368,1.368,0,1,0,1.366-1.266A1.317,1.317,0,0,0,820.286,374.59Z" fill="#fff" opacity="0.3"/>
    </g>
    <path id="Path_95724" data-name="Path 95724" d="M1033.775,183.018a13.666,13.666,0,1,1-11.027-15.874A13.665,13.665,0,0,1,1033.775,183.018Z" transform="translate(311 1275)" fill="#7ab6f6"/>
    <g id="Group_42031" data-name="Group 42031" transform="translate(311 1275)">
      <g id="Group_42029" data-name="Group 42029">
        <g id="Group_42025" data-name="Group 42025">
          <g id="Group_42024" data-name="Group 42024">
            <path id="Path_95725" data-name="Path 95725" d="M1027.49,189.283l-1.816-.327a.307.307,0,0,1,.108-.6l1.818.327a.127.127,0,0,0,.145-.1l.644-3.573a3.885,3.885,0,0,0-2.343-4.238.312.312,0,0,1-.181-.338l.2-1.086a.309.309,0,0,1,.211-.239,2.655,2.655,0,0,0,1.436-1.19.309.309,0,0,1,.372-.128.306.306,0,0,0,.056.017c.286.052.609-.3.692-.761.091-.508-.121-.9-.377-.954a.307.307,0,0,1-.247-.278,2.22,2.22,0,0,0-4.349-.783.308.308,0,0,1-.329.174c-.288-.047-.6.3-.685.762s.095.9.382.955a.3.3,0,0,0,.057,0,.306.306,0,0,1,.3.249,2.655,2.655,0,0,0,.933,1.616.317.317,0,0,1,.114.3l-.2,1.086a.308.308,0,0,1-.287.253,3.885,3.885,0,0,0-3.674,3.145l-.646,3.583a.127.127,0,0,0,.1.148l1.94.35a.308.308,0,0,1-.109.606l-1.941-.35a.743.743,0,0,1-.6-.863l.643-3.573a4.49,4.49,0,0,1,4-3.641l.122-.677a3.258,3.258,0,0,1-.964-1.648,1.371,1.371,0,0,1-.794-1.65,1.439,1.439,0,0,1,1.152-1.269,2.8,2.8,0,0,1,5.41.975,1.44,1.44,0,0,1,.637,1.59,1.37,1.37,0,0,1-1.321,1.27,3.26,3.26,0,0,1-1.478,1.208l-.121.677a4.485,4.485,0,0,1,2.483,4.8l-.645,3.583A.745.745,0,0,1,1027.49,189.283Z" fill="#fff"/>
          </g>
        </g>
        <g id="Group_42026" data-name="Group 42026">
          <path id="Path_95726" data-name="Path 95726" d="M1023.665,188.459a.313.313,0,0,1-.13-.056.308.308,0,0,1-.095-.12l-1.112-1.188a.306.306,0,0,1-.061-.322l1.471-3.735-.275-.94a.305.305,0,0,1,.087-.312l.639-.592a.308.308,0,0,1,.418.452l-.5.461.251.859a.315.315,0,0,1-.008.2l-1.44,3.652.893.953,1.17-.581-.075-3.925a.306.306,0,0,1,.062-.189l.526-.706-.421-.71a.307.307,0,1,1,.528-.315l.528.887a.311.311,0,0,1-.019.342l-.586.785.076,4.014a.308.308,0,0,1-.17.28l-1.456.725a.3.3,0,0,1-.131.079.3.3,0,0,1-.156.005Z" fill="#fff"/>
        </g>
        <g id="Group_42027" data-name="Group 42027">
          <path id="Path_95727" data-name="Path 95727" d="M1025.053,183.543l-.947-.17a.308.308,0,0,1,.109-.606l.947.171a.307.307,0,1,1-.109.6Z" fill="#fff"/>
        </g>
        <g id="Group_42028" data-name="Group 42028">
          <path id="Path_95728" data-name="Path 95728" d="M1024.867,181.559a.31.31,0,0,1-.135-.06,15.929,15.929,0,0,0-1.375-.988.307.307,0,0,1,.136-.6c.068.012.242.043,1.487,1l1.489-.484a.307.307,0,1,1,.189.585l-1.641.534A.307.307,0,0,1,1024.867,181.559Z" fill="#fff"/>
        </g>
      </g>
      <g id="Group_42030" data-name="Group 42030">
        <path id="Path_95729" data-name="Path 95729" d="M1015,187.033l-2.516-.453a.916.916,0,0,1-.693-1.09l1.381-7.667-2.509-.452a.315.315,0,0,1-.2-.127.922.922,0,0,1,.23-1.28l4.96-3.445a.92.92,0,0,1,1.28.23l3.447,4.96a.923.923,0,0,1-.231,1.279.312.312,0,0,1-.231.051l-2.509-.452-1.381,7.666A.915.915,0,0,1,1015,187.033Zm-4.075-10.24,2.659.479a.307.307,0,0,1,.248.357l-1.435,7.97a.308.308,0,0,0,.2.375l2.514.453a.309.309,0,0,0,.317-.282l1.435-7.97a.308.308,0,0,1,.358-.248l2.658.479a.315.315,0,0,0,.049-.118.307.307,0,0,0-.049-.228l-3.446-4.96a.313.313,0,0,0-.424-.076l-4.96,3.446a.3.3,0,0,0-.125.2A.286.286,0,0,0,1010.922,176.793Z" fill="#fff"/>
      </g>
    </g>
    <path id="Path_95730" data-name="Path 95730" d="M1013.863,218.675a11.333,11.333,0,1,1-11.333-11.334A11.333,11.333,0,0,1,1013.863,218.675Z" transform="translate(311 1275)" fill="#a1a8e6"/>
    <g id="Group_42039" data-name="Group 42039" transform="translate(311 1275)">
      <g id="Group_42032" data-name="Group 42032">
        <path id="Path_95731" data-name="Path 95731" d="M1006.069,220.28h-5.62a.57.57,0,0,1-.569-.57v-1.091a3.274,3.274,0,0,1,2.377-3.121v-.454a2.4,2.4,0,0,1-.884-1.033,1.028,1.028,0,0,1-.785-1.1,1.078,1.078,0,0,1,.662-1.075,2.05,2.05,0,0,1,4.018,0,1.078,1.078,0,0,1,.662,1.075,1.028,1.028,0,0,1-.784,1.1,2.4,2.4,0,0,1-.884,1.033v.454a3.265,3.265,0,0,1,2.376,3.114c0,.014,0,1.1,0,1.1A.57.57,0,0,1,1006.069,220.28Zm-4.529-6.783a.253.253,0,0,1,.238.163,1.887,1.887,0,0,0,.853,1.011.255.255,0,0,1,.137.225v.8a.256.256,0,0,1-.2.249,2.767,2.767,0,0,0-2.18,2.67v1.1a.059.059,0,0,0,.058.06h5.62a.059.059,0,0,0,.059-.06v-1.09a2.771,2.771,0,0,0-2.181-2.678.255.255,0,0,1-.2-.249v-.8a.255.255,0,0,1,.137-.225,1.879,1.879,0,0,0,.851-1.011.253.253,0,0,1,.283-.159c.208,0,.4-.24.4-.592s-.188-.593-.356-.6a.257.257,0,0,1-.243-.191,1.569,1.569,0,0,0-3.124,0,.256.256,0,0,1-.242.191c-.169,0-.357.248-.357.6s.19.6.36.6A.535.535,0,0,1,1001.54,213.5Z" fill="#fff"/>
      </g>
      <g id="Group_42033" data-name="Group 42033">
        <path id="Path_95732" data-name="Path 95732" d="M996.694,225.463a1.761,1.761,0,1,1,1.762-1.762A1.763,1.763,0,0,1,996.694,225.463Zm0-3.013a1.252,1.252,0,1,0,1.251,1.251A1.253,1.253,0,0,0,996.694,222.45Z" fill="#fff"/>
      </g>
      <g id="Group_42034" data-name="Group 42034">
        <path id="Path_95733" data-name="Path 95733" d="M1002.943,225.463a1.761,1.761,0,1,1,1.762-1.762A1.764,1.764,0,0,1,1002.943,225.463Zm0-3.013a1.252,1.252,0,1,0,1.252,1.251A1.252,1.252,0,0,0,1002.943,222.45Z" fill="#fff"/>
      </g>
      <g id="Group_42035" data-name="Group 42035">
        <path id="Path_95734" data-name="Path 95734" d="M1009.192,225.463a1.761,1.761,0,1,1,1.762-1.762A1.763,1.763,0,0,1,1009.192,225.463Zm0-3.013a1.252,1.252,0,1,0,1.252,1.251A1.252,1.252,0,0,0,1009.192,222.45Z" fill="#fff"/>
      </g>
      <g id="Group_42036" data-name="Group 42036">
        <path id="Path_95735" data-name="Path 95735" d="M997.81,222.617a.255.255,0,0,1-.18-.435l2.288-2.287a.254.254,0,0,1,.359.36l-2.286,2.288A.255.255,0,0,1,997.81,222.617Z" fill="#fff"/>
      </g>
      <g id="Group_42037" data-name="Group 42037">
        <path id="Path_95736" data-name="Path 95736" d="M1008.468,222.617a.253.253,0,0,1-.181-.074L1006,220.255a.255.255,0,0,1,.36-.36l2.288,2.287a.255.255,0,0,1,0,.361A.25.25,0,0,1,1008.468,222.617Z" fill="#fff"/>
      </g>
      <g id="Group_42038" data-name="Group 42038">
        <path id="Path_95737" data-name="Path 95737" d="M1003.139,222.45a.256.256,0,0,1-.256-.255v-1.674a.255.255,0,0,1,.511,0V222.2A.255.255,0,0,1,1003.139,222.45Z" fill="#fff"/>
      </g>
    </g>
    <path id="Path_95738" data-name="Path 95738" d="M1002.451,143.024a17.333,17.333,0,1,1-19.374-15.019A17.333,17.333,0,0,1,1002.451,143.024Z" transform="translate(311 1275)" fill="#f3a9b8"/>
    <g id="Group_42061" data-name="Group 42061" transform="translate(311 1275)">
      <g id="Group_42040" data-name="Group 42040">
        <path id="Path_95739" data-name="Path 95739" d="M993.746,147.2a.441.441,0,0,1-.325-.089l-5.285-4.1a.442.442,0,1,1,.541-.7l5.283,4.1a.442.442,0,0,1-.214.788Z" fill="#fff"/>
      </g>
      <g id="Group_42041" data-name="Group 42041">
        <path id="Path_95740" data-name="Path 95740" d="M977.6,148.75a.443.443,0,0,1-.482-.324,2.571,2.571,0,0,1,.6-2.533l4.25-5.483a.439.439,0,0,1,.62-.078.444.444,0,0,1,.078.619l-4.251,5.484a1.715,1.715,0,0,0-.444,1.764.445.445,0,0,1-.313.539A.354.354,0,0,1,977.6,148.75Z" fill="#fff"/>
      </g>
      <g id="Group_42046" data-name="Group 42046">
        <g id="Group_42042" data-name="Group 42042">
          <path id="Path_95741" data-name="Path 95741" d="M990.034,156.006a.441.441,0,0,1-.4-.709.992.992,0,0,0-.344-1.336l-1.211-.938a.442.442,0,0,1,.542-.7l1.21.939a1.863,1.863,0,0,1,.5,2.575A.432.432,0,0,1,990.034,156.006Z" fill="#fff"/>
        </g>
        <g id="Group_42043" data-name="Group 42043">
          <path id="Path_95742" data-name="Path 95742" d="M990.87,154.347a1.451,1.451,0,0,1-.163.012,2.112,2.112,0,0,1-1.374-.457l-1.211-.939a.441.441,0,0,1,.54-.7l1.211.939a1.24,1.24,0,0,0,.8.273.755.755,0,0,0,.581-.274.746.746,0,0,0,.12-.629,1.251,1.251,0,0,0-.464-.707l-1.211-.937a.442.442,0,0,1,.541-.7l1.211.938a2.117,2.117,0,0,1,.787,1.218,1.621,1.621,0,0,1-.286,1.359A1.6,1.6,0,0,1,990.87,154.347Z" fill="#fff"/>
        </g>
        <g id="Group_42044" data-name="Group 42044">
          <path id="Path_95743" data-name="Path 95743" d="M992.491,152.249a2.1,2.1,0,0,1-1.537-.441l-1.21-.938a.442.442,0,1,1,.542-.7l1.211.939a1,1,0,0,0,1.379,0,.753.753,0,0,0,.12-.631,1.234,1.234,0,0,0-.464-.705l-1.21-.94a.441.441,0,1,1,.54-.7l1.211.939a2.11,2.11,0,0,1,.786,1.217,1.612,1.612,0,0,1-.286,1.358A1.594,1.594,0,0,1,992.491,152.249Z" fill="#fff"/>
        </g>
        <g id="Group_42045" data-name="Group 42045">
          <path id="Path_95744" data-name="Path 95744" d="M994.116,150.158c-.053.007-.108.011-.162.014a2.114,2.114,0,0,1-1.375-.459l-1.211-.938a.442.442,0,1,1,.541-.7l1.211.938a1.247,1.247,0,0,0,.8.274.758.758,0,0,0,.581-.274.992.992,0,0,0-.345-1.335l-1.211-.939a.445.445,0,0,1-.078-.62.44.44,0,0,1,.619-.078l1.212.939a1.864,1.864,0,0,1,.5,2.575A1.6,1.6,0,0,1,994.116,150.158Z" fill="#fff"/>
        </g>
      </g>
      <g id="Group_42047" data-name="Group 42047">
        <path id="Path_95745" data-name="Path 95745" d="M977.632,148.984a.436.436,0,0,1-.327-.091l-5.1-3.99a2.121,2.121,0,0,1-.185-2.978l4.726-6.1a2.121,2.121,0,0,1,2.932-.564l4.032,3.126a.445.445,0,0,1,.078.62.44.44,0,0,1-.619.078l-4.033-3.126a.983.983,0,0,0-.817-.163,1.514,1.514,0,0,0-.875.57l-4.724,6.1a1.512,1.512,0,0,0-.334.989.979.979,0,0,0,.362.751l5.1,3.991a.444.444,0,0,1,.076.621A.439.439,0,0,1,977.632,148.984Z" fill="#fff"/>
      </g>
      <g id="Group_42048" data-name="Group 42048">
        <path id="Path_95746" data-name="Path 95746" d="M974.938,142.355a1,1,0,1,1-.861,1.113A1,1,0,0,1,974.938,142.355Z" fill="#fff"/>
      </g>
      <g id="Group_42053" data-name="Group 42053">
        <g id="Group_42049" data-name="Group 42049">
          <path id="Path_95747" data-name="Path 95747" d="M979.3,152.991a1.766,1.766,0,0,1-1.306-.362,1.712,1.712,0,0,1-.351-2.393c.139-.177.62-.8.757-.975a.442.442,0,0,1,.7.541c-.138.177-.62.8-.758.977a.86.86,0,0,0,1.356,1.051l.758-.976a.442.442,0,1,1,.7.541l-.758.977A1.638,1.638,0,0,1,979.3,152.991Z" fill="#fff"/>
        </g>
        <g id="Group_42050" data-name="Group 42050">
          <path id="Path_95748" data-name="Path 95748" d="M981.417,154.631a1.775,1.775,0,0,1-1.307-.361,1.714,1.714,0,0,1-.349-2.393l.757-.977a.442.442,0,1,1,.7.541l-.757.976a.861.861,0,0,0,1.355,1.053l.758-.977a.442.442,0,0,1,.7.542l-.757.975A1.639,1.639,0,0,1,981.417,154.631Z" fill="#fff"/>
        </g>
        <g id="Group_42051" data-name="Group 42051">
          <path id="Path_95749" data-name="Path 95749" d="M983.532,156.27a1.762,1.762,0,0,1-1.306-.36,1.713,1.713,0,0,1-.349-2.393l.757-.977a.442.442,0,1,1,.7.541l-.757.977a.861.861,0,0,0,1.357,1.051l.756-.976a.442.442,0,1,1,.7.541l-.756.976A1.638,1.638,0,0,1,983.532,156.27Z" fill="#fff"/>
        </g>
        <g id="Group_42052" data-name="Group 42052">
          <path id="Path_95750" data-name="Path 95750" d="M985.65,157.912a1.8,1.8,0,0,1-1.308-.363,1.762,1.762,0,0,1-.671-1.132,1.634,1.634,0,0,1,.322-1.261l.756-.976a.442.442,0,1,1,.7.541l-.758.976a.768.768,0,0,0-.146.586.911.911,0,0,0,.973.755.757.757,0,0,0,.531-.289l.758-.976a.441.441,0,1,1,.7.542l-.757.975A1.629,1.629,0,0,1,985.65,157.912Z" fill="#fff"/>
        </g>
      </g>
      <g id="Group_42058" data-name="Group 42058">
        <g id="Group_42054" data-name="Group 42054">
          <path id="Path_95751" data-name="Path 95751" d="M986.662,157.185a.44.44,0,0,1-.4-.708l.758-.976a.861.861,0,0,0-1.358-1.051l-.756.976a.442.442,0,1,1-.7-.542l.755-.976a1.744,1.744,0,0,1,2.755,2.134l-.757.977A.443.443,0,0,1,986.662,157.185Z" fill="#fff"/>
        </g>
        <g id="Group_42055" data-name="Group 42055">
          <path id="Path_95752" data-name="Path 95752" d="M984.548,155.546a.441.441,0,0,1-.4-.709l.756-.977a.76.76,0,0,0,.147-.586.884.884,0,0,0-.34-.566.828.828,0,0,0-1.164.1l-.757.976a.442.442,0,0,1-.7-.542l.758-.976a1.712,1.712,0,0,1,2.4-.259,1.772,1.772,0,0,1,.67,1.133,1.638,1.638,0,0,1-.321,1.26l-.758.976A.431.431,0,0,1,984.548,155.546Z" fill="#fff"/>
        </g>
        <g id="Group_42056" data-name="Group 42056">
          <path id="Path_95753" data-name="Path 95753" d="M982.432,153.907a.443.443,0,0,1-.405-.71l.756-.976a.86.86,0,0,0-1.356-1.051l-.758.976a.441.441,0,1,1-.7-.541l.757-.978a1.743,1.743,0,0,1,2.753,2.136l-.756.975A.441.441,0,0,1,982.432,153.907Z" fill="#fff"/>
        </g>
        <g id="Group_42057" data-name="Group 42057">
          <path id="Path_95754" data-name="Path 95754" d="M980.316,152.267a.441.441,0,0,1-.4-.708l.756-.978a.753.753,0,0,0,.146-.585.878.878,0,0,0-.338-.567.83.83,0,0,0-1.165.1l-.757.976a.441.441,0,1,1-.7-.54l.757-.977a1.712,1.712,0,0,1,2.4-.259,1.769,1.769,0,0,1,.672,1.132,1.631,1.631,0,0,1-.323,1.261l-.757.977A.437.437,0,0,1,980.316,152.267Z" fill="#fff"/>
        </g>
      </g>
      <g id="Group_42059" data-name="Group 42059">
        <path id="Path_95755" data-name="Path 95755" d="M996.071,144.039a.441.441,0,0,1-.4-.709l2.3-2.964c.222-.286.02-.847-.433-1.2l-5.143-3.987a1.379,1.379,0,0,0-.788-.3.584.584,0,0,0-.48.183l-1.92,2.477a.442.442,0,1,1-.7-.542l1.919-2.475a1.448,1.448,0,0,1,1.2-.528,2.263,2.263,0,0,1,1.311.49l5.143,3.987a1.777,1.777,0,0,1,.589,2.439l-2.3,2.964A.441.441,0,0,1,996.071,144.039Z" fill="#fff"/>
      </g>
      <g id="Group_42060" data-name="Group 42060">
        <path id="Path_95756" data-name="Path 95756" d="M985.356,149.7c-.146.019-.241.025-.256.026a.441.441,0,0,1-.448-.316l-1.987-6.678a.442.442,0,0,1,.089-.414l3.282-3.82a2.829,2.829,0,0,1,3.958-.493l5.371,4.237a2.564,2.564,0,0,1,.894,2,3.355,3.355,0,0,1-.76,2.13.676.676,0,0,1-.072.069l-.129.1a.441.441,0,1,1-.535-.7l.087-.067a2.452,2.452,0,0,0,.524-1.521,1.691,1.691,0,0,0-.564-1.323l-5.372-4.237a1.949,1.949,0,0,0-2.726.376l-3.132,3.643,1.814,6.093a2.788,2.788,0,0,0,1.852-.943,1.712,1.712,0,0,0-.035-1.594c-1.115-2.7.44-3.795.943-4.067a.442.442,0,0,1,.419.779c-.539.291-1.325,1.059-.544,2.951a2.523,2.523,0,0,1-.037,2.4A3.744,3.744,0,0,1,985.356,149.7Z" fill="#fff"/>
      </g>
    </g>
    <g id="Group_42067" data-name="Group 42067" transform="translate(311 1275)">
      <path id="Path_95757" data-name="Path 95757" d="M965.344,237.535a16,16,0,1,1-10.809-19.879A16,16,0,0,1,965.344,237.535Z" fill="#7ab6f6"/>
      <g id="Group_42066" data-name="Group 42066">
        <g id="Group_42062" data-name="Group 42062">
          <path id="Path_95758" data-name="Path 95758" d="M939.059,231.458l-.224-.069a.431.431,0,0,1,.087-.847c.089,0,8.7-.458,13.016-4.963l-1.948-1.868a.432.432,0,0,1-.133-.3.956.956,0,0,1,.933-.973l5.646-.119a.929.929,0,0,1,.291.039.948.948,0,0,1,.681.894l.12,5.645a.953.953,0,0,1-.932.973.43.43,0,0,1-.306-.12l-1.548-1.483C948.742,233.748,941.244,232.1,939.059,231.458ZM950.8,223.3l2.036,1.951a.429.429,0,0,1,.024.6c-3.047,3.469-8.26,4.785-11.366,5.277a14.938,14.938,0,0,0,12.951-3.757.431.431,0,0,1,.6,0l1.625,1.557c0-.006-.119-5.651-.119-5.651a.092.092,0,0,0-.1-.091l-5.644.12Z" fill="#fff"/>
        </g>
        <g id="Group_42063" data-name="Group 42063">
          <path id="Path_95759" data-name="Path 95759" d="M955.377,246.318l-1.655-.489a1.242,1.242,0,0,1-.933-1.477l1.2-4.066a1.242,1.242,0,0,1-.183-.04,1.157,1.157,0,0,1-.831-1.4L954,235.376a.579.579,0,0,1,.033-.085,3.289,3.289,0,0,1,2.247-2.043,2.174,2.174,0,0,1-.04-1.346,2.436,2.436,0,0,1,4.663,1.378,2.179,2.179,0,0,1-.765,1.108,3.3,3.3,0,0,1,.774,2.938.79.79,0,0,1-.019.087l-1.024,3.465a1.155,1.155,0,0,1-1.459.728,1.213,1.213,0,0,1-.243-.1l-1.205,4.078A1.243,1.243,0,0,1,955.377,246.318Zm-.652-7a.416.416,0,0,1,.128.064.427.427,0,0,1,.161.47l-1.4,4.74c-.039.132.1.332.353.407l1.655.49c.257.076.478-.019.517-.152l1.432-4.846a.43.43,0,0,1,.835.041.343.343,0,0,0,.25.245.3.3,0,0,0,.39-.147l1.017-3.443a2.516,2.516,0,0,0-.9-2.556.43.43,0,0,1,.109-.731,1.368,1.368,0,0,0,.811-.867,1.58,1.58,0,0,0-3.014-.892,1.371,1.371,0,0,0,.209,1.17.43.43,0,0,1-.3.673,2.49,2.49,0,0,0-2.13,1.607c-.019.046-1.036,3.49-1.036,3.49-.039.131.074.284.248.335a.359.359,0,0,0,.3-.038A.431.431,0,0,1,954.725,239.322Z" fill="#fff"/>
        </g>
        <g id="Group_42064" data-name="Group 42064">
          <path id="Path_95760" data-name="Path 95760" d="M948.72,244.351l-3.629-1.073a1.292,1.292,0,0,1-.872-1.6l2.048-6.929a1.29,1.29,0,0,1,1.6-.872l3.629,1.072a1.293,1.293,0,0,1,.873,1.6l-2.048,6.929A1.291,1.291,0,0,1,948.72,244.351Zm-1.094-9.653a.43.43,0,0,0-.534.291l-2.049,6.929a.432.432,0,0,0,.292.535l3.629,1.072a.428.428,0,0,0,.534-.29l2.048-6.929a.432.432,0,0,0-.29-.536Z" fill="#fff"/>
        </g>
        <g id="Group_42065" data-name="Group 42065">
          <path id="Path_95761" data-name="Path 95761" d="M940.711,241.984l-3.631-1.073a1.292,1.292,0,0,1-.871-1.6l.976-3.3a1.29,1.29,0,0,1,1.6-.872l3.631,1.073a1.292,1.292,0,0,1,.872,1.6l-.976,3.3A1.292,1.292,0,0,1,940.711,241.984Zm-2.167-6.024a.431.431,0,0,0-.534.292l-.976,3.3a.43.43,0,0,0,.29.534l3.631,1.073a.428.428,0,0,0,.534-.29l.976-3.3a.431.431,0,0,0-.29-.534Z" fill="#fff"/>
        </g>
      </g>
    </g>
    <g id="Group_42077" data-name="Group 42077" transform="translate(311 1275)">
      <circle id="Ellipse_146" data-name="Ellipse 146" cx="15" cy="15" r="15" transform="translate(955.333 173)" fill="#2a2b7c"/>
      <g id="Group_42076" data-name="Group 42076">
        <g id="Group_42073" data-name="Group 42073">
          <g id="Group_42069" data-name="Group 42069">
            <g id="Group_42068" data-name="Group 42068">
              <path id="Path_95762" data-name="Path 95762" d="M975.32,195.733l-1.932.3a.326.326,0,0,1-.1-.644l1.933-.3a.134.134,0,0,0,.11-.154l-.594-3.8a4.116,4.116,0,0,0-3.813-3.432.326.326,0,0,1-.3-.274l-.181-1.156a.328.328,0,0,1,.13-.313,2.813,2.813,0,0,0,1.025-1.689.324.324,0,0,1,.328-.256.345.345,0,0,0,.061,0c.305-.047.505-.516.429-1-.084-.54-.434-.862-.707-.825a.322.322,0,0,1-.343-.192,2.353,2.353,0,0,0-4.627.723.323.323,0,0,1-.268.287c-.3.054-.5.512-.422,1s.409.872.713.824a.334.334,0,0,0,.059-.016.326.326,0,0,1,.391.144,2.815,2.815,0,0,0,1.492,1.3.327.327,0,0,1,.217.258l.18,1.156a.324.324,0,0,1-.2.352,4.114,4.114,0,0,0-2.588,4.421l.595,3.811a.134.134,0,0,0,.153.112l2.064-.322a.326.326,0,1,1,.1.645l-2.063.322a.786.786,0,0,1-.9-.657l-.593-3.8a4.754,4.754,0,0,1,2.746-5.031l-.112-.721a3.472,3.472,0,0,1-1.537-1.316,1.45,1.45,0,0,1-1.366-1.377,1.525,1.525,0,0,1,.714-1.67,2.966,2.966,0,0,1,5.754-.9,1.524,1.524,0,0,1,1.187,1.372,1.451,1.451,0,0,1-.88,1.729,3.466,3.466,0,0,1-1.062,1.721l.112.721a4.747,4.747,0,0,1,4.149,3.943l.6,3.811A.788.788,0,0,1,975.32,195.733Z" fill="#fff"/>
            </g>
          </g>
          <g id="Group_42070" data-name="Group 42070">
            <path id="Path_95763" data-name="Path 95763" d="M971.205,196.233a.31.31,0,0,1-.148-.011.32.32,0,0,1-.138-.087l-1.525-.8a.328.328,0,0,1-.173-.3l.179-4.249-.6-.845a.328.328,0,0,1-.022-.344l.436-.812a.325.325,0,1,1,.574.307l-.34.635.55.773a.326.326,0,0,1,.06.2l-.175,4.154,1.223.646.969-.989-1.433-3.9a.312.312,0,0,1,0-.211l.282-.888-.669-.566a.326.326,0,1,1,.421-.5l.835.705a.327.327,0,0,1,.1.348l-.315.989,1.467,3.992a.328.328,0,0,1-.073.34l-1.208,1.231a.322.322,0,0,1-.1.124.328.328,0,0,1-.154.059Z" fill="#fff"/>
          </g>
          <g id="Group_42071" data-name="Group 42071">
            <path id="Path_95764" data-name="Path 95764" d="M970.893,190.832l-1.007.157a.326.326,0,0,1-.1-.645l1.007-.157a.326.326,0,0,1,.1.645Z" fill="#fff"/>
          </g>
          <g id="Group_42072" data-name="Group 42072">
            <path id="Path_95765" data-name="Path 95765" d="M970.019,188.909a.32.32,0,0,1-.156-.014,16.865,16.865,0,0,0-1.719-.511.326.326,0,0,1-.072-.648c.072-.011.258-.041,1.837.487l1.321-1a.326.326,0,0,1,.393.52l-1.458,1.1A.335.335,0,0,1,970.019,188.909Z" fill="#fff"/>
          </g>
        </g>
        <g id="Group_42074" data-name="Group 42074">
          <path id="Path_95766" data-name="Path 95766" d="M979.839,192.617l-2.584.4a.325.325,0,0,1-.1-.643l2.584-.4a.077.077,0,0,0,.063-.088l-.518-3.313a3.548,3.548,0,0,0-3.288-2.958.326.326,0,0,1-.3-.275l-.157-1.007a.325.325,0,0,1,.129-.313,2.416,2.416,0,0,0,.879-1.448.324.324,0,0,1,.326-.256c.264-.036.455-.383.386-.828s-.356-.713-.571-.684a.327.327,0,0,1-.343-.192,2.209,2.209,0,0,0-2.256-1.49,1.988,1.988,0,0,0-1.5,1.306.326.326,0,0,1-.605-.245,2.659,2.659,0,0,1,2-1.706,2.8,2.8,0,0,1,2.865,1.682,1.376,1.376,0,0,1,1.05,1.228,1.312,1.312,0,0,1-.775,1.548,3.043,3.043,0,0,1-.915,1.483l.09.574a4.184,4.184,0,0,1,3.623,3.471c0,.017.518,3.322.518,3.322A.728.728,0,0,1,979.839,192.617Z" fill="#fff"/>
        </g>
        <g id="Group_42075" data-name="Group 42075">
          <path id="Path_95767" data-name="Path 95767" d="M964.572,195l-2.585.4a.728.728,0,0,1-.829-.608l-.517-3.313a4.191,4.191,0,0,1,2.39-4.418l-.09-.574a3.053,3.053,0,0,1-1.322-1.134,1.315,1.315,0,0,1-1.212-1.238,1.378,1.378,0,0,1,.626-1.49,2.8,2.8,0,0,1,2.217-2.474,2.657,2.657,0,0,1,2.427,1.013.326.326,0,1,1-.5.417,1.986,1.986,0,0,0-1.825-.786,2.209,2.209,0,0,0-1.7,2.107.327.327,0,0,1-.268.288c-.214.037-.4.385-.335.825s.359.717.575.683a.347.347,0,0,1,.434.132,2.413,2.413,0,0,0,1.279,1.112.323.323,0,0,1,.218.258l.157,1.007a.326.326,0,0,1-.2.353,3.544,3.544,0,0,0-2.231,3.809l.519,3.323a.077.077,0,0,0,.085.065l2.585-.4a.326.326,0,0,1,.1.644Z" fill="#fff"/>
        </g>
      </g>
    </g>
    <path id="Path_95768" data-name="Path 95768" d="M961.331,162.333a6.667,6.667,0,1,1-6.667-6.666A6.666,6.666,0,0,1,961.331,162.333Z" transform="translate(311 1275)" fill="#7ab6f6"/>
    <path id="Path_95769" data-name="Path 95769" d="M1032.664,147a9.333,9.333,0,1,1-9.334-9.333A9.333,9.333,0,0,1,1032.664,147Z" transform="translate(311 1275)" fill="#7ab6f6"/>
    <circle id="Ellipse_147" data-name="Ellipse 147" cx="5" cy="5" r="5" transform="translate(1286.998 1496)" fill="#7ab6f6"/>
    <path id="Path_95770" data-name="Path 95770" d="M943.331,134.333A5.333,5.333,0,1,1,938,129,5.334,5.334,0,0,1,943.331,134.333Z" transform="translate(311 1275)" fill="#7ab6f6"/>
    <g id="Group_42082" data-name="Group 42082" transform="translate(311 1275)">
      <g id="Group_42078" data-name="Group 42078">
        <path id="Path_95771" data-name="Path 95771" d="M1073.8,162.05l-5.31,2.082a.461.461,0,1,1-.336-.858l5.31-2.082a.2.2,0,0,0,.112-.265l-2.024-5.164a5.948,5.948,0,0,0-6.455-3.645.459.459,0,0,1-.493-.288l-.617-1.57a.462.462,0,0,1,.081-.471,4.058,4.058,0,0,0,.917-2.7.461.461,0,0,1,.374-.455.482.482,0,0,0,.089-.024c.425-.166.56-.879.295-1.557s-.843-1.1-1.266-.944a.464.464,0,0,1-.534-.161,3.4,3.4,0,0,0-6.3,2.471.463.463,0,0,1-.283.48c-.417.172-.549.884-.286,1.554s.848,1.109,1.273.942a.563.563,0,0,0,.082-.043.463.463,0,0,1,.583.08,4.056,4.056,0,0,0,2.512,1.36.457.457,0,0,1,.378.29l.617,1.57a.462.462,0,0,1-.167.546,6.287,6.287,0,0,0-1.87,2.036.46.46,0,0,1-.8-.456,7.194,7.194,0,0,1,1.848-2.119l-.388-.991a4.99,4.99,0,0,1-2.578-1.374,2.082,2.082,0,0,1-2.349-1.5,2.185,2.185,0,0,1,.484-2.565,4.268,4.268,0,0,1,7.805-3.061,2.191,2.191,0,0,1,2.1,1.554,2.085,2.085,0,0,1-.7,2.7,4.968,4.968,0,0,1-.957,2.76l.387.991a6.841,6.841,0,0,1,7.074,4.248c.008.023,2.031,5.179,2.031,5.179A1.127,1.127,0,0,1,1073.8,162.05Z" fill="#fff"/>
      </g>
      <g id="Group_42080" data-name="Group 42080">
        <g id="Group_42079" data-name="Group 42079">
          <path id="Path_95772" data-name="Path 95772" d="M1063.4,167.624a5.983,5.983,0,1,1,2.678-2.087A5.963,5.963,0,0,1,1063.4,167.624Zm-4.042-10.279a5.062,5.062,0,1,0,4.8.594A5.03,5.03,0,0,0,1059.357,157.345Z" fill="#fff"/>
        </g>
      </g>
      <g id="Group_42081" data-name="Group 42081">
        <path id="Path_95773" data-name="Path 95773" d="M1061.633,164.915a.46.46,0,0,1-.541-.161c-.547-.758-2.292-1.118-2.919-1.193a.461.461,0,0,1,.107-.915,8,8,0,0,1,2.659.808,6.678,6.678,0,0,1,1.8-4.973.461.461,0,0,1,.62.683c-1.93,1.753-1.447,5.22-1.442,5.254a.463.463,0,0,1-.283.495Z" fill="#fff"/>
      </g>
    </g>
  </g>
</svg>
