<svg xmlns="http://www.w3.org/2000/svg" width="278.737" height="249.152" viewBox="0 0 278.737 249.152">
  <g id="Group_42091" data-name="Group 42091" transform="translate(-390.101 -1406.194)">
    <g id="Group_41870" data-name="Group 41870" transform="translate(311 1275)">
      <g id="Group_41869" data-name="Group 41869">
        <path id="Path_95102" data-name="Path 95102" d="M288.146,322.828a1.742,1.742,0,0,0,1.642,1.959l14.9.735.411-11.966L291,312.986a1.742,1.742,0,0,0-1.8,1.521Z" fill="#7ab6f6"/>
        <g id="Group_41867" data-name="Group 41867">
          <path id="Path_95103" data-name="Path 95103" d="M300.7,314.328a3,3,0,0,0-1.909-2.173c-1.765-.432-3.906,1.524-3.925,1.544l-.6-.645c.1-.095,2.514-2.3,4.732-1.753a3.8,3.8,0,0,1,2.528,2.732Z" fill="#2e3054"/>
        </g>
        <g id="Group_41868" data-name="Group 41868">
          <rect id="Rectangle_38175" data-name="Rectangle 38175" width="0.5" height="15.751" transform="translate(288.93 318.451) rotate(-87.492)" fill="#fff"/>
        </g>
        <rect id="Rectangle_38176" data-name="Rectangle 38176" width="1.609" height="2.068" transform="translate(295.227 319.54) rotate(-87.797)" fill="#fff"/>
      </g>
      <path id="Path_95104" data-name="Path 95104" d="M305.388,313.565l1.877,10.842s.137.97-2.314,1.116S305.388,313.565,305.388,313.565Z" fill="#fff"/>
    </g>
    <g id="Group_41874" data-name="Group 41874" transform="translate(311 1275)">
      <g id="Group_41873" data-name="Group 41873">
        <path id="Path_95105" data-name="Path 95105" d="M288.146,322.828a1.742,1.742,0,0,0,1.642,1.959l14.9.735.411-11.966L291,312.986a1.742,1.742,0,0,0-1.8,1.521Z" fill="#7ab6f6"/>
        <g id="Group_41871" data-name="Group 41871">
          <path id="Path_95106" data-name="Path 95106" d="M300.7,314.328a3,3,0,0,0-1.909-2.173c-1.765-.432-3.906,1.524-3.925,1.544l-.6-.645c.1-.095,2.514-2.3,4.732-1.753a3.8,3.8,0,0,1,2.528,2.732Z" fill="#2e3054"/>
        </g>
        <g id="Group_41872" data-name="Group 41872">
          <rect id="Rectangle_38177" data-name="Rectangle 38177" width="0.5" height="15.751" transform="translate(288.93 318.451) rotate(-87.492)" fill="#fff"/>
        </g>
        <rect id="Rectangle_38178" data-name="Rectangle 38178" width="1.609" height="2.068" transform="translate(295.227 319.54) rotate(-87.797)" fill="#fff"/>
      </g>
      <path id="Path_95107" data-name="Path 95107" d="M305.388,313.565l1.877,10.842s.137.97-2.314,1.116S305.388,313.565,305.388,313.565Z" fill="#fff"/>
    </g>
    <g id="Group_41875" data-name="Group 41875" transform="translate(311 1275)">
      <circle id="Ellipse_131" data-name="Ellipse 131" cx="79.986" cy="79.986" r="79.986" transform="translate(159.036 333.29) rotate(-73.509)" fill="#cae1fc"/>
      <path id="Path_95108" data-name="Path 95108" d="M329.908,211.179a79.986,79.986,0,1,1-79.986-79.985A79.986,79.986,0,0,1,329.908,211.179Z" fill="#da97b8" opacity="0.3"/>
      <path id="Path_95109" data-name="Path 95109" d="M272.56,234.862a96.729,96.729,0,1,1-96.73-96.731A96.729,96.729,0,0,1,272.56,234.862Z" fill="#cbcfff" opacity="0.6"/>
    </g>
    <g id="Group_41882" data-name="Group 41882" transform="translate(311 1275)">
      <rect id="Rectangle_38184" data-name="Rectangle 38184" width="20.605" height="16.75" transform="translate(178.074 177.719) rotate(-70.181)" fill="#fff" opacity="0.8"/>
      <rect id="Rectangle_38185" data-name="Rectangle 38185" width="0.625" height="10.519" transform="translate(184.491 168.91) rotate(-70.182)" fill="#cbcfff"/>
      <rect id="Rectangle_38186" data-name="Rectangle 38186" width="0.625" height="10.519" transform="matrix(0.339, -0.941, 0.941, 0.339, 183.72, 171.024)" fill="#cbcfff"/>
      <rect id="Rectangle_38187" data-name="Rectangle 38187" width="0.625" height="10.52" transform="translate(182.947 173.137) rotate(-70.181)" fill="#cbcfff"/>
      <rect id="Rectangle_38188" data-name="Rectangle 38188" width="0.625" height="10.519" transform="translate(182.176 175.25) rotate(-70.18)" fill="#cbcfff"/>
      <rect id="Rectangle_38189" data-name="Rectangle 38189" width="0.625" height="4.093" transform="matrix(0.339, -0.941, 0.941, 0.339, 192.93, 164.54)" fill="#cbcfff"/>
      <rect id="Rectangle_38190" data-name="Rectangle 38190" width="0.625" height="4.093" transform="matrix(0.339, -0.941, 0.941, 0.339, 192.157, 166.653)" fill="#cbcfff"/>
      <rect id="Rectangle_38191" data-name="Rectangle 38191" width="0.625" height="4.092" transform="matrix(0.339, -0.941, 0.941, 0.339, 191.386, 168.767)" fill="#cbcfff"/>
      <rect id="Rectangle_38192" data-name="Rectangle 38192" width="4.688" height="3.75" transform="matrix(0.343, -0.939, 0.939, 0.343, 185.823, 166.738)" fill="#cbcfff"/>
    </g>
    <g id="Group_41883" data-name="Group 41883" transform="translate(311 1275)">
      <rect id="Rectangle_38193" data-name="Rectangle 38193" width="16.75" height="20.605" transform="matrix(0.964, -0.265, 0.265, 0.964, 162.133, 240.214)" fill="#fff" opacity="0.8"/>
      <path id="Path_95385" data-name="Path 95385" d="M177.9,246.4l-10.145,2.783-.165-.6,10.144-2.783Z" fill="#cbcfff"/>
      <rect id="Rectangle_38194" data-name="Rectangle 38194" width="10.519" height="0.625" transform="translate(168.179 250.757) rotate(-15.341)" fill="#cbcfff"/>
      <rect id="Rectangle_38195" data-name="Rectangle 38195" width="10.52" height="0.625" transform="translate(168.763 252.93) rotate(-15.338)" fill="#cbcfff"/>
      <rect id="Rectangle_38196" data-name="Rectangle 38196" width="10.519" height="0.625" transform="translate(169.349 255.102) rotate(-15.338)" fill="#cbcfff"/>
      <rect id="Rectangle_38197" data-name="Rectangle 38197" width="4.092" height="0.625" transform="translate(171.975 240.153) rotate(-15.339)" fill="#cbcfff"/>
      <rect id="Rectangle_38198" data-name="Rectangle 38198" width="4.093" height="0.625" transform="translate(172.56 242.326) rotate(-15.341)" fill="#cbcfff"/>
      <rect id="Rectangle_38199" data-name="Rectangle 38199" width="4.092" height="0.625" transform="translate(173.146 244.497) rotate(-15.331)" fill="#cbcfff"/>
      <rect id="Rectangle_38200" data-name="Rectangle 38200" width="3.75" height="4.688" transform="translate(166.374 242.119) rotate(-15.097)" fill="#cbcfff"/>
    </g>
    <path id="Path_95434" data-name="Path 95434" d="M335.274,244.689C318.159,251.353,270,246,275.895,268.29c-22.223-2.941-29.3,3.215-28.277,18.61-.1-1.656-8.171-.792-9.335-.325-1.932.768-4.354,3.38-5.488,4.776-3.61,4.441-4.205,9.6-5.192,14.655a97.685,97.685,0,0,1-5.463,17.759c14.6-12.152,66-10.231,57.327-25.974,7.948.994,22.545,3.422,29.042-1.084,8.327-5.774-1.109-12.389-8.326-15.666,31.051-1.847,28.054-11.744,24.131-22.954l5.569-4.564A22.269,22.269,0,0,0,335.274,244.689Z" transform="translate(311 1275)" fill="#f3dddb"/>
    <path id="Path_95435" data-name="Path 95435" d="M265.076,266.686c3-10.172,10.6-21.457,18.045-29.722,5.034-5.591,19.153-19.451,28.079-16.14,10.007,3.712.525,22.611-4.1,28.106-6.781,8.065-15.444,12.923-24.806,17.715-8.877,4.542-17.089,10.586-25.745,14.835Z" transform="translate(311 1275)" fill="#2a2b7c"/>
    <path id="Path_95436" data-name="Path 95436" d="M229.427,306.825c-4.145-9.85-12.783-15.209-6.577-27.128,2.481-4.765,7.687-7.459,10.664-11.6,3.723-5.171,1.718-6.373,1.963-12.1.519-12.355,10.649-14.142,18.057-23.017,5.172-6.191,5.528-13.887,12.075-20.348,6.645-6.566,17.675-12.03,21.284-20.17-1.481,14.789,5.714,38.235-10.8,49.537,7.564,5.177,7.376,14.211,2.059,20.906-2.543,3.2-9.173,5.328-10.967,8.765-2.448,4.7,1.252,5.151.9,9.4-1.12,13.484-53.564,28.834-43.393,43.193Z" transform="translate(311 1275)" fill="#7ab6f6"/>
    <g id="Group_41908" data-name="Group 41908" transform="translate(311 1275)" opacity="0.3">
      <path id="Path_95437" data-name="Path 95437" d="M275.176,220.941a49.9,49.9,0,0,0,12.016-4.085c.014-.411.019-.818.025-1.226a46.653,46.653,0,0,1-11.56,4.126q1.092-2.7,2.131-5.368c.617-1.574,1.234-3.143,1.862-4.71.591-1.463,1.278-2.944,1.942-4.372.564-1.216,1.145-2.469,1.656-3.688.319-.768.725-1.655,1.157-2.589a56.859,56.859,0,0,0,2.433-5.863c.021-.235.035-.47.055-.705a19.289,19.289,0,0,1-3.009,4.641c-.249.559-.5,1.1-.735,1.62-.435.946-.84,1.835-1.175,2.623-.5,1.2-1.075,2.446-1.636,3.651-.668,1.439-1.361,2.928-1.958,4.421q-.943,2.349-1.862,4.715c-1.542,3.925-3.138,7.955-4.941,11.934-4.023-2.583-4.774-9.058-4.675-14.65q-.669.6-1.293,1.215c-.017.014-.027.034-.048.049.046,5.679,1.1,11.963,5.522,14.463-.205.433-.4.876-.607,1.314-1.848,3.833-3.9,7.626-6.047,11.365a30.28,30.28,0,0,1-6.485-14.4c-.316.7-.64,1.4-.983,2.09A31.947,31.947,0,0,0,263.749,241c-1.863,3.213-3.773,6.386-5.664,9.517-.039.015-.076.026-.111.042l.047.063c-.064.1-.122.2-.178.291q-.79,1.31-1.6,2.635a29.474,29.474,0,0,0-2.764-3.7,28.594,28.594,0,0,1-2.716-3.616,20.776,20.776,0,0,1-2.5-8.15c-.4.335-.805.657-1.205.974a20.514,20.514,0,0,0,2.484,7.678,30.094,30.094,0,0,0,2.808,3.737,25.348,25.348,0,0,1,2.993,4.09l.37-.142c-2.4,4-4.809,8.078-7.049,12.182-.111.214-.229.433-.347.644a20.871,20.871,0,0,0-3.73-4.895,23.643,23.643,0,0,1-2.288-2.709c-2.135-3.338-4.233-7.03-5.1-10.684a15.2,15.2,0,0,0-.831,1.967,42.733,42.733,0,0,0,4.73,9.243,23.946,23.946,0,0,0,2.385,2.845c1.762,1.9,3.928,4.255,3.89,5.975-3.56,6.532-7.347,13.395-11.2,20.082a99.748,99.748,0,0,0-6.785,15.462c-.149.4-.3.8-.448,1.2.168.357.331.722.486,1.092l-1.1,4.078c.826-2.048,1.6-4.11,2.352-6.133a98.479,98.479,0,0,1,6.711-15.315c3.88-6.718,7.679-13.616,11.253-20.173h.052c.007-.037,0-.07.011-.114.4-.734.8-1.469,1.2-2.2.788-1.452,1.607-2.9,2.432-4.346a52.842,52.842,0,0,1,8.656-.68c2.311-.06,4.7-.121,6.855-.384a46.185,46.185,0,0,0,13.269-3.945c.159-.446.292-.9.408-1.351-4.247,1.835-8.276,3.561-13.806,4.247-2.069.259-4.418.319-6.685.371a63.606,63.606,0,0,0-8,.546c1.975-3.417,4.013-6.8,6.019-10.111a.322.322,0,0,1,.034-.052,18.876,18.876,0,0,1,4.806-.686,28.875,28.875,0,0,0,4.015-.436c3.172-.67,8.376-1.775,12.143-4.139-.2-.31-.412-.608-.638-.9-3.012,1.941-7.358,3.087-11.777,4.022a27.921,27.921,0,0,1-3.771.4,29.513,29.513,0,0,0-3.987.43c3.006-4.977,6.052-10.064,8.834-15.248.471.043.966.067,1.484.076a40.883,40.883,0,0,0,14.133-2.73c.2-.457.392-.924.567-1.4a38.092,38.092,0,0,1-15.65,3.02c.859-1.622,1.693-3.253,2.482-4.9C272.968,226.184,274.1,223.557,275.176,220.941Z" fill="#fff"/>
      <path id="Path_95438" data-name="Path 95438" d="M226.528,315.087c.339-.733.664-1.482.985-2.23a22.883,22.883,0,0,0-1.818,2.027Z" fill="#fff"/>
    </g>
    <path id="Path_95458" data-name="Path 95458" d="M264.773,305.563c0-4.971-21.713-9-48.5-9s-48.5,4.029-48.5,9v13.5c0,4.97,21.715,9,48.5,9s48.5-4.03,48.5-9Z" transform="translate(311 1275)" fill="#fff" opacity="0.3"/>
    <path id="Path_95459" data-name="Path 95459" d="M264.773,305.563c0-4.971-21.713-9-48.5-9s-48.5,4.029-48.5,9v13.5c0,4.97,21.715,9,48.5,9s48.5-4.03,48.5-9Z" transform="translate(311 1275)" fill="#a8bcff" opacity="0.3"/>
    <g id="Group_41921" data-name="Group 41921" transform="translate(311 1275)">
      <path id="Path_95460" data-name="Path 95460" d="M157.08,296.212c-3.238-2.022-6.705-3.884-8.037-7.838-1.846-5.478,1.682-6.075,3.968-10.762-8.215-3.178-15.465-3.477-21.256-11.812-5.705-8.207-1.027-14.462,8.186-13.538,1.265.125-7.363-6-8.836-7.047a24.451,24.451,0,0,1-7.535-9.635c-2.957-6.531-2.371-15.384,6.335-16.367,7.546-.852,11.434,7.211,14.678,12.851a44.463,44.463,0,0,1,4,8.649c3.747-3.4,4.914-9.359,10.694-5.454,4.031,2.726,5.521,10.151,3.9,14.483,5.916-.684,9.084-2.344,14.146,1.229,3.272,2.308,6.644,6.464,8.939,10.16,5.225,8.416,14.86,40.146,16.775,50.568C203.041,311.7,163.857,300.443,157.08,296.212Z" fill="#445998"/>
      <path id="Path_95461" data-name="Path 95461" d="M201.648,305.515l-.077-.047a81.859,81.859,0,0,1-7.679-5.4,9.99,9.99,0,0,0,.452-1.776c.388-1.882,1.017-3.726,1.5-5.585.365-1.394.669-2.8.942-4.217q-.391-1.251-.792-2.5-.3,1.915-.718,3.821c-.424,1.93-.952,3.835-1.487,5.736a35.3,35.3,0,0,1-.867,3.77c-2.078-1.633-4.129-3.3-6.184-4.886-2.079-1.611-4.107-3.284-6.1-4.99a14.731,14.731,0,0,0,1.427-3.917,21.169,21.169,0,0,0,1.174-4.46c.1-2.342.844-4.72,1.174-7.044a40,40,0,0,0,.331-5.779c-.017-3.268-.073-6.532-.284-9.791q-.5-.684-1.025-1.36c.224,3.069.252,6.155.256,9.229a61.713,61.713,0,0,1-1.333,12.868c-.638,3.05-.985,6.717-2.613,9.5q-3.648-3.16-7.132-6.5c.926-2.877,2.026-5.668,2.874-8.588,1.1-3.793,1.181-8.109,1.33-12.022a74.836,74.836,0,0,0-.373-11.183c-.334-.206-.661-.387-.982-.547a72.683,72.683,0,0,1,.343,10.781,67.159,67.159,0,0,1-1.363,12.7,71.394,71.394,0,0,1-2.707,8.008q-3.588-3.471-7.03-7.083c1.176-1.964,1.345-4.747,1.619-6.913a129.227,129.227,0,0,0,.874-13.539c.03-1.553-.013-3.1-.087-4.642l-.983.162c.059,1.491.092,2.983.072,4.48-.051,3.73-.325,7.457-.748,11.164-.29,2.541-.207,6.049-1.5,8.5-.417-.441-.839-.879-1.254-1.322-1.912-2.046-3.826-4.115-5.692-6.223a23.474,23.474,0,0,0,1.217-8.2c.03-3.834.681-7.654.707-11.5a69.428,69.428,0,0,0-.786-11.619,6.113,6.113,0,0,0-1.279-.489,70.517,70.517,0,0,1,1.126,12.108c.006,3.259-.386,6.511-.661,9.754a47.988,47.988,0,0,1-1.113,9.043c-1.3-1.488-2.575-2.992-3.792-4.535-1.845-2.338-3.473-4.846-5.248-7.239-.715-.962-1.52-1.876-2.326-2.789.077-.045.392-8.544.429-12.64.011-1.336.094-2.76.158-4.2-.289-.532-.578-1.049-.859-1.536-.144-.253-.293-.513-.44-.774.063,1.905.2,3.819.194,5.624-.019,4.285-.392,8.731.054,13a24.648,24.648,0,0,1-2.851-3.76c-1.011-1.74-1.971-3.5-2.948-5.242,1.23-4.189.866-9.114.883-13.438q.007-1.758.012-3.516-.489-.6-1.014-1.159c.048,1.847-.023,3.705-.017,5.572a84.763,84.763,0,0,1-.447,11.508,66.331,66.331,0,0,0-4.254-6.711.893.893,0,0,1-.1-.211c.116-3.109.123-6.227.187-9.339.027-1.248.143-2.585.192-3.919a8.936,8.936,0,0,0-1.223-.35c-.005,1.448.08,2.908.051,4.269-.058,2.709-.147,5.426-.1,8.137-1.195-1.737-2.307-3.528-3.492-5.273a49.073,49.073,0,0,1-3.572-5.851c-.187.121-.359.255-.53.388.56,1.21,1.265,2.374,1.9,3.472,1.517,2.607,3.25,5.144,4.947,7.637.392.575.771,1.153,1.152,1.729-1.011-.392-9.139-2.734-10.952-2.8a1.962,1.962,0,0,0,.038.326c2.353.807,11.532,3.669,11.648,3.582,1.752,2.694,3.406,5.418,4.988,8.22a35.758,35.758,0,0,0-5.124-.79c-2.24-.168-4.4-.8-6.632-1.018.095.117.189.234.284.35,1.8.339,3.564.846,5.38,1.115,1.193.176,2.4.234,3.591.41a10.837,10.837,0,0,0,2.764.406c.417.744.837,1.485,1.243,2.241a33.086,33.086,0,0,0,4.373,5.68c2.138,2.515,3.914,5.356,5.842,8.03.587.815,1.2,1.6,1.828,2.381a11.6,11.6,0,0,1-4.159-.368c-2.293-.5-4.61-.883-6.886-1.456a42.322,42.322,0,0,1-11.295-4.291c-.086.148-.164.3-.237.454,3.863,2.585,8.87,4.062,13.1,5.075,1.055.254,8.518,2.544,10.027,1.27.972,1.18,1.98,2.328,3,3.467a.413.413,0,0,0,.2.226c.977,1.089,1.965,2.17,2.942,3.26-5.264.077-10.609.142-15.791-.916a59.713,59.713,0,0,1-12.283-3.992c.214.356.439.716.693,1.081.107.153.217.284.325.432,8.51,4.206,18.6,4.642,27.884,4.571a.561.561,0,0,0,.175-.037c.424.48.851.957,1.267,1.445.645.758,1.334,1.472,2.033,2.176a.573.573,0,0,0,.588.593c.979.968,1.975,1.92,2.929,2.913,1.658,1.724,3.236,3.484,4.934,5.155a41.033,41.033,0,0,0-4.434,1.048,89.237,89.237,0,0,1-9.1,1.294,58.858,58.858,0,0,1-8.838-.074c-.319-.025-.641-.058-.962-.094a5.825,5.825,0,0,0-.009.751c.284.052.571.1.868.144a49.7,49.7,0,0,0,8.073.307,51.536,51.536,0,0,0,7.736-.856,29.886,29.886,0,0,0,3.849-.741,8.948,8.948,0,0,1,3.393-.829.443.443,0,0,0,.3-.1c.055.051.106.105.16.156,1.959,1.812,3.97,3.6,6.01,5.349-2.194.36-4.209,1.748-6.247,2.577a31.07,31.07,0,0,1-9.865,2.1c-2.92.184-5.886.205-8.814.185q.828.566,1.688,1.1c2.065.015,4.144-.08,6.175-.109a32.98,32.98,0,0,0,8.492-1.217,32.482,32.482,0,0,0,3.645-1.309c1.632-.679,3.435-1.945,5.205-2.152a.636.636,0,0,0,.545-.453q3.282,2.793,6.658,5.426c-.919.744-1.783,1.578-2.734,2.3a36.492,36.492,0,0,1-5.771,3.295c-1.047.53-2.3,1.172-3.638,1.731l1.408.463c.312-.121.618-.243.917-.352a32.094,32.094,0,0,0,7.647-4.144c.924-.688,2.417-1.471,3.085-2.566,1.69,1.319,3.376,2.661,5.075,3.988a.6.6,0,0,0,.9.7c2.266,1.752,4.564,3.459,6.949,5.015.588.385,1.184.754,1.782,1.121Q201.852,306.329,201.648,305.515Z" fill="#7ab6f6"/>
    </g>
    <g id="Group_41938" data-name="Group 41938" transform="translate(311 1275)">
      <g id="Group_41922" data-name="Group 41922">
        <path id="Path_95462" data-name="Path 95462" d="M210.029,299.408c-30.506-12.759-41.181-81.716-41.285-82.41l.912-.137c.106.689,10.7,69.135,40.73,81.7Z" fill="#7ab6f6"/>
      </g>
      <g id="Group_41923" data-name="Group 41923">
        <path id="Path_95463" data-name="Path 95463" d="M198.828,290.441c.011.308.967-16.664,8.668-16.622s-8.657,16.93-8.657,16.93Z" fill="#7ab6f6"/>
      </g>
      <g id="Group_41924" data-name="Group 41924">
        <path id="Path_95464" data-name="Path 95464" d="M191.786,282.678s4.244-19.858,10.5-16.993S191.786,282.678,191.786,282.678Z" fill="#7ab6f6"/>
      </g>
      <g id="Group_41925" data-name="Group 41925">
        <path id="Path_95465" data-name="Path 95465" d="M186.24,272.671s6-21.542,13.775-17.517C205.9,258.2,186.24,272.671,186.24,272.671Z" fill="#7ab6f6"/>
      </g>
      <g id="Group_41926" data-name="Group 41926">
        <path id="Path_95466" data-name="Path 95466" d="M178.8,254.48s3.906-20.768,10.208-16.673S178.8,254.48,178.8,254.48Z" fill="#7ab6f6"/>
      </g>
      <g id="Group_41927" data-name="Group 41927">
        <path id="Path_95467" data-name="Path 95467" d="M180.93,261.677s8.872-19.443,13.841-13.808C198.111,251.662,180.93,261.677,180.93,261.677Z" fill="#7ab6f6"/>
      </g>
      <g id="Group_41928" data-name="Group 41928">
        <path id="Path_95468" data-name="Path 95468" d="M174.99,241.986s4.765-22.646,11.086-17.935S174.99,241.986,174.99,241.986Z" fill="#7ab6f6"/>
      </g>
      <g id="Group_41929" data-name="Group 41929">
        <path id="Path_95469" data-name="Path 95469" d="M172.042,227.917s1.794-19.465,5.666-14.359S172.042,227.917,172.042,227.917Z" fill="#7ab6f6"/>
      </g>
      <g id="Group_41930" data-name="Group 41930">
        <path id="Path_95470" data-name="Path 95470" d="M170.029,223.06s-10.1-15.976-4.274-16.791S170.029,223.06,170.029,223.06Z" fill="#7ab6f6"/>
      </g>
      <g id="Group_41931" data-name="Group 41931">
        <path id="Path_95471" data-name="Path 95471" d="M172.042,227.917s-18.256-2.448-14.139-8.137S172.042,227.917,172.042,227.917Z" fill="#7ab6f6"/>
      </g>
      <g id="Group_41932" data-name="Group 41932">
        <path id="Path_95472" data-name="Path 95472" d="M173.95,238.633s-21.329-2.35-20.05-9.783S173.95,238.633,173.95,238.633Z" fill="#7ab6f6"/>
      </g>
      <g id="Group_41933" data-name="Group 41933">
        <path id="Path_95473" data-name="Path 95473" d="M177.69,248.977s-28.1-2.118-24.976-9.922S177.69,248.977,177.69,248.977Z" fill="#7ab6f6"/>
      </g>
      <g id="Group_41934" data-name="Group 41934">
        <path id="Path_95474" data-name="Path 95474" d="M181.118,259.021s-31.047,1.68-30.113-6.974S181.118,259.021,181.118,259.021Z" fill="#7ab6f6"/>
      </g>
      <g id="Group_41935" data-name="Group 41935">
        <path id="Path_95475" data-name="Path 95475" d="M188.147,275.408s-28.851-6.091-29.805,1.953S188.147,275.408,188.147,275.408Z" fill="#7ab6f6"/>
      </g>
      <g id="Group_41936" data-name="Group 41936">
        <path id="Path_95476" data-name="Path 95476" d="M182.557,265.62s-24.406-9.073-26.127-1.185S182.557,265.62,182.557,265.62Z" fill="#7ab6f6"/>
      </g>
      <g id="Group_41937" data-name="Group 41937">
        <path id="Path_95477" data-name="Path 95477" d="M191.117,281.158s-25.329-2.207-22.594,5.707,23.263-4.187,23.263-4.187Z" fill="#7ab6f6"/>
      </g>
    </g>
    <path id="Path_95478" data-name="Path 95478" d="M264.773,305.563c0-4.971-21.713-9-48.5-9s-48.5,4.029-48.5,9v13.5c0,4.97,21.715,9,48.5,9s48.5-4.03,48.5-9Z" transform="translate(311 1275)" fill="#fa968d"/>
    <ellipse id="Ellipse_142" data-name="Ellipse 142" cx="48.5" cy="9" rx="48.5" ry="9" transform="translate(478.773 1571.563)" fill="#fff"/>
    <path id="Path_95479" data-name="Path 95479" d="M236.783,201.271a9.97,9.97,0,1,1-9.969-9.97A9.97,9.97,0,0,1,236.783,201.271Z" transform="translate(311 1275)" fill="#a8bcff" opacity="0.3"/>
    <path id="Path_95480" data-name="Path 95480" d="M168.576,225.9a9.97,9.97,0,1,1-9.97-9.97A9.97,9.97,0,0,1,168.576,225.9Z" transform="translate(311 1275)" fill="#a8bcff" opacity="0.3"/>
    <path id="Path_95481" data-name="Path 95481" d="M175.225,359.995c0,2.4-12.861,4.351-28.727,4.351s-28.726-1.949-28.726-4.351,12.862-4.354,28.726-4.354S175.225,357.592,175.225,359.995Z" transform="translate(311 1275)" fill="#a8bcff" opacity="0.3"/>
    <path id="Path_95482" data-name="Path 95482" d="M204,142.5s-30,169.167-31,166.167,48.333,14.666,88-2.167L208.5,143Z" transform="translate(311 1275)" fill="#da97b8" opacity="0.3"/>
    <path id="Path_95483" data-name="Path 95483" d="M219.891,375.995c0,2.4-12.861,4.351-28.727,4.351s-28.726-1.949-28.726-4.351,12.863-4.354,28.726-4.354S219.891,373.592,219.891,375.995Z" transform="translate(311 1275)" fill="#a8bcff" opacity="0.3"/>
    <path id="Path_95484" data-name="Path 95484" d="M146.226,348.995c0,2.1-10.773,3.806-24.061,3.806s-24.06-1.7-24.06-3.806,10.773-3.81,24.06-3.81S146.226,346.892,146.226,348.995Z" transform="translate(311 1275)" fill="#a8bcff" opacity="0.3"/>
    <path id="Path_95485" data-name="Path 95485" d="M314.742,355.988c0,1.446-11.071,2.617-24.727,2.617s-24.726-1.171-24.726-2.617,11.072-2.619,24.726-2.619S314.742,354.543,314.742,355.988Z" transform="translate(311 1275)" fill="#a8bcff" opacity="0.3"/>
    <path id="Path_95486" data-name="Path 95486" d="M107.5,163l74.248,143.689S245.617,318.551,264.5,304L110,160.5Z" transform="translate(311 1275)" fill="#fff" opacity="0.3"/>
    <path id="Path_95487" data-name="Path 95487" d="M301.5,148,255.369,304.689S190.883,317.051,172,302.5L300,147Z" transform="translate(311 1275)" fill="#fff" opacity="0.3"/>
    <g id="Group_41941" data-name="Group 41941" transform="translate(311 1275)">
      <path id="Path_95488" data-name="Path 95488" d="M247.253,336.021c0,.692-3.505,1.254-7.83,1.254s-7.83-.562-7.83-1.254,3.506-1.254,7.83-1.254S247.253,335.329,247.253,336.021Z" fill="#a8bcff" opacity="0.3"/>
      <path id="Path_95489" data-name="Path 95489" d="M240.744,335.545c.435-4.365,1.281-8.928.832-13.353-.123-1.209-1.151-6.612-3.1-5.368-1.564,1-.535,4.652-.523,6.171a46.245,46.245,0,0,0,1.951,12.271Z" fill="#fff"/>
      <g id="Group_41940" data-name="Group 41940">
        <g id="Group_41939" data-name="Group 41939">
          <path id="Path_95490" data-name="Path 95490" d="M237.97,335.822l-.193-.084a4.5,4.5,0,0,1-2.244-1.7,1.54,1.54,0,0,1-.133-1.491.855.855,0,0,1,.758-.406,1.533,1.533,0,0,1,.713.2c-.832-2.134-1.752-5.4-.034-6.243a1.16,1.16,0,0,1,.51-.129c1.223,0,1.643,2.322,1.916,3.859.061.326.111.609.156.79.139.536.3,1.092.455,1.63a26.637,26.637,0,0,1,.907,3.833l.023.185Zm-1.008-9.47c-1.7.833-.332,4.683.332,6.3l.2.49-.416-.327a1.525,1.525,0,0,0-.922-.39.576.576,0,0,0-.518.271,1.3,1.3,0,0,0,.139,1.216,4.241,4.241,0,0,0,2.117,1.574l.139.065,2.443.386a27.922,27.922,0,0,0-.871-3.606c-.156-.539-.317-1.1-.455-1.637-.051-.191-.1-.479-.162-.812-.229-1.269-.655-3.629-1.643-3.629A.875.875,0,0,0,236.962,326.352Z" fill="#2a2b7c"/>
        </g>
      </g>
      <path id="Path_95491" data-name="Path 95491" d="M240.224,336.332c-.611-2.815.781-7.375,1.891-10.081.363-.884,2.338-3.812,3.582-3.21,1.185.571-.457,3.691-.91,4.416a2.21,2.21,0,0,1,1.675-.773c1.221.02.959.255.836,1.254-.187,1.542-1.357,2.4-2.425,3.313.8-.3,2.062-.246,2.019.916S240.224,336.332,240.224,336.332Z" fill="#2a90e4"/>
    </g>
    <g id="Group_41944" data-name="Group 41944" transform="translate(311 1275)">
      <path id="Path_95492" data-name="Path 95492" d="M157.672,248.623l-13.417,3.909-.615,10.613,12.945-2.67Z" fill="#e0eeff"/>
      <g id="Group_41943" data-name="Group 41943">
        <g id="Group_41942" data-name="Group 41942">
          <path id="Path_95493" data-name="Path 95493" d="M110.545,298.525a10.942,10.942,0,0,1-2.461,4.117c.15-.716.321-.514-.2-1.593-.07-.141-3.1,4.221-4.866,3.336s3.244-6.091,5.042-6.96Z" fill="#f5b29c"/>
          <path id="Path_95494" data-name="Path 95494" d="M120.774,275.506c-2.6-1.07-7.449,10.527-8.185,12.257-1.507,3.552-4.242,7.022-5.416,10.519a27.747,27.747,0,0,1,3.25,1.249c2.4-4.1,4.016-5.584,5.447-8.725a52.162,52.162,0,0,1,4.062-6.7Z" fill="#fff"/>
          <path id="Path_95495" data-name="Path 95495" d="M126.092,269.214c1.485,2.245-.815,6.833-1.953,9.07a10.109,10.109,0,0,1,4.368.535c.534-2.851.856-6.842,1.714-8.813Z" fill="#f5b29c"/>
          <path id="Path_95496" data-name="Path 95496" d="M130.832,348.945c1.176.071,7.566-.827,5.409-2.451-1.417-1.067-4.659-.891-6.138-.081Z" fill="#2e3054"/>
          <path id="Path_95497" data-name="Path 95497" d="M147.245,268.832c.612-2.454,6.864-8.168,1.313-9.14-2.483-.435-1.536,2.577-2.037,4.22-.554,1.806-1.9,3.3.1,4.756Z" fill="#f5b29c"/>
          <path id="Path_95498" data-name="Path 95498" d="M130.031,339.093a2.684,2.684,0,0,0-1.61.534c-2.317,1.484-.769,5.267.047,7.158.855,1.988,5.267,3.023,5.583-.031.059-.6-2.542-.424-2.836-.417C131.96,346.316,132.661,339.293,130.031,339.093Z" fill="#f5b29c"/>
          <path id="Path_95499" data-name="Path 95499" d="M114.074,348.076c1.993-.251,5.65-.14,6.863-1.987a5.641,5.641,0,0,0-3.914-.394,41.139,41.139,0,0,0-.068-4.459c.055-1.682.159-3.363.328-5.038C117.642,332.651,111.126,336.932,114.074,348.076Z" fill="#f5b29c"/>
          <path id="Path_95500" data-name="Path 95500" d="M131.988,278.2c2.365,2.951,2.582,7.495,1.143,10.854-.84,1.956-1.974,3.634-2.208,5.855-.226,2.094.734,4.268-.616,6.145-1.159,1.611-4.132,2.568-5.955,2.527a8.718,8.718,0,0,1-6.25-2.752c-1.894-2.172-1.242-5.132-.93-7.75.528-4.446.138-8.527,1.286-12.922.451-1.718.433-3.745,2-4.873,3.325-2.4,8.556-.221,11.061,2.375C131.68,277.834,131.84,278.016,131.988,278.2Z" fill="#fff"/>
          <path id="Path_95501" data-name="Path 95501" d="M131.135,295.107l1.69,50.192-5.389-.339-6.238-32.9-3.05,32.4-5.471.356s-.992-23.135-.006-30.357,1.33-17.241,4.76-21.187C117.431,293.27,126.792,297.037,131.135,295.107Z" fill="#2a2b7c"/>
          <path id="Path_95502" data-name="Path 95502" d="M126.988,270.7c.3,3.3,5.464,2.785,6.559.85a7.9,7.9,0,0,0,.548-6.953c-.585-3.213-1.389-3.858-3.654-4.267C130.441,260.332,126.117,260.922,126.988,270.7Z" fill="#f5b29c"/>
          <path id="Path_95503" data-name="Path 95503" d="M113.8,346.7a20.506,20.506,0,0,0,2.743.044c.4-.043,1.776-.808.761-1.041,1.01-.67,3.848-.078,4.715.714.659.6-7.884,1.673-7.884,1.673C114.013,347.633,113.9,347.167,113.8,346.7Z" fill="#2e3054"/>
          <path id="Path_95504" data-name="Path 95504" d="M133,263.666c-1.353,2.056-2.781,9.536-6.4,7.841-2.751-1.288-1.353-8.539.17-10.56,1.267-1.672,7.423-1.713,8.347.343C136.291,263.9,133.567,262.808,133,263.666Z" fill="#2e3054"/>
          <path id="Path_95505" data-name="Path 95505" d="M148.6,267.373c.238,1.952-2.06,2.92-3.039,4.535a26.18,26.18,0,0,1-5.738,7.028c-1.683,1.4-12.076,8.588-11.548,2.246.3-3.6,6.618-5.616,9.044-7.5,1.62-1.261,3.33-2.365,4.879-3.679a20.785,20.785,0,0,0,3.523-4.445c.554.3,1.494.618,1.092.97Z" fill="#fff"/>
          <path id="Path_95506" data-name="Path 95506" d="M134.476,346.451c-1.574,1.536-3.871.938-5.685.545-1.154,2.885,3.24,1.886,4.644,1.114Z" fill="#2e3054"/>
        </g>
      </g>
    </g>
    <g id="Group_41949" data-name="Group 41949" transform="translate(311 1275)">
      <path id="Path_95507" data-name="Path 95507" d="M304.753,265.422c-1.841-.53-4.714,1.219-5.636,2.842a15.808,15.808,0,0,1-2.655,3.091l1.037,1.106s-.517,4.064,2.079,4.912c1.662.544,4.593-.355,6.181-1.937,2.2-2.189,1.883-3.275,1.9-5.117.021-1.65-1.112-4.027-2.549-4.754A2.307,2.307,0,0,0,304.753,265.422Z" fill="#ba6b4f"/>
      <path id="Path_95508" data-name="Path 95508" d="M305.927,271.146c-.494,2.331-2.838,4.167-4.515,5.811a5.823,5.823,0,0,1-1.633,4.406c-.487.529,4.31-.774,4.758-.876,1.164-.269,3.072-.285,3.992-1.1.98-.874,1.254-.715.545-1.564-1.071-1.276-2.164-3.641-2.762-7.384Z" fill="#ba6b4f"/>
      <path id="Path_95509" data-name="Path 95509" d="M304.556,275.374a5.97,5.97,0,0,1-3.076,2.182,5.411,5.411,0,0,1-.524,2.162A14.654,14.654,0,0,0,304.556,275.374Z" fill="#b9b3c0" style="mix-blend-mode: multiply;isolation: isolate"/>
      <path id="Path_95510" data-name="Path 95510" d="M313,351.346l.017,2.027-7-.053s-.228-1.36,2.514-1.75,2.418-1.13,2.418-1.13l.129-2.96,2.589-.478Z" fill="#5c75c3"/>
      <path id="Path_95511" data-name="Path 95511" d="M300.736,309.613s2.4,14.691,4.41,19.652c2.353,5.808,5.352,18.212,4.826,21.165l3.322-.073s2.207-9.529.547-14.259-1.554-8.913-1.863-13.668.682-15.92.682-15.92S300.04,298.8,300.736,309.613Z" fill="#2d3152"/>
      <path id="Path_95512" data-name="Path 95512" d="M304.738,351.635l.24,1.924-6.873.1s-.375-1.289,2.273-1.717,2.248-1.126,2.248-1.126l-.2-2.811,2.489-.506Z" fill="#5c75c3"/>
      <path id="Path_95513" data-name="Path 95513" d="M298.888,304.334s1.2,24.082,1.147,24.487,1.394,22.411,1.394,22.411,2.709-.062,4.076-1.088a189.707,189.707,0,0,0,.686-20.042,107.812,107.812,0,0,0,3.381-13.833c.922-4.52,5.058-8.938,1.582-17.034S297.941,299.208,298.888,304.334Z" fill="#3d4166"/>
      <path id="Path_95514" data-name="Path 95514" d="M300.019,281.019a19.968,19.968,0,0,0-2.85,7.471,23.264,23.264,0,0,0,.477,7.658c.463,2.4.185,5.094.25,7.546.045,1.625.35,3.237.283,4.865a10.073,10.073,0,0,1,4.186-.6c2.56-.05,5.119-.186,7.681-.133.823.017,3.035.653,3.237-.429.142-.766-1.078-8.149-1.2-9.171-.337-2.909.987-6.8,1.37-9.682.673-5.026-1.672-7.719-3.524-9.837s-4.215-.661-5.957.634S302.263,280.509,300.019,281.019Z" fill="#2a2b7c"/>
      <g id="Group_41948" data-name="Group 41948">
        <g id="Group_41947" data-name="Group 41947">
          <path id="Path_95515" data-name="Path 95515" d="M288.146,322.828a1.742,1.742,0,0,0,1.642,1.959l14.9.735.411-11.966L291,312.986a1.742,1.742,0,0,0-1.8,1.521Z" fill="#7ab6f6"/>
          <g id="Group_41945" data-name="Group 41945">
            <path id="Path_95516" data-name="Path 95516" d="M300.7,314.328a3,3,0,0,0-1.909-2.173c-1.765-.432-3.906,1.524-3.925,1.544l-.6-.645c.1-.095,2.514-2.3,4.732-1.753a3.8,3.8,0,0,1,2.528,2.732Z" fill="#2e3054"/>
          </g>
          <g id="Group_41946" data-name="Group 41946">
            <rect id="Rectangle_38207" data-name="Rectangle 38207" width="0.5" height="15.751" transform="translate(288.93 318.451) rotate(-87.492)" fill="#fff"/>
          </g>
          <rect id="Rectangle_38208" data-name="Rectangle 38208" width="1.609" height="2.068" transform="translate(295.227 319.54) rotate(-87.797)" fill="#fff"/>
        </g>
        <path id="Path_95517" data-name="Path 95517" d="M305.388,313.565l1.877,10.842s.137.97-2.314,1.116S305.388,313.565,305.388,313.565Z" fill="#fff"/>
      </g>
      <path id="Path_95518" data-name="Path 95518" d="M310.607,281.819c-1.27-2.421-2.92-4.98-5.5-2.463s.336,7.542,1.4,11.611.465,4.935-.5,7.416-3.59,7.87-4.785,8.837-4.234,3-4.4,3.822a2.231,2.231,0,0,0,1.523,2.089c.674.112,3.149-1.628,3.83-3.3,0,0,8.43-8.008,10.748-13.175C312.925,296.652,312.673,285.767,310.607,281.819Z" fill="#ba6b4f"/>
      <path id="Path_95519" data-name="Path 95519" d="M310.607,281.819c-1.27-2.421-2.92-4.98-5.5-2.463s.336,7.542,1.4,11.611.465,4.935-.5,7.416a29.374,29.374,0,0,1-2.588,4.714c-.338.549-2.293,3.158-2.351,3.791-.1,1.013,2.551,1.649,3.176,2.18a17.585,17.585,0,0,0,2.779-2.947c.875-.962,1.451-2.077,2.3-3.063a25.263,25.263,0,0,0,3.6-6.406S312.673,285.767,310.607,281.819Z" fill="#bfd4f8"/>
      <path id="Path_95520" data-name="Path 95520" d="M302.726,269.32c-.654-.4-1.416-.137-2.133-.23a4.16,4.16,0,0,1-2.3-1.186c-.388-.4-.91-1.313-.437-1.826a1.129,1.129,0,0,1,1.551.133c-.664-1.539.955-2.416,2.281-2.389a12.515,12.515,0,0,1,2.268.4c1.406.294,2.722,1.732,3.621,2.761a4.464,4.464,0,0,1,.968,3.144c-.017,1.312-.4,3.613-1.691,4.294-.453.24-4.094-.372-3.768-.959.375-.673,1.331-1.084,1.262-1.941a.877.877,0,0,0-1.43-.552c-.291-.352-.1-1.069-.267-1.536Z" fill="#0b1238"/>
    </g>
    <g id="Group_41952" data-name="Group 41952" transform="translate(311 1275)">
      <path id="Path_95521" data-name="Path 95521" d="M151.667,280.867a13.626,13.626,0,0,0,4.643,6.028c-3.033.277-6.07.793-9.1.986.45-2.917,1.129-5.112.809-8.107Z" fill="#f5b29c"/>
      <g id="Group_41951" data-name="Group 41951">
        <g id="Group_41950" data-name="Group 41950">
          <path id="Path_95522" data-name="Path 95522" d="M151.8,333.847c.6,9.552.875,19.358,2.319,28.546a10.193,10.193,0,0,0,4.48-4.272c-.965-1.176-2.363-.281-3.2.557-.266-4.223.84-9.331,1.363-13.5.365-2.92,2.465-11.13.422-13.427Z" fill="#ba6b4f"/>
          <path id="Path_95523" data-name="Path 95523" d="M142.246,333.2c-.108,9.57-.545,19.37.22,28.64a10.181,10.181,0,0,0,4.782-3.934c-.875-1.242-2.336-.451-3.235.322.043-4.232,1.52-9.244,2.348-13.362.58-2.885,3.273-10.918,1.4-13.359Z" fill="#ba6b4f"/>
          <path id="Path_95524" data-name="Path 95524" d="M156.818,357.7c.617-.236.836-1.127,2.533-.83s-3.695,4.848-5.23,5.522c-.1-.6-.172-1.215-.257-1.823C156.5,359.762,156.814,358.31,156.818,357.7Z" fill="#0b1238"/>
          <path id="Path_95525" data-name="Path 95525" d="M142.367,360.35a1.73,1.73,0,0,1,.431-.182c2.846-.76,3.243-2.236,3.269-2.9.436,0,1.13-1.61,2.431-.354s-4.45,4.375-6.032,4.934C142.425,361.35,142.4,360.848,142.367,360.35Z" fill="#0b1238"/>
        </g>
        <path id="Path_95526" data-name="Path 95526" d="M154.123,275.3c1.429,2.608.734,8.989-3.426,8.223-3.768-.692-5.573-6.676-4.043-9.636C148.792,269.755,152.474,272.289,154.123,275.3Z" fill="#ba6b4f"/>
        <path id="Path_95527" data-name="Path 95527" d="M144.646,287.574c-1.014-1.1-1.949.014-2.645,1-2.433,3.464-1.916,8.2-2.148,12.189a11.5,11.5,0,0,0-.18,2.96,9.753,9.753,0,0,0,1.387,2.043c2.2,3.458,4.4,7.172,5.443,11.086a13.412,13.412,0,0,0,1.577-2.4c.382-1.133-.381-1.789-1.032-2.847a20.276,20.276,0,0,1-2.316-6,17.2,17.2,0,0,1-.68-6.034c.186-1.758.59-3.5.8-5.257C145.058,292.539,146.027,289.1,144.646,287.574Z" fill="#9dafe2"/>
        <path id="Path_95528" data-name="Path 95528" d="M157.351,286.913a4.631,4.631,0,0,0-2.617-1.365c-3.776-.643-8.688-1.654-11.5,1.682-1.742,2.064-2.078,5.793-1.422,8.27,1.193,4.507,2.283,7,2.107,8.6s-.177,6.094-.845,7.829c0,0,16.119.944,13.595-3.555-2.3-4.111.676-8.927,2-12.844C159.54,292.949,159.378,289.017,157.351,286.913Z" fill="#bfd4f8"/>
        <path id="Path_95529" data-name="Path 95529" d="M156.029,306.635c.72,2.255,2.07,4.3,2.615,6.69a62.813,62.813,0,0,1,1.236,9.359c.319,4.3-.5,8.438.969,12.4a58.323,58.323,0,0,1-10.435,1.079c-2.127,0-4.268.2-6.389-.009-.727-.07-2.416-.075-2.975-.578-.636-.572-.644-2.655-.779-3.468a51.352,51.352,0,0,1-.246-13c.349-3.6,1.189-8.175,2.969-11.375.244-.441.611-1.607,1-1.884.6-.431,2.093-.128,2.806-.1,1.358.05,2.717.236,4.077.236.271,0,5.037.356,4.882-.36C155.83,305.964,155.923,306.3,156.029,306.635Z" fill="#2a2b7c"/>
        <path id="Path_95530" data-name="Path 95530" d="M143.568,279.307a4.742,4.742,0,0,0-.164-.514,6.564,6.564,0,0,1,.418-6.308,6.249,6.249,0,0,1,3.654-2.972,5.383,5.383,0,0,1,2.674.047c2.474.679,4.967,3.366,4.6,6.075-.236,1.728-2.195,1.208-2.425,3.133-.268,2.24,1.474,3.7,1.6,5.882a5.01,5.01,0,0,1-2.406,4.823c-4.291,2.279-11.633-1.641-9.076-7.02C143.146,280.979,143.9,280.645,143.568,279.307Z" fill="#0b1238"/>
        <path id="Path_95531" data-name="Path 95531" d="M169.607,311.813l-12.541,5,4.791,9.334,12.084-5.959Z" fill="#fff"/>
        <path id="Path_95532" data-name="Path 95532" d="M165,312.121c.131.042,1.729.661,1.6.8-.6.606-1.646.109-1.512,1.326a7.132,7.132,0,0,0,1.85,3.387c-.865.133-1.773-1.408-2.291-1.975a17.281,17.281,0,0,1,1.541,2.9,6.306,6.306,0,0,1-1.914-2.381,8.3,8.3,0,0,1,.844,2.784c-.514-.707-.8-1.545-1.26-2.284.01.593.145,1.567-.227,1.969a20.944,20.944,0,0,0-.689-3.27c-.381-.861-1.139-1.453-1.475-2.324a1.441,1.441,0,0,1,1.649-2.023C163.693,311.124,164.365,311.918,165,312.121Z" fill="#ba6b4f"/>
        <path id="Path_95533" data-name="Path 95533" d="M163.677,310.105a3.43,3.43,0,0,1,.322,1.277c-.062,1.019-1.832,1.525-2.728,1.706.2-.04-2.729-6.03-2.928-6.464-1.234-2.679-1.838-5.737-3.209-8.318a16.084,16.084,0,0,1-1.765-5.532c-.334-2.27-.791-7.853,3.142-6.046,2.785,1.279,2.959,5.527,3.385,8.108.715,4.339,1.918,8.677,2.875,12.987A21.045,21.045,0,0,0,163.677,310.105Z" fill="#9dafe2"/>
      </g>
    </g>
    <g id="Group_41955" data-name="Group 41955" transform="translate(311 1275)">
      <path id="Path_95534" data-name="Path 95534" d="M285.669,299.333,288.335,309l-4.666,11.334S279.669,302.667,285.669,299.333Z" fill="#fa7071"/>
      <g id="Group_41954" data-name="Group 41954">
        <path id="Path_95535" data-name="Path 95535" d="M252.619,270.931l-12.336,5.487,5.153,9.139,11.841-6.427Z" fill="#fff"/>
        <g id="Group_41953" data-name="Group 41953">
          <path id="Path_95536" data-name="Path 95536" d="M281.572,363.315s5.776,3.287,4.313,5.248C284.6,370.285,280.935,366.707,281.572,363.315Z" fill="#2a2b7c"/>
          <path id="Path_95537" data-name="Path 95537" d="M278.5,290.633s-.665,3.626.741,5.819c0,0-4.8.447-6.356-.927l1.21-3.283s-1.948.728-2.615-.24-.883-5.725.29-8.167,5.3-4.467,7.224-.484A7.4,7.4,0,0,1,278.5,290.633Z" fill="#f5b29c"/>
          <path id="Path_95538" data-name="Path 95538" d="M270.033,296.472a3.352,3.352,0,0,1,2.117-1.981,17.852,17.852,0,0,1,5.632-.768,13.572,13.572,0,0,1,6.366,2.43,10.764,10.764,0,0,1,2.031,8.081c-.849,4.54-1.745,7.081-1.453,8.651s.619,6.01,1.406,7.675c0,0-15.856,2.108-13.691-2.521s-.976-6.173-2.605-11.582a14.557,14.557,0,0,1-.013-9.505C269.886,296.789,269.956,296.628,270.033,296.472Z" fill="#fa968d"/>
          <path id="Path_95539" data-name="Path 95539" d="M252.313,287.787c-.979-2.244-7.723-6.667-2.755-8.522,2.219-.828,1.852,2.211,2.593,3.7.815,1.637,2.312,2.838.711,4.562Z" fill="#f5b29c"/>
          <path id="Path_95540" data-name="Path 95540" d="M250.783,285.53s6.589,10,9.243,11.6,7.082,3.172,10.849,4.865c-.129-2.27.8-3.426,1.9-5.332-3.6-1.711-7.47-3.593-10.07-4.627s-4.324-2.983-6.008-4.206a21.431,21.431,0,0,1-3.959-4.287A19.947,19.947,0,0,0,250.783,285.53Z" fill="#fa968d"/>
          <path id="Path_95541" data-name="Path 95541" d="M285.785,317.633s2.069,5.722.375,14.308c-1.033,5.229,1.294,8.147,1.545,11.473s-1.511,11.174-1.6,15.209,1.6,9.8.391,9.99-1.529.807-2.278-.1c-.266-.328-.3-4.383-.3-4.383a133.725,133.725,0,0,0-1.716-14.941,75.032,75.032,0,0,1-1.561-14.946c.153-2.369-1.082-8.988-1.082-8.988S282.712,316.92,285.785,317.633Z" fill="#f5b29c"/>
          <path id="Path_95542" data-name="Path 95542" d="M286.715,366.643s-.589,1.339-2.823-.038c0,0-.149,2.79,1.639,2.573S287.529,367.783,286.715,366.643Z" fill="#2a2b7c"/>
          <path id="Path_95543" data-name="Path 95543" d="M271.358,365.078s6.4,1.787,5.46,4.045C275.987,371.105,271.564,368.523,271.358,365.078Z" fill="#2a2b7c"/>
          <path id="Path_95544" data-name="Path 95544" d="M277.331,318.3s1.932,5.765.031,14.313c-1.157,5.2,1.1,8.176,1.27,11.506s-1.777,11.136-1.959,15.167,1.367,9.84.153,9.994-1.549.774-2.277-.156c-.258-.334-.193-4.385-.193-4.385A133.387,133.387,0,0,0,273,349.762a75.02,75.02,0,0,1-1.2-14.979c.207-2.363-.866-9.013-.866-9.013S274.277,317.518,277.331,318.3Z" fill="#f5b29c"/>
          <path id="Path_95545" data-name="Path 95545" d="M277.087,367.318s-.62,1.329-2.823-.1c0,0-.215,2.783,1.58,2.607S277.874,368.478,277.087,367.318Z" fill="#2a2b7c"/>
          <path id="Path_95546" data-name="Path 95546" d="M274.336,279.648c-.309.1-.627.216-.96.35-.586.239-.27.19-.922.137-.445-.034-.907-.37-1.439-.24-2.857.7-.306,3.912.822,4.787,1.11.861,1.586.671,1.73,2.359a7.563,7.563,0,0,1-.98,3.8c-1.241,2.415-2.591,4.683-1.052,7.439.711,1.274,2.308,3.037,3.822,1.862-2.044,3.269,2.161,4.9,4.835,4.95,2.564.05,5.218-2.549,3.64-5.067,2.439.512,2.591-2.425,2.23-4.106-.4-1.853-1.665-3.232-2.406-4.9-.764-1.719-.258-3.232-.286-5.03-.053-3.189-1.859-5.085-4.654-6.155A6.172,6.172,0,0,0,274.336,279.648Z" fill="#0b1238"/>
          <path id="Path_95547" data-name="Path 95547" d="M270.839,333.049c1.146,4.367.968,8.724,1.408,13.2,4.93,1.553,10.591-.484,15.505-.6-.8-8.136,1.217-16.527.462-24.8-.2-2.191-3.289-6.511-3.289-6.511a30.161,30.161,0,0,1-5.267,1.154,39.517,39.517,0,0,1-6.641-.118s-2.834,6.3-3.248,8.837C269.277,327.231,270.087,330.177,270.839,333.049Z" fill="#3d4166"/>
        </g>
      </g>
    </g>
    <g id="Group_41982" data-name="Group 41982" transform="translate(311 1275)">
      <g id="Group_41976" data-name="Group 41976">
        <g id="Group_41962" data-name="Group 41962">
          <path id="Path_95568" data-name="Path 95568" d="M198.855,270.469a1.271,1.271,0,0,1-1.271-1.271v-7.9c0-4.644,4.995-8.421,11.134-8.421h3.016a1.271,1.271,0,1,1,0,2.542h-3.016c-4.738,0-8.592,2.637-8.592,5.879v7.9A1.27,1.27,0,0,1,198.855,270.469Z" fill="#0b1238"/>
        </g>
        <g id="Group_41963" data-name="Group 41963">
          <rect id="Rectangle_38211" data-name="Rectangle 38211" width="2.761" height="23" transform="translate(217.368 275.304)" fill="#0b1238"/>
        </g>
        <g id="Group_41971" data-name="Group 41971">
          <g id="Group_41964" data-name="Group 41964">
            <path id="Path_95569" data-name="Path 95569" d="M228.009,302.243a1.013,1.013,0,0,1-.584-.185c-2.584-1.818-6.86-2.9-11.436-2.9s-8.853,1.086-11.437,2.9a1.017,1.017,0,1,1-1.17-1.664c2.914-2.05,7.627-3.272,12.607-3.272s9.692,1.222,12.606,3.272a1.017,1.017,0,0,1-.586,1.849Z" fill="#0b1238"/>
          </g>
          <g id="Group_41965" data-name="Group 41965">
            <path id="Path_95570" data-name="Path 95570" d="M205.309,303.134c0,1.4-.676,2.529-1.509,2.529s-1.51-1.133-1.51-2.529.676-2.53,1.51-2.53S205.309,301.736,205.309,303.134Z" fill="#0b1238"/>
          </g>
          <g id="Group_41966" data-name="Group 41966">
            <path id="Path_95571" data-name="Path 95571" d="M229.458,302.9c0,1.4-.676,2.53-1.509,2.53s-1.51-1.134-1.51-2.53.676-2.53,1.51-2.53S229.458,301.507,229.458,302.9Z" fill="#0b1238"/>
          </g>
          <g id="Group_41970" data-name="Group 41970">
            <g id="Group_41967" data-name="Group 41967">
              <path id="Path_95572" data-name="Path 95572" d="M208.549,302.555a1.016,1.016,0,0,1-.638-1.808c2.774-2.235,7.4-3.761,12.368-4.082s9.752.593,12.792,2.45a1.017,1.017,0,0,1-1.06,1.736c-2.7-1.647-7.034-2.456-11.6-2.157s-8.764,1.656-11.226,3.636A1.009,1.009,0,0,1,208.549,302.555Z" fill="#0b1238"/>
            </g>
            <g id="Group_41968" data-name="Group 41968">
              <path id="Path_95573" data-name="Path 95573" d="M210.01,303.355c.091,1.393-.511,2.567-1.341,2.622s-1.581-1.033-1.67-2.427.511-2.569,1.342-2.622S209.92,301.96,210.01,303.355Z" fill="#0b1238"/>
            </g>
            <g id="Group_41969" data-name="Group 41969">
              <path id="Path_95574" data-name="Path 95574" d="M234.1,301.564c.089,1.394-.512,2.567-1.343,2.621s-1.579-1.031-1.67-2.426.511-2.569,1.343-2.622S234,300.17,234.1,301.564Z" fill="#0b1238"/>
            </g>
          </g>
        </g>
        <g id="Group_41973" data-name="Group 41973">
          <g id="Group_41972" data-name="Group 41972">
            <path id="Path_95575" data-name="Path 95575" d="M227.833,275.994H195.864c-1.9,0-3.148-.935-3.148-2.841a3.45,3.45,0,0,1,3.45-3.449h7.82a6.677,6.677,0,0,0,6.669-6.67l-.3-38.1a3.449,3.449,0,0,1,3.45-3.45h24.149a3.45,3.45,0,0,1,3.45,3.45v37.489A13.585,13.585,0,0,1,227.833,275.994Z" fill="#fa968d"/>
          </g>
        </g>
        <g id="Group_41975" data-name="Group 41975">
          <g id="Group_41974" data-name="Group 41974">
            <path id="Path_95576" data-name="Path 95576" d="M227.985,275.88H195.211a3.178,3.178,0,0,1,0-6.355h32.774a7.045,7.045,0,0,0,7.036-7.039V224.634a3.178,3.178,0,0,1,6.355,0v37.852A13.407,13.407,0,0,1,227.985,275.88Z" fill="#fa7071"/>
          </g>
        </g>
      </g>
      <g id="Group_41977" data-name="Group 41977">
        <path id="Path_95577" data-name="Path 95577" d="M218.686,227.191c0,.017,0,.034,0,.051,0-.017,0-.034,0-.051Z" fill="#fa7071"/>
        <path id="Path_95578" data-name="Path 95578" d="M218.691,232.938c0-.018,0-.034,0-.051,0,.017,0,.033,0,.051Z" fill="#fa7071"/>
        <path id="Path_95579" data-name="Path 95579" d="M221.175,230.065a2.848,2.848,0,0,1-2.487-2.823,2.847,2.847,0,0,1-2.486,2.823,2.844,2.844,0,0,1,2.486,2.822A2.845,2.845,0,0,1,221.175,230.065Z" fill="#fa7071"/>
      </g>
      <g id="Group_41978" data-name="Group 41978">
        <path id="Path_95580" data-name="Path 95580" d="M227.186,227.191c0,.017,0,.034,0,.051,0-.017,0-.034,0-.051Z" fill="#fa7071"/>
        <path id="Path_95581" data-name="Path 95581" d="M227.191,232.938c0-.018,0-.034,0-.051,0,.017,0,.033,0,.051Z" fill="#fa7071"/>
        <path id="Path_95582" data-name="Path 95582" d="M229.675,230.065a2.848,2.848,0,0,1-2.487-2.823,2.847,2.847,0,0,1-2.486,2.823,2.844,2.844,0,0,1,2.486,2.822A2.845,2.845,0,0,1,229.675,230.065Z" fill="#fa7071"/>
      </g>
      <g id="Group_41979" data-name="Group 41979">
        <path id="Path_95583" data-name="Path 95583" d="M218.686,237.816c0,.017,0,.034,0,.051,0-.017,0-.034,0-.051Z" fill="#fa7071"/>
        <path id="Path_95584" data-name="Path 95584" d="M218.691,243.563c0-.018,0-.034,0-.051,0,.017,0,.033,0,.051Z" fill="#fa7071"/>
        <path id="Path_95585" data-name="Path 95585" d="M221.175,240.69a2.848,2.848,0,0,1-2.487-2.823,2.847,2.847,0,0,1-2.486,2.823,2.844,2.844,0,0,1,2.486,2.822A2.845,2.845,0,0,1,221.175,240.69Z" fill="#fa7071"/>
      </g>
      <g id="Group_41980" data-name="Group 41980">
        <path id="Path_95586" data-name="Path 95586" d="M227.186,237.816c0,.017,0,.034,0,.051,0-.017,0-.034,0-.051Z" fill="#fa7071"/>
        <path id="Path_95587" data-name="Path 95587" d="M227.191,243.563c0-.018,0-.034,0-.051,0,.017,0,.033,0,.051Z" fill="#fa7071"/>
        <path id="Path_95588" data-name="Path 95588" d="M229.675,240.69a2.848,2.848,0,0,1-2.487-2.823,2.847,2.847,0,0,1-2.486,2.823,2.844,2.844,0,0,1,2.486,2.822A2.845,2.845,0,0,1,229.675,240.69Z" fill="#fa7071"/>
      </g>
      <g id="Group_41981" data-name="Group 41981">
        <path id="Path_95589" data-name="Path 95589" d="M225.592,273.23a1.272,1.272,0,0,1-1.271-1.272V261.3c0-4.644,4.994-8.421,11.133-8.421h3.017a1.271,1.271,0,1,1,0,2.542h-3.017c-4.738,0-8.591,2.637-8.591,5.879v10.663A1.272,1.272,0,0,1,225.592,273.23Z" fill="#0b1238"/>
      </g>
      <path id="Path_95590" data-name="Path 95590" d="M227.375,229.938c0,.362-.182.656-.4.656s-.406-.294-.406-.656.182-.657.406-.657S227.375,229.575,227.375,229.938Z" fill="#fa968d"/>
      <path id="Path_95591" data-name="Path 95591" d="M218.937,230c0,.362-.181.656-.4.656s-.4-.294-.4-.656.182-.656.4-.656S218.937,229.638,218.937,230Z" fill="#fa968d"/>
      <path id="Path_95592" data-name="Path 95592" d="M218.812,240.563c0,.362-.181.656-.4.656s-.4-.294-.4-.656.182-.657.4-.657S218.812,240.2,218.812,240.563Z" fill="#fa968d"/>
      <path id="Path_95593" data-name="Path 95593" d="M227.25,240.75c0,.362-.182.656-.4.656s-.406-.294-.406-.656.182-.656.406-.656S227.25,240.388,227.25,240.75Z" fill="#fa968d"/>
    </g>
    <g id="Group_41984" data-name="Group 41984" transform="translate(311 1275)">
      <path id="Path_95615" data-name="Path 95615" d="M206.36,328.27l-.966,3.5.966-.725s.362,3.866,1.087,4.229.966.483,1.812-.605-.967-5.316-.362-7.128A2.524,2.524,0,0,0,206.36,328.27Z" fill="#ecb49f"/>
      <path id="Path_95616" data-name="Path 95616" d="M202.854,375.381s-.438,3.562.765,3.76,6.135-4.619,6.218-6.513S206.264,372.863,202.854,375.381Z" fill="#445998"/>
      <path id="Path_95617" data-name="Path 95617" d="M178.481,374.509s.139,3.586,1.357,3.586,6.312-4.764,6.091-6.647S181.443,371.476,178.481,374.509Z" fill="#445998"/>
      <path id="Path_95618" data-name="Path 95618" d="M202.857,297.948s1.933-.483,4.107,4.592,3.867,14.979,3.867,14.979L208.9,329.6l-2.658-.484.242-10.631S200.925,303.263,202.857,297.948Z" fill="#445998"/>
      <path id="Path_95619" data-name="Path 95619" d="M198.485,291.56s.265,6.109.975,7.287c.921,1.53,2.859.619,3.293,2.579a5.94,5.94,0,0,1-1.12,3.88c-1.967,3.043-5.49,2.636-8.723,3.2a3.819,3.819,0,0,1-4.457-2.43,6.717,6.717,0,0,1,1.039-5.408c.647-.751,1.839-.937,2.576-1.612a6.024,6.024,0,0,0,1.848-4.309C193.777,292.252,197.1,290.173,198.485,291.56Z" fill="#ecb49f"/>
      <path id="Path_95620" data-name="Path 95620" d="M191.7,289.576s.392,8.333,3.926,8.47,3.948-4.4,4.179-7.7c.259-3.7-.053-4.818-4.179-5.03C191.652,285.111,191.7,289.576,191.7,289.576Z" fill="#ecb49f"/>
      <path id="Path_95621" data-name="Path 95621" d="M172.732,335.321l10.49-7.805,1.455,8.5s-9.389,7.351-8.907,7.366S172.732,335.321,172.732,335.321Z" fill="#bfd4f8"/>
      <path id="Path_95622" data-name="Path 95622" d="M178.033,327.45c.023-.151.465-.26.37-.43-.19.788-1.03,2.778-.947,3.6.118,1.161.84,1.078,1.781,1.137.992.063,1.8.34,1.484-.91a5.518,5.518,0,0,1,.506-3.615Z" fill="#ecb49f"/>
      <path id="Path_95623" data-name="Path 95623" d="M186.815,298.37s-3.026.156-5.067,8.319-3.862,21.524-3.862,21.524l2.891.323,5.576-17.972S188.572,300.352,186.815,298.37Z" fill="#445998"/>
      <path id="Path_95624" data-name="Path 95624" d="M199.157,325.957a16.211,16.211,0,0,1,2.625-.688c.706-.051,1.2.322,1.669-.057a1.2,1.2,0,0,0,.134-.133c.433-.5.32-2.37.385-2.993.21-2.039.4-4.08.623-6.119.622-5.908-.286-16.447-.044-13.91s.966-2.9-.6-3.987-4.349.363-4.349.363a6.33,6.33,0,0,1-3.746,1.086c-2.657.121-3.745-1.086-3.745-1.086L188,298.07s-1.971-.224-2.858,3.875-.98,6.168-.24,9.067a32.956,32.956,0,0,1,1.062,4.955c.218,2.039.579,4.588.79,6.626.066.623-.214,1.988.218,2.486a1.055,1.055,0,0,0,.135.133c.472.379.963.006,1.669.057a16.375,16.375,0,0,1,2.625.688Z" fill="#2a2b7c"/>
      <path id="Path_95625" data-name="Path 95625" d="M203.516,321.777c-.817.238-1.754.38-2.564.544-1.288.264-2.587.47-3.891.636a32.283,32.283,0,0,1-5.549.283,19.827,19.827,0,0,1-4.913-1.052c-.071.691.159,1.559.145,2.3a28.716,28.716,0,0,1,3.382.6,34.211,34.211,0,0,0,4.776.364,25.294,25.294,0,0,0,6.275-1.146c.65-.166,2.132-.209,2.629-.665.354-.327,0-1.956.116-2C203.79,321.7,203.655,321.738,203.516,321.777Z" fill="#2e3054"/>
      <path id="Path_95626" data-name="Path 95626" d="M186.952,323.24l-8.527,50.717-.188,1.119s3.4.182,4.165-.6,13.207-37.507,13.207-37.507l6.976,38.973s.118.241,2.051,0,1.94-.891,1.954-2.006c.066-5.606.259-22.994.131-29.092-.153-7.309.306-17.471-3.217-21.807C203.5,323.035,191.843,325.678,186.952,323.24Z" fill="#0b1238"/>
      <path id="Path_95627" data-name="Path 95627" d="M199.094,293.349c.363-.719.721-1.376.761-1.457a9.055,9.055,0,0,0,1.079-3.78c.067-2.623-5.079-3.643-6.966-3.018-1.767.586-3.189,2.936-3.307,4.744-.154,2.329,2.141,3.325,2.865,5.487,1.576-.2,3.23.088,4.833,0C198.137,295.341,198.619,294.292,199.094,293.349Z" fill="#0b1238"/>
    </g>
    <g id="Group_41987" data-name="Group 41987" transform="translate(311 1275)">
      <g id="Group_41986" data-name="Group 41986">
        <path id="Path_95632" data-name="Path 95632" d="M186.073,193.438a4.723,4.723,0,1,0-1.973,6.381A4.723,4.723,0,0,0,186.073,193.438Zm-7.536,3.976a3.8,3.8,0,1,1,5.13,1.586A3.8,3.8,0,0,1,178.537,197.414Z" fill="#9dafe2"/>
        <rect id="Rectangle_38212" data-name="Rectangle 38212" width="8.335" height="0.833" transform="translate(170.48 201.194) rotate(-27.822)" fill="#9dafe2"/>
        <path id="Path_95633" data-name="Path 95633" d="M170.667,203.136a1.389,1.389,0,1,1-1.3-2.457l4.423-2.333a1.388,1.388,0,1,1,1.3,2.456Z" fill="#9dafe2"/>
      </g>
    </g>
    <g id="Group_41989" data-name="Group 41989" transform="translate(311 1275)">
      <g id="Group_41988" data-name="Group 41988">
        <path id="Path_95634" data-name="Path 95634" d="M257.075,192.041a1.51,1.51,0,0,1-.9-.78,2.607,2.607,0,0,1,.314-2.266c1.1-2.136.612-3.025.607-3.033a.244.244,0,0,1,.082-.331.241.241,0,0,1,.33.075c.028.043.66,1.091-.588,3.512a2.214,2.214,0,0,0-.307,1.832,1.006,1.006,0,0,0,.631.535.243.243,0,0,1-.111.473C257.133,192.057,257.11,192.052,257.075,192.041Z" fill="#2d3152"/>
      </g>
      <path id="Path_95635" data-name="Path 95635" d="M253.206,185.869c.237-.738-2.246-2.194-5.545-3.254s-6.165-1.32-6.4-.583c-.188.589-1.526,4.753-1.715,5.341-.236.737,2.246,2.194,5.544,3.254s6.166,1.32,6.4.582Z" fill="#2d3152"/>
      <path id="Path_95636" data-name="Path 95636" d="M246.762,185.414l-9.595-6.158,11.387.58,9.6,6.158Z" fill="#3d4166"/>
      <path id="Path_95637" data-name="Path 95637" d="M258.652,194.558l-1.742-3,3.356,1.281Z" fill="#2d3152"/>
    </g>
    <g id="Group_41998" data-name="Group 41998" transform="translate(311 1275)">
      <g id="Group_41990" data-name="Group 41990">
        <rect id="Rectangle_38213" data-name="Rectangle 38213" width="14.084" height="22.211" transform="translate(256.524 250.075) rotate(-66.515)" fill="#fff"/>
      </g>
      <g id="Group_41992" data-name="Group 41992">
        <g id="Group_41991" data-name="Group 41991">
          <path id="Path_95638" data-name="Path 95638" d="M276.266,258.9l-19.288-8.382A.224.224,0,0,1,257,250.1l13.167-3.924a.22.22,0,0,1,.264.113l6.1,12.277a.223.223,0,0,1-.271.335Zm-18.549-8.548,18.161,7.891-5.761-11.585Z" fill="#bfd4f8"/>
        </g>
      </g>
      <g id="Group_41994" data-name="Group 41994">
        <g id="Group_41993" data-name="Group 41993">
          <path id="Path_95639" data-name="Path 95639" d="M276.806,259.13l-20.371-8.852a.219.219,0,0,1-.116-.292l5.612-12.917a.222.222,0,0,1,.294-.116l20.369,8.851a.223.223,0,0,1,.117.294L277.1,259.014A.222.222,0,0,1,276.806,259.13Zm-19.987-9.172,19.959,8.673,5.434-12.505-19.959-8.674Z" fill="#bfd4f8"/>
        </g>
      </g>
      <g id="Group_41995" data-name="Group 41995">
        <path id="Path_95640" data-name="Path 95640" d="M281.964,245.774,268.8,249.7l-6.118-12.3Z" fill="#fff"/>
      </g>
      <g id="Group_41997" data-name="Group 41997">
        <g id="Group_41996" data-name="Group 41996">
          <path id="Path_95641" data-name="Path 95641" d="M268.707,249.9a.24.24,0,0,1-.111-.1l-6.115-12.3a.225.225,0,0,1,.037-.255.22.22,0,0,1,.251-.05l19.286,8.38a.223.223,0,0,1-.027.418l-13.169,3.927A.232.232,0,0,1,268.707,249.9Zm-5.555-12.06,5.761,11.587,12.4-3.7Z" fill="#bfd4f8"/>
        </g>
      </g>
    </g>
    <g id="Group_41999" data-name="Group 41999" transform="translate(311 1275)">
      <rect id="Rectangle_38214" data-name="Rectangle 38214" width="17.73" height="11.421" transform="matrix(0.9, -0.436, 0.436, 0.9, 198.425, 200.546)" fill="#7ab6f6"/>
      <path id="Path_95642" data-name="Path 95642" d="M203.732,210.666l5.16-8.842,10.138,1.436Z" fill="#5c75c3"/>
      <path id="Path_95643" data-name="Path 95643" d="M214.185,192.916l-4.022,11.534-11.539-4Z" fill="#bfd4f8"/>
    </g>
    <path id="Path_95644" data-name="Path 95644" d="M262.8,222.461,257,216.835l-5.626,5.789,2.27-.033.124,8.732,6.875-.1-.124-8.732Z" transform="translate(311 1275)" fill="#fff" opacity="0.4"/>
  </g>
</svg>
