<svg xmlns="http://www.w3.org/2000/svg" width="225.557" height="205.191" viewBox="0 0 225.557 205.191">
  <g id="الخدمات_والعمل_الحر" data-name="الخدمات والعمل الحر" transform="translate(-875.654 -493.693)">
    <g id="Group_42758" data-name="Group 42758" transform="translate(1006.633 606.724)">
      <path id="Path_97466" data-name="Path 97466" d="M2058.235,1509.222H2038.96l-3.04-14.252H2055.2Z" transform="translate(-2035.919 -1494.969)" fill="#f88bac"/>
    </g>
    <g id="Group_42759" data-name="Group 42759" transform="translate(1005.982 606.724)">
      <path id="Path_97467" data-name="Path 97467" d="M2052.462,1509.222h-19.275l-3.04-14.252h19.276Z" transform="translate(-2030.146 -1494.969)" fill="#beb2bd"/>
    </g>
    <g id="Group_42760" data-name="Group 42760" transform="translate(1005.982 606.724)">
      <path id="Path_97468" data-name="Path 97468" d="M2050.688,1500.909h-19.276l-1.266-5.94h19.276Z" transform="translate(-2030.146 -1494.969)" fill="#030028"/>
    </g>
    <g id="Group_42761" data-name="Group 42761" transform="translate(997.158 620.976)">
      <path id="Rectangle_38343" data-name="Rectangle 38343" d="M2.962,0H35.049a2.962,2.962,0,0,1,2.962,2.962v0a0,0,0,0,1,0,0H0a0,0,0,0,1,0,0v0A2.962,2.962,0,0,1,2.962,0Z" transform="translate(0 0)" fill="#cfc6ce"/>
    </g>
    <g id="Group_42762" data-name="Group 42762" transform="translate(962.413 596.395)">
      <path id="Path_97469" data-name="Path 97469" d="M1645.455,1403.473l-1.264,7.914a3.066,3.066,0,0,0,3.067,2.68h85.682a4.844,4.844,0,0,0,4.507-3.716l1.462-6.877Z" transform="translate(-1644.191 -1403.473)" fill="#beb2bd"/>
    </g>
    <g id="Group_42763" data-name="Group 42763" transform="translate(963.288 545.081)">
      <path id="Path_97470" data-name="Path 97470" d="M1745.934,999.546l9.614-45.233a4.641,4.641,0,0,0-1.594-4.735l-85.98-.672a4.844,4.844,0,0,0-4.506,3.717l-10.609,49.914h0l-.826,3.885a2.917,2.917,0,0,0,2.927,3.716h85.006a4.844,4.844,0,0,0,4.507-3.716l1.462-6.877Z" transform="translate(-1651.949 -948.907)" fill="#beb2bd"/>
    </g>
    <g id="Group_42764" data-name="Group 42764" transform="translate(1041.363 545.565)">
      <path id="Path_97471" data-name="Path 97471" d="M2367.5,953.387l-23.931-.187,11.214,58.6,1.6,1.593a5,5,0,0,0,1.631-3.166l1.462-6.877,9.615-45.233A4.642,4.642,0,0,0,2367.5,953.387Z" transform="translate(-2343.565 -953.2)" fill="#f88bac"/>
    </g>
    <g id="Group_42767" data-name="Group 42767" transform="translate(963.101 545.081)">
      <g id="Group_42765" data-name="Group 42765" transform="translate(1.9 1.858)">
        <path id="Path_97472" data-name="Path 97472" d="M1668.623,1019a1.459,1.459,0,0,1-1.463-1.858l10.61-49.914a2.422,2.422,0,0,1,2.253-1.858h85.006a1.458,1.458,0,0,1,1.463,1.858l-10.609,49.914a2.422,2.422,0,0,1-2.253,1.858Z" transform="translate(-1667.118 -965.368)" fill="#fff"/>
      </g>
      <g id="Group_42766" data-name="Group 42766">
        <path id="Path_97473" data-name="Path 97473" d="M1749.7,952.624l-10.609,49.914h-85.006l10.609-49.914H1749.7m.79-3.717h-85.006a4.844,4.844,0,0,0-4.506,3.717l-10.609,49.914a2.917,2.917,0,0,0,2.927,3.717H1738.3a4.845,4.845,0,0,0,4.507-3.717l10.609-49.914a2.917,2.917,0,0,0-2.927-3.717Z" transform="translate(-1650.286 -948.907)" fill="#030028"/>
      </g>
    </g>
    <g id="Group_42768" data-name="Group 42768" transform="translate(966.901 559.655)">
      <path id="Path_97474" data-name="Path 97474" d="M1772.684,1083.089a104.453,104.453,0,0,0-22.424-4.486c-16.144-1.513-33.1.05-50,2.964a91.53,91.53,0,0,0-9.183,1.963l-7.13,33.542h85.006l6.969-32.785C1774.874,1083.853,1773.8,1083.45,1772.684,1083.089Z" transform="translate(-1683.951 -1078.016)" fill="#fbb9cc"/>
    </g>
    <g id="Group_42769" data-name="Group 42769" transform="translate(966.901 569.716)">
      <path id="Path_97475" data-name="Path 97475" d="M1774.613,1169.523a40.938,40.938,0,0,0-26.03-.523c-6.828,2.029-13.547,5.643-20.383,6.478-7.764.948-14.647-1.8-21.457-4.035-4.993-1.642-10.363-3.063-16.114-2.5-.307.03-.614.066-.92.1l-5.758,27.09h85.006Z" transform="translate(-1683.951 -1167.139)" fill="#f88bac"/>
    </g>
    <g id="Group_42770" data-name="Group 42770" transform="translate(966.901 571.121)">
      <path id="Path_97476" data-name="Path 97476" d="M1774.822,1179.585a64.215,64.215,0,0,0-22.316,7c-5.065,2.658-9.956,6.016-15.269,7.639-7.157,2.186-14.156.968-20.924,0-8.2-1.176-15.208-.765-23.746,2.707a67.816,67.816,0,0,0-7.162,3.408l-1.454,6.838h85.006Z" transform="translate(-1683.951 -1179.585)" fill="#f45183"/>
    </g>
    <g id="Group_42771" data-name="Group 42771" transform="translate(962.275 595.719)">
      <path id="Path_97477" data-name="Path 97477" d="M1644.515,1397.487l-1.462,6.877a2.917,2.917,0,0,0,2.927,3.717h85.006a4.844,4.844,0,0,0,4.507-3.717l1.462-6.877Z" transform="translate(-1642.97 -1397.487)" fill="#cfc6ce"/>
    </g>
    <g id="Group_42772" data-name="Group 42772" transform="translate(1030.909 623.938)">
      <rect id="Rectangle_38344" data-name="Rectangle 38344" width="61.108" height="4.345" transform="translate(0 0)" fill="#f88bac"/>
    </g>
    <g id="Group_42773" data-name="Group 42773" transform="translate(880.37 623.938)">
      <rect id="Rectangle_38345" data-name="Rectangle 38345" width="167.057" height="4.345" transform="translate(0 0)" fill="#030028"/>
    </g>
    <g id="Group_42788" data-name="Group 42788" transform="translate(975.106 552.446)">
      <g id="Group_42774" data-name="Group 42774" transform="translate(0)">
        <path id="Path_97478" data-name="Path 97478" d="M1794.784,1042.971h-36.651a1.448,1.448,0,0,1-1.452-1.844l5.341-25.126a2.4,2.4,0,0,1,2.236-1.844h36.651a1.448,1.448,0,0,1,1.452,1.844l-5.341,25.126A2.4,2.4,0,0,1,1794.784,1042.971Z" transform="translate(-1756.639 -1014.157)" fill="#f0ebf1"/>
      </g>
      <g id="Group_42779" data-name="Group 42779" transform="translate(5.051)">
        <g id="Group_42775" data-name="Group 42775">
          <path id="Path_97479" data-name="Path 97479" d="M1801.379,1017.562l.332-1.56a2.4,2.4,0,0,1,2.236-1.844H1840.6a1.448,1.448,0,0,1,1.452,1.844l-.332,1.56Z" transform="translate(-1801.379 -1014.157)" fill="#cfc6ce"/>
        </g>
        <g id="Group_42776" data-name="Group 42776" transform="translate(1.891 0.653)">
          <ellipse id="Ellipse_197" data-name="Ellipse 197" cx="0.826" cy="0.668" rx="0.826" ry="0.668" transform="translate(0 1.105) rotate(-41.967)" fill="#f0ebf1"/>
        </g>
        <g id="Group_42777" data-name="Group 42777" transform="translate(4.574 0.959)">
          <path id="Path_97480" data-name="Path 97480" d="M1843.4,1023.4a.968.968,0,0,1-.9.743.583.583,0,0,1-.585-.743.968.968,0,0,1,.9-.743A.583.583,0,0,1,1843.4,1023.4Z" transform="translate(-1841.9 -1022.656)" fill="#f0ebf1"/>
        </g>
        <g id="Group_42778" data-name="Group 42778" transform="translate(6.655 0.653)">
          <ellipse id="Ellipse_198" data-name="Ellipse 198" cx="0.826" cy="0.668" rx="0.826" ry="0.668" transform="matrix(0.744, -0.669, 0.669, 0.744, 0, 1.105)" fill="#f0ebf1"/>
        </g>
      </g>
      <g id="Group_42780" data-name="Group 42780" transform="translate(3.557 6.822)">
        <path id="Path_97481" data-name="Path 97481" d="M1821.475,1093.872h-33.324l4.1-19.287h33.324Z" transform="translate(-1788.151 -1074.585)" fill="#fff"/>
      </g>
      <g id="Group_42781" data-name="Group 42781" transform="translate(7.246 8.589)">
        <path id="Path_97482" data-name="Path 97482" d="M1840.22,1098.117h-19.39l1.674-7.876h19.39Z" transform="translate(-1820.831 -1090.241)" fill="#f45183"/>
      </g>
      <g id="Group_42782" data-name="Group 42782" transform="translate(29.709 8.589)">
        <path id="Path_97483" data-name="Path 97483" d="M2025.257,1091.855h-5.443l.343-1.614h5.443Z" transform="translate(-2019.814 -1090.241)" fill="#fbb9cc"/>
      </g>
      <g id="Group_42783" data-name="Group 42783" transform="translate(29.043 11.72)">
        <path id="Path_97484" data-name="Path 97484" d="M2022.658,1119.593h-8.739l.343-1.614H2023Z" transform="translate(-2013.918 -1117.979)" fill="#fbb9cc"/>
      </g>
      <g id="Group_42784" data-name="Group 42784" transform="translate(28.378 14.851)">
        <path id="Path_97485" data-name="Path 97485" d="M2015.189,1147.332h-7.167l.343-1.614h7.167Z" transform="translate(-2008.022 -1145.718)" fill="#fbb9cc"/>
      </g>
      <g id="Group_42785" data-name="Group 42785" transform="translate(28.418 18.983)">
        <ellipse id="Ellipse_199" data-name="Ellipse 199" cx="2.328" cy="1.883" rx="2.328" ry="1.883" transform="translate(0 3.114) rotate(-41.967)" fill="#5d47ff"/>
      </g>
      <g id="Group_42786" data-name="Group 42786" transform="translate(5.197 19.846)">
        <path id="Path_97486" data-name="Path 97486" d="M1811.689,1196.226h-9.016l1.331-6.263h9.016Z" transform="translate(-1802.672 -1189.963)" fill="#8e7eff"/>
      </g>
      <g id="Group_42787" data-name="Group 42787" transform="translate(15.57 19.846)">
        <path id="Path_97487" data-name="Path 97487" d="M1903.583,1196.226h-9.016l1.331-6.263h9.016Z" transform="translate(-1894.567 -1189.963)" fill="#8e7eff"/>
      </g>
    </g>
    <g id="Group_42797" data-name="Group 42797" transform="translate(1018.119 563.166)">
      <g id="Group_42789" data-name="Group 42789" transform="translate(0)">
        <path id="Path_97488" data-name="Path 97488" d="M2167.279,1137.932h-28.12a1.447,1.447,0,0,1-1.452-1.844l5.341-25.126a2.4,2.4,0,0,1,2.236-1.844h28.12a1.448,1.448,0,0,1,1.452,1.844l-5.341,25.126A2.4,2.4,0,0,1,2167.279,1137.932Z" transform="translate(-2137.666 -1109.118)" fill="#f0ebf1"/>
      </g>
      <g id="Group_42794" data-name="Group 42794" transform="translate(5.051)">
        <g id="Group_42790" data-name="Group 42790">
          <path id="Path_97489" data-name="Path 97489" d="M2182.406,1112.522l.332-1.56a2.4,2.4,0,0,1,2.236-1.844h28.12a1.448,1.448,0,0,1,1.452,1.844l-.332,1.56Z" transform="translate(-2182.406 -1109.118)" fill="#cfc6ce"/>
        </g>
        <g id="Group_42791" data-name="Group 42791" transform="translate(2.192 0.959)">
          <path id="Path_97490" data-name="Path 97490" d="M2203.327,1118.36a.968.968,0,0,1-.9.743.583.583,0,0,1-.585-.743.968.968,0,0,1,.9-.743A.583.583,0,0,1,2203.327,1118.36Z" transform="translate(-2201.824 -1117.617)" fill="#f0ebf1"/>
        </g>
        <g id="Group_42792" data-name="Group 42792" transform="translate(4.574 0.959)">
          <path id="Path_97491" data-name="Path 97491" d="M2224.428,1118.36a.968.968,0,0,1-.9.743.583.583,0,0,1-.585-.743.969.969,0,0,1,.9-.743A.583.583,0,0,1,2224.428,1118.36Z" transform="translate(-2222.926 -1117.617)" fill="#f0ebf1"/>
        </g>
        <g id="Group_42793" data-name="Group 42793" transform="translate(6.956 0.959)">
          <path id="Path_97492" data-name="Path 97492" d="M2245.53,1118.36a.968.968,0,0,1-.9.743.583.583,0,0,1-.585-.743.969.969,0,0,1,.9-.743A.583.583,0,0,1,2245.53,1118.36Z" transform="translate(-2244.028 -1117.617)" fill="#f0ebf1"/>
        </g>
      </g>
      <g id="Group_42795" data-name="Group 42795" transform="translate(22.54 6.821)">
        <path id="Path_97493" data-name="Path 97493" d="M2352.326,1188.833h-14.993l4.1-19.287h10.509l3.608,4.038Z" transform="translate(-2337.333 -1169.546)" fill="#fff"/>
      </g>
      <g id="Group_42796" data-name="Group 42796" transform="translate(2.751 6.821)">
        <path id="Path_97494" data-name="Path 97494" d="M2179.815,1188.833h-17.781l4.1-19.287h17.781Z" transform="translate(-2162.034 -1169.546)" fill="#fff"/>
      </g>
    </g>
    <g id="Group_42804" data-name="Group 42804" transform="translate(1069.582 512.632)">
      <g id="Group_42798" data-name="Group 42798" transform="translate(0 3.269)">
        <path id="Path_97495" data-name="Path 97495" d="M2603.517,717.252a11.453,11.453,0,0,1-4.5-1.272l.534-1.008a10.315,10.315,0,0,0,4.058,1.143Zm2.42-.029-.113-1.135a14.4,14.4,0,0,0,4.156-1.074l.442,1.051A15.521,15.521,0,0,1,2605.937,717.222Zm6.627-2.241-.583-.98a17.1,17.1,0,0,0,3.4-2.667l.811.8A18.235,18.235,0,0,1,2612.565,714.981Zm-15.567-.4a10.064,10.064,0,0,1-2.683-3.861l1.061-.418a8.936,8.936,0,0,0,2.38,3.428Zm20.77-4.257-.91-.688a15.647,15.647,0,0,0,2.112-3.757l1.063.413A16.761,16.761,0,0,1,2617.768,710.324Zm-24.087-1.965a12.066,12.066,0,0,1-.138-1.832,13.565,13.565,0,0,1,.3-2.811l0-.022,1.112.254a12.423,12.423,0,0,0-.279,2.578,10.949,10.949,0,0,0,.125,1.659Zm27.054-4.406-1.123-.2c0-.016.007-.033.011-.049a12.4,12.4,0,0,0,.274-2.558,10.88,10.88,0,0,0-.127-1.673l1.127-.175a12.022,12.022,0,0,1,.141,1.848A13.547,13.547,0,0,1,2620.734,703.953Zm-25.13-2.15-1.064-.412a16.76,16.76,0,0,1,2.261-4.033l.911.687A15.615,15.615,0,0,0,2595.6,701.8Zm23.594-4.448a8.931,8.931,0,0,0-2.386-3.424l.757-.853a10.064,10.064,0,0,1,2.689,3.857Zm-20.016-1.009-.811-.8A18.247,18.247,0,0,1,2602,692.7l.584.979A17.123,17.123,0,0,0,2599.182,696.346Zm15.837-3.655a10.327,10.327,0,0,0-4.06-1.137l.087-1.137a11.453,11.453,0,0,1,4.5,1.266Zm-10.434-.029-.443-1.051a15.537,15.537,0,0,1,4.485-1.163l.114,1.135A14.4,14.4,0,0,0,2604.585,692.662Z" transform="translate(-2593.542 -690.416)" fill="#030028"/>
      </g>
      <g id="Group_42799" data-name="Group 42799" transform="translate(12.643 0)">
        <ellipse id="Ellipse_200" data-name="Ellipse 200" cx="2.992" cy="2.42" rx="2.992" ry="2.42" transform="translate(0 4.002) rotate(-41.967)" fill="#fff"/>
        <path id="Path_97496" data-name="Path 97496" d="M2709.72,669.966a3.111,3.111,0,0,1-2.478-1.13,3.25,3.25,0,0,1-.6-2.742,4.473,4.473,0,0,1,4.219-3.465,3.112,3.112,0,0,1,2.478,1.13,3.252,3.252,0,0,1,.6,2.742A4.473,4.473,0,0,1,2709.72,669.966Zm1.144-5.382a2.525,2.525,0,0,0-2.307,1.917,1.294,1.294,0,0,0,.2,1.105,1.2,1.2,0,0,0,.959.4,2.525,2.525,0,0,0,2.307-1.917h0a1.3,1.3,0,0,0-.2-1.105A1.2,1.2,0,0,0,2710.864,664.584Z" transform="translate(-2706.448 -662.497)" fill="#f45183"/>
      </g>
      <g id="Group_42800" data-name="Group 42800" transform="translate(19.178 3.23)">
        <line id="Line_1037" data-name="Line 1037" x1="10.195" transform="translate(0 0.57)" fill="#fff"/>
        <rect id="Rectangle_38346" data-name="Rectangle 38346" width="10.195" height="1.14" fill="#f45183"/>
      </g>
      <g id="Group_42801" data-name="Group 42801" transform="translate(27.117 1.57)">
        <ellipse id="Ellipse_201" data-name="Ellipse 201" cx="1.756" cy="1.421" rx="1.756" ry="1.421" transform="translate(0 2.349) rotate(-41.967)" fill="#5d47ff"/>
      </g>
      <g id="Group_42802" data-name="Group 42802" transform="translate(3.6 3.23)">
        <line id="Line_1038" data-name="Line 1038" x2="10.195" transform="translate(0 0.57)" fill="#fff"/>
        <rect id="Rectangle_38347" data-name="Rectangle 38347" width="10.195" height="1.14" transform="translate(0)" fill="#f45183"/>
      </g>
      <g id="Group_42803" data-name="Group 42803" transform="translate(1.344 1.57)">
        <ellipse id="Ellipse_202" data-name="Ellipse 202" cx="1.756" cy="1.421" rx="1.756" ry="1.421" transform="translate(0 2.349) rotate(-41.967)" fill="#5d47ff"/>
      </g>
    </g>
    <g id="Group_42818" data-name="Group 42818" transform="translate(1046.857 530.672)">
      <g id="Group_42805" data-name="Group 42805" transform="translate(0 0)">
        <path id="Path_97497" data-name="Path 97497" d="M2417.451,850.026H2393.54a1.262,1.262,0,0,1-1.266-1.608l5.429-25.54a2.1,2.1,0,0,1,1.949-1.608h23.911a1.262,1.262,0,0,1,1.266,1.608l-5.428,25.54A2.1,2.1,0,0,1,2417.451,850.026Z" transform="translate(-2392.238 -821.271)" fill="#f0ebf1"/>
      </g>
      <g id="Group_42810" data-name="Group 42810" transform="translate(5.176 0)">
        <g id="Group_42806" data-name="Group 42806">
          <path id="Path_97498" data-name="Path 97498" d="M2438.088,824.239l.289-1.36a2.1,2.1,0,0,1,1.949-1.608h23.911a1.261,1.261,0,0,1,1.266,1.608l-.289,1.36Z" transform="translate(-2438.088 -821.271)" fill="#030028"/>
        </g>
        <g id="Group_42807" data-name="Group 42807" transform="translate(1.911 0.836)">
          <path id="Path_97499" data-name="Path 97499" d="M2456.325,829.328a.844.844,0,0,1-.785.647.508.508,0,0,1-.51-.647.843.843,0,0,1,.785-.648A.508.508,0,0,1,2456.325,829.328Z" transform="translate(-2455.016 -828.68)" fill="#beb2bd"/>
        </g>
        <g id="Group_42808" data-name="Group 42808" transform="translate(3.987 0.836)">
          <path id="Path_97500" data-name="Path 97500" d="M2474.719,829.328a.844.844,0,0,1-.785.647.508.508,0,0,1-.51-.647.844.844,0,0,1,.785-.648A.508.508,0,0,1,2474.719,829.328Z" transform="translate(-2473.409 -828.68)" fill="#beb2bd"/>
        </g>
        <g id="Group_42809" data-name="Group 42809" transform="translate(6.064 0.836)">
          <path id="Path_97501" data-name="Path 97501" d="M2493.113,829.328a.844.844,0,0,1-.785.647.508.508,0,0,1-.51-.647.844.844,0,0,1,.785-.648A.508.508,0,0,1,2493.113,829.328Z" transform="translate(-2491.803 -828.68)" fill="#beb2bd"/>
        </g>
      </g>
      <g id="Group_42811" data-name="Group 42811" transform="translate(6.468 5.999)">
        <path id="Path_97502" data-name="Path 97502" d="M2463.249,875.923h-13.717l.321-1.512h13.717Z" transform="translate(-2449.532 -874.411)" fill="#5d47ff"/>
      </g>
      <g id="Group_42812" data-name="Group 42812" transform="translate(3.225 21.257)">
        <path id="Path_97503" data-name="Path 97503" d="M2431.685,1011.084H2420.8l.322-1.512h10.882Z" transform="translate(-2420.803 -1009.572)" fill="#8e7eff"/>
      </g>
      <g id="Group_42813" data-name="Group 42813" transform="translate(5.439 18.205)">
        <path id="Path_97504" data-name="Path 97504" d="M2448.17,984.052h-7.751l.321-1.512h7.751Z" transform="translate(-2440.418 -982.54)" fill="#f45183"/>
      </g>
      <g id="Group_42814" data-name="Group 42814" transform="translate(7.385 9.05)">
        <path id="Path_97505" data-name="Path 97505" d="M2465.407,902.956h-7.751l.322-1.512h7.751Z" transform="translate(-2457.656 -901.444)" fill="#f45183"/>
      </g>
      <g id="Group_42815" data-name="Group 42815" transform="translate(8.344 12.102)">
        <path id="Path_97506" data-name="Path 97506" d="M2477.875,929.988h-11.725l.322-1.512H2478.2Z" transform="translate(-2466.151 -928.476)" fill="#8e7eff"/>
      </g>
      <g id="Group_42816" data-name="Group 42816" transform="translate(7.695 15.154)">
        <path id="Path_97507" data-name="Path 97507" d="M2474.109,957.02h-13.7l.321-1.512h13.7Z" transform="translate(-2460.405 -955.508)" fill="#5d47ff"/>
      </g>
      <g id="Group_42817" data-name="Group 42817" transform="translate(2.576 24.308)">
        <path id="Path_97508" data-name="Path 97508" d="M2422.51,1038.116h-7.453l.321-1.512h7.453Z" transform="translate(-2415.057 -1036.604)" fill="#5d47ff"/>
      </g>
    </g>
    <g id="Group_42833" data-name="Group 42833" transform="translate(1012.272 493.693)">
      <g id="Group_42819" data-name="Group 42819" transform="translate(6.982 25.705)">
        <path id="Path_97509" data-name="Path 97509" d="M2165.689,734h-16.881a1.058,1.058,0,0,1-1.062-1.348l2.1-9.9a1.757,1.757,0,0,1,1.635-1.348h16.881a1.058,1.058,0,0,1,1.062,1.348l-2.1,9.9A1.757,1.757,0,0,1,2165.689,734Z" transform="translate(-2147.716 -721.4)" fill="#cfc6ce"/>
      </g>
      <g id="Group_42820" data-name="Group 42820" transform="translate(5.134 23.726)">
        <path id="Path_97510" data-name="Path 97510" d="M2149.782,716.792H2132.47a1.085,1.085,0,0,1-1.089-1.383l2.158-10.154a1.8,1.8,0,0,1,1.677-1.383h17.313a1.085,1.085,0,0,1,1.089,1.383l-2.158,10.154A1.8,1.8,0,0,1,2149.782,716.792Z" transform="translate(-2131.35 -703.872)" fill="#f0ebf1"/>
      </g>
      <g id="Group_42821" data-name="Group 42821" transform="translate(8.125 15.726)">
        <path id="Path_97511" data-name="Path 97511" d="M2176.792,641.27l-6.753-7.857a1.534,1.534,0,0,0-2.1,0l-10.093,7.857" transform="translate(-2157.844 -632.999)" fill="#f0ebf1"/>
      </g>
      <g id="Group_42822" data-name="Group 42822" transform="translate(0 9.757)">
        <path id="Path_97512" data-name="Path 97512" d="M2099.528,613.547a13.486,13.486,0,0,1-10.761-4.819,14.065,14.065,0,0,1-2.521-12.025,21.86,21.86,0,0,1,16.932-16.283,17.824,17.824,0,0,1,3.176-.29v1.3a16.5,16.5,0,0,0-2.943.269,20.509,20.509,0,0,0-15.89,15.272,12.789,12.789,0,0,0,2.259,10.934,12.207,12.207,0,0,0,9.748,4.336c8.563,0,17.011-6.972,18.833-15.541a12.838,12.838,0,0,0-2.164-10.815l1.024-.806a14.116,14.116,0,0,1,2.415,11.893C2117.693,606.112,2108.673,613.547,2099.528,613.547Z" transform="translate(-2085.866 -580.129)" fill="#fbb9cc"/>
      </g>
      <g id="Group_42823" data-name="Group 42823" transform="translate(19.499 5.198)">
        <ellipse id="Ellipse_203" data-name="Ellipse 203" cx="5.247" cy="4.244" rx="5.247" ry="4.244" transform="matrix(0.744, -0.669, 0.669, 0.744, 0, 7.017)" fill="#f45183"/>
      </g>
      <g id="Group_42824" data-name="Group 42824" transform="translate(24.295 8.95)">
        <path id="Path_97513" data-name="Path 97513" d="M2304.37,574.274a1.067,1.067,0,0,0-.61-.163,1.041,1.041,0,0,0-1.07.772,1.517,1.517,0,0,1,.815-.205c.821,0,1.341.552,1.1,1.664a2.168,2.168,0,0,1-2.1,1.777c-1.408,0-1.608-.927-1.317-2.294.3-1.416,1.051-2.845,2.721-2.845a1.893,1.893,0,0,1,1.123.311ZM2302.381,576c-.108.51-.174.984.378.984a.662.662,0,0,0,.652-.6c.078-.368-.057-.63-.418-.63A1.023,1.023,0,0,0,2302.381,576Z" transform="translate(-2301.08 -572.979)" fill="#fff"/>
      </g>
      <g id="Group_42825" data-name="Group 42825" transform="translate(7.752 24.307)">
        <path id="Path_97514" data-name="Path 97514" d="M2154.54,709.016H2174.1l-11.174,6.549Z" transform="translate(-2154.54 -709.016)" fill="#beb2bd"/>
      </g>
      <g id="Group_42826" data-name="Group 42826" transform="translate(10.265 22.171)">
        <path id="Path_97515" data-name="Path 97515" d="M2190.753,692.916l-2.221-2.82h-10.852l-.887,4.174,5.877,4.51,7.795-4.51Z" transform="translate(-2176.794 -690.096)" fill="#fff"/>
      </g>
      <g id="Group_42827" data-name="Group 42827" transform="translate(20.903 22.171)">
        <path id="Path_97516" data-name="Path 97516" d="M2271.535,692.916h2.82l-3.321.714,1.1-3.534Z" transform="translate(-2271.034 -690.096)" fill="#f0ebf1"/>
      </g>
      <g id="Group_42828" data-name="Group 42828" transform="translate(14.16 23.798)">
        <path id="Path_97517" data-name="Path 97517" d="M2213.8,708.62c-.771,0-1.134-.556-.972-1.319a1.6,1.6,0,0,1,1.5-1.319.789.789,0,0,1,.585.208l.036-.167h.817l-.325,1.527c-.051.241.01.362.224.362.275,0,.515-.342.635-.911.255-1.2-.37-1.788-1.616-1.788a2.538,2.538,0,0,0-2.486,2.056,1.546,1.546,0,0,0,1.712,2.029,3.019,3.019,0,0,0,1.346-.348l.24.576a3.291,3.291,0,0,1-1.737.482c-1.781,0-2.732-1.105-2.39-2.712a3.561,3.561,0,0,1,3.479-2.786c1.714,0,2.551,1.011,2.245,2.451-.215,1.011-.847,1.654-1.644,1.654a.709.709,0,0,1-.727-.422A1.225,1.225,0,0,1,2213.8,708.62Zm.283-.763a.661.661,0,0,0,.615-.562c.061-.288-.078-.549-.379-.549a.661.661,0,0,0-.612.549C2213.64,707.615,2213.79,707.857,2214.085,707.857Z" transform="translate(-2211.302 -704.508)" fill="#5d47ff"/>
      </g>
      <g id="Group_42829" data-name="Group 42829" transform="translate(28.661 0)">
        <rect id="Rectangle_38348" data-name="Rectangle 38348" width="6" height="1.303" transform="translate(0 5.474) rotate(-65.844)" fill="#5d47ff"/>
      </g>
      <g id="Group_42830" data-name="Group 42830" transform="translate(25.379 1.694)">
        <rect id="Rectangle_38349" data-name="Rectangle 38349" width="1.303" height="4.169" transform="translate(0 0.07) rotate(-3.074)" fill="#5d47ff"/>
      </g>
      <g id="Group_42831" data-name="Group 42831" transform="translate(31.681 3.575)">
        <rect id="Rectangle_38350" data-name="Rectangle 38350" width="4.838" height="1.303" transform="matrix(0.774, -0.634, 0.634, 0.774, 0, 3.065)" fill="#5d47ff"/>
      </g>
      <g id="Group_42832" data-name="Group 42832" transform="translate(32.86 8.702)">
        <rect id="Rectangle_38351" data-name="Rectangle 38351" width="2.402" height="1.304" transform="matrix(0.98, -0.201, 0.201, 0.98, 0, 0.483)" fill="#5d47ff"/>
      </g>
    </g>
    <g id="Group_42834" data-name="Group 42834" transform="translate(1053.848 628.337)">
      <rect id="Rectangle_38352" data-name="Rectangle 38352" width="27.861" height="3.096" transform="translate(0)" fill="#030028"/>
    </g>
    <g id="Group_42835" data-name="Group 42835" transform="translate(1047.657 631.432)">
      <path id="Path_97518" data-name="Path 97518" d="M2399.32,1721.127h6.843l-1.629-7.277h-3.584Z" transform="translate(-2399.32 -1713.85)" fill="#f88bac"/>
    </g>
    <g id="Group_42836" data-name="Group 42836" transform="translate(1052.87 631.432)">
      <path id="Path_97519" data-name="Path 97519" d="M2475.593,1713.85h-30.087l1.629,7.277h30.413Z" transform="translate(-2445.506 -1713.85)" fill="#030028"/>
    </g>
    <g id="Group_42837" data-name="Group 42837" transform="translate(1064.444 638.71)">
      <path id="Path_97520" data-name="Path 97520" d="M2565.975,1838.491H2557.9l-9.87-60.175h8.079Z" transform="translate(-2548.026 -1778.316)" fill="#030028"/>
    </g>
    <g id="Group_42838" data-name="Group 42838" transform="translate(1064.444 638.71)">
      <path id="Path_97521" data-name="Path 97521" d="M2548.026,1778.316l9.87,60.175h3.028l-9.87-60.175Z" transform="translate(-2548.026 -1778.316)" fill="#f88bac"/>
    </g>
    <g id="Group_42839" data-name="Group 42839" transform="translate(1039.233 638.71)">
      <path id="Path_97522" data-name="Path 97522" d="M2332.78,1838.491H2324.7l16.042-60.175h8.079Z" transform="translate(-2324.701 -1778.316)" fill="#030028"/>
    </g>
    <g id="Group_42840" data-name="Group 42840" transform="translate(1039.233 638.71)">
      <path id="Path_97523" data-name="Path 97523" d="M2340.742,1778.316l-16.042,60.175h3.028l16.041-60.175Z" transform="translate(-2324.701 -1778.316)" fill="#f88bac"/>
    </g>
    <g id="Group_42841" data-name="Group 42841" transform="translate(905.632 638.71)">
      <path id="Path_97524" data-name="Path 97524" d="M1159.15,1838.491h-8.079l-9.87-60.175h8.079Z" transform="translate(-1141.202 -1778.316)" fill="#030028"/>
    </g>
    <g id="Group_42842" data-name="Group 42842" transform="translate(905.632 638.71)">
      <path id="Path_97525" data-name="Path 97525" d="M1141.2,1778.316l9.87,60.175h3.028l-9.87-60.175Z" transform="translate(-1141.202 -1778.316)" fill="#f88bac"/>
    </g>
    <g id="Group_42843" data-name="Group 42843" transform="translate(880.421 638.71)">
      <path id="Path_97526" data-name="Path 97526" d="M925.955,1838.491h-8.079l16.041-60.175H942Z" transform="translate(-917.876 -1778.316)" fill="#030028"/>
    </g>
    <g id="Group_42844" data-name="Group 42844" transform="translate(880.421 638.71)">
      <path id="Path_97527" data-name="Path 97527" d="M933.917,1778.316l-16.041,60.175H920.9l16.041-60.175Z" transform="translate(-917.876 -1778.316)" fill="#f88bac"/>
    </g>
    <g id="Group_42845" data-name="Group 42845" transform="translate(1009.937 620.198)">
      <rect id="Rectangle_38353" data-name="Rectangle 38353" width="8.791" height="3.74" transform="translate(0 0)" fill="#030028"/>
    </g>
    <g id="Group_42846" data-name="Group 42846" transform="translate(947.431 597.144)">
      <path id="Path_97528" data-name="Path 97528" d="M1574.511,1436.9h-43.277a8.121,8.121,0,0,1-5.5-2.142l-14.262-14.6,12.8-10.048,9.96,10.9a14.485,14.485,0,0,0,7.27,3.921l23.554,5.979a2.8,2.8,0,0,0,1.8-.144l7.638-3.3a1.385,1.385,0,0,1,.852-.08l6.834,1.534a1.848,1.848,0,0,1,1.121.76l3.413,4.988a1.418,1.418,0,0,1,.161,1.289l-.133.362a.887.887,0,0,1-.833.582h-.152a1.468,1.468,0,0,1-1.279-.748l-.557-.99-.371,1.188a.784.784,0,0,1-.749.55h-.3a.812.812,0,0,1-.75-1.127,1.413,1.413,0,0,0,.107-.393c.142-1.358-2.084-2.417-3.062-1.548S1576.466,1436.9,1574.511,1436.9Z" transform="translate(-1511.477 -1410.108)" fill="#ffa298"/>
    </g>
    <g id="Group_42847" data-name="Group 42847" transform="translate(947.431 597.144)">
      <path id="Path_97529" data-name="Path 97529" d="M1517.3,1426.114l6.992-15.993-.012-.013-12.8,10.049Z" transform="translate(-1511.477 -1410.107)" fill="#ff786e"/>
    </g>
    <g id="Group_42848" data-name="Group 42848" transform="translate(940.859 541.595)">
      <path id="Path_97530" data-name="Path 97530" d="M1453.258,920.962l1.834-1.436c.061-.047.127-.107.124-.184a.244.244,0,0,0-.044-.112c-.142-.235-.376-.636-.518-.871s-.262-.354-.544-.325" transform="translate(-1453.258 -918.03)" fill="#00066e"/>
    </g>
    <g id="Group_42849" data-name="Group 42849" transform="translate(940.859 546.275)">
      <path id="Path_97531" data-name="Path 97531" d="M1454,966.768s1.684-.869,2.172-1.032.254-1.032-2.914-6.246" transform="translate(-1453.258 -959.491)" fill="#ffa298"/>
    </g>
    <g id="Group_42850" data-name="Group 42850" transform="translate(909.992 526.062)">
      <path id="Path_97532" data-name="Path 97532" d="M1198.905,817.179l-.717,7.5-17.964-3.51s4.794-5.729,5.875-12.513c-4.814-5.037-10.706-16.782-1.2-25,6.324-5.47,21.33-3.906,24.722,4.214l2.467,8.429-1.028,2.467s.925,8.018,1.028,10.587-3.392,9.868-4.728,9.765S1198.905,817.179,1198.905,817.179Z" transform="translate(-1179.826 -780.434)" fill="#ffa298"/>
    </g>
    <g id="Group_42851" data-name="Group 42851" transform="translate(910.39 540.243)">
      <path id="Path_97533" data-name="Path 97533" d="M1205.614,916.416c-.531.342-.788.483-1.378.112a2.732,2.732,0,0,1-.936-1.121,5.069,5.069,0,0,1-.313-.857,12.394,12.394,0,0,1-.468-3.066,8.2,8.2,0,0,1,.648-4.178l1.383-1.126c-3.01-.466-6.039.483-8.937,1.421a11.154,11.154,0,0,0-1.642.629,8.614,8.614,0,0,0-.982.6,17.449,17.449,0,0,0-2.687,2.284,10.606,10.606,0,0,1-1.967,2.082,25.483,25.483,0,0,1-2.989,1.415,24.551,24.551,0,0,0,3.885,5.487c-1.081,6.784-5.875,12.513-5.875,12.513l6.613,1.292a33.051,33.051,0,0,0,3.593-12.12,7.136,7.136,0,0,0,3.876-1.056,12.922,12.922,0,0,0,3.073-2.648,2.391,2.391,0,0,1,1.07-.838,3.1,3.1,0,0,1,1.71.332,2.225,2.225,0,0,0,2.147-.326,1.641,1.641,0,0,0,.579-1.4C1206.052,916.094,1205.819,916.283,1205.614,916.416Z" transform="translate(-1183.354 -906.056)" fill="#ff786e"/>
    </g>
    <g id="Group_42852" data-name="Group 42852" transform="translate(928.742 558.292)">
      <path id="Path_97534" data-name="Path 97534" d="M1352.343,1072.983a34.751,34.751,0,0,1-6.092-1.57.4.4,0,0,1-.326-.484q.091-2.494.183-4.988a18.852,18.852,0,0,0,5.224,3.747" transform="translate(-1345.923 -1065.941)" fill="#ff786e"/>
    </g>
    <g id="Group_42853" data-name="Group 42853" transform="translate(917.495 534.122)">
      <path id="Path_97535" data-name="Path 97535" d="M1263.269,870.309c-.874,2.849-3.069,4.957-3.028,7.937a7.177,7.177,0,0,0,2.282,4.143,3.852,3.852,0,0,0,2.03.754,4.762,4.762,0,0,0,3.182-.782,4.18,4.18,0,0,0,1.521-3.128,7.988,7.988,0,0,1,1.187-2.889,6.1,6.1,0,0,0,.85-3.738.921.921,0,0,0-.162-.506,1.069,1.069,0,0,0-.533-.279,5.754,5.754,0,0,1-2.573-1.591c-.993-1.106-1.023-2.423-1.318-3.8a12.952,12.952,0,0,1,1.37-10.739c.486-1.074,1.123-2.669.58-3.821-3.651-.353-7.431,1.583-10.823,2.979-2.468,1.016-5.009,2.081-6.87,3.995a19.642,19.642,0,0,0-3.234,5.1,14.24,14.24,0,0,0-1.3,3.265,4.793,4.793,0,0,0,.4,3.42c1.677,2.864,5.151,1.455,7.147-.132a11.112,11.112,0,0,0,4.122-7.272,11.107,11.107,0,0,1,.354-2.3,2.442,2.442,0,0,1,3.05-1.635c1.4.482,1.654,2.032,1.611,3.331a3.818,3.818,0,0,0,.3,1.28A10.62,10.62,0,0,1,1263.269,870.309Z" transform="translate(-1246.29 -851.833)" fill="#00066e"/>
    </g>
    <g id="Group_42854" data-name="Group 42854" transform="translate(908.66 520.606)">
      <path id="Path_97536" data-name="Path 97536" d="M1199.009,746.169a3.8,3.8,0,0,0,2.73-.681c2.07-1.3,2.025-4.7.97-6.622a4.843,4.843,0,0,0-4.872-2.289,17.753,17.753,0,0,0-1.039-2c-2.6-3.615-9.073-3.015-11.76.114-.1.118-.778,1.235-.811,1.233-4.925-.389-11.523,1.195-14.232,5.735-3.256,5.458-2.062,13.4.6,18.818a12.512,12.512,0,0,0,3.575,4.722,5.748,5.748,0,0,0,5.637.863c2.263-1.035,3.226-3.707,3.709-6.148s.794-5.1,2.465-6.94c1.9-2.091,4.9-2.574,7.5-3.44a13.732,13.732,0,0,0,3.886-2C1198.757,746.529,1197.282,745.738,1199.009,746.169Z" transform="translate(-1168.026 -732.098)" fill="#00066e"/>
    </g>
    <g id="Group_42855" data-name="Group 42855" transform="translate(930.908 542.439)">
      <path id="Path_97537" data-name="Path 97537" d="M1365.41,930.371c-.807-3.769.2-4.608.676-4.794a1.237,1.237,0,0,1,1.487.658l.029.058a2.208,2.208,0,0,1-.019,1.515l-.758-.3a1.4,1.4,0,0,0,.028-.889c-.144-.222-.333-.339-.469-.286-.258.1-.793.995-.178,3.866Z" transform="translate(-1365.108 -925.506)" fill="#ff786e"/>
    </g>
    <g id="Group_42856" data-name="Group 42856" transform="translate(963.861 668.58)">
      <path id="Path_97538" data-name="Path 97538" d="M1677.926,2042.919l9.884,30.3h-14.663l-16.13-30.3" transform="translate(-1657.017 -2042.919)" fill="#00066e"/>
    </g>
    <g id="Group_42861" data-name="Group 42861" transform="translate(886.031 631.667)">
      <g id="Group_42859" data-name="Group 42859" transform="translate(0 0.292)">
        <g id="Group_42857" data-name="Group 42857" transform="translate(0 6.888)">
          <path id="Path_97539" data-name="Path 97539" d="M980.395,1812.357a5.736,5.736,0,0,1-2.639-1.563,3.44,3.44,0,0,1-.484-.81,5.653,5.653,0,0,1-1.011-.939c-1.8-2.088-3.221-6.083-4.013-11.247a42.52,42.52,0,0,1-.436-10.712c.037-.245.073-.5.11-.767.175-1.241.53-3.766,1.262-4.264a2.819,2.819,0,0,1,.2-.473c.416-.767,1.209-1.329,1.653-2.05-1.461.39-2.807.78-3.994,1.166-2.335.76-2.777,2.39-3.152,5.053-.035.25-.069.493-.1.724a45.992,45.992,0,0,0,.437,11.939c.641,4.18,2.02,9.878,4.951,13.286,1.7,1.977,5.452,1.5,7.74,1.5l.711-.006a1.3,1.3,0,0,0-.1-.165A2.234,2.234,0,0,0,980.395,1812.357Z" transform="translate(-967.572 -1779.532)" fill="#f88bac"/>
        </g>
        <g id="Group_42858" data-name="Group 42858" transform="translate(5.613)">
          <path id="Path_97540" data-name="Path 97540" d="M1065.811,1720.784c-2-3.211-5.293-2.037-6.287-2.143-3.31-.354-26.877,3.166-40.377,6.763-.443.721-1.237,1.283-1.653,2.05a2.82,2.82,0,0,0-.2.473.539.539,0,0,1,.1-.055c10.91-4.456,36.026-6.971,40.962-6.971.271,0,.482.008.625.023a4.614,4.614,0,0,1,3.374,2.018c.929,1.488.889,3.736-.117,6.5-1.448,3.984-3.12,8.877-4.594,13.194-1.419,4.154-2.759,8.078-3.157,8.972-1.5,3.374-2.189,4.913-12.022,4.913h-19.087a3.382,3.382,0,0,1-2-.666,3.449,3.449,0,0,0,.484.81,5.737,5.737,0,0,0,2.639,1.563,2.233,2.233,0,0,1,1.129.675,1.32,1.32,0,0,1,.1.165l16.8-.144c5.488,0,9.273-.257,11.557-1.4,2.676-1.341,3.151-2.1,4.112-4.257.451-1.012,1.491-4.043,3.291-9.313,1.468-4.3,3.133-9.172,4.568-13.118C1067.9,1725.8,1066.939,1722.589,1065.811,1720.784Z" transform="translate(-1017.296 -1718.516)" fill="#030028"/>
        </g>
      </g>
      <g id="Group_42860" data-name="Group 42860" transform="translate(3.819 0)">
        <path id="Path_97541" data-name="Path 97541" d="M1030.807,1756.915H1011.72a6.537,6.537,0,0,1-5.045-2.54c-2.717-3.159-4.018-8.592-4.632-12.593a44.525,44.525,0,0,1-.436-11.522c.036-.236.071-.484.107-.74.346-2.461.777-5.523,3.006-6.433,12.141-4.959,39.951-7.443,42.888-7.132a7.36,7.36,0,0,1,5.37,3.267c1.4,2.246,1.446,5.222.129,8.844-1.439,3.958-3.105,8.837-4.576,13.141-1.564,4.578-2.8,8.2-3.247,9.2C1043.224,1755.031,1041.338,1756.915,1030.807,1756.915Zm16.023-39.687c-5.03,0-30.551,2.546-41.617,7.066-1.535.627-1.908,3.278-2.208,5.408-.037.26-.072.513-.109.753-.655,4.324.2,17.763,4.768,23.07a5.293,5.293,0,0,0,4.057,2.087h19.087c9.853,0,11.394-1.487,13.286-5.735.424-.951,1.712-4.723,3.2-9.091,1.472-4.31,3.141-9.194,4.584-13.165,1.173-3.226,1.17-5.82-.01-7.709a6.028,6.028,0,0,0-4.4-2.661C1047.323,1717.235,1047.108,1717.227,1046.83,1717.227Z" transform="translate(-1001.406 -1715.929)" fill="#cfc6ce"/>
      </g>
    </g>
    <g id="Group_42862" data-name="Group 42862" transform="translate(926.125 640.74)">
      <path id="Path_97542" data-name="Path 97542" d="M1355.4,1796.3s48.092,8.289,53.439,9.267,12.207,7.495,6.5,16.944-21.57,31.934-21.57,31.934h-17l15.693-28.187h-69.726l14.734-23.3Z" transform="translate(-1322.736 -1796.297)" fill="#00066e"/>
    </g>
    <g id="Group_42863" data-name="Group 42863" transform="translate(937.541 669.812)">
      <rect id="Rectangle_38354" data-name="Rectangle 38354" width="45.045" height="2.756" transform="translate(0)" fill="#030028"/>
    </g>
    <g id="Group_42864" data-name="Group 42864" transform="translate(908.581 672.001)">
      <path id="Path_97543" data-name="Path 97543" d="M1167.322,2073.228l3.992,3.992h48.308l3.968-3.968" transform="translate(-1167.322 -2073.228)" fill="#030028"/>
    </g>
    <g id="Group_42865" data-name="Group 42865" transform="translate(890.17 565.754)">
      <path id="Path_97544" data-name="Path 97544" d="M1025.242,1132.063s8.467-.331,13.6,1.869l15.866,6.752a13.984,13.984,0,0,1,4.3,2.872l17.326,19.518-14.211,12.383-4.2-3.591s-.872,22.945,14.934,35.165c-15.976,8.289-27.077,27.84-27.077,27.84l-34.824-8.635s4.073-32.911.978-38.288-12.7-32.606-4.4-42.524C1015.637,1135.746,1021.736,1132.063,1025.242,1132.063Z" transform="translate(-1004.232 -1132.045)" fill="#2030e0"/>
    </g>
    <g id="Group_42866" data-name="Group 42866" transform="translate(878.889 593.006)">
      <path id="Path_97545" data-name="Path 97545" d="M968.881,1452.451c-6.643-3.2-15-10.29-10.621-30.876,1.334-6.272-.458-10.019-2.739-17.677s-9.509-30.442-9.509-30.442l-41.708,3.07s6.436,19.714,8.717,27.372,4.073,11.405,2.739,17.677c-4.378,20.586,3.978,27.672,10.621,30.876Z" transform="translate(-904.304 -1373.456)" fill="#beb2bd"/>
    </g>
    <g id="Group_42867" data-name="Group 42867" transform="translate(875.655 590.155)">
      <circle id="Ellipse_204" data-name="Ellipse 204" cx="2.688" cy="2.688" r="2.688" transform="translate(0 5.233) rotate(-76.717)" fill="#f0ebf1"/>
    </g>
    <g id="Group_42868" data-name="Group 42868" transform="translate(878.889 590.7)">
      <rect id="Rectangle_38355" data-name="Rectangle 38355" width="39.047" height="5.377" transform="translate(0)" fill="#f0ebf1"/>
    </g>
    <g id="Group_42869" data-name="Group 42869" transform="translate(914.424 589.876)">
      <circle id="Ellipse_205" data-name="Ellipse 205" cx="2.688" cy="2.688" r="2.688" transform="translate(0 2.058) rotate(-22.5)" fill="#cfc6ce"/>
    </g>
    <g id="Group_42870" data-name="Group 42870" transform="translate(898.657 640.555)">
      <rect id="Rectangle_38356" data-name="Rectangle 38356" width="16.591" height="1.14" transform="translate(0 0)" fill="#cfc6ce"/>
    </g>
    <g id="Group_42871" data-name="Group 42871" transform="translate(939.704 522.896)">
      <path id="Path_97546" data-name="Path 97546" d="M1444.075,764.344a3.748,3.748,0,0,1-1.044-.145l.317-1.1a4.379,4.379,0,0,0,4.055-1.556,4.6,4.6,0,0,0,.878-4.033,5.851,5.851,0,0,0-2.939-4.1l.486-1.031a6.924,6.924,0,0,1,3.57,4.9,5.726,5.726,0,0,1-1.143,5.02A5.986,5.986,0,0,1,1444.075,764.344Z" transform="translate(-1443.031 -752.382)" fill="#00066e"/>
    </g>
    <g id="Group_42872" data-name="Group 42872" transform="translate(910.848 522.591)">
      <path id="Path_97547" data-name="Path 97547" d="M1188.091,753.612l-.678-.917a15.779,15.779,0,0,1,15.74-1.616l-.46,1.044A14.642,14.642,0,0,0,1188.091,753.612Z" transform="translate(-1187.413 -749.682)" fill="#00066e"/>
    </g>
    <g id="Group_42877" data-name="Group 42877" transform="translate(929.332 631.667)">
      <g id="Group_42875" data-name="Group 42875" transform="translate(0 0.292)">
        <g id="Group_42873" data-name="Group 42873" transform="translate(0 6.888)">
          <path id="Path_97548" data-name="Path 97548" d="M1363.974,1812.357a5.736,5.736,0,0,1-2.639-1.563,3.44,3.44,0,0,1-.484-.81,5.646,5.646,0,0,1-1.011-.939c-1.8-2.088-3.221-6.083-4.013-11.247a42.521,42.521,0,0,1-.435-10.712c.037-.245.073-.5.11-.767.175-1.241.53-3.766,1.261-4.264a2.83,2.83,0,0,1,.2-.473c.416-.767,1.209-1.329,1.653-2.05-1.461.39-2.807.78-3.994,1.166-2.335.76-2.777,2.39-3.152,5.053-.035.25-.069.493-.1.724a45.988,45.988,0,0,0,.437,11.939c.641,4.18,2.02,9.878,4.95,13.286,1.7,1.977,5.452,1.5,7.74,1.5l.711-.006a1.331,1.331,0,0,0-.1-.165A2.234,2.234,0,0,0,1363.974,1812.357Z" transform="translate(-1351.151 -1779.532)" fill="#f88bac"/>
        </g>
        <g id="Group_42874" data-name="Group 42874" transform="translate(5.613)">
          <path id="Path_97549" data-name="Path 97549" d="M1449.39,1720.784c-2-3.211-5.293-2.037-6.287-2.143-3.31-.354-26.877,3.166-40.377,6.763-.443.721-1.237,1.283-1.652,2.05a2.815,2.815,0,0,0-.2.473.541.541,0,0,1,.1-.055c10.91-4.456,36.026-6.971,40.962-6.971.271,0,.482.008.625.023a4.613,4.613,0,0,1,3.373,2.018c.929,1.488.889,3.736-.117,6.5-1.448,3.984-3.12,8.877-4.594,13.194-1.419,4.154-2.759,8.078-3.157,8.972-1.5,3.374-2.189,4.913-12.022,4.913h-19.086a3.382,3.382,0,0,1-2-.666,3.443,3.443,0,0,0,.484.81,5.737,5.737,0,0,0,2.639,1.563,2.234,2.234,0,0,1,1.129.675,1.32,1.32,0,0,1,.1.165l16.8-.144c5.488,0,9.273-.257,11.558-1.4,2.676-1.341,3.151-2.1,4.112-4.257.451-1.012,1.491-4.043,3.291-9.313,1.469-4.3,3.133-9.172,4.568-13.118C1451.477,1725.8,1450.517,1722.589,1449.39,1720.784Z" transform="translate(-1400.875 -1718.516)" fill="#030028"/>
        </g>
      </g>
      <g id="Group_42876" data-name="Group 42876" transform="translate(3.819 0)">
        <path id="Path_97550" data-name="Path 97550" d="M1414.386,1756.915H1395.3a6.537,6.537,0,0,1-5.045-2.54c-2.717-3.159-4.018-8.592-4.632-12.593a44.523,44.523,0,0,1-.436-11.522c.036-.236.071-.483.106-.739.346-2.461.777-5.524,3.006-6.434,12.141-4.959,39.949-7.443,42.888-7.132a7.36,7.36,0,0,1,5.37,3.267c1.4,2.246,1.446,5.222.129,8.844-1.439,3.958-3.105,8.837-4.575,13.141-1.564,4.578-2.8,8.2-3.247,9.2C1426.8,1755.031,1424.917,1756.915,1414.386,1756.915Zm16.023-39.687c-5.03,0-30.55,2.546-41.617,7.066-1.536.627-1.908,3.279-2.208,5.409-.036.26-.072.512-.108.752-.655,4.324.2,17.763,4.767,23.07a5.293,5.293,0,0,0,4.057,2.087h19.087c9.853,0,11.394-1.487,13.286-5.735.424-.951,1.712-4.723,3.2-9.091,1.472-4.31,3.141-9.194,4.584-13.165,1.173-3.226,1.17-5.82-.01-7.709a6.029,6.029,0,0,0-4.4-2.661C1430.9,1717.235,1430.687,1717.227,1430.409,1717.227Z" transform="translate(-1384.985 -1715.929)" fill="#cfc6ce"/>
      </g>
    </g>
    <g id="Group_42881" data-name="Group 42881" transform="translate(1050.24 607.645)">
      <g id="Group_42878" data-name="Group 42878" transform="translate(0)">
        <path id="Path_97551" data-name="Path 97551" d="M2435.219,1518.843l2.123-14.471a1.085,1.085,0,0,0-1.073-1.242h-12.975a1.085,1.085,0,0,0-1.073,1.242l2.123,14.471a.677.677,0,0,0,.67.579h9.535A.677.677,0,0,0,2435.219,1518.843Z" transform="translate(-2422.208 -1503.129)" fill="#2030e0"/>
      </g>
      <g id="Group_42879" data-name="Group 42879" transform="translate(12.235 1.067)">
        <path id="Path_97552" data-name="Path 97552" d="M2530.593,1523.147v-1.3c1.787,0,4.49-3.014,4.7-5.98a1.614,1.614,0,0,0-.766-1.607,3.031,3.031,0,0,0-2.9-.012l-.663-1.122a4.317,4.317,0,0,1,4.245.026,2.9,2.9,0,0,1,1.379,2.808C2536.35,1519.384,2533.208,1523.147,2530.593,1523.147Z" transform="translate(-2530.593 -1512.577)" fill="#2030e0"/>
      </g>
      <g id="Group_42880" data-name="Group 42880" transform="translate(11.515 1.097)">
        <path id="Path_97553" data-name="Path 97553" d="M2524.214,1523.511v-1.3a4.034,4.034,0,0,0,2.7-1.854,7.871,7.871,0,0,0,1.622-4.234,1.743,1.743,0,0,0-.768-1.744,2.512,2.512,0,0,0-2.536.3l-.733-1.078a3.776,3.776,0,0,1,3.907-.364,3,3,0,0,1,1.432,2.944C2529.664,1519.745,2526.772,1523.511,2524.214,1523.511Z" transform="translate(-2524.214 -1512.85)" fill="#0461fc"/>
      </g>
    </g>
    <g id="Group_42882" data-name="Group 42882" transform="translate(933.059 675.993)">
      <rect id="Rectangle_38357" data-name="Rectangle 38357" width="6.641" height="22.891" fill="#030028"/>
    </g>
    <g id="Group_42883" data-name="Group 42883" transform="translate(928.66 674.496)">
      <path id="Path_97554" data-name="Path 97554" d="M1360.635,2095.326H1345.2a7.719,7.719,0,1,0,15.439,0Z" transform="translate(-1345.196 -2095.326)" fill="#030028"/>
    </g>
    <g id="Group_42884" data-name="Group 42884" transform="translate(938.084 599.331)">
      <rect id="Rectangle_38358" data-name="Rectangle 38358" width="1.141" height="7.937" transform="matrix(0.738, -0.675, 0.675, 0.738, 0, 0.769)" fill="#00066e"/>
    </g>
    <g id="Group_42892" data-name="Group 42892" transform="translate(1030.809 600.257)">
      <g id="Group_42885" data-name="Group 42885" transform="translate(0 0)">
        <path id="Path_97555" data-name="Path 97555" d="M2263.854,1452.462h-13.781l3.141-14.775h13.78Z" transform="translate(-2250.073 -1437.687)" fill="#ffc842"/>
      </g>
      <g id="Group_42886" data-name="Group 42886" transform="translate(4.285 2.092)">
        <rect id="Rectangle_38359" data-name="Rectangle 38359" width="5.865" height="1.14" fill="#ff8793"/>
      </g>
      <g id="Group_42887" data-name="Group 42887" transform="translate(3.731 4.699)">
        <rect id="Rectangle_38360" data-name="Rectangle 38360" width="8.495" height="1.14" fill="#ff8793"/>
      </g>
      <g id="Group_42888" data-name="Group 42888" transform="translate(2.553 10.239)">
        <rect id="Rectangle_38361" data-name="Rectangle 38361" width="6.897" height="1.14" fill="#ff8793"/>
      </g>
      <g id="Group_42889" data-name="Group 42889" transform="translate(3.177 7.306)">
        <rect id="Rectangle_38362" data-name="Rectangle 38362" width="2.39" height="1.14" fill="#ff8793"/>
      </g>
      <g id="Group_42890" data-name="Group 42890" transform="translate(6.653 7.306)">
        <rect id="Rectangle_38363" data-name="Rectangle 38363" width="6.843" height="1.14" fill="#ff8793"/>
      </g>
      <g id="Group_42891" data-name="Group 42891" transform="translate(11.558 2.092)">
        <rect id="Rectangle_38364" data-name="Rectangle 38364" width="2.444" height="1.14" fill="#ff8793"/>
      </g>
    </g>
    <g id="Group_42928" data-name="Group 42928" transform="translate(959.7 525.403)">
      <g id="Group_42893" data-name="Group 42893" transform="translate(0 0)">
        <path id="Path_97556" data-name="Path 97556" d="M1654.55,799.558h-33.261a1.1,1.1,0,0,1-1.1-1.4l4.713-22.173a1.819,1.819,0,0,1,1.692-1.4h33.261a1.1,1.1,0,0,1,1.1,1.4l-4.713,22.173A1.819,1.819,0,0,1,1654.55,799.558Z" transform="translate(-1620.158 -774.594)" fill="#f0ebf1"/>
      </g>
      <g id="Group_42894" data-name="Group 42894" transform="translate(3.487 2.224)">
        <path id="Path_97557" data-name="Path 97557" d="M1682.508,810.031h-31.457l3.344-15.732h31.457Z" transform="translate(-1651.051 -794.298)" fill="#fff"/>
      </g>
      <g id="Group_42899" data-name="Group 42899" transform="translate(9.062 4.293)">
        <g id="Group_42896" data-name="Group 42896" transform="translate(0 0.372)">
          <g id="Group_42895" data-name="Group 42895">
            <path id="Path_97558" data-name="Path 97558" d="M1703.238,822.846a2.721,2.721,0,0,1-2.727-3.464,4.52,4.52,0,0,1,4.2-3.463,2.721,2.721,0,0,1,2.727,3.463A4.52,4.52,0,0,1,1703.238,822.846Zm1.251-5.885a3.16,3.16,0,0,0-2.936,2.421,1.9,1.9,0,0,0,1.906,2.421,3.16,3.16,0,0,0,2.936-2.421A1.9,1.9,0,0,0,1704.489,816.961Z" transform="translate(-1700.433 -815.919)" fill="#cfc6ce"/>
          </g>
        </g>
        <g id="Group_42898" data-name="Group 42898" transform="translate(2.726)">
          <g id="Group_42897" data-name="Group 42897">
            <path id="Path_97559" data-name="Path 97559" d="M1724.581,820.293l.38-1.787a2.674,2.674,0,0,0,2.484-2.049,1.61,1.61,0,0,0-1.613-2.049l.38-1.787a3.014,3.014,0,0,1,3.02,3.836A5.006,5.006,0,0,1,1724.581,820.293Z" transform="translate(-1724.581 -812.622)" fill="#ffc842"/>
          </g>
        </g>
      </g>
      <g id="Group_42904" data-name="Group 42904" transform="translate(18.034 4.293)">
        <g id="Group_42901" data-name="Group 42901" transform="translate(0.381 0.372)">
          <g id="Group_42900" data-name="Group 42900">
            <path id="Path_97560" data-name="Path 97560" d="M1786.088,822.846a2.681,2.681,0,0,1-2.592-1.628,3.1,3.1,0,0,1-.136-1.836,4.52,4.52,0,0,1,4.2-3.463,2.721,2.721,0,0,1,2.727,3.463A4.52,4.52,0,0,1,1786.088,822.846Zm1.251-5.885a3.16,3.16,0,0,0-2.936,2.421,2.166,2.166,0,0,0,.094,1.283,1.874,1.874,0,0,0,1.812,1.138,3.16,3.16,0,0,0,2.936-2.421A1.9,1.9,0,0,0,1787.339,816.961Z" transform="translate(-1783.283 -815.919)" fill="#cfc6ce"/>
          </g>
        </g>
        <g id="Group_42903" data-name="Group 42903">
          <g id="Group_42902" data-name="Group 42902">
            <path id="Path_97561" data-name="Path 97561" d="M1780.148,818.491a3.437,3.437,0,0,1-.151-2.033,5.006,5.006,0,0,1,4.651-3.836l-.38,1.787a2.673,2.673,0,0,0-2.484,2.049,1.833,1.833,0,0,0,.08,1.085Z" transform="translate(-1779.911 -812.622)" fill="#f45183"/>
          </g>
        </g>
      </g>
      <g id="Group_42909" data-name="Group 42909" transform="translate(27.767 4.293)">
        <g id="Group_42906" data-name="Group 42906" transform="translate(0 0.372)">
          <g id="Group_42905" data-name="Group 42905">
            <path id="Path_97562" data-name="Path 97562" d="M1868.938,822.846a2.721,2.721,0,0,1-2.727-3.464,4.52,4.52,0,0,1,4.2-3.463,2.721,2.721,0,0,1,2.727,3.463A4.52,4.52,0,0,1,1868.938,822.846Zm1.251-5.885a3.159,3.159,0,0,0-2.936,2.421,1.9,1.9,0,0,0,1.906,2.421,3.16,3.16,0,0,0,2.936-2.421A1.9,1.9,0,0,0,1870.189,816.961Z" transform="translate(-1866.133 -815.919)" fill="#cfc6ce"/>
          </g>
        </g>
        <g id="Group_42908" data-name="Group 42908" transform="translate(3.977)">
          <g id="Group_42907" data-name="Group 42907">
            <path id="Path_97563" data-name="Path 97563" d="M1903.1,819.133l-1.016-1.246a2.606,2.606,0,0,0,.884-1.429,1.61,1.61,0,0,0-1.613-2.049l.38-1.787a3.013,3.013,0,0,1,3.021,3.836A4.877,4.877,0,0,1,1903.1,819.133Z" transform="translate(-1901.36 -812.622)" fill="#8e7eff"/>
          </g>
        </g>
      </g>
      <g id="Group_42911" data-name="Group 42911" transform="translate(3.332 19.197)">
        <g id="Group_42910" data-name="Group 42910" transform="translate(0 0)">
          <ellipse id="Ellipse_206" data-name="Ellipse 206" cx="1.545" cy="1.25" rx="1.545" ry="1.25" transform="translate(0 2.067) rotate(-41.967)" fill="#ffc842"/>
        </g>
      </g>
      <g id="Group_42913" data-name="Group 42913" transform="translate(7.177 20.59)">
        <g id="Group_42912" data-name="Group 42912">
          <path id="Path_97564" data-name="Path 97564" d="M1686.863,958.126h-3.13l.242-1.14h3.13Z" transform="translate(-1683.733 -956.986)" fill="#cfc6ce"/>
        </g>
      </g>
      <g id="Group_42915" data-name="Group 42915" transform="translate(13.442 19.77)">
        <g id="Group_42914" data-name="Group 42914">
          <path id="Path_97565" data-name="Path 97565" d="M1742.041,951.117a1.812,1.812,0,0,1-1.685,1.39,1.091,1.091,0,0,1-1.094-1.39,1.811,1.811,0,0,1,1.685-1.39A1.091,1.091,0,0,1,1742.041,951.117Z" transform="translate(-1739.23 -949.727)" fill="#f45183"/>
        </g>
      </g>
      <g id="Group_42917" data-name="Group 42917" transform="translate(16.723 20.59)">
        <g id="Group_42916" data-name="Group 42916">
          <path id="Path_97566" data-name="Path 97566" d="M1771.427,958.126h-3.13l.242-1.14h3.13Z" transform="translate(-1768.297 -956.986)" fill="#cfc6ce"/>
        </g>
      </g>
      <g id="Group_42919" data-name="Group 42919" transform="translate(22.569 19.77)">
        <g id="Group_42918" data-name="Group 42918">
          <path id="Path_97567" data-name="Path 97567" d="M1822.894,951.117a1.811,1.811,0,0,1-1.685,1.39,1.091,1.091,0,0,1-1.094-1.39,1.811,1.811,0,0,1,1.685-1.39A1.091,1.091,0,0,1,1822.894,951.117Z" transform="translate(-1820.083 -949.727)" fill="#8e7eff"/>
        </g>
      </g>
      <g id="Group_42921" data-name="Group 42921" transform="translate(25.85 20.59)">
        <g id="Group_42920" data-name="Group 42920">
          <path id="Path_97568" data-name="Path 97568" d="M1852.28,958.126h-3.13l.242-1.14h3.13Z" transform="translate(-1849.15 -956.986)" fill="#cfc6ce"/>
        </g>
      </g>
      <g id="Group_42923" data-name="Group 42923" transform="translate(5.556 13.097)">
        <g id="Group_42922" data-name="Group 42922">
          <path id="Path_97569" data-name="Path 97569" d="M1692.2,891.652h-22.825l.222-1.042h22.825Z" transform="translate(-1669.375 -890.61)" fill="#cfc6ce"/>
        </g>
      </g>
      <g id="Group_42925" data-name="Group 42925" transform="translate(5.063 15.416)">
        <g id="Group_42924" data-name="Group 42924">
          <path id="Path_97570" data-name="Path 97570" d="M1681.875,912.2h-16.867l.222-1.042H1682.1Z" transform="translate(-1665.008 -911.154)" fill="#cfc6ce"/>
        </g>
      </g>
      <g id="Group_42927" data-name="Group 42927" transform="translate(29.9 13.097)">
        <g id="Group_42926" data-name="Group 42926">
          <path id="Path_97571" data-name="Path 97571" d="M1889.413,891.652h-4.389l.222-1.042h4.389Z" transform="translate(-1885.024 -890.61)" fill="#cfc6ce"/>
        </g>
      </g>
    </g>
    <g id="Group_42931" data-name="Group 42931" transform="translate(950.853 508.127)">
      <path id="Path_97575" data-name="Path 97575" d="M1542.117,645.742l6.053-2.476-.4,1.864-3.8,1.381,3.212,1.382-.4,1.877-5-2.476Z" transform="translate(-1541.787 -640.815)"/>
      <path id="Path_97576" data-name="Path 97576" d="M1590.354,632.74h-1.89l6.275-11.183h1.89Z" transform="translate(-1583.195 -621.557)"/>
      <path id="Path_97577" data-name="Path 97577" d="M1656.558,647.293l-6.053,2.476.4-1.877,3.8-1.382-3.212-1.381.4-1.864,5,2.476Z" transform="translate(-1638.232 -640.815)"/>
    </g>
    <g id="Group_42935" data-name="Group 42935" transform="translate(959.455 570.295)">
      <g id="Group_42933" data-name="Group 42933" transform="translate(0)">
        <path id="Path_97580" data-name="Path 97580" d="M1628.821,1188.787h-6.955A3.754,3.754,0,0,1,1618.1,1184l1.478-6.955a6.234,6.234,0,0,1,5.8-4.783h6.955a3.754,3.754,0,0,1,3.766,4.783l-1.478,6.955A6.234,6.234,0,0,1,1628.821,1188.787Z" transform="translate(-1617.992 -1172.266)" fill="#5d47ff"/>
      </g>
      <g id="Group_42934" data-name="Group 42934" transform="translate(3.696 2.951)">
        <path id="Path_97581" data-name="Path 97581" d="M1661.113,1204.752a5.228,5.228,0,0,0,.338-1.035,4.547,4.547,0,0,0,.1-1.035l-1.289-.124a3.361,3.361,0,0,0-.154-.761l1.058-1.018a3.408,3.408,0,0,0-.475-.815,3.349,3.349,0,0,0-.677-.648l-1.2.842a3.179,3.179,0,0,0-.695-.316l.155-1.315a4.259,4.259,0,0,0-1.01-.118,4.917,4.917,0,0,0-1.06.118l-.4,1.315a4.991,4.991,0,0,0-.829.316l-.839-.842a6.2,6.2,0,0,0-.953.648,6.264,6.264,0,0,0-.821.815l.626,1.018a5.191,5.191,0,0,0-.477.761l-1.342.124a5.228,5.228,0,0,0-.338,1.035,4.566,4.566,0,0,0-.1,1.035l1.289.125a3.372,3.372,0,0,0,.154.762l-1.059,1.018a3.426,3.426,0,0,0,.475.815,3.353,3.353,0,0,0,.677.648l1.2-.842a3.176,3.176,0,0,0,.695.316l-.155,1.315a4.264,4.264,0,0,0,1.01.118,4.924,4.924,0,0,0,1.06-.118l.4-1.315a4.976,4.976,0,0,0,.829-.316l.839.842a6.214,6.214,0,0,0,.953-.648,6.294,6.294,0,0,0,.821-.815l-.626-1.018a5.2,5.2,0,0,0,.478-.762Zm-5.425,1.1a1.676,1.676,0,0,1-1.681-2.135,2.782,2.782,0,0,1,2.589-2.135,1.675,1.675,0,0,1,1.681,2.135A2.782,2.782,0,0,1,1655.688,1205.852Z" transform="translate(-1650.729 -1198.408)" fill="#fff"/>
      </g>
    </g>
    <g id="Group_42939" data-name="Group 42939" transform="translate(976.323 494.467)">
      <g id="Group_42936" data-name="Group 42936" transform="translate(0 0)">
        <ellipse id="Ellipse_207" data-name="Ellipse 207" cx="11.772" cy="9.522" rx="11.772" ry="9.522" transform="translate(0 15.744) rotate(-41.967)" fill="#f45183"/>
      </g>
      <g id="Group_42938" data-name="Group 42938" transform="translate(8.739 10.586)">
        <g id="Group_42937" data-name="Group 42937">
          <path id="Path_97582" data-name="Path 97582" d="M1848.54,603.98l-3.706-4.706,2.235-1.843,2.254,2.863,7.234-5.966,1.452,1.843Z" transform="translate(-1844.834 -594.328)" fill="#fff"/>
        </g>
      </g>
    </g>
    <g id="Group_42945" data-name="Group 42945" transform="translate(1027.466 572.502)">
      <g id="Group_42942" data-name="Group 42942" transform="translate(0 0.421)">
        <g id="Group_42941" data-name="Group 42941">
          <path id="Path_97584" data-name="Path 97584" d="M2224.771,1199.768l2.067,3.2a5.1,5.1,0,0,1-2.963,1.018,3.308,3.308,0,0,1-3.319-4.215,5.494,5.494,0,0,1,5.111-4.215S2225.267,1197.44,2224.771,1199.768Z" transform="translate(-2220.462 -1195.553)" fill="#fbb9cc"/>
        </g>
      </g>
      <g id="Group_42944" data-name="Group 42944" transform="translate(5.442)">
        <g id="Group_42943" data-name="Group 42943">
          <path id="Path_97585" data-name="Path 97585" d="M2272.884,1196.035a5.443,5.443,0,0,1-2.147,3.2l-2.067-3.2.9-4.215A3.308,3.308,0,0,1,2272.884,1196.035Z" transform="translate(-2268.669 -1191.82)" fill="#f45183"/>
        </g>
      </g>
    </g>
    <g id="Group_42947" data-name="Group 42947" transform="translate(1026.122 583.136)">
      <g id="Group_42946" data-name="Group 42946" transform="translate(0 0)">
        <path id="Path_97586" data-name="Path 97586" d="M2217.871,1287.156h-9.316l.242-1.14h9.316Z" transform="translate(-2208.554 -1286.016)" fill="#cfc6ce"/>
      </g>
    </g>
    <g id="Group_42949" data-name="Group 42949" transform="translate(1027.637 585.556)">
      <g id="Group_42948" data-name="Group 42948" transform="translate(0 0)">
        <path id="Path_97587" data-name="Path 97587" d="M2227.233,1308.593h-5.257l.242-1.14h5.257Z" transform="translate(-2221.976 -1307.453)" fill="#cfc6ce"/>
      </g>
    </g>
    <g id="Group_42950" data-name="Group 42950" transform="translate(1055.268 569.988)">
      <path id="Path_97588" data-name="Path 97588" d="M2466.745,1169.546l1.216,4.038h2.392l-3.251,1.142Z" transform="translate(-2466.745 -1169.546)" fill="#f0ebf1"/>
    </g>
    <g id="Group_42969" data-name="Group 42969" transform="translate(1042.514 572.353)">
      <g id="Group_42952" data-name="Group 42952" transform="translate(2.912)">
        <g id="Group_42951" data-name="Group 42951">
          <path id="Path_97589" data-name="Path 97589" d="M2388.19,1191.643h-8.634l.242-1.14h8.634Z" transform="translate(-2379.556 -1190.502)" fill="#f0ebf1"/>
        </g>
      </g>
      <g id="Group_42954" data-name="Group 42954" transform="translate(2.33 2.74)">
        <g id="Group_42953" data-name="Group 42953">
          <path id="Path_97590" data-name="Path 97590" d="M2380.971,1215.914H2374.4l.242-1.14h6.574Z" transform="translate(-2374.397 -1214.773)" fill="#f0ebf1"/>
        </g>
      </g>
      <g id="Group_42956" data-name="Group 42956" transform="translate(9.932 2.74)">
        <g id="Group_42955" data-name="Group 42955">
          <path id="Path_97591" data-name="Path 97591" d="M2444.325,1215.914h-2.58l.242-1.14h2.58Z" transform="translate(-2441.746 -1214.773)" fill="#f0ebf1"/>
        </g>
      </g>
      <g id="Group_42958" data-name="Group 42958" transform="translate(1.747 5.48)">
        <g id="Group_42957" data-name="Group 42957">
          <path id="Path_97592" data-name="Path 97592" d="M2371.179,1240.185h-1.94l.242-1.141h1.94Z" transform="translate(-2369.238 -1239.044)" fill="#f0ebf1"/>
        </g>
      </g>
      <g id="Group_42960" data-name="Group 42960" transform="translate(4.344 5.48)">
        <g id="Group_42959" data-name="Group 42959">
          <path id="Path_97593" data-name="Path 97593" d="M2398.58,1240.185h-6.342l.242-1.141h6.342Z" transform="translate(-2392.238 -1239.044)" fill="#f0ebf1"/>
        </g>
      </g>
      <g id="Group_42962" data-name="Group 42962" transform="translate(1.165 8.22)">
        <g id="Group_42961" data-name="Group 42961">
          <path id="Path_97594" data-name="Path 97594" d="M2374.581,1264.457h-10.5l.242-1.141h10.5Z" transform="translate(-2364.079 -1263.317)" fill="#f0ebf1"/>
        </g>
      </g>
      <g id="Group_42964" data-name="Group 42964" transform="translate(0.582 10.96)">
        <g id="Group_42963" data-name="Group 42963">
          <path id="Path_97595" data-name="Path 97595" d="M2363.038,1288.728h-4.118l.242-1.14h4.118Z" transform="translate(-2358.92 -1287.588)" fill="#f0ebf1"/>
        </g>
      </g>
      <g id="Group_42966" data-name="Group 42966" transform="translate(5.352 10.96)">
        <g id="Group_42965" data-name="Group 42965">
          <path id="Path_97596" data-name="Path 97596" d="M2407.781,1288.728h-6.609l.243-1.14h6.609Z" transform="translate(-2401.171 -1287.588)" fill="#f0ebf1"/>
        </g>
      </g>
      <g id="Group_42968" data-name="Group 42968" transform="translate(0 13.7)">
        <g id="Group_42967" data-name="Group 42967">
          <path id="Path_97597" data-name="Path 97597" d="M2361.379,1313h-7.618l.242-1.141h7.618Z" transform="translate(-2353.761 -1311.86)" fill="#f0ebf1"/>
        </g>
      </g>
    </g>
  </g>
</svg>
