<svg xmlns="http://www.w3.org/2000/svg" xmlns:xlink="http://www.w3.org/1999/xlink" width="213.67" height="211.696" viewBox="0 0 213.67 211.696">
  <defs>
    <linearGradient id="linear-gradient" x1="1.003" y1="1.087" x2="0.095" y2="0.056" gradientUnits="objectBoundingBox">
      <stop offset="0" stop-color="#dae3fe"/>
      <stop offset="1" stop-color="#e9effd"/>
    </linearGradient>
    <linearGradient id="linear-gradient-2" x1="11.523" y1="-9.376" x2="7.75" y2="-3.759" gradientUnits="objectBoundingBox">
      <stop offset="0" stop-color="#fdf53f"/>
      <stop offset="1" stop-color="#d93c65"/>
    </linearGradient>
    <linearGradient id="linear-gradient-3" x1="7.081" y1="-11.686" x2="4.996" y2="-5.24" xlink:href="#linear-gradient-2"/>
    <linearGradient id="linear-gradient-4" x1="18.076" y1="-13.775" x2="14.19" y2="-7.562" gradientUnits="objectBoundingBox">
      <stop offset="0" stop-color="#a737d5"/>
      <stop offset="1" stop-color="#ef497a"/>
    </linearGradient>
    <linearGradient id="linear-gradient-5" x1="19.124" y1="-14.88" x2="15.238" y2="-8.666" xlink:href="#linear-gradient-4"/>
    <linearGradient id="linear-gradient-6" x1="20.058" y1="-14.843" x2="14.945" y2="-8.164" xlink:href="#linear-gradient-4"/>
    <linearGradient id="linear-gradient-7" x1="21.219" y1="-17.089" x2="17.333" y2="-10.876" xlink:href="#linear-gradient-4"/>
    <linearGradient id="linear-gradient-8" x1="-17.78" y1="1.8" x2="-22.742" y2="7.127" xlink:href="#linear-gradient-4"/>
    <linearGradient id="linear-gradient-9" x1="0.5" y1="0.941" x2="0.429" y2="-0.71" gradientUnits="objectBoundingBox">
      <stop offset="0" stop-color="#09005d"/>
      <stop offset="1" stop-color="#1a0f91"/>
    </linearGradient>
    <linearGradient id="linear-gradient-10" x1="-0.196" y1="-0.712" x2="2.177" y2="3.418" gradientUnits="objectBoundingBox">
      <stop offset="0" stop-color="#ff928e"/>
      <stop offset="1" stop-color="#fe7062"/>
    </linearGradient>
    <linearGradient id="linear-gradient-11" x1="-0.196" y1="-2.376" x2="1.09" y2="3.529" xlink:href="#linear-gradient-10"/>
    <linearGradient id="linear-gradient-12" x1="-0.897" y1="-0.736" x2="7.16" y2="6.41" gradientUnits="objectBoundingBox">
      <stop offset="0" stop-color="#4f52ff"/>
      <stop offset="1" stop-color="#4042e2"/>
    </linearGradient>
    <linearGradient id="linear-gradient-13" x1="-3.047" y1="-2.642" x2="5.01" y2="4.503" xlink:href="#linear-gradient-12"/>
    <linearGradient id="linear-gradient-14" x1="2.578" y1="-2.211" x2="-1.787" y2="3.403" xlink:href="#linear-gradient-12"/>
    <linearGradient id="linear-gradient-15" x1="3.377" y1="-3.239" x2="-0.988" y2="2.375" xlink:href="#linear-gradient-12"/>
    <linearGradient id="linear-gradient-16" x1="4.049" y1="-3.235" x2="-1.695" y2="2.799" xlink:href="#linear-gradient-12"/>
    <linearGradient id="linear-gradient-17" x1="4.975" y1="-5.294" x2="0.61" y2="0.32" xlink:href="#linear-gradient-12"/>
    <linearGradient id="linear-gradient-18" x1="1.519" y1="-0.775" x2="-1.484" y2="2.907" gradientUnits="objectBoundingBox">
      <stop offset="0" stop-color="#2b3582"/>
      <stop offset="1" stop-color="#150e42"/>
    </linearGradient>
    <linearGradient id="linear-gradient-19" x1="1.004" y1="-2.464" x2="-0.074" y2="4.125" xlink:href="#linear-gradient-18"/>
    <linearGradient id="linear-gradient-20" x1="-0.301" y1="1.165" x2="2.009" y2="-0.739" xlink:href="#linear-gradient-10"/>
    <linearGradient id="linear-gradient-21" x1="0.727" y1="-2.869" x2="0.282" y2="3.71" xlink:href="#linear-gradient-12"/>
    <linearGradient id="linear-gradient-22" x1="-42.642" y1="0.5" x2="-41.623" y2="0.5" gradientUnits="objectBoundingBox">
      <stop offset="0" stop-color="#090056"/>
      <stop offset="1" stop-color="#020039"/>
    </linearGradient>
    <linearGradient id="linear-gradient-23" x1="-0.757" y1="-8.611" x2="1.326" y2="6.389" xlink:href="#linear-gradient-22"/>
    <linearGradient id="linear-gradient-24" x1="-97.996" y1="0.5" x2="-96.996" y2="0.5" xlink:href="#linear-gradient-22"/>
    <linearGradient id="linear-gradient-25" x1="-4.222" y1="-41.402" x2="0.364" y2="-1.05" xlink:href="#linear-gradient-22"/>
    <linearGradient id="linear-gradient-26" x1="-150.269" y1="0.5" x2="-149.269" y2="0.5" gradientUnits="objectBoundingBox">
      <stop offset="0" stop-color="#febbba"/>
      <stop offset="1" stop-color="#ff928e"/>
    </linearGradient>
    <linearGradient id="linear-gradient-27" x1="-167.775" y1="0.5" x2="-166.775" y2="0.5" xlink:href="#linear-gradient-26"/>
    <linearGradient id="linear-gradient-28" x1="3.088" y1="1.345" x2="0.616" y2="0.582" xlink:href="#linear-gradient-22"/>
    <linearGradient id="linear-gradient-29" x1="-232.288" y1="-3.524" x2="-238.025" y2="3.756" gradientUnits="objectBoundingBox">
      <stop offset="0" stop-color="#cb236d"/>
      <stop offset="1" stop-color="#4c246d"/>
    </linearGradient>
    <linearGradient id="linear-gradient-30" x1="-0.125" y1="-1.058" x2="1.981" y2="3.849" xlink:href="#linear-gradient-12"/>
    <linearGradient id="linear-gradient-31" x1="-67.892" y1="0.258" x2="-67.673" y2="-0.747" xlink:href="#linear-gradient-26"/>
    <linearGradient id="linear-gradient-32" x1="-47.031" y1="-0.581" x2="-48.084" y2="0.17" xlink:href="#linear-gradient-26"/>
    <linearGradient id="linear-gradient-33" x1="-0.098" y1="0.38" x2="2.001" y2="0.905" xlink:href="#linear-gradient-22"/>
    <linearGradient id="linear-gradient-34" x1="-196.625" y1="-4.116" x2="-200.946" y2="-1.536" xlink:href="#linear-gradient-26"/>
    <linearGradient id="linear-gradient-35" x1="9.404" y1="21.232" x2="8.182" y2="24.452" xlink:href="#linear-gradient-10"/>
    <linearGradient id="linear-gradient-36" x1="0.074" y1="-0.378" x2="0.807" y2="1.194" xlink:href="#linear-gradient-10"/>
    <linearGradient id="linear-gradient-37" x1="-0.269" y1="-2.098" x2="2.525" y2="7.338" xlink:href="#linear-gradient-10"/>
    <linearGradient id="linear-gradient-38" x1="-0.698" y1="-0.996" x2="2.189" y2="2.626" xlink:href="#linear-gradient-12"/>
    <linearGradient id="linear-gradient-39" x1="0.031" y1="0.767" x2="1.654" y2="-0.248" xlink:href="#linear-gradient-26"/>
  </defs>
  <g id="Metaphor_illustration" data-name="Metaphor illustration" transform="translate(-1336 -202.59)">
    <path id="Path_94702" data-name="Path 94702" d="M1530.411,384.393c-38.59,40.724-97.867,28.676-106.629,26.74-11.039-2.439-37.3-8.242-56.9-31.154-30-35.077-26.974-89.9-3.8-126.857,6.743-10.754,29.433-42.714,72.044-49.662,2.491-.406,46.986-6.93,82.787,23.109a98.03,98.03,0,0,1,19.448,22.065C1558.544,281.766,1568.569,344.126,1530.411,384.393Z" transform="translate(-6.687 0)" fill="url(#linear-gradient)"/>
    <g id="Group_41542" data-name="Group 41542" transform="translate(1407.892 210.664)">
      <path id="Path_94703" data-name="Path 94703" d="M1644.336,236.467a3.582,3.582,0,0,1,4.712-2.658c13.61,4.853,60.552,20.884,101.03,26.221a3.312,3.312,0,0,1,2.846,3.792l-23.549,151.086a3.811,3.811,0,0,1-4.33,3.184c-16.963-2.54-86.767-13.248-110.833-21.013a3.019,3.019,0,0,1-2.027-3.481Z" transform="translate(-1612.121 -233.6)" fill="#91b3fa"/>
      <path id="Path_94704" data-name="Path 94704" d="M1651.089,252.491a3.447,3.447,0,0,1,4.534-2.558c13.1,4.67,58.271,20.1,97.226,25.234a3.187,3.187,0,0,1,2.739,3.649l-22.662,145.4a3.668,3.668,0,0,1-4.167,3.064c-16.324-2.444-83.5-12.75-106.66-20.222a2.906,2.906,0,0,1-1.951-3.35Z" transform="translate(-1618.014 -245.531)" fill="#fff" opacity="0.6"/>
      <path id="Path_94705" data-name="Path 94705" d="M1766.272,306.206a2.129,2.129,0,0,0-2.613,1.725l-5.065,31.128a2,2,0,0,0,1.508,2.27c5.675,1.364,23.373,5.548,33.529,7.141a2.236,2.236,0,0,0,2.518-1.679c1.41-5.741,5.376-22.479,5.54-29.79a2.524,2.524,0,0,0-1.921-2.5Z" transform="translate(-1720.438 -287.255)" fill="#fff" opacity="0.78"/>
      <circle id="Ellipse_104" data-name="Ellipse 104" cx="6.772" cy="6.772" r="6.772" transform="translate(51.736 40.046) rotate(-71.387)" fill="url(#linear-gradient-2)"/>
      <path id="Path_94706" data-name="Path 94706" d="M1785.43,416.853l21.112,4.449a1.67,1.67,0,0,0,1.9-2.231,13.924,13.924,0,0,0-10.622-9.28,15.042,15.042,0,0,0-13.226,4.078A1.746,1.746,0,0,0,1785.43,416.853Z" transform="translate(-1739.281 -363.73)" fill="url(#linear-gradient-3)"/>
      <g id="Group_41530" data-name="Group 41530" transform="translate(89.547 30.561)" opacity="0.6">
        <path id="Path_94707" data-name="Path 94707" d="M1993.581,361.568a1.116,1.116,0,0,0,1.39-.787,1.223,1.223,0,0,0-1.01-1.315l-36.865-8.458a.8.8,0,0,0-1.037.943l.071.54a1.863,1.863,0,0,0,1.362,1.471Z" transform="translate(-1956.049 -350.977)" fill="#fff"/>
      </g>
      <g id="Group_41531" data-name="Group 41531" transform="translate(88.336 36.308)" opacity="0.6">
        <path id="Path_94708" data-name="Path 94708" d="M1952.445,373.079a.8.8,0,0,0-1.037.943l.071.54a1.863,1.863,0,0,0,1.362,1.472l36.088,7.606a1.117,1.117,0,0,0,1.39-.787,1.223,1.223,0,0,0-1.01-1.315Z" transform="translate(-1951.397 -373.049)" fill="#fff"/>
      </g>
      <g id="Group_41532" data-name="Group 41532" transform="translate(87.107 42.138)" opacity="0.6">
        <path id="Path_94709" data-name="Path 94709" d="M1947.726,395.472a.8.8,0,0,0-1.037.943l.071.54a1.864,1.864,0,0,0,1.362,1.472l36.088,7.606a1.116,1.116,0,0,0,1.39-.787,1.223,1.223,0,0,0-1.01-1.315Z" transform="translate(-1946.678 -395.442)" fill="#fff"/>
      </g>
      <g id="Group_41533" data-name="Group 41533" transform="translate(35.294 60.512)" opacity="0.6">
        <path id="Path_94710" data-name="Path 94710" d="M1834.692,487.1a1.068,1.068,0,0,0,1.352-.8,1.264,1.264,0,0,0-1.05-1.311l-86.545-18.954c-.66-.144-.952.232-.649.836l.521,1.039a2.893,2.893,0,0,0,1.753,1.352Z" transform="translate(-1747.678 -466.012)" fill="#fff"/>
      </g>
      <g id="Group_41534" data-name="Group 41534" transform="translate(34.083 66.259)" opacity="0.6">
        <path id="Path_94711" data-name="Path 94711" d="M1743.8,488.115c-.66-.144-.952.231-.65.836l.521,1.039a2.893,2.893,0,0,0,1.753,1.352l84.62,17.834a1.069,1.069,0,0,0,1.352-.8,1.265,1.265,0,0,0-1.05-1.311Z" transform="translate(-1743.026 -488.084)" fill="#fff"/>
      </g>
      <path id="Path_94712" data-name="Path 94712" d="M1729.666,524.7c2.118.28,6.037,1.028,8.192,1.451a1.99,1.99,0,0,1,1.609,1.894,32.449,32.449,0,0,1-.743,8.06,1.767,1.767,0,0,1-2.1,1.325l-7.911-1.756a1.946,1.946,0,0,1-1.511-2.122l.875-7.606A1.417,1.417,0,0,1,1729.666,524.7Z" transform="translate(-1697.228 -448.901)" fill="#fff" opacity="0.6"/>
      <g id="Group_41535" data-name="Group 41535" transform="translate(45.114 81.919)" opacity="0.6">
        <path id="Path_94713" data-name="Path 94713" d="M1786.735,548.266a.978.978,0,0,0-1.263.923l-.077,1.319a1.476,1.476,0,0,0,1.13,1.48l19.257,4.059a1.214,1.214,0,0,0,1.44-.952l.064-.326a1.316,1.316,0,0,0-.952-1.509Z" transform="translate(-1785.393 -548.229)" fill="#fff"/>
      </g>
      <path id="Path_94714" data-name="Path 94714" d="M1895.57,559.669c2.118.279,6.037,1.028,8.192,1.451a1.99,1.99,0,0,1,1.609,1.894,32.449,32.449,0,0,1-.743,8.06,1.767,1.767,0,0,1-2.1,1.325l-7.911-1.756a1.946,1.946,0,0,1-1.511-2.122l.875-7.606A1.418,1.418,0,0,1,1895.57,559.669Z" transform="translate(-1819.936 -474.763)" fill="#fff" opacity="0.6"/>
      <g id="Group_41536" data-name="Group 41536" transform="translate(88.31 91.023)" opacity="0.6">
        <path id="Path_94715" data-name="Path 94715" d="M1952.639,583.232a.978.978,0,0,0-1.262.923l-.077,1.319a1.476,1.476,0,0,0,1.13,1.48l19.257,4.058a1.213,1.213,0,0,0,1.44-.952l.065-.326a1.316,1.316,0,0,0-.952-1.509Z" transform="translate(-1951.297 -583.195)" fill="#fff"/>
      </g>
      <g id="Group_41541" data-name="Group 41541" transform="translate(18.489 95.273)">
        <path id="Path_94716" data-name="Path 94716" d="M1730.2,615.481l-.02,0-7.3-1.612a2.01,2.01,0,0,1-1.655-2.1l.651-6.274a1.364,1.364,0,0,1,.527-.937,1.642,1.642,0,0,1,1.236-.316h0c.625.088,1.509.2,2.444.312,1.97.243,4.422.546,5.78.814a2.09,2.09,0,0,1,1.747,1.865,31.357,31.357,0,0,1-1.183,6.976A1.847,1.847,0,0,1,1730.2,615.481Zm-6.643-10.671a1.063,1.063,0,0,0-.8.2.793.793,0,0,0-.309.544l-.651,6.274A1.438,1.438,0,0,0,1723,613.3l7.3,1.612.015,0a1.274,1.274,0,0,0,1.548-.843,31.205,31.205,0,0,0,1.168-6.812,1.542,1.542,0,0,0-1.284-1.334c-1.339-.265-3.779-.566-5.739-.808-.938-.116-1.824-.225-2.454-.313Z" transform="translate(-1711.297 -603)" fill="#fff"/>
        <path id="Path_94717" data-name="Path 94717" d="M1727.962,609.511c1.559.219,4.971.584,6.56.9a1.447,1.447,0,0,1,1.211,1.278,25.407,25.407,0,0,1-.939,5.509,1.244,1.244,0,0,1-1.521.843l-5.835-1.289a1.38,1.38,0,0,1-1.143-1.427l.52-5.014A.971.971,0,0,1,1727.962,609.511Z" transform="translate(-1715.051 -606.902)" fill="#fff" opacity="0.6"/>
        <g id="Group_41537" data-name="Group 41537" transform="translate(26.183 7.809)" opacity="0.6">
          <path id="Path_94718" data-name="Path 94718" d="M1783.7,631.464a1.856,1.856,0,0,0,1.487,1.727L1853,646.88a1.4,1.4,0,0,0,.573-2.748l-67.632-14.577A1.857,1.857,0,0,0,1783.7,631.464Z" transform="translate(-1783.695 -629.513)" fill="#fff"/>
        </g>
        <path id="Path_94719" data-name="Path 94719" d="M1730.809,603.16h0a1.148,1.148,0,0,1,1.46.748l.9,2.891a.368.368,0,0,0,.65.108l5.259-7.214a.408.408,0,0,1,.728.333,16.079,16.079,0,0,1-6.885,9.984s-1.971-1.286-2.9-5.446A1.2,1.2,0,0,1,1730.809,603.16Z" transform="translate(-1717.789 -599.522)" fill="url(#linear-gradient-4)"/>
        <path id="Path_94720" data-name="Path 94720" d="M1717.5,675.708l-.02,0-7.3-1.612a2.01,2.01,0,0,1-1.655-2.1l.651-6.274a1.363,1.363,0,0,1,.526-.937,1.642,1.642,0,0,1,1.236-.316h0c.625.088,1.509.2,2.444.312,1.97.243,4.422.546,5.78.814l.029.006a2.086,2.086,0,0,1,1.717,1.859,31.35,31.35,0,0,1-1.183,6.976A1.847,1.847,0,0,1,1717.5,675.708Zm-6.643-10.671a1.064,1.064,0,0,0-.8.2.794.794,0,0,0-.309.544l-.651,6.274a1.439,1.439,0,0,0,1.208,1.476l7.3,1.612.015,0a1.274,1.274,0,0,0,1.548-.843,31.23,31.23,0,0,0,1.168-6.812,1.535,1.535,0,0,0-1.285-1.334c-1.338-.265-3.778-.566-5.739-.808-.938-.116-1.824-.225-2.454-.313Z" transform="translate(-1701.908 -647.546)" fill="#fff"/>
        <path id="Path_94721" data-name="Path 94721" d="M1715.269,669.739c1.559.219,4.971.584,6.56.9a1.448,1.448,0,0,1,1.211,1.278,25.429,25.429,0,0,1-.939,5.509,1.244,1.244,0,0,1-1.521.843l-5.835-1.289a1.38,1.38,0,0,1-1.144-1.427l.52-5.014A.971.971,0,0,1,1715.269,669.739Z" transform="translate(-1705.663 -651.448)" fill="#fff" opacity="0.6"/>
        <g id="Group_41538" data-name="Group 41538" transform="translate(22.878 23.49)" opacity="0.6">
          <path id="Path_94722" data-name="Path 94722" d="M1771,691.691a1.857,1.857,0,0,0,1.487,1.727l67.817,13.69a1.4,1.4,0,0,0,.574-2.748l-67.632-14.576A1.856,1.856,0,0,0,1771,691.691Z" transform="translate(-1771.002 -689.741)" fill="#fff"/>
        </g>
        <path id="Path_94723" data-name="Path 94723" d="M1718.115,663.387h0a1.148,1.148,0,0,1,1.46.748l.9,2.891a.369.369,0,0,0,.65.108l5.259-7.214a.408.408,0,0,1,.727.333,16.079,16.079,0,0,1-6.885,9.984s-1.97-1.287-2.9-5.446A1.2,1.2,0,0,1,1718.115,663.387Z" transform="translate(-1708.401 -644.068)" fill="url(#linear-gradient-5)"/>
        <path id="Path_94724" data-name="Path 94724" d="M1704.81,735.935l-.02,0-7.3-1.612a2.01,2.01,0,0,1-1.655-2.1l.651-6.274a1.363,1.363,0,0,1,.527-.937,1.641,1.641,0,0,1,1.236-.316h0c.625.088,1.509.2,2.444.312,1.97.243,4.421.546,5.78.814l.03.006a2.085,2.085,0,0,1,1.717,1.859,31.343,31.343,0,0,1-1.183,6.976A1.848,1.848,0,0,1,1704.81,735.935Zm-6.643-10.671a1.063,1.063,0,0,0-.8.2.793.793,0,0,0-.309.544l-.651,6.274a1.438,1.438,0,0,0,1.207,1.476l7.3,1.612.015,0a1.274,1.274,0,0,0,1.548-.843,31.236,31.236,0,0,0,1.168-6.812,1.532,1.532,0,0,0-1.285-1.334c-1.338-.264-3.778-.566-5.739-.808-.938-.116-1.824-.225-2.454-.313Z" transform="translate(-1692.519 -692.092)" fill="#fff"/>
        <path id="Path_94725" data-name="Path 94725" d="M1702.576,729.965c1.559.219,4.972.584,6.56.9a1.448,1.448,0,0,1,1.211,1.278,25.418,25.418,0,0,1-.94,5.509,1.244,1.244,0,0,1-1.521.843l-5.835-1.289a1.38,1.38,0,0,1-1.143-1.427l.52-5.014A.97.97,0,0,1,1702.576,729.965Z" transform="translate(-1696.275 -695.994)" fill="#fff" opacity="0.6"/>
        <g id="Group_41539" data-name="Group 41539" transform="translate(19.573 39.171)" opacity="0.6">
          <path id="Path_94726" data-name="Path 94726" d="M1758.31,751.918a1.857,1.857,0,0,0,1.487,1.727l67.817,13.69a1.4,1.4,0,0,0,.574-2.748l-67.632-14.576A1.857,1.857,0,0,0,1758.31,751.918Z" transform="translate(-1758.308 -749.968)" fill="#fff"/>
        </g>
        <path id="Path_94727" data-name="Path 94727" d="M1705.422,723.614h0a1.148,1.148,0,0,1,1.46.748l.9,2.891a.368.368,0,0,0,.65.108l5.259-7.214a.408.408,0,0,1,.728.334,16.077,16.077,0,0,1-6.885,9.984s-1.97-1.286-2.9-5.446A1.2,1.2,0,0,1,1705.422,723.614Z" transform="translate(-1699.012 -688.614)" fill="url(#linear-gradient-6)"/>
        <path id="Path_94728" data-name="Path 94728" d="M1692.117,796.162l-.02,0-7.3-1.612a2.009,2.009,0,0,1-1.655-2.1l.651-6.274a1.363,1.363,0,0,1,.527-.937,1.642,1.642,0,0,1,1.236-.317h0c.625.088,1.509.2,2.444.312,1.97.243,4.422.546,5.78.814l.03.006a2.085,2.085,0,0,1,1.717,1.859,31.358,31.358,0,0,1-1.183,6.976A1.847,1.847,0,0,1,1692.117,796.162Zm-6.643-10.671a1.064,1.064,0,0,0-.8.2.794.794,0,0,0-.309.544l-.651,6.274a1.438,1.438,0,0,0,1.207,1.476l7.3,1.612.015,0a1.274,1.274,0,0,0,1.548-.843,31.19,31.19,0,0,0,1.168-6.812,1.529,1.529,0,0,0-1.285-1.334c-1.338-.265-3.778-.566-5.739-.808-.938-.116-1.824-.225-2.454-.313Z" transform="translate(-1683.131 -736.638)" fill="#fff"/>
        <path id="Path_94729" data-name="Path 94729" d="M1689.882,790.193c1.559.219,4.971.584,6.56.9a1.447,1.447,0,0,1,1.211,1.278,25.385,25.385,0,0,1-.939,5.509,1.244,1.244,0,0,1-1.521.842l-5.835-1.289a1.381,1.381,0,0,1-1.143-1.427l.52-5.014A.971.971,0,0,1,1689.882,790.193Z" transform="translate(-1686.886 -740.54)" fill="#fff" opacity="0.6"/>
        <g id="Group_41540" data-name="Group 41540" transform="translate(16.269 54.852)" opacity="0.6">
          <path id="Path_94730" data-name="Path 94730" d="M1745.617,812.145h0a1.856,1.856,0,0,0,1.487,1.727l67.817,13.69a1.4,1.4,0,0,0,.574-2.749l-67.632-14.576A1.857,1.857,0,0,0,1745.617,812.145Z" transform="translate(-1745.615 -810.195)" fill="#fff"/>
        </g>
        <path id="Path_94731" data-name="Path 94731" d="M1692.729,783.841h0a1.148,1.148,0,0,1,1.46.748l.9,2.891a.368.368,0,0,0,.65.108l5.259-7.214a.409.409,0,0,1,.728.333,16.079,16.079,0,0,1-6.886,9.984s-1.97-1.286-2.9-5.446A1.2,1.2,0,0,1,1692.729,783.841Z" transform="translate(-1689.624 -733.16)" fill="url(#linear-gradient-7)"/>
      </g>
    </g>
    <g id="Group_41555" data-name="Group 41555" transform="translate(1338.005 213.446)">
      <path id="Path_94732" data-name="Path 94732" d="M1343.778,264.751a3.581,3.581,0,0,1,3.27-4.309c14.419-.947,63.867-4.862,103.139-16.028a3.312,3.312,0,0,1,4.117,2.351l38.346,148.024a3.811,3.811,0,0,1-2.711,4.641c-16.577,4.4-84.9,22.275-110.071,24.7a3.019,3.019,0,0,1-3.242-2.391Z" transform="translate(-1343.701 -244.286)" fill="#91b3fa"/>
      <path id="Path_94733" data-name="Path 94733" d="M1353.059,280.053a3.447,3.447,0,0,1,3.147-4.147c13.876-.911,61.462-4.679,99.256-15.424a3.188,3.188,0,0,1,3.962,2.263l36.9,142.45a3.668,3.668,0,0,1-2.609,4.466c-15.953,4.235-81.7,21.436-105.926,23.769a2.906,2.906,0,0,1-3.121-2.3Z" transform="translate(-1350.568 -256.174)" fill="#fff" opacity="0.6"/>
      <path id="Path_94734" data-name="Path 94734" d="M1409.759,345.2l7.7,30.582a2,2,0,0,0,2.285,1.485c5.75-1,23.655-4.184,33.609-6.752a2.237,2.237,0,0,0,1.646-2.54c-.984-5.829-3.987-22.766-6.737-29.543a2.525,2.525,0,0,0-2.757-1.535l-34.036,5.682A2.129,2.129,0,0,0,1409.759,345.2Z" transform="translate(-1392.511 -312.762)" fill="#fff" opacity="0.78"/>
      <circle id="Ellipse_105" data-name="Ellipse 105" cx="6.772" cy="6.772" r="6.772" transform="translate(30.455 43.98) rotate(-72.684)" fill="#91b3fa"/>
      <path id="Path_94735" data-name="Path 94735" d="M1463.773,445.365l21.144-4.294a1.671,1.671,0,0,0,.862-2.8,13.923,13.923,0,0,0-13.433-4.3,15.04,15.04,0,0,0-10.521,8.992A1.746,1.746,0,0,0,1463.773,445.365Z" transform="translate(-1430.96 -384.302)" fill="#91b3fa"/>
      <g id="Group_41543" data-name="Group 41543" transform="translate(63.935 15.853)" opacity="0.6">
        <path id="Path_94736" data-name="Path 94736" d="M1627.669,307.276a1.117,1.117,0,0,0,.963-1.274,1.224,1.224,0,0,0-1.449-.806l-37.194,6.867a.8.8,0,0,0-.578,1.277l.28.468a1.863,1.863,0,0,0,1.834.81Z" transform="translate(-1589.258 -305.171)" fill="#fff"/>
      </g>
      <g id="Group_41544" data-name="Group 41544" transform="translate(65.104 21.608)" opacity="0.6">
        <path id="Path_94737" data-name="Path 94737" d="M1594.479,334.167a.8.8,0,0,0-.578,1.277l.28.467a1.863,1.863,0,0,0,1.834.81l36.142-7.341a1.116,1.116,0,0,0,.964-1.274,1.224,1.224,0,0,0-1.449-.807Z" transform="translate(-1593.748 -327.276)" fill="#fff"/>
      </g>
      <g id="Group_41545" data-name="Group 41545" transform="translate(66.29 27.447)" opacity="0.6">
        <path id="Path_94738" data-name="Path 94738" d="M1599.034,356.594a.8.8,0,0,0-.578,1.277l.28.468a1.862,1.862,0,0,0,1.834.81l36.142-7.341a1.116,1.116,0,0,0,.964-1.274,1.224,1.224,0,0,0-1.449-.806Z" transform="translate(-1598.303 -349.704)" fill="#fff"/>
      </g>
      <g id="Group_41546" data-name="Group 41546" transform="translate(25.913 54.9)" opacity="0.6">
        <path id="Path_94739" data-name="Path 94739" d="M1531.333,457.223a1.068,1.068,0,0,0,.925-1.266,1.264,1.264,0,0,0-1.484-.787l-86.96,16.949c-.663.129-.782.591-.265,1.025l.891.747a2.893,2.893,0,0,0,2.145.545Z" transform="translate(-1443.227 -455.144)" fill="#fff"/>
      </g>
      <g id="Group_41547" data-name="Group 41547" transform="translate(27.082 60.656)" opacity="0.6">
        <path id="Path_94740" data-name="Path 94740" d="M1448.3,494.225c-.663.129-.782.59-.265,1.025l.89.747a2.9,2.9,0,0,0,2.145.545l84.748-17.213a1.069,1.069,0,0,0,.925-1.266,1.264,1.264,0,0,0-1.485-.787Z" transform="translate(-1447.716 -477.249)" fill="#fff"/>
      </g>
      <path id="Path_94741" data-name="Path 94741" d="M1453.041,574.082c2.055-.584,5.949-1.452,8.095-1.919a1.99,1.99,0,0,1,2.228,1.1,32.426,32.426,0,0,1,2.516,7.693,1.767,1.767,0,0,1-1.4,2.05l-7.958,1.527a1.946,1.946,0,0,1-2.23-1.348l-2.215-7.328A1.418,1.418,0,0,1,1453.041,574.082Z" transform="translate(-1423.812 -486.761)" fill="#fff" opacity="0.6"/>
      <g id="Group_41548" data-name="Group 41548" transform="translate(43.674 84.196)" opacity="0.6">
        <path id="Path_94742" data-name="Path 94742" d="M1512.3,570.872a.978.978,0,0,0-.792,1.348l.452,1.241a1.476,1.476,0,0,0,1.625.91l19.286-3.917a1.214,1.214,0,0,0,.944-1.445l-.07-.325a1.315,1.315,0,0,0-1.473-1.007Z" transform="translate(-1511.441 -567.661)" fill="#fff"/>
      </g>
      <path id="Path_94743" data-name="Path 94743" d="M1619.2,540.335c2.055-.584,5.949-1.452,8.095-1.919a1.99,1.99,0,0,1,2.228,1.1,32.437,32.437,0,0,1,2.516,7.693,1.767,1.767,0,0,1-1.4,2.051l-7.958,1.527a1.947,1.947,0,0,1-2.23-1.348l-2.215-7.329A1.418,1.418,0,0,1,1619.2,540.335Z" transform="translate(-1546.707 -461.8)" fill="#fff" opacity="0.6"/>
      <g id="Group_41549" data-name="Group 41549" transform="translate(86.935 75.409)" opacity="0.6">
        <path id="Path_94744" data-name="Path 94744" d="M1678.46,537.123a.978.978,0,0,0-.792,1.348l.452,1.241a1.476,1.476,0,0,0,1.625.91l19.286-3.917a1.214,1.214,0,0,0,.944-1.445l-.07-.325a1.316,1.316,0,0,0-1.473-1.007Z" transform="translate(-1677.597 -533.913)" fill="#fff"/>
      </g>
      <g id="Group_41554" data-name="Group 41554" transform="translate(34.786 93.164)">
        <path id="Path_94745" data-name="Path 94745" d="M1488.972,656.37l-.02,0-7.342,1.418a2.01,2.01,0,0,1-2.351-1.267l-1.893-6.017a1.364,1.364,0,0,1,.112-1.069,1.642,1.642,0,0,1,1.009-.781h0c.609-.167,1.463-.418,2.368-.683,1.9-.559,4.275-1.254,5.628-1.547a2.09,2.09,0,0,1,2.344,1.019,31.352,31.352,0,0,1,1.683,6.873A1.848,1.848,0,0,1,1488.972,656.37Zm-10.332-7.158a1.063,1.063,0,0,0-.657.5.793.793,0,0,0-.068.622l1.893,6.017a1.438,1.438,0,0,0,1.694.876l7.342-1.418.015,0a1.274,1.274,0,0,0,1.086-1.388,31.217,31.217,0,0,0-1.631-6.716,1.543,1.543,0,0,0-1.709-.714c-1.333.288-3.692.98-5.588,1.536-.907.266-1.764.517-2.377.686Z" transform="translate(-1477.305 -634.85)" fill="#fff"/>
        <path id="Path_94746" data-name="Path 94746" d="M1483.748,653.93c1.518-.418,4.8-1.437,6.378-1.779a1.447,1.447,0,0,1,1.619.692,25.414,25.414,0,0,1,1.324,5.43,1.244,1.244,0,0,1-1.062,1.377l-5.867,1.133a1.381,1.381,0,0,1-1.616-.856l-1.513-4.808A.97.97,0,0,1,1483.748,653.93Z" transform="translate(-1481.497 -639.093)" fill="#fff" opacity="0.6"/>
        <g id="Group_41550" data-name="Group 41550" transform="translate(17.081)" opacity="0.6">
          <path id="Path_94747" data-name="Path 94747" d="M1543.1,618.237a1.856,1.856,0,0,0,2.05.995l67.681-14.348a1.4,1.4,0,0,0-.564-2.75l-67.863,13.462A1.856,1.856,0,0,0,1543.1,618.237Z" transform="translate(-1542.91 -602.106)" fill="#fff"/>
        </g>
        <path id="Path_94748" data-name="Path 94748" d="M1501.224,716.684l-.02,0-7.342,1.418a2.01,2.01,0,0,1-2.35-1.267l-1.893-6.017a1.362,1.362,0,0,1,.111-1.069,1.642,1.642,0,0,1,1.009-.781h0c.609-.167,1.463-.418,2.368-.683,1.9-.559,4.275-1.254,5.629-1.547l.03-.006a2.085,2.085,0,0,1,2.314,1.025,31.362,31.362,0,0,1,1.683,6.873A1.848,1.848,0,0,1,1501.224,716.684Zm-10.333-7.158a1.064,1.064,0,0,0-.657.5.794.794,0,0,0-.068.622l1.893,6.017a1.439,1.439,0,0,0,1.694.876l7.342-1.418.014,0a1.274,1.274,0,0,0,1.086-1.388,31.229,31.229,0,0,0-1.631-6.716,1.535,1.535,0,0,0-1.709-.714c-1.333.288-3.693.98-5.588,1.536-.907.266-1.764.517-2.377.686Z" transform="translate(-1486.367 -679.458)" fill="#fff"/>
        <path id="Path_94749" data-name="Path 94749" d="M1496,714.248c1.518-.418,4.795-1.437,6.377-1.779a1.448,1.448,0,0,1,1.619.693,25.391,25.391,0,0,1,1.324,5.43,1.244,1.244,0,0,1-1.062,1.377l-5.867,1.133a1.38,1.38,0,0,1-1.616-.856l-1.512-4.808A.971.971,0,0,1,1496,714.248Z" transform="translate(-1490.559 -683.707)" fill="#fff" opacity="0.6"/>
        <g id="Group_41551" data-name="Group 41551" transform="translate(20.271 15.705)" opacity="0.6">
          <path id="Path_94750" data-name="Path 94750" d="M1555.354,678.556a1.856,1.856,0,0,0,2.05.995l67.681-14.348a1.4,1.4,0,0,0-.564-2.75l-67.862,13.461A1.856,1.856,0,0,0,1555.354,678.556Z" transform="translate(-1555.161 -662.425)" fill="#fff"/>
        </g>
        <path id="Path_94751" data-name="Path 94751" d="M1513.475,777l-.02,0-7.342,1.418a2.01,2.01,0,0,1-2.351-1.267l-1.893-6.017a1.365,1.365,0,0,1,.111-1.069,1.643,1.643,0,0,1,1.009-.781h0c.609-.167,1.463-.418,2.367-.683,1.9-.559,4.275-1.254,5.629-1.547l.03-.006a2.085,2.085,0,0,1,2.314,1.025,31.381,31.381,0,0,1,1.683,6.873A1.848,1.848,0,0,1,1513.475,777Zm-10.333-7.158a1.063,1.063,0,0,0-.657.5.793.793,0,0,0-.068.622l1.893,6.017a1.438,1.438,0,0,0,1.694.876l7.342-1.418.015,0a1.274,1.274,0,0,0,1.086-1.388,31.183,31.183,0,0,0-1.631-6.716,1.532,1.532,0,0,0-1.709-.714c-1.333.288-3.693.98-5.588,1.536-.907.266-1.763.517-2.377.686Z" transform="translate(-1495.428 -724.072)" fill="#fff"/>
        <path id="Path_94752" data-name="Path 94752" d="M1508.251,774.567c1.518-.418,4.795-1.437,6.377-1.779a1.447,1.447,0,0,1,1.619.692,25.411,25.411,0,0,1,1.324,5.43,1.244,1.244,0,0,1-1.062,1.377l-5.867,1.133a1.38,1.38,0,0,1-1.616-.856l-1.513-4.809A.97.97,0,0,1,1508.251,774.567Z" transform="translate(-1499.62 -728.32)" fill="#fff" opacity="0.6"/>
        <g id="Group_41552" data-name="Group 41552" transform="translate(23.461 31.41)" opacity="0.6">
          <path id="Path_94753" data-name="Path 94753" d="M1567.6,738.874a1.857,1.857,0,0,0,2.05.995l67.681-14.349a1.4,1.4,0,0,0-.564-2.75l-67.862,13.462A1.857,1.857,0,0,0,1567.6,738.874Z" transform="translate(-1567.412 -722.743)" fill="#fff"/>
        </g>
        <path id="Path_94754" data-name="Path 94754" d="M1525.726,837.321l-.02,0-7.342,1.418a2.009,2.009,0,0,1-2.351-1.267l-1.893-6.017a1.363,1.363,0,0,1,.112-1.069,1.641,1.641,0,0,1,1.009-.781h0c.609-.167,1.463-.418,2.368-.683,1.9-.559,4.275-1.254,5.629-1.547l.029-.006a2.085,2.085,0,0,1,2.314,1.025,31.366,31.366,0,0,1,1.683,6.873A1.848,1.848,0,0,1,1525.726,837.321Zm-10.332-7.158a1.063,1.063,0,0,0-.657.5.793.793,0,0,0-.068.622l1.893,6.017a1.438,1.438,0,0,0,1.694.875l7.342-1.418.015,0a1.274,1.274,0,0,0,1.086-1.388,31.215,31.215,0,0,0-1.631-6.716,1.53,1.53,0,0,0-1.709-.714c-1.333.288-3.692.98-5.588,1.536-.907.266-1.764.517-2.377.686Z" transform="translate(-1504.489 -768.685)" fill="#fff"/>
        <path id="Path_94755" data-name="Path 94755" d="M1520.5,834.886c1.518-.418,4.794-1.437,6.377-1.779a1.448,1.448,0,0,1,1.619.693,25.417,25.417,0,0,1,1.324,5.429,1.244,1.244,0,0,1-1.062,1.377l-5.867,1.133a1.38,1.38,0,0,1-1.616-.856l-1.513-4.808A.97.97,0,0,1,1520.5,834.886Z" transform="translate(-1508.681 -772.934)" fill="#fff" opacity="0.6"/>
        <g id="Group_41553" data-name="Group 41553" transform="translate(26.65 47.115)" opacity="0.6">
          <path id="Path_94756" data-name="Path 94756" d="M1579.856,799.193h0a1.856,1.856,0,0,0,2.05.995l67.681-14.348a1.4,1.4,0,0,0-.565-2.751L1581.16,796.55A1.856,1.856,0,0,0,1579.856,799.193Z" transform="translate(-1579.663 -783.062)" fill="#fff"/>
        </g>
        <path id="Path_94757" data-name="Path 94757" d="M1523.526,824.239h0a1.148,1.148,0,0,1,1.637.107l1.972,2.3a.368.368,0,0,0,.639-.159l1.964-8.709a.408.408,0,0,1,.8.017,16.078,16.078,0,0,1-2.358,11.9s-2.319-.4-4.822-3.849A1.2,1.2,0,0,1,1523.526,824.239Z" transform="translate(-1511.198 -761.387)" fill="url(#linear-gradient-8)"/>
      </g>
    </g>
    <g id="Group_41558" data-name="Group 41558" transform="translate(1336 296.252)">
      <g id="Group_41556" data-name="Group 41556" transform="translate(4.488)">
        <path id="Path_94758" data-name="Path 94758" d="M1394.728,628.049a195.959,195.959,0,0,0,4.146,24.41h1.191a133.191,133.191,0,0,1-4.044-38.28c.67-15.435,4.45-34.176-2.6-43.128-5.867-7.451-30.761-8.565-38.948-8.729a1.208,1.208,0,0,0-.972,1.959c3.138,3.949,9.71,13.094,10.283,21.08.755,10.526,8.936,18.788,17.064,22.227S1393.355,613.652,1394.728,628.049Z" transform="translate(-1353.238 -562.323)" fill="#91b3fa"/>
        <path id="Path_94759" data-name="Path 94759" d="M1396.659,587.3a39.257,39.257,0,0,1,13.965,6.722,30.724,30.724,0,0,1,5.611,5.464,26.562,26.562,0,0,1,3.91,6.816l.349.924c.114.309.2.627.3.94s.2.631.28.943l.249.936q.5,1.87.979,3.746.952,3.753,1.786,7.536c1.114,5.042,2.073,10.117,2.72,15.249a.225.225,0,0,1-.444.069v-.007q-.689-3.789-1.524-7.564-.817-3.772-1.722-7.524l-.916-3.749-.958-3.738q-.478-1.87-.987-3.731l-.25-.932c-.083-.311-.183-.605-.274-.909s-.174-.607-.282-.9l-.329-.887a26.368,26.368,0,0,0-3.706-6.575,29.157,29.157,0,0,0-2.508-2.85l-.334-.339-.347-.326c-.232-.216-.459-.438-.7-.65-.48-.416-.955-.839-1.457-1.229a39.369,39.369,0,0,0-6.416-4.147,40.916,40.916,0,0,0-7.081-2.933l-.011,0a.18.18,0,0,1,.1-.347Z" transform="translate(-1385.188 -580.791)" fill="#fff" opacity="0.5"/>
      </g>
      <g id="Group_41557" data-name="Group 41557" transform="translate(0 49.252)">
        <path id="Path_94760" data-name="Path 94760" d="M1382.212,777.513c4.258,6.251,3.711,9.748,3.842,12.711.023.526.052,1.27.113,2.148h1.162a25.5,25.5,0,0,1-.466-3.614c-.414-8.182-2.26-22.146-9.315-30.5s-14.782-9.115-24.518-1.522c-8.113,6.328-13.174,9.522-16.142,10.115a1.122,1.122,0,0,0-.752,1.635c1.9,3.506,7.286,11.558,16.322,10.991C1363.985,778.756,1377.955,771.263,1382.212,777.513Z" transform="translate(-1336 -751.487)" fill="#91b3fa"/>
        <path id="Path_94761" data-name="Path 94761" d="M1413.919,793a23.07,23.07,0,0,1,2.01-1.682c.7-.526,1.415-1.027,2.163-1.485a21.674,21.674,0,0,1,4.774-2.246,14.955,14.955,0,0,1,2.611-.587,11.139,11.139,0,0,1,2.708-.011c.225.036.453.058.676.108s.45.095.665.156l1.271.394,1.243.483,1.205.579a15.175,15.175,0,0,1,4.2,3.282,18.858,18.858,0,0,1,2.908,4.421l.289.593c.1.2.171.4.258.605.164.407.34.808.494,1.218l.427,1.24c.152.41.248.837.371,1.255a45.718,45.718,0,0,1,1.1,5.1.175.175,0,0,1-.343.071v-.005c-.406-1.677-.8-3.357-1.355-4.981-.253-.821-.574-1.615-.873-2.416-.161-.4-.344-.781-.515-1.172-.09-.193-.166-.393-.268-.58l-.3-.565a19.2,19.2,0,0,0-2.88-4.155,14.77,14.77,0,0,0-3.976-3.035l-1.137-.539-1.178-.451-1.21-.368c-.2-.057-.4-.095-.6-.144s-.4-.066-.6-.1a10.154,10.154,0,0,0-2.467-.006,14.106,14.106,0,0,0-2.455.5,23.59,23.59,0,0,0-4.675,1.992c-.746.415-1.486.849-2.2,1.318s-1.423.967-2.1,1.488l0,0a.182.182,0,0,1-.237-.276Z" transform="translate(-1393.59 -777.688)" fill="#fff" opacity="0.5"/>
      </g>
    </g>
    <g id="Group_41572" data-name="Group 41572" transform="translate(1382.453 215.829)">
      <path id="Path_94762" data-name="Path 94762" d="M1514.413,348.208a11.6,11.6,0,0,1,11.6-11.6h98.624a10.217,10.217,0,0,1,10.2,9.7l7.28,142.986a7.534,7.534,0,0,1-7.388,7.916l-113.035,2.055a7.152,7.152,0,0,1-7.282-7.151Z" transform="translate(-1514.413 -314.955)" fill="url(#linear-gradient-9)"/>
      <g id="Group_41571" data-name="Group 41571" transform="translate(8.08 20.465)">
        <path id="Path_94763" data-name="Path 94763" d="M1545.446,335.43a3.369,3.369,0,0,1,3.821-3.36c13.468,1.826,59.781,7.475,98.072,4.536a3.115,3.115,0,0,1,3.355,2.938l7.633,143.623a3.585,3.585,0,0,1-3.368,3.77c-16.1.953-82.427,4.637-106.084,2.159a2.84,2.84,0,0,1-2.541-2.811Z" transform="translate(-1545.446 -332.039)" fill="#91b3fa"/>
        <path id="Path_94764" data-name="Path 94764" d="M1551.539,349.616a3.242,3.242,0,0,1,3.677-3.233c12.961,1.758,57.53,7.194,94.379,4.365a3,3,0,0,1,3.228,2.827l7.346,138.215a3.45,3.45,0,0,1-3.241,3.628c-15.5.917-79.324,4.463-102.089,2.078a2.734,2.734,0,0,1-2.446-2.7Z" transform="translate(-1549.952 -342.626)" fill="#fff" opacity="0.6"/>
        <path id="Path_94765" data-name="Path 94765" d="M1597.615,393.86l1.377,29.632a1.883,1.883,0,0,0,1.828,1.8c5.488.155,22.588.572,32.244.069a2.1,2.1,0,0,0,1.993-2.034c.184-5.557.587-21.731-.679-28.493a2.374,2.374,0,0,0-2.254-1.931l-32.437-1.134A2,2,0,0,0,1597.615,393.86Z" transform="translate(-1584.03 -376.214)" fill="#fff" opacity="0.78"/>
        <circle id="Ellipse_106" data-name="Ellipse 106" cx="6.37" cy="6.37" r="6.37" transform="matrix(0.526, -0.851, 0.851, 0.526, 23.482, 30.31)" fill="url(#linear-gradient-10)"/>
        <path id="Path_94766" data-name="Path 94766" d="M1627.476,487.026h20.294a1.571,1.571,0,0,0,1.32-2.422,13.1,13.1,0,0,0-11.576-6.481,14.147,14.147,0,0,0-11.382,6.319A1.642,1.642,0,0,0,1627.476,487.026Z" transform="translate(-1604.902 -440.083)" fill="url(#linear-gradient-11)"/>
        <g id="Group_41559" data-name="Group 41559" transform="translate(58.276 17.583)" opacity="0.6">
          <path id="Path_94767" data-name="Path 94767" d="M1805.731,402.214a1.05,1.05,0,0,0,1.127-.994,1.151,1.151,0,0,0-1.185-1.015l-35.57-.634a.751.751,0,0,0-.771,1.069l.17.483a1.752,1.752,0,0,0,1.539,1.09Z" transform="translate(-1769.271 -399.571)" fill="#fff"/>
        </g>
        <g id="Group_41560" data-name="Group 41560" transform="translate(58.276 23.107)" opacity="0.6">
          <path id="Path_94768" data-name="Path 94768" d="M1770.1,420.788a.751.751,0,0,0-.771,1.069l.17.483a1.753,1.753,0,0,0,1.539,1.09h34.689a1.05,1.05,0,0,0,1.127-.994,1.151,1.151,0,0,0-1.185-1.015Z" transform="translate(-1769.271 -420.788)" fill="#fff"/>
        </g>
        <g id="Group_41561" data-name="Group 41561" transform="translate(58.276 28.712)" opacity="0.6">
          <path id="Path_94769" data-name="Path 94769" d="M1770.1,442.313a.751.751,0,0,0-.771,1.069l.17.483a1.753,1.753,0,0,0,1.539,1.09h34.689a1.05,1.05,0,0,0,1.127-.994,1.151,1.151,0,0,0-1.185-1.015Z" transform="translate(-1769.271 -442.313)" fill="#fff"/>
        </g>
        <g id="Group_41562" data-name="Group 41562" transform="translate(14.09 55.727)" opacity="0.6">
          <path id="Path_94770" data-name="Path 94770" d="M1683.665,548.729a1,1,0,0,0,1.09-.994,1.189,1.189,0,0,0-1.221-1l-83.331-.657c-.635,0-.832.4-.436.895l.681.855a2.72,2.72,0,0,0,1.875.9Z" transform="translate(-1599.562 -546.075)" fill="#fff"/>
        </g>
        <g id="Group_41563" data-name="Group 41563" transform="translate(14.09 61.252)" opacity="0.6">
          <path id="Path_94771" data-name="Path 94771" d="M1600.2,567.292c-.635-.005-.832.4-.436.895l.681.855a2.72,2.72,0,0,0,1.875.9h81.341a1,1,0,0,0,1.09-.994,1.189,1.189,0,0,0-1.221-1Z" transform="translate(-1599.562 -567.292)" fill="#fff"/>
        </g>
        <path id="Path_94772" data-name="Path 94772" d="M1597.085,602c2-.154,5.756-.225,7.821-.254a1.872,1.872,0,0,1,1.848,1.432,30.511,30.511,0,0,1,.879,7.562,1.662,1.662,0,0,1-1.677,1.627l-7.621-.082a1.83,1.83,0,0,1-1.8-1.66l-.67-7.17A1.334,1.334,0,0,1,1597.085,602Z" transform="translate(-1582.731 -531.52)" fill="url(#linear-gradient-12)"/>
        <g id="Group_41564" data-name="Group 41564" transform="translate(27.453 73.418)" opacity="0.6">
          <path id="Path_94773" data-name="Path 94773" d="M1651.883,614.021a.92.92,0,0,0-.983,1.095l.185,1.229a1.388,1.388,0,0,0,1.327,1.143h18.511a1.142,1.142,0,0,0,1.141-1.156l0-.313a1.237,1.237,0,0,0-1.169-1.2Z" transform="translate(-1650.887 -614.02)" fill="#fff"/>
        </g>
        <path id="Path_94774" data-name="Path 94774" d="M1756.561,602c2-.154,5.756-.225,7.821-.254a1.872,1.872,0,0,1,1.848,1.432,30.5,30.5,0,0,1,.879,7.562,1.662,1.662,0,0,1-1.677,1.627l-7.622-.082a1.83,1.83,0,0,1-1.8-1.66l-.67-7.17A1.334,1.334,0,0,1,1756.561,602Z" transform="translate(-1700.685 -531.52)" fill="url(#linear-gradient-13)"/>
        <g id="Group_41565" data-name="Group 41565" transform="translate(68.975 73.418)" opacity="0.6">
          <path id="Path_94775" data-name="Path 94775" d="M1811.359,614.021a.92.92,0,0,0-.983,1.095l.185,1.229a1.388,1.388,0,0,0,1.327,1.143H1830.4a1.142,1.142,0,0,0,1.141-1.156l0-.313a1.237,1.237,0,0,0-1.169-1.2Z" transform="translate(-1810.363 -614.02)" fill="#fff"/>
        </g>
        <g id="Group_41570" data-name="Group 41570" transform="translate(15.501 86.902)">
          <path id="Path_94776" data-name="Path 94776" d="M1614.59,684.619h-.019l-7.033-.067a1.89,1.89,0,0,1-1.929-1.608l-.618-5.9a1.281,1.281,0,0,1,.3-.964,1.543,1.543,0,0,1,1.076-.531h0c.593-.04,1.427-.112,2.31-.187,1.86-.158,4.175-.356,5.478-.372a1.966,1.966,0,0,1,1.969,1.377,29.514,29.514,0,0,1,.265,6.651A1.738,1.738,0,0,1,1614.59,684.619Zm-8.184-8.533a1,1,0,0,0-.7.34.745.745,0,0,0-.179.56l.618,5.9a1.353,1.353,0,0,0,1.4,1.124l7.033.067h.014a1.2,1.2,0,0,0,1.261-1.076,29.342,29.342,0,0,0-.246-6.5,1.451,1.451,0,0,0-1.441-.978c-1.283.016-3.587.212-5.439.37-.885.075-1.722.147-2.319.187Z" transform="translate(-1604.983 -672.598)" fill="#fff"/>
          <path id="Path_94777" data-name="Path 94777" d="M1610.778,680.276c1.478-.1,4.689-.427,6.212-.446a1.361,1.361,0,0,1,1.362.941,23.9,23.9,0,0,1,.2,5.252,1.17,1.17,0,0,1-1.237,1.07l-5.62-.054a1.3,1.3,0,0,1-1.329-1.092l-.494-4.716A.913.913,0,0,1,1610.778,680.276Z" transform="translate(-1608.599 -676.179)" fill="#fff" opacity="0.6"/>
          <g id="Group_41566" data-name="Group 41566" transform="translate(15.725 5.911)" opacity="0.6">
            <path id="Path_94778" data-name="Path 94778" d="M1665.438,690.7a1.746,1.746,0,0,0,1.7,1.3l65.072-.555a1.32,1.32,0,0,0-.005-2.641l-65.074-.3A1.746,1.746,0,0,0,1665.438,690.7Z" transform="translate(-1665.38 -688.51)" fill="#fff"/>
          </g>
          <path id="Path_94779" data-name="Path 94779" d="M1612.921,670.829h0a1.079,1.079,0,0,1,1.489.405l1.387,2.486a.347.347,0,0,0,.619-.027l3.441-7.66a.384.384,0,0,1,.734.166,15.122,15.122,0,0,1-4.4,10.525s-2.063-.8-3.725-4.45A1.132,1.132,0,0,1,1612.921,670.829Z" transform="translate(-1610.442 -665.807)" fill="url(#linear-gradient-14)"/>
          <path id="Path_94780" data-name="Path 94780" d="M1614.59,742.512h-.019l-7.033-.068a1.89,1.89,0,0,1-1.929-1.608l-.618-5.9a1.28,1.28,0,0,1,.3-.964,1.545,1.545,0,0,1,1.076-.531h0c.593-.04,1.427-.111,2.31-.187,1.86-.159,4.175-.355,5.478-.372h.028a1.961,1.961,0,0,1,1.941,1.378,29.511,29.511,0,0,1,.265,6.65A1.738,1.738,0,0,1,1614.59,742.512Zm-8.184-8.533a1,1,0,0,0-.7.34.744.744,0,0,0-.179.56l.618,5.9a1.353,1.353,0,0,0,1.4,1.124l7.033.067h.014a1.2,1.2,0,0,0,1.261-1.076,29.346,29.346,0,0,0-.246-6.5,1.444,1.444,0,0,0-1.441-.978c-1.283.016-3.587.212-5.439.37-.885.075-1.722.147-2.319.187Z" transform="translate(-1604.983 -715.417)" fill="#fff"/>
          <path id="Path_94781" data-name="Path 94781" d="M1610.778,738.169c1.478-.1,4.689-.427,6.212-.446a1.362,1.362,0,0,1,1.362.941,23.9,23.9,0,0,1,.2,5.253,1.17,1.17,0,0,1-1.237,1.07l-5.62-.054a1.3,1.3,0,0,1-1.329-1.092l-.494-4.715A.913.913,0,0,1,1610.778,738.169Z" transform="translate(-1608.599 -718.998)" fill="#fff" opacity="0.6"/>
          <g id="Group_41567" data-name="Group 41567" transform="translate(15.725 20.984)" opacity="0.6">
            <path id="Path_94782" data-name="Path 94782" d="M1665.438,748.595a1.746,1.746,0,0,0,1.7,1.3l65.072-.555a1.32,1.32,0,0,0-.005-2.641l-65.074-.3A1.746,1.746,0,0,0,1665.438,748.595Z" transform="translate(-1665.38 -746.403)" fill="#fff"/>
          </g>
          <path id="Path_94783" data-name="Path 94783" d="M1612.921,728.723h0a1.08,1.08,0,0,1,1.489.405l1.387,2.487a.347.347,0,0,0,.619-.027l3.441-7.66a.384.384,0,0,1,.734.166,15.122,15.122,0,0,1-4.4,10.525s-2.063-.8-3.725-4.45A1.133,1.133,0,0,1,1612.921,728.723Z" transform="translate(-1610.442 -708.627)" fill="url(#linear-gradient-15)"/>
          <path id="Path_94784" data-name="Path 94784" d="M1614.59,800.4h-.019l-7.033-.067a1.89,1.89,0,0,1-1.929-1.608l-.618-5.9a1.282,1.282,0,0,1,.3-.965,1.544,1.544,0,0,1,1.076-.531h0c.593-.041,1.427-.112,2.31-.187,1.86-.158,4.175-.355,5.478-.372h.028a1.962,1.962,0,0,1,1.941,1.378,29.513,29.513,0,0,1,.265,6.651A1.738,1.738,0,0,1,1614.59,800.4Zm-8.184-8.533a1,1,0,0,0-.7.34.745.745,0,0,0-.179.56l.618,5.9a1.353,1.353,0,0,0,1.4,1.124l7.033.067h.014a1.2,1.2,0,0,0,1.261-1.076,29.343,29.343,0,0,0-.246-6.5,1.44,1.44,0,0,0-1.441-.978c-1.283.016-3.587.212-5.439.37-.885.075-1.722.147-2.319.187Z" transform="translate(-1604.983 -758.237)" fill="#fff"/>
          <path id="Path_94785" data-name="Path 94785" d="M1610.778,796.063c1.478-.1,4.689-.427,6.212-.446a1.361,1.361,0,0,1,1.362.942,23.9,23.9,0,0,1,.2,5.253,1.17,1.17,0,0,1-1.237,1.07l-5.62-.054a1.3,1.3,0,0,1-1.329-1.092l-.494-4.716A.913.913,0,0,1,1610.778,796.063Z" transform="translate(-1608.599 -761.819)" fill="#fff" opacity="0.6"/>
          <g id="Group_41568" data-name="Group 41568" transform="translate(15.725 36.058)" opacity="0.6">
            <path id="Path_94786" data-name="Path 94786" d="M1665.438,806.488a1.746,1.746,0,0,0,1.7,1.3l65.072-.555a1.32,1.32,0,0,0-.005-2.641l-65.074-.3A1.746,1.746,0,0,0,1665.438,806.488Z" transform="translate(-1665.38 -804.297)" fill="#fff"/>
          </g>
          <path id="Path_94787" data-name="Path 94787" d="M1612.921,786.616h0a1.079,1.079,0,0,1,1.489.405l1.387,2.487a.347.347,0,0,0,.619-.027l3.441-7.66a.384.384,0,0,1,.734.166,15.122,15.122,0,0,1-4.4,10.525s-2.063-.8-3.725-4.451A1.132,1.132,0,0,1,1612.921,786.616Z" transform="translate(-1610.442 -751.447)" fill="url(#linear-gradient-16)"/>
          <path id="Path_94788" data-name="Path 94788" d="M1614.59,858.3h-.019l-7.033-.068a1.89,1.89,0,0,1-1.929-1.608l-.618-5.9a1.281,1.281,0,0,1,.3-.964,1.544,1.544,0,0,1,1.076-.531h0c.593-.04,1.427-.112,2.31-.187,1.86-.159,4.175-.355,5.478-.372h.028a1.961,1.961,0,0,1,1.941,1.378,29.51,29.51,0,0,1,.265,6.65A1.738,1.738,0,0,1,1614.59,858.3Zm-8.184-8.533a1,1,0,0,0-.7.34.744.744,0,0,0-.179.561l.618,5.9a1.353,1.353,0,0,0,1.4,1.124l7.033.067h.014a1.2,1.2,0,0,0,1.261-1.076,29.345,29.345,0,0,0-.246-6.5,1.438,1.438,0,0,0-1.441-.978c-1.283.016-3.587.212-5.439.37-.885.076-1.722.147-2.319.187Z" transform="translate(-1604.983 -801.057)" fill="#fff"/>
          <path id="Path_94789" data-name="Path 94789" d="M1610.778,853.956c1.478-.1,4.689-.427,6.212-.446a1.361,1.361,0,0,1,1.362.942,23.9,23.9,0,0,1,.2,5.253,1.17,1.17,0,0,1-1.237,1.07l-5.62-.054a1.3,1.3,0,0,1-1.329-1.092l-.494-4.716A.913.913,0,0,1,1610.778,853.956Z" transform="translate(-1608.599 -804.638)" fill="#fff" opacity="0.6"/>
          <g id="Group_41569" data-name="Group 41569" transform="translate(15.725 51.131)" opacity="0.6">
            <path id="Path_94790" data-name="Path 94790" d="M1665.438,864.382h0a1.746,1.746,0,0,0,1.7,1.3l65.072-.555a1.32,1.32,0,0,0-.005-2.641l-65.074-.3A1.747,1.747,0,0,0,1665.438,864.382Z" transform="translate(-1665.38 -862.19)" fill="#fff"/>
          </g>
          <path id="Path_94791" data-name="Path 94791" d="M1612.921,844.51h0a1.079,1.079,0,0,1,1.489.405l1.387,2.487a.347.347,0,0,0,.619-.027l3.441-7.66a.384.384,0,0,1,.734.166,15.122,15.122,0,0,1-4.4,10.525s-2.063-.8-3.725-4.45A1.133,1.133,0,0,1,1612.921,844.51Z" transform="translate(-1610.442 -794.267)" fill="url(#linear-gradient-17)"/>
        </g>
      </g>
      <path id="Path_94792" data-name="Path 94792" d="M1737.9,255.6c-3.563-2.478-6.66-2.429-8.841-1.786a4.349,4.349,0,0,0-3.089,4.573l.94,10.264,11.19.993S1744.888,260.457,1737.9,255.6Zm-4.921,8.281a2.79,2.79,0,1,1,2.79-2.79A2.79,2.79,0,0,1,1732.981,263.878Z" transform="translate(-1670.876 -253.437)" fill="url(#linear-gradient-18)"/>
      <path id="Path_94793" data-name="Path 94793" d="M1731.96,268.6a.27.27,0,0,1-.269-.246l-.15-1.635a.27.27,0,1,1,.538-.049l.15,1.635a.27.27,0,0,1-.244.293Zm-.293-3.2a.27.27,0,0,1-.268-.246l-.114-1.241a4.151,4.151,0,0,1,2.943-4.356,8.363,8.363,0,0,1,4.09-.168.27.27,0,1,1-.108.529,7.837,7.837,0,0,0-3.829.157,3.61,3.61,0,0,0-2.559,3.789l.114,1.241a.27.27,0,0,1-.244.294Z" transform="translate(-1674.806 -257.707)" fill="#fff"/>
      <path id="Path_94794" data-name="Path 94794" d="M1670.978,313.73v-5.16a3.149,3.149,0,0,1,3.257-3.147l35.58,1.219a3.063,3.063,0,0,1,2.952,2.878l.3,4.958Z" transform="translate(-1630.214 -291.886)" fill="url(#linear-gradient-19)"/>
      <path id="Path_94795" data-name="Path 94795" d="M1716.819,311.362h-1.53a.27.27,0,1,1,0-.54h1.53a.27.27,0,1,1,0,.54Z" transform="translate(-1662.788 -295.881)" fill="#fff"/>
      <path id="Path_94796" data-name="Path 94796" d="M1677.608,316.1a.27.27,0,0,1-.27-.27v-2.088a2.929,2.929,0,0,1,2.925-2.925h5.625a.27.27,0,1,1,0,.54h-5.625a2.388,2.388,0,0,0-2.385,2.385v2.088A.27.27,0,0,1,1677.608,316.1Z" transform="translate(-1634.918 -295.881)" fill="#fff"/>
      <path id="Path_94797" data-name="Path 94797" d="M1821.21,382.365l-8.376-6.83-8.376,6.83a143.5,143.5,0,0,0,.626-21.369q-.169-3.716-.509-7.193a1.06,1.06,0,0,1,1.057-1.162h14.574a1.06,1.06,0,0,1,1.059,1q.279,5.337.347,11.039C1821.678,370.881,1821.524,376.785,1821.21,382.365Z" transform="translate(-1728.941 -326.812)" fill="url(#linear-gradient-20)"/>
      <path id="Path_94798" data-name="Path 94798" d="M1614.9,333.269a3.352,3.352,0,0,1,3.349-3.192l62.217,0a4.6,4.6,0,0,1,4.531,3.814l.052.3a3.949,3.949,0,0,1-3.891,4.623h-63.831a2.568,2.568,0,0,1-2.565-2.691Z" transform="translate(-1588.633 -310.121)" fill="url(#linear-gradient-21)"/>
    </g>
    <g id="Group_41575" data-name="Group 41575" transform="translate(1482.154 288.215)">
      <path id="Path_94799" data-name="Path 94799" d="M2008.269,987.6c-3.26.15-6.414.056-8.521-.052,1.918-1.365,6.336-4.335,10.033-5.518l2.538-.152a10.341,10.341,0,0,1,1.167,4.3C2013.066,986.7,2011.836,987.436,2008.269,987.6Z" transform="translate(-1973.085 -864.604)" fill="url(#linear-gradient-22)"/>
      <path id="Path_94800" data-name="Path 94800" d="M1999.113,999.784l.026-.018c2.106.108,5.261.2,8.52.052,3.568-.164,4.8-.9,5.218-1.421.014.138.029.275.04.42a1.188,1.188,0,0,1-1.092,1.283c-2.669.2-9.288.659-12.479.491A.445.445,0,0,1,1999.113,999.784Z" transform="translate(-1972.477 -876.822)" fill="url(#linear-gradient-23)"/>
      <path id="Path_94801" data-name="Path 94801" d="M2121.962,987.147a24.591,24.591,0,0,1,.917-4.307c.464-.887,2.052,0,2.052,0a4.216,4.216,0,0,1,1.628,1.386c.327.552,1.232,2.124,1.845,3.191a.718.718,0,0,1,.1.38l-6.359.223A1.268,1.268,0,0,1,2121.962,987.147Z" transform="translate(-2063.468 -865.024)" fill="url(#linear-gradient-24)"/>
      <path id="Path_94802" data-name="Path 94802" d="M2129.052,1003a.724.724,0,0,1-.7.7l-4.53.125a1.279,1.279,0,0,1-1.124-.606Z" transform="translate(-2064.019 -880.226)" fill="url(#linear-gradient-25)"/>
      <path id="Path_94803" data-name="Path 94803" d="M2120.14,962.172c.055.184.877,4.167,1.237,5.915a1,1,0,0,0,1.027.8c.269-.013.582-.038.911-.08a1.205,1.205,0,0,0,1.048-1.149c.059-1.531.087-4.472-.475-5.611C2123.112,960.473,2120.14,962.172,2120.14,962.172Z" transform="translate(-2062.131 -849.441)" fill="url(#linear-gradient-26)"/>
      <path id="Path_94804" data-name="Path 94804" d="M2039.88,965.207c-.353-.011.141,1.82-.393,3.619a.925.925,0,0,1-.847.73c-.274,0-.6,0-.929-.028a1.022,1.022,0,0,1-.941-.921l-.434-4.668Z" transform="translate(-2000.147 -851.337)" fill="url(#linear-gradient-27)"/>
      <path id="Path_94805" data-name="Path 94805" d="M2012.087,771.8c.157.766,5.709,33.151,6.046,49.909a.571.571,0,0,0,.491.555,11.209,11.209,0,0,0,3.408-.022.4.4,0,0,0,.331-.369c.194-3.123,1.755-29.527-.157-41.957,0,0,15.787,33.226,18.18,42.388a.481.481,0,0,0,.493.361,11.925,11.925,0,0,0,3.2-.568.836.836,0,0,0,.527-.982c-1.337-5.483-10.707-43.259-17.069-51.582Z" transform="translate(-1982.212 -707.549)" fill="url(#linear-gradient-28)"/>
      <path id="Path_94806" data-name="Path 94806" d="M2044.362,802.895a.207.207,0,0,0,.148-.352l-2.114-2.162a.207.207,0,0,0-.3.29l2.115,2.162A.205.205,0,0,0,2044.362,802.895Z" transform="translate(-2004.367 -730.316)" fill="url(#linear-gradient-29)"/>
      <path id="Path_94807" data-name="Path 94807" d="M1979.133,615.053c4.723-.71,13.993-1.727,20.04.047l-.656,18.688-21.907-2.362-1.858-2.641S1975.613,615.582,1979.133,615.053Z" transform="translate(-1954.597 -592.591)" fill="url(#linear-gradient-30)"/>
      <path id="Path_94808" data-name="Path 94808" d="M2013.09,579.3s.438,7.433.355,9.745c0,0-6.085,1-7.534-.045l1.144-8.811Z" transform="translate(-1977.644 -566.843)" fill="url(#linear-gradient-31)"/>
      <g id="Group_41573" data-name="Group 41573" transform="translate(26.324)">
        <path id="Path_94809" data-name="Path 94809" d="M2001.653,550.707s-2.45,4.3-2.837,6.655-1.062,3.836,1.624,4.608a5.855,5.855,0,0,0,6.645-2.569s2.349-3.424,2.071-4.961S2001.653,550.707,2001.653,550.707Z" transform="translate(-1998.446 -545.695)" fill="url(#linear-gradient-32)"/>
        <path id="Path_94810" data-name="Path 94810" d="M2008.773,543.367l-.346-.037s1.741-2.772.543-3.421-6.054-2.2-6.936-4.073a3.3,3.3,0,0,1,1.751-4.37.185.185,0,0,1,.225.112l.091.228a.187.187,0,0,0,.347,0h0a.186.186,0,0,1,.339-.015c.271.562,1.067,1.514,3.4,2.21,3.312.987,5.4,2.6,5.2,4.937a.187.187,0,0,0,.272.184c.266-.125.673-.154,1.158.352.844.88.246,2.863-1.967,4.309a.186.186,0,0,0-.023.3c.343.28.831.91-.676,1.518a3.817,3.817,0,0,1-2.71.326.188.188,0,0,1-.12-.207l.351-2.056a.187.187,0,0,0-.164-.218Z" transform="translate(-2000.887 -531.457)" fill="url(#linear-gradient-33)"/>
        <path id="Path_94811" data-name="Path 94811" d="M2028.229,573s1.06-2.8,2.265-1.855-1.018,3.158-2.069,3.154Z" transform="translate(-2020.475 -560.669)" fill="url(#linear-gradient-34)"/>
      </g>
      <g id="Group_41574" data-name="Group 41574" transform="translate(0 33.152)">
        <path id="Path_94812" data-name="Path 94812" d="M1927.45,662.714l.581-2.284a2.184,2.184,0,0,1,2.553-1.6l54.709,11.162a2.292,2.292,0,0,1,1.784,2.718l-3.335,15.81Z" transform="translate(-1919.611 -658.784)" fill="url(#linear-gradient-35)"/>
        <path id="Path_94813" data-name="Path 94813" d="M1907.527,693.792l4.115-29.574a1.058,1.058,0,0,1,1.277-.887l56.191,12.478a2.212,2.212,0,0,1,1.676,2.656l-4.716,20.443Z" transform="translate(-1904.875 -662.128)" fill="#fff"/>
        <path id="Path_94814" data-name="Path 94814" d="M1913.226,697.291l1.576-26.4a1.112,1.112,0,0,1,1.34-1.022l56.782,12.016a1.537,1.537,0,0,1,1.2,1.744L1971.1,702.7Z" transform="translate(-1909.091 -666.968)" fill="#fff"/>
        <path id="Path_94815" data-name="Path 94815" d="M1897.365,711.795l3.575-28.592a2.49,2.49,0,0,1,2.933-2.138l58.226,10.99a2.176,2.176,0,0,1,1.734,2.541l-4.918,26.055a2.354,2.354,0,0,1-2.625,1.9l-56.445-7.538A2.883,2.883,0,0,1,1897.365,711.795Z" transform="translate(-1897.342 -675.231)" fill="url(#linear-gradient-36)"/>
        <path id="Path_94816" data-name="Path 94816" d="M1951.643,681.552h0a2.235,2.235,0,0,1-2.611,1.782l-12.982-2.45a2.236,2.236,0,0,1-1.782-2.611h0a2.235,2.235,0,0,1,2.611-1.782l12.982,2.45A2.236,2.236,0,0,1,1951.643,681.552Z" transform="translate(-1924.625 -671.852)" fill="url(#linear-gradient-37)"/>
      </g>
      <path id="Path_94817" data-name="Path 94817" d="M2045.077,626.055l6.11-8.149s9.819,10.43,11.7,23.669l-6.125,2.987C2054.864,640.1,2051.365,634.065,2045.077,626.055Z" transform="translate(-2006.612 -595.398)" fill="url(#linear-gradient-38)"/>
      <path id="Path_94818" data-name="Path 94818" d="M2075.509,730a35.481,35.481,0,0,1,2.825-4.236,2.95,2.95,0,0,0-1.834-.249c-1.206.148-2.15-.44-2.114-1.1l5.752-1.764c.259-.54,1.4-3.6-1.7-10.855l6.125-2.987a27.591,27.591,0,0,1-2.151,15.65s-1.9,5.907-4.087,7.218C2072.626,735.1,2075.231,730.467,2075.509,730Z" transform="translate(-2028.289 -662.636)" fill="url(#linear-gradient-39)"/>
    </g>
    <g id="Group_41576" data-name="Group 41576" transform="translate(1366.014 278.548)">
      <path id="Path_94819" data-name="Path 94819" d="M1512.211,494.71,1511,496.238l0,.006a.257.257,0,0,1-.4-.318l0,0,1.252-1.51a.233.233,0,0,1,.363.293Z" transform="translate(-1495.111 -494.327)" fill="#fff"/>
      <path id="Path_94820" data-name="Path 94820" d="M1493.592,515.754l-2.046,3.264-.01.016a.354.354,0,0,1-.6-.375l0-.006,2.127-3.253a.316.316,0,0,1,.532.341Z" transform="translate(-1480.571 -509.807)" fill="#fff"/>
      <path id="Path_94821" data-name="Path 94821" d="M1477.275,544.711l-1.641,3.48-.01.021a.432.432,0,0,1-.782-.368l0-.007,1.722-3.49a.4.4,0,0,1,.716.345Z" transform="translate(-1468.676 -531.159)" fill="#fff"/>
      <path id="Path_94822" data-name="Path 94822" d="M1464.745,575.532l-1.191,3.652-.009.027a.51.51,0,1,1-.97-.316l0-.009,1.274-3.683a.476.476,0,0,1,.9.3Z" transform="translate(-1459.614 -553.909)" fill="#fff"/>
      <path id="Path_94823" data-name="Path 94823" d="M1456.458,607.83l-.71,3.77-.007.033a.568.568,0,1,1-1.117-.21v-.006l.764-3.827a.547.547,0,0,1,1.074.208Z" transform="translate(-1453.746 -577.775)" fill="#fff"/>
      <path id="Path_94824" data-name="Path 94824" d="M1452.7,641.166l-.188,3.828,0,.037a.616.616,0,0,1-1.231-.06v-.007l.234-3.9a.6.6,0,0,1,1.188.065Z" transform="translate(-1451.277 -602.446)" fill="#fff"/>
      <path id="Path_94825" data-name="Path 94825" d="M1452.738,674.885l.339,3.815,0,.04a.664.664,0,1,1-1.323.118v-.007l-.3-3.9a.643.643,0,0,1,1.282-.108Z" transform="translate(-1451.405 -627.412)" fill="#fff"/>
      <path id="Path_94826" data-name="Path 94826" d="M1456.761,708.345l.857,3.731.009.041a.712.712,0,1,1-1.388.319v-.008l-.835-3.821a.691.691,0,0,1,1.348-.3Z" transform="translate(-1454.317 -652.196)" fill="#fff"/>
      <path id="Path_94827" data-name="Path 94827" d="M1465.314,740.92l1.338,3.585.015.04a.749.749,0,1,1-1.4.523v0l-1.349-3.673a.739.739,0,1,1,1.387-.51Z" transform="translate(-1460.589 -676.33)" fill="#fff"/>
      <path id="Path_94828" data-name="Path 94828" d="M1478.182,772.155l1.788,3.384.02.038a.765.765,0,0,1-1.352.714v0l-1.815-3.465a.758.758,0,0,1,1.343-.7Z" transform="translate(-1470.106 -699.492)" fill="#fff"/>
      <path id="Path_94829" data-name="Path 94829" d="M1494.962,801.489l2.2,3.132.024.035a.781.781,0,1,1-1.278.9v0l-2.236-3.21a.773.773,0,1,1,1.269-.884Z" transform="translate(-1482.53 -721.245)" fill="#fff"/>
      <path id="Path_94830" data-name="Path 94830" d="M1515.289,828.481l2.573,2.831.03.033a.8.8,0,1,1-1.179,1.071l0,0-2.622-2.906a.79.79,0,0,1,1.172-1.058Z" transform="translate(-1497.585 -741.264)" fill="#fff"/>
      <path id="Path_94831" data-name="Path 94831" d="M1538.854,852.683l2.917,2.469.037.031a.812.812,0,1,1-1.049,1.24l0,0-2.982-2.542a.805.805,0,1,1,1.045-1.225Z" transform="translate(-1515.045 -759.215)" fill="#fff"/>
      <path id="Path_94832" data-name="Path 94832" d="M1565.439,873.49l1.617,1.008.808.5c.271.165.535.343.813.5a.828.828,0,1,1-.8,1.451l0,0-.022-.012c-.286-.159-.557-.343-.836-.514l-.832-.523-1.662-1.045a.821.821,0,1,1,.874-1.39Z" transform="translate(-1534.753 -774.656)" fill="#fff"/>
      <path id="Path_94833" data-name="Path 94833" d="M1594.943,889.984q1.732.792,3.517,1.465a.833.833,0,0,1-.586,1.56q-1.838-.688-3.627-1.5a.837.837,0,0,1,.7-1.523Z" transform="translate(-1556.66 -786.913)" fill="#fff"/>
      <path id="Path_94834" data-name="Path 94834" d="M1626.648,901.595l3.7.919.05.012a.822.822,0,0,1-.393,1.6l-3.808-.934a.827.827,0,0,1,.394-1.606h0Z" transform="translate(-1580.191 -795.529)" fill="#fff"/>
      <path id="Path_94835" data-name="Path 94835" d="M1659.819,908.441l3.8.4.046,0a.809.809,0,0,1-.168,1.61l-3.895-.4a.816.816,0,0,1,.167-1.623h0Z" transform="translate(-1604.82 -800.613)" fill="#fff"/>
      <path id="Path_94836" data-name="Path 94836" d="M1693.657,910.683l3.828-.062h.04a.776.776,0,0,1,.031,1.551l-3.909.093a.791.791,0,1,1-.037-1.581h.047Z" transform="translate(-1629.944 -802.232)" fill="#fff"/>
      <path id="Path_94837" data-name="Path 94837" d="M1727.578,907.8l3.8-.493.035,0a.742.742,0,0,1,.2,1.47l-3.868.532a.757.757,0,1,1-.207-1.5h.006Z" transform="translate(-1655.125 -799.773)" fill="#fff"/>
      <path id="Path_94838" data-name="Path 94838" d="M1761.169,901.435l3.738-.871.029-.007a.677.677,0,0,1,.317,1.316l-3.784.94a.705.705,0,0,1-.34-1.369l.006,0Z" transform="translate(-1680.058 -794.776)" fill="#fff"/>
      <path id="Path_94839" data-name="Path 94839" d="M1794.095,891.834l3.643-1.227.023-.008a.612.612,0,0,1,.4,1.157l-3.672,1.3a.64.64,0,0,1-.427-1.208l.006,0Z" transform="translate(-1704.496 -787.399)" fill="#fff"/>
      <path id="Path_94840" data-name="Path 94840" d="M1826.065,879.279l3.522-1.552.019-.008a.547.547,0,0,1,.448,1l-3.537,1.621a.575.575,0,1,1-.479-1.046l.005,0Z" transform="translate(-1728.214 -777.863)" fill="#fff"/>
      <path id="Path_94841" data-name="Path 94841" d="M1856.923,864.152l3.389-1.832.014-.008a.447.447,0,0,1,.435.782l-3.374,1.93a.494.494,0,1,1-.491-.858l.008,0Z" transform="translate(-1751.103 -766.462)" fill="#fff"/>
      <path id="Path_94842" data-name="Path 94842" d="M1886.546,846.612l3.233-2.1.01-.006a.341.341,0,0,1,.379.567l-3.2,2.2a.388.388,0,1,1-.438-.639l.006,0Z" transform="translate(-1773.078 -753.288)" fill="#fff"/>
      <path id="Path_94843" data-name="Path 94843" d="M1914.818,830.217l1.562-1.17,0,0a.233.233,0,0,1,.286.369l-1.531,1.225a.265.265,0,1,1-.331-.414l.006,0Z" transform="translate(-1794.046 -741.861)" fill="#fff"/>
    </g>
  </g>
</svg>
