<svg id="Metaphor_illustration" data-name="Metaphor illustration" xmlns="http://www.w3.org/2000/svg" xmlns:xlink="http://www.w3.org/1999/xlink" width="213.178" height="210.85" viewBox="0 0 213.178 210.85">
  <defs>
    <linearGradient id="linear-gradient" x1="1.046" y1="1.038" x2="0.116" y2="0.146" gradientUnits="objectBoundingBox">
      <stop offset="0" stop-color="#dae3fe"/>
      <stop offset="1" stop-color="#e9effd"/>
    </linearGradient>
    <linearGradient id="linear-gradient-2" x1="0.936" y1="-0.078" x2="-0.19" y2="1.416" gradientUnits="objectBoundingBox">
      <stop offset="0" stop-color="#ff928e"/>
      <stop offset="1" stop-color="#fe7062"/>
    </linearGradient>
    <linearGradient id="linear-gradient-3" x1="1.214" y1="-0.449" x2="-0.632" y2="2.003" xlink:href="#linear-gradient-2"/>
    <linearGradient id="linear-gradient-4" x1="2.344" y1="-1.948" x2="-2.422" y2="4.38" xlink:href="#linear-gradient-2"/>
    <linearGradient id="linear-gradient-5" x1="-606.203" y1="14.956" x2="-614.203" y2="15.815" gradientUnits="objectBoundingBox">
      <stop offset="0" stop-color="#2b3582"/>
      <stop offset="1" stop-color="#150e42"/>
    </linearGradient>
    <linearGradient id="linear-gradient-6" x1="-78.159" y1="71.368" x2="-78.48" y2="74.815" gradientUnits="objectBoundingBox">
      <stop offset="0" stop-color="#4f52ff"/>
      <stop offset="1" stop-color="#4042e2"/>
    </linearGradient>
    <linearGradient id="linear-gradient-7" x1="-55.988" y1="79.985" x2="-56.288" y2="84.725" xlink:href="#linear-gradient-6"/>
    <linearGradient id="linear-gradient-8" x1="-33.309" y1="54.703" x2="-33.751" y2="57.922" xlink:href="#linear-gradient-6"/>
    <linearGradient id="linear-gradient-9" x1="15.327" y1="40.506" x2="14.984" y2="44.915" gradientUnits="objectBoundingBox">
      <stop offset="0" stop-color="#50e7b7"/>
      <stop offset="0.996" stop-color="#323992"/>
    </linearGradient>
    <linearGradient id="linear-gradient-10" x1="23.097" y1="43.787" x2="22.754" y2="48.196" xlink:href="#linear-gradient-9"/>
    <linearGradient id="linear-gradient-11" x1="-6.74" y1="-5.099" x2="-6.069" y2="-5.877" gradientUnits="objectBoundingBox">
      <stop offset="0" stop-color="#feb3b1"/>
      <stop offset="1" stop-color="#ff928e"/>
    </linearGradient>
    <linearGradient id="linear-gradient-12" x1="-5.903" y1="-6.684" x2="-7.954" y2="-3.585" xlink:href="#linear-gradient-11"/>
    <linearGradient id="linear-gradient-13" x1="-14.18" y1="-11.149" x2="-16.652" y2="-8.149" xlink:href="#linear-gradient-2"/>
    <linearGradient id="linear-gradient-14" x1="-7.848" y1="-5.654" x2="-7.178" y2="-6.433" xlink:href="#linear-gradient-11"/>
    <linearGradient id="linear-gradient-15" x1="-7.05" y1="-7.259" x2="-9.101" y2="-4.159" xlink:href="#linear-gradient-11"/>
    <linearGradient id="linear-gradient-16" x1="-16.775" y1="-12.089" x2="-19.247" y2="-9.089" xlink:href="#linear-gradient-2"/>
    <linearGradient id="linear-gradient-17" x1="-9.549" y1="-7.828" x2="-8.878" y2="-8.607" xlink:href="#linear-gradient-11"/>
    <linearGradient id="linear-gradient-18" x1="-8.809" y1="-9.507" x2="-10.86" y2="-6.408" xlink:href="#linear-gradient-11"/>
    <linearGradient id="linear-gradient-19" x1="-20.755" y1="-15.768" x2="-23.227" y2="-12.768" xlink:href="#linear-gradient-2"/>
    <linearGradient id="linear-gradient-20" x1="0.361" y1="1.881" x2="0.51" y2="0.385" xlink:href="#linear-gradient-11"/>
    <linearGradient id="linear-gradient-21" x1="-0.226" y1="0.101" x2="1.275" y2="1.796" gradientUnits="objectBoundingBox">
      <stop offset="0" stop-color="#09005d"/>
      <stop offset="1" stop-color="#1a0f91"/>
    </linearGradient>
    <linearGradient id="linear-gradient-22" x1="0.774" y1="0.643" x2="-0.533" y2="0.057" xlink:href="#linear-gradient-11"/>
    <linearGradient id="linear-gradient-23" x1="-0.245" y1="0.324" x2="-9.364" y2="-2.062" xlink:href="#linear-gradient-11"/>
    <linearGradient id="linear-gradient-24" x1="3.788" y1="1.632" x2="-3.353" y2="-0.883" xlink:href="#linear-gradient-11"/>
    <linearGradient id="linear-gradient-25" x1="-0.382" y1="-2.02" x2="1.066" y2="1.655" xlink:href="#linear-gradient-21"/>
    <linearGradient id="linear-gradient-26" x1="-0.022" y1="-0.9" x2="1.22" y2="2.65" xlink:href="#linear-gradient-21"/>
    <linearGradient id="linear-gradient-27" x1="-0.395" y1="-0.376" x2="1.125" y2="1.341" xlink:href="#linear-gradient-21"/>
    <linearGradient id="linear-gradient-28" x1="0.008" y1="0.057" x2="1.644" y2="1.539" xlink:href="#linear-gradient-21"/>
    <linearGradient id="linear-gradient-29" x1="-0.334" y1="-0.146" x2="1.36" y2="1.322" xlink:href="#linear-gradient-21"/>
    <linearGradient id="linear-gradient-30" x1="-1.089" y1="-0.634" x2="1.091" y2="1.095" xlink:href="#linear-gradient-21"/>
    <linearGradient id="linear-gradient-31" x1="-1.238" y1="-0.867" x2="0.966" y2="0.866" xlink:href="#linear-gradient-21"/>
  </defs>
  <path id="Path_94853" data-name="Path 94853" d="M2603.518,395.382c-23.794,17.8-59.174,14.156-96.408,11.665-9.7-.649-14.546-.973-18.976-2.41-41.363-13.411-75.227-87.237-48.106-143.419,16.421-34.016,51.665-54.245,85.275-57.906,5.959-.649,46.812-4.452,79.992,23.3a95.451,95.451,0,0,1,19.373,21.981C2648.826,287.081,2650.664,360.1,2603.518,395.382Z" transform="translate(-2430.287 -202.776)" fill="url(#linear-gradient)"/>
  <g id="Group_41583" data-name="Group 41583" transform="translate(94.643 12.966)">
    <g id="Group_41581" data-name="Group 41581" transform="translate(0 6.662)">
      <circle id="Ellipse_107" data-name="Ellipse 107" cx="45.892" cy="45.892" r="45.892" transform="translate(9.499 9.499)" fill="#fff" opacity="0.57"/>
      <g id="Group_41578" data-name="Group 41578" transform="translate(0 0)">
        <circle id="Ellipse_108" data-name="Ellipse 108" cx="39.167" cy="39.167" r="39.167" transform="translate(0 55.39) rotate(-45)" fill="url(#linear-gradient-2)"/>
        <path id="Path_94854" data-name="Path 94854" d="M2891.3,415.7a41.129,41.129,0,1,1,41.129-41.129A41.175,41.175,0,0,1,2891.3,415.7Zm0-80.3a39.167,39.167,0,1,0,39.167,39.167A39.211,39.211,0,0,0,2891.3,335.4Z" transform="translate(-2835.914 -319.178)" fill="#fff"/>
      </g>
      <g id="Group_41579" data-name="Group 41579" transform="translate(21.622 21.622)">
        <circle id="Ellipse_109" data-name="Ellipse 109" cx="23.878" cy="23.878" r="23.878" transform="translate(0 33.769) rotate(-45)" fill="url(#linear-gradient-3)"/>
        <path id="Path_94855" data-name="Path 94855" d="M2934.962,444.067a25.84,25.84,0,1,1,25.84-25.84A25.869,25.869,0,0,1,2934.962,444.067Zm0-47.756a21.916,21.916,0,1,0,21.916,21.916A21.941,21.941,0,0,0,2934.962,396.311Z" transform="translate(-2901.193 -384.459)" fill="#fff"/>
      </g>
      <g id="Group_41580" data-name="Group 41580" transform="translate(44.177 44.177)">
        <circle id="Ellipse_110" data-name="Ellipse 110" cx="9.251" cy="9.251" r="9.251" transform="translate(1.962 1.962)" fill="url(#linear-gradient-4)"/>
        <path id="Path_94856" data-name="Path 94856" d="M2976.73,471.208a11.213,11.213,0,1,1,11.213-11.213A11.226,11.226,0,0,1,2976.73,471.208Zm0-18.5a7.289,7.289,0,1,0,7.29,7.289A7.3,7.3,0,0,0,2976.73,452.705Z" transform="translate(-2965.517 -448.782)" fill="#fff"/>
      </g>
    </g>
    <g id="Group_41582" data-name="Group 41582" transform="translate(55.2)">
      <rect id="Rectangle_38096" data-name="Rectangle 38096" width="1.749" height="66.236" transform="matrix(-0.707, -0.707, 0.707, -0.707, 10.226, 54.347)" fill="url(#linear-gradient-5)"/>
      <path id="Path_94857" data-name="Path 94857" d="M3017.879,445.749c.709-.71,4.054,2.636,3.345,3.345l-12.407,9.754a.493.493,0,0,1-.692-.692Z" transform="translate(-3008.014 -395.623)" fill="url(#linear-gradient-6)"/>
      <path id="Path_94858" data-name="Path 94858" d="M3190.43,281.828l6.3.626-8.65,8.65a13.371,13.371,0,0,1-10.778,3.851h0Z" transform="translate(-3133.395 -274.29)" fill="url(#linear-gradient-7)"/>
      <path id="Path_94859" data-name="Path 94859" d="M3185.474,259.067l-.626-6.3-8.65,8.65a13.375,13.375,0,0,0-3.851,10.778h0Z" transform="translate(-3129.676 -252.766)" fill="url(#linear-gradient-8)"/>
    </g>
  </g>
  <g id="Group_41584" data-name="Group 41584" transform="translate(12.298 100.781)">
    <path id="Path_94860" data-name="Path 94860" d="M2478.623,592.7c.3-.634.687-1.548,1.231-1.323,8.812,3.646,31.294,15.891,38.934,48.04,9.585,40.337,23.364,51.563,37.147,56.583a32.315,32.315,0,0,1-12.2,2.647C2500.907,699.175,2472.094,606.283,2478.623,592.7Z" transform="translate(-2477.701 -591.344)" fill="#bdd0fb"/>
    <path id="Path_94861" data-name="Path 94861" d="M2518.028,635.519c2.444,4.023,4.8,8.089,7,12.232q3.333,6.2,6.26,12.572c1.932,4.256,3.779,8.545,5.431,12.9,1.673,4.35,3.148,8.764,4.612,13.2a140.8,140.8,0,0,0,4.923,13.23,46.734,46.734,0,0,0,7.733,12.123c.812.9,1.646,1.79,2.525,2.625.864.85,1.768,1.665,2.686,2.463a52.93,52.93,0,0,0,5.873,4.394A54.5,54.5,0,0,0,2578.5,727.4a.956.956,0,0,0,1.189-.58.889.889,0,0,0-.583-1.121h0c-1.137-.382-2.269-.775-3.378-1.216-.559-.212-1.105-.447-1.658-.672-.542-.244-1.094-.469-1.627-.729a50.452,50.452,0,0,1-6.2-3.443,53.744,53.744,0,0,1-10.655-9.136,45.338,45.338,0,0,1-4.184-5.53,50.416,50.416,0,0,1-3.3-6.078c-1.937-4.2-3.434-8.607-4.957-13.023s-3.1-8.841-4.855-13.2q-1.309-3.271-2.741-6.5c-.47-1.078-.963-2.146-1.453-3.215s-1.009-2.126-1.525-3.184q-3.109-6.341-6.624-12.484c-2.364-4.082-4.841-8.1-7.477-12.027a.262.262,0,0,0-.35-.073A.234.234,0,0,0,2518.028,635.519Z" transform="translate(-2507.543 -623.794)" fill="#fff" style="mix-blend-mode: soft-light;isolation: isolate"/>
  </g>
  <g id="Group_41585" data-name="Group 41585" transform="translate(153.233 122.271)">
    <path id="Path_94862" data-name="Path 94862" d="M3069.053,675.114c-.3-.447-.692-1.1-1.084-.868-6.343,3.719-22.208,15.436-24.583,40.613-2.981,31.588-12.3,41.587-22.3,46.888a25.144,25.144,0,0,0,9.612.677C3063.491,758.165,3075.507,684.689,3069.053,675.114Z" transform="translate(-3021.088 -674.199)" fill="#bdd0fb"/>
    <path id="Path_94863" data-name="Path 94863" d="M3075.456,711.288c-1.435,3.312-2.8,6.648-4.035,10.024q-1.88,5.054-3.43,10.2c-1.018,3.433-1.968,6.882-2.761,10.361-.81,3.476-1.462,6.979-2.1,10.5a107.177,107.177,0,0,1-2.338,10.554,35.709,35.709,0,0,1-4.6,10.021c-.524.77-1.065,1.535-1.648,2.262s-1.172,1.453-1.788,2.157a40.872,40.872,0,0,1-4.016,3.966,42.266,42.266,0,0,1-9.6,6.111.74.74,0,0,1-.971-.31.678.678,0,0,1,.325-.912h0c.829-.413,1.651-.834,2.451-1.288.4-.221.8-.458,1.194-.689s.786-.474,1.166-.729a39.087,39.087,0,0,0,4.371-3.282,41.385,41.385,0,0,0,7.159-8.077,34.738,34.738,0,0,0,2.6-4.642,38.415,38.415,0,0,0,1.868-4.962,106.082,106.082,0,0,0,2.386-10.4c.693-3.509,1.415-7.032,2.289-10.523q.648-2.62,1.4-5.217c.243-.867.5-1.729.764-2.592s.542-1.72.822-2.577q1.694-5.139,3.718-10.174c1.367-3.348,2.827-6.663,4.419-9.92a.2.2,0,0,1,.26-.094A.178.178,0,0,1,3075.456,711.288Z" transform="translate(-3033.683 -701.482)" fill="#fff" style="mix-blend-mode: soft-light;isolation: isolate"/>
  </g>
  <g id="Group_41586" data-name="Group 41586" transform="translate(39.289 24.488)">
    <path id="Path_94864" data-name="Path 94864" d="M2589.149,298.745c-.234-1.3,1.6-2.08,2.656-1.141,10.694,9.535,36.115,37.833,27.01,85.23-11.423,59.467,1.8,81.834,18.959,95.827,0,0-24.179-7.2-38.466-29.929C2564.232,392.926,2593.316,321.776,2589.149,298.745Z" transform="translate(-2581.767 -297.191)" fill="#bdd0fb"/>
    <path id="Path_94865" data-name="Path 94865" d="M2639.3,375.3c1.058,6.71,1.962,13.434,2.582,20.177q.991,10.109,1.269,20.248c.153,6.755.16,13.512-.164,20.259-.288,6.748-.909,13.478-1.561,20.233a184.7,184.7,0,0,0-1.12,20.435,60.519,60.519,0,0,0,3.729,20.412c.628,1.641,1.293,3.278,2.063,4.865.736,1.6,1.554,3.173,2.4,4.731a71.9,71.9,0,0,0,5.883,9.006,78.629,78.629,0,0,0,15.918,15.319,1.667,1.667,0,0,0,2.122-.16,1.192,1.192,0,0,0-.15-1.819l0,0c-1.437-1.111-2.857-2.235-4.215-3.41-.69-.578-1.349-1.182-2.021-1.774-.645-.614-1.318-1.206-1.94-1.837a71.053,71.053,0,0,1-6.972-7.9,71.907,71.907,0,0,1-9.934-17.911,58.86,58.86,0,0,1-2.67-9.655,65.267,65.267,0,0,1-1.02-9.933,182.665,182.665,0,0,1,.939-20.174c.541-6.76,1.032-13.555,1.2-20.358q.142-5.1.073-10.2c-.012-1.7-.061-3.4-.107-5.1q-.1-2.549-.232-5.1-.571-10.187-1.863-20.32c-.9-6.747-2.008-13.472-3.411-20.148a.4.4,0,0,0-.47-.282A.362.362,0,0,0,2639.3,375.3Z" transform="translate(-2624.371 -354.745)" fill="#fff" style="mix-blend-mode: soft-light;isolation: isolate"/>
  </g>
  <g id="Group_41601" data-name="Group 41601" transform="translate(0.329 4.807)">
    <g id="Group_41590" data-name="Group 41590" transform="translate(5.775 2.608)">
      <g id="Group_41589" data-name="Group 41589" transform="translate(0 0)">
        <rect id="Rectangle_38097" data-name="Rectangle 38097" width="89.63" height="41.791" transform="translate(0 79.565) rotate(-62.586)" fill="#91b3fa"/>
        <path id="Path_94866" data-name="Path 94866" d="M2524.742,263.936l21.227,11.01a3.762,3.762,0,0,0,1.824,4.936c.06.031.2.1.207.1L2514.691,344.2s-.141-.08-.2-.112a3.7,3.7,0,0,0-5.059,1.339.226.226,0,0,1-.042.051l-20.749-10.761c1.519-2.929-.283-4.211-2.175-5.192-.06-.031-.085-.012-.086-.009l33.309-64.222s.009.011.069.043A3.659,3.659,0,0,0,2524.742,263.936Z" transform="translate(-2477.935 -255.487)" fill="#fff" opacity="0.5"/>
        <g id="Group_41588" data-name="Group 41588" transform="translate(21.293 31.503)">
          <circle id="Ellipse_111" data-name="Ellipse 111" cx="13.147" cy="13.147" r="13.147" transform="translate(0 23.153) rotate(-61.704)" fill="url(#linear-gradient-9)"/>
          <g id="Group_41587" data-name="Group 41587" transform="translate(8.912 10.573)">
            <path id="Path_94867" data-name="Path 94867" d="M2586.437,406.089l-1.234-.64a11.332,11.332,0,0,1-2.546,3.073.8.8,0,0,1-1.048-.043l-.987-.91a.811.811,0,0,1,.036-1.221,9.412,9.412,0,0,0,2.331-2.848c.643-1.239.7-2.381-.159-2.828-.777-.4-1.609.071-2.965,1.554-1.946,2.109-3.933,3.317-6.1,2.2-1.953-1.013-2.7-3.215-1.818-5.9l-1.234-.64a.81.81,0,0,1-.346-1.092l.376-.725a.81.81,0,0,1,1.092-.346l1.108.574a10.347,10.347,0,0,1,1.916-2.489.806.806,0,0,1,1.1,0l.913.84a.808.808,0,0,1-.007,1.2,8.428,8.428,0,0,0-1.885,2.438c-.762,1.47-.372,2.206.175,2.489.672.349,1.591-.294,3.171-1.9,2.235-2.306,3.958-2.851,5.995-1.795,1.869.969,2.831,3.227,1.856,6.133l1.381.716a.81.81,0,0,1,.347,1.092l-.377.725A.809.809,0,0,1,2586.437,406.089Z" transform="translate(-2570.28 -393.591)" fill="#fff"/>
          </g>
        </g>
      </g>
      <path id="Path_94868" data-name="Path 94868" d="M2473.335,481.937a.177.177,0,0,1-.063-.019l-6.956-3.608a.178.178,0,0,1-.076-.241l10.19-19.647a.179.179,0,1,1,.317.165l-10.108,19.489,6.8,3.525a.179.179,0,0,1-.1.337Z" transform="translate(-2463.004 -399.459)" fill="#fff"/>
      <path id="Path_94869" data-name="Path 94869" d="M2703.994,318.381a.179.179,0,0,1-.139-.26l9.981-19.244-7.286-3.778a.179.179,0,0,1,.165-.317l7.444,3.861a.18.18,0,0,1,.077.241l-10.064,19.4A.178.178,0,0,1,2703.994,318.381Z" transform="translate(-2638.99 -278.317)" fill="#fff"/>
    </g>
    <g id="Group_41594" data-name="Group 41594" transform="translate(1.135 0)">
      <g id="Group_41593" data-name="Group 41593" transform="translate(0)">
        <rect id="Rectangle_38098" data-name="Rectangle 38098" width="89.63" height="42.065" transform="translate(0 67.791) rotate(-49.143)" fill="#bdd0fb"/>
        <path id="Path_94870" data-name="Path 94870" d="M2525.221,258.167l18.086,15.642a3.843,3.843,0,0,0,.706,5.279c.051.044.047.022.258.2l-47.327,54.719c-.205-.182-.19-.174-.242-.218a3.758,3.758,0,0,0-5.275.1c-.019.022-.1.017-.1.017l-17.679-15.29c2.158-2.5.679-4.2-.933-5.591a.3.3,0,0,0-.106-.064l47.326-54.719a.341.341,0,0,0,.081.093A3.688,3.688,0,0,0,2525.221,258.167Z" transform="translate(-2463.1 -248.607)" fill="#fff" opacity="0.5"/>
        <g id="Group_41592" data-name="Group 41592" transform="translate(28.695 31.049)">
          <circle id="Ellipse_112" data-name="Ellipse 112" cx="13.147" cy="13.147" r="13.147" transform="matrix(0.955, -0.296, 0.296, 0.955, 0, 7.771)" fill="url(#linear-gradient-10)"/>
          <g id="Group_41591" data-name="Group 41591" transform="translate(8.622 8.51)">
            <path id="Path_94871" data-name="Path 94871" d="M2593.475,388.573l-1.052-.909a11.342,11.342,0,0,1-3.191,2.4.8.8,0,0,1-1.009-.285l-.749-1.114a.811.811,0,0,1,.318-1.179,9.417,9.417,0,0,0,2.93-2.228c.913-1.056,1.236-2.153.5-2.787-.662-.572-1.582-.3-3.245.822-2.383,1.6-4.6,2.312-6.439.718-1.664-1.44-1.882-3.755-.4-6.161l-1.052-.91a.81.81,0,0,1-.083-1.143l.534-.618a.81.81,0,0,1,1.142-.083l.944.817a10.339,10.339,0,0,1,2.443-1.975.806.806,0,0,1,1.065.255l.693,1.029a.808.808,0,0,1-.285,1.164,8.43,8.43,0,0,0-2.4,1.933c-1.083,1.253-.874,2.059-.408,2.462.573.5,1.616.084,3.525-1.111,2.71-1.722,4.512-1.853,6.248-.352,1.593,1.377,2,3.8.379,6.4l1.177,1.018a.809.809,0,0,1,.083,1.142l-.534.618A.81.81,0,0,1,2593.475,388.573Z" transform="translate(-2579.813 -373.831)" fill="#fff"/>
          </g>
        </g>
      </g>
      <path id="Path_94872" data-name="Path 94872" d="M2455.7,439.407a.18.18,0,0,1-.056-.033l-6.134-5.306a.179.179,0,0,1-.018-.252l14.3-16.532a.179.179,0,1,1,.27.234l-14.182,16.4,6,5.189a.179.179,0,0,1-.178.3Z" transform="translate(-2445.942 -366.408)" fill="#fff"/>
      <path id="Path_94873" data-name="Path 94873" d="M2714.76,329.472a.177.177,0,0,1-.057-.033.179.179,0,0,1-.018-.252l14.181-16.4-6-5.189a.179.179,0,0,1,.234-.271l6.135,5.306a.178.178,0,0,1,.018.252l-14.3,16.532A.179.179,0,0,1,2714.76,329.472Z" transform="translate(-2642.354 -284.987)" fill="#fff"/>
    </g>
    <g id="Group_41600" data-name="Group 41600" transform="translate(0 1.345)">
      <g id="Group_41598" data-name="Group 41598" transform="translate(0 0)">
        <g id="Group_41597" data-name="Group 41597" transform="translate(0 0)">
          <rect id="Rectangle_38099" data-name="Rectangle 38099" width="89.63" height="42.065" transform="matrix(0.852, -0.524, 0.524, 0.852, 0, 46.957)" fill="#91b3fa"/>
          <path id="Path_94874" data-name="Path 94874" d="M2535.243,261.455l12.528,20.368a3.84,3.84,0,0,0-.947,5.239c.035.058.01.029.157.261l-61.623,37.9c-.141-.236-.119-.206-.154-.263a3.733,3.733,0,0,0-5.038-1.494c-.024.015-.074-.015-.074-.015l-12.245-19.909c2.81-1.728,1.885-3.8.769-5.618a.307.307,0,0,0-.11-.1l61.623-37.9s.042.062.077.12A3.723,3.723,0,0,0,2535.243,261.455Z" transform="translate(-2458.434 -251.253)" fill="#fff" opacity="0.5"/>
          <g id="Group_41596" data-name="Group 41596" transform="translate(31.585 23.71)">
            <circle id="Ellipse_113" data-name="Ellipse 113" cx="13.147" cy="13.147" r="13.147" transform="translate(0 23.667) rotate(-64.17)" fill="#91b3fa"/>
            <g id="Group_41595" data-name="Group 41595" transform="translate(10.469 9.021)">
              <path id="Path_94875" data-name="Path 94875" d="M2604.3,369.484l-.729-1.184a11.335,11.335,0,0,1-3.765,1.323.8.8,0,0,1-.876-.576l-.377-1.288a.811.811,0,0,1,.659-1.028,9.412,9.412,0,0,0,3.465-1.241c1.189-.731,1.828-1.68,1.32-2.506-.458-.746-1.417-.767-3.342-.195-2.754.805-5.079.819-6.356-1.257-1.153-1.874-.662-4.148,1.48-5.993l-.728-1.185a.81.81,0,0,1,.266-1.114l.7-.428a.81.81,0,0,1,1.114.266l.654,1.063a10.337,10.337,0,0,1,2.925-1.147.806.806,0,0,1,.939.565l.351,1.19a.808.808,0,0,1-.623,1.023,8.433,8.433,0,0,0-2.871,1.12c-1.411.868-1.454,1.7-1.132,2.224.4.645,1.516.568,3.7,0,3.1-.825,4.861-.406,6.063,1.548,1.1,1.793.765,4.224-1.567,6.213l.815,1.325a.81.81,0,0,1-.265,1.114l-.7.428A.81.81,0,0,1,2604.3,369.484Z" transform="translate(-2593.697 -352.692)" fill="#fff"/>
            </g>
          </g>
        </g>
        <path id="Path_94876" data-name="Path 94876" d="M2448.183,384.853a.177.177,0,0,1-.092-.075l-4.249-6.908a.179.179,0,0,1,.059-.246l18.852-11.6a.179.179,0,0,1,.188.3l-18.7,11.5,4.156,6.756a.179.179,0,0,1-.213.262Z" transform="translate(-2440.636 -329.819)" fill="#fff"/>
        <path id="Path_94877" data-name="Path 94877" d="M2724.668,352.723a.179.179,0,0,1-.033-.321l18.466-11.358-4.156-6.756a.179.179,0,0,1,.3-.187l4.249,6.908a.179.179,0,0,1-.059.246l-18.618,11.451A.18.18,0,0,1,2724.668,352.723Z" transform="translate(-2648.557 -306.129)" fill="#fff"/>
      </g>
      <g id="Group_41599" data-name="Group 41599" transform="translate(23.187 23.298)">
        <path id="Path_94878" data-name="Path 94878" d="M2527.851,431.272a3.724,3.724,0,1,1-5.123-1.221A3.724,3.724,0,0,1,2527.851,431.272Z" transform="translate(-2520.954 -400.144)" fill="#91b3fa"/>
        <path id="Path_94879" data-name="Path 94879" d="M2711.861,318.094a3.724,3.724,0,1,1-5.123-1.221A3.724,3.724,0,0,1,2711.861,318.094Z" transform="translate(-2657.239 -316.32)" fill="#91b3fa"/>
      </g>
    </g>
  </g>
  <g id="Group_41602" data-name="Group 41602" transform="translate(143.473 80.099)">
    <path id="Path_94880" data-name="Path 94880" d="M2986.4,641.653a1.779,1.779,0,0,1-2.941-1.4c.555-17.057,3.991-84.793,24.146-126.314a4.115,4.115,0,0,1,7.258-.3C3025.353,531.633,3049.182,586.98,2986.4,641.653Z" transform="translate(-2983.457 -511.603)" fill="#bdd0fb"/>
    <path id="Path_94881" data-name="Path 94881" d="M3014.2,603.489c.233,2.236.309,4.482.345,6.728s0,4.492-.086,6.737c-.165,4.49-.54,8.971-1.057,13.435s-1.2,8.909-2,13.332-1.771,8.816-2.826,13.187l-.817,3.272-.875,3.257-.44,1.628-.47,1.62-.942,3.239c-1.328,4.3-2.695,8.585-4.228,12.815q-4.529,12.714-10.2,24.988a.914.914,0,0,1-1.661-.765l.007-.014q5.815-12.1,10.546-24.687c1.594-4.184,3.021-8.429,4.413-12.685l.99-3.209.494-1.605.464-1.614.923-3.23.866-3.246c1.121-4.336,2.154-8.7,3.027-13.092s1.619-8.815,2.21-13.257,1.034-8.907,1.27-13.384c.124-2.238.185-4.48.194-6.722s-.041-4.487-.237-6.718v0a.047.047,0,0,1,.093-.009Z" transform="translate(-2987.454 -579.626)" fill="#fff" style="mix-blend-mode: soft-light;isolation: isolate"/>
  </g>
  <g id="Group_41609" data-name="Group 41609" transform="translate(7.894 62.208)">
    <g id="Group_41604" data-name="Group 41604" transform="translate(12.858 0)">
      <circle id="Ellipse_114" data-name="Ellipse 114" cx="18.709" cy="18.709" r="18.709" transform="matrix(0.512, -0.859, 0.859, 0.512, 0, 32.15)" fill="url(#linear-gradient-11)"/>
      <circle id="Ellipse_115" data-name="Ellipse 115" cx="18.086" cy="18.086" r="18.086" transform="translate(6.681 8.484) rotate(-2.857)" fill="url(#linear-gradient-12)"/>
      <path id="Path_94882" data-name="Path 94882" d="M2544.027,492.273a.424.424,0,0,1-.576-.436,17.048,17.048,0,0,1,10.833-14.324,17.283,17.283,0,0,1,2.979-.862.424.424,0,1,1,.161.833,16.379,16.379,0,0,0-2.832.82,16.2,16.2,0,0,0-10.3,13.614A.424.424,0,0,1,2544.027,492.273Z" transform="translate(-2534.851 -467.82)" fill="#fff"/>
      <circle id="Ellipse_116" data-name="Ellipse 116" cx="15.308" cy="15.308" r="15.308" transform="translate(10.093 11.357) rotate(-2.901)" fill="#fff" opacity="0.78"/>
      <g id="Group_41603" data-name="Group 41603" transform="translate(18.463 15.526)">
        <path id="Path_94883" data-name="Path 94883" d="M2591.906,523.979l-.6-1.552a13.573,13.573,0,0,1-4.722.752.963.963,0,0,1-.909-.867l-.169-1.6a.971.971,0,0,1,1-1.07,11.281,11.281,0,0,0,4.35-.719c1.558-.607,2.514-1.588,2.093-2.671-.381-.977-1.5-1.208-3.9-.946-3.419.358-6.163-.125-7.222-2.845-.957-2.456.109-5.031,3.03-6.746l-.6-1.552a.97.97,0,0,1,.552-1.256l.912-.355a.97.97,0,0,1,1.256.552l.542,1.394a12.389,12.389,0,0,1,3.693-.725.966.966,0,0,1,.986.867l.158,1.478a.968.968,0,0,1-.953,1.073,10.107,10.107,0,0,0-3.625.7c-1.849.72-2.079,1.692-1.811,2.378.329.845,1.665.994,4.356.8,3.834-.307,5.816.563,6.814,3.125.916,2.35,0,5.142-3.179,6.987l.676,1.737a.97.97,0,0,1-.552,1.257l-.912.355A.97.97,0,0,1,2591.906,523.979Z" transform="translate(-2581.482 -502.485)" fill="url(#linear-gradient-13)"/>
      </g>
    </g>
    <g id="Group_41606" data-name="Group 41606" transform="translate(57.757 5.702)">
      <circle id="Ellipse_117" data-name="Ellipse 117" cx="16.183" cy="16.183" r="16.183" transform="translate(0 9.409) rotate(-16.9)" fill="url(#linear-gradient-14)"/>
      <circle id="Ellipse_118" data-name="Ellipse 118" cx="15.645" cy="15.645" r="15.645" transform="matrix(0.996, -0.087, 0.087, 0.996, 3.243, 5.962)" fill="url(#linear-gradient-15)"/>
      <path id="Path_94884" data-name="Path 94884" d="M2704.557,499.6a.5.5,0,0,1-.229.032.5.5,0,0,1-.45-.546,14.88,14.88,0,0,1,9.455-12.5,15.062,15.062,0,0,1,2.6-.752.5.5,0,1,1,.19.983,14.11,14.11,0,0,0-2.427.7,13.884,13.884,0,0,0-8.822,11.665A.5.5,0,0,1,2704.557,499.6Z" transform="translate(-2698.567 -480.322)" fill="#fff"/>
      <circle id="Ellipse_119" data-name="Ellipse 119" cx="13.242" cy="13.242" r="13.242" transform="translate(3.285 13.323) rotate(-22.852)" fill="#fff" opacity="0.78"/>
      <g id="Group_41605" data-name="Group 41605" transform="translate(13.975 11.435)">
        <path id="Path_94885" data-name="Path 94885" d="M2746.307,527.286l-.522-1.342a11.754,11.754,0,0,1-4.085.65.834.834,0,0,1-.787-.75l-.146-1.383a.84.84,0,0,1,.863-.926,9.753,9.753,0,0,0,3.763-.622c1.348-.525,2.175-1.373,1.81-2.31-.329-.845-1.3-1.045-3.371-.818-2.958.31-5.331-.108-6.247-2.461-.828-2.125.094-4.352,2.621-5.836l-.523-1.343a.84.84,0,0,1,.478-1.087l.789-.307a.84.84,0,0,1,1.087.477l.469,1.205a10.716,10.716,0,0,1,3.194-.627.836.836,0,0,1,.853.75l.137,1.279a.837.837,0,0,1-.825.928,8.748,8.748,0,0,0-3.135.609c-1.6.623-1.8,1.463-1.567,2.057.285.731,1.44.86,3.768.69,3.317-.266,5.031.487,5.894,2.7.792,2.033,0,4.448-2.75,6.044l.585,1.5a.839.839,0,0,1-.477,1.087l-.789.307A.84.84,0,0,1,2746.307,527.286Z" transform="translate(-2737.29 -508.693)" fill="url(#linear-gradient-16)"/>
      </g>
    </g>
    <g id="Group_41608" data-name="Group 41608" transform="translate(0 46.328)">
      <circle id="Ellipse_120" data-name="Ellipse 120" cx="13.708" cy="13.708" r="13.708" transform="matrix(0.999, -0.052, 0.052, 0.999, 0.805, 2.238)" fill="url(#linear-gradient-17)"/>
      <circle id="Ellipse_121" data-name="Ellipse 121" cx="13.252" cy="13.252" r="13.252" transform="translate(0 4.262) rotate(-9.255)" fill="url(#linear-gradient-18)"/>
      <path id="Path_94886" data-name="Path 94886" d="M2471.348,643.6a.424.424,0,0,1-.576-.436,12.6,12.6,0,0,1,8.009-10.59,12.756,12.756,0,0,1,2.2-.637.424.424,0,1,1,.161.833,11.962,11.962,0,0,0-2.055.594,11.76,11.76,0,0,0-7.472,9.881A.426.426,0,0,1,2471.348,643.6Z" transform="translate(-2468.164 -629.159)" fill="#fff"/>
      <circle id="Ellipse_122" data-name="Ellipse 122" cx="11.216" cy="11.216" r="11.216" transform="translate(1.76 7.597) rotate(-15.637)" fill="#fff" opacity="0.78"/>
      <g id="Group_41607" data-name="Group 41607" transform="translate(9.947 7.796)">
        <path id="Path_94887" data-name="Path 94887" d="M2506.712,667.049l-.443-1.137a9.962,9.962,0,0,1-3.46.551.706.706,0,0,1-.666-.635l-.124-1.172a.712.712,0,0,1,.731-.784,8.264,8.264,0,0,0,3.188-.527c1.141-.445,1.842-1.163,1.533-1.957-.279-.716-1.1-.885-2.855-.693-2.505.263-4.515-.091-5.292-2.085-.7-1.8.08-3.686,2.22-4.943l-.443-1.137a.711.711,0,0,1,.4-.921l.668-.26a.711.711,0,0,1,.92.4l.4,1.021a9.075,9.075,0,0,1,2.706-.531.708.708,0,0,1,.722.636l.116,1.083a.709.709,0,0,1-.7.786,7.4,7.4,0,0,0-2.656.516c-1.354.528-1.523,1.239-1.327,1.743.241.619,1.22.728,3.192.584,2.81-.225,4.261.413,4.992,2.29.671,1.722,0,3.767-2.329,5.119l.5,1.272a.711.711,0,0,1-.4.92l-.668.26A.711.711,0,0,1,2506.712,667.049Z" transform="translate(-2499.074 -651.301)" fill="url(#linear-gradient-19)"/>
      </g>
    </g>
  </g>
  <g id="Group_41612" data-name="Group 41612" transform="translate(34.779 34.543)">
    <g id="Group_41611" data-name="Group 41611">
      <path id="Path_94888" data-name="Path 94888" d="M2774.572,693.238l-10.411-109.089c-25-9.24-56.53,1.087-56.53,1.087l-4.869,108Z" transform="translate(-2666.871 -516.931)" fill="#fff"/>
      <path id="Path_94889" data-name="Path 94889" d="M2787.253,523.869l-.469,15.485a3.513,3.513,0,0,0,2.348,3.421c3.959,1.4,12.156,3.52,19.923.738a3.5,3.5,0,0,0,2.268-3.812l-2.328-15.832Z" transform="translate(-2729.098 -475.131)" fill="url(#linear-gradient-20)"/>
      <path id="Path_94890" data-name="Path 94890" d="M2626.943,738.358a56.1,56.1,0,0,0,4.285-4.727l-3.26-9.24s-26.634,15.219-35.331,7.61,5.979-52.18,5.979-52.18l-21.2-38.592s-17.793,59.322-11.81,91.739a6.585,6.585,0,0,0,6.469,5.392Z" transform="translate(-2564.377 -562.051)" fill="url(#linear-gradient-21)"/>
      <path id="Path_94891" data-name="Path 94891" d="M2775.046,559.9l12.1,11.6-8.739,5.961-7.726-10.4Z" transform="translate(-2717.175 -501.818)" fill="#fff"/>
      <path id="Path_94892" data-name="Path 94892" d="M2842.307,559.9l-12.1,11.6,8.739,5.961,7.726-10.4Z" transform="translate(-2761.259 -501.818)" fill="#fff"/>
      <g id="Group_41610" data-name="Group 41610" transform="translate(46.975)">
        <path id="Path_94893" data-name="Path 94893" d="M2757.89,363.4s2.718,27.721,8.7,34.787c0,0,17.937,1.631,24.459-2.174a103.057,103.057,0,0,0,4.076-32.341s.891-16.817-17.665-18.209C2755.717,343.829,2757.89,363.4,2757.89,363.4Z" transform="translate(-2754.631 -342.923)" fill="url(#linear-gradient-22)"/>
        <path id="Path_94894" data-name="Path 94894" d="M2894.284,434.455s1.631-4.892,4.348-4.892-.543,13.045-4.348,13.045Z" transform="translate(-2855.693 -405.285)" fill="url(#linear-gradient-23)"/>
        <path id="Path_94895" data-name="Path 94895" d="M2751.228,441.151s-2.276-4.627-4.969-4.261,2.3,12.853,6.068,12.34Z" transform="translate(-2745.495 -410.696)" fill="url(#linear-gradient-24)"/>
        <path id="Path_94896" data-name="Path 94896" d="M2765.3,469.1s.609,16.559,7.892,24.957a3.745,3.745,0,0,0,2.654,1.268c3.717.179,13.22.5,18.579-.569a3.8,3.8,0,0,0,2.87-2.493c1.317-3.862,3.6-9.952,2.818-23.927l-4.371,10.416c-3.239,8.608-5-1.841-6.5-1.72h-9.784c-1.031.083-2.174,6.523-6,4.636Z" transform="translate(-2760.162 -433.999)" fill="url(#linear-gradient-25)"/>
        <path id="Path_94897" data-name="Path 94897" d="M2784.474,349.908s-13.848,14.243-28.938,14.188c0,0-8.567-22.884,8.283-26.689s17.394,1.087,17.394,1.087,19.392-4.861,10.627,23.106Z" transform="translate(-2751.319 -335.958)" fill="url(#linear-gradient-26)"/>
      </g>
      <path id="Path_94898" data-name="Path 94898" d="M2886.564,744.567h50.464a6.589,6.589,0,0,0,5.587-3.1h0c21.743-34.787-9.24-91.86-9.24-91.86l-16.307,42.94s14.133,14.132,6.523,36.418S2885,733.86,2885,733.86l1.087,10.327S2886.254,744.326,2886.564,744.567Z" transform="translate(-2801.841 -568.259)" fill="url(#linear-gradient-27)"/>
      <path id="Path_94899" data-name="Path 94899" d="M2814.373,606.932,2809.858,610l3.183,6.189h5.189l3.468-5.754-5.91-4.043Z" transform="translate(-2746.189 -536.254)" fill="#91b3fa"/>
      <path id="Path_94900" data-name="Path 94900" d="M2812.07,644.167l-3.522,58.641,8.958,16.2,9.017-15.613-9.263-59.225Z" transform="translate(-2745.218 -564.228)" fill="#91b3fa"/>
      <path id="Path_94901" data-name="Path 94901" d="M2630.547,640.009a71.963,71.963,0,0,1,5.4,29.519l-.843,29.071h40.871l-2.078-41.414-18.779-69.64c-17.394,2.718-40.469,13.923-40.469,13.923Z" transform="translate(-2601.614 -522.292)" fill="url(#linear-gradient-28)"/>
      <path id="Path_94902" data-name="Path 94902" d="M2882.6,695.406l1.247-24.118a108.573,108.573,0,0,1,6.229-36.245l12.252-34.594c-15.762-14.132-46.8-17.216-46.8-17.216l-12.443,70.758v41.414Z" transform="translate(-2770.798 -519.099)" fill="url(#linear-gradient-29)"/>
      <path id="Path_94903" data-name="Path 94903" d="M2754.191,662.532a.3.3,0,0,1-.227-.1l-16.732-19.3a.3.3,0,0,1-.07-.149l-1.687-10.343-6.193-1.246a.3.3,0,0,1-.241-.283l-1.331-32.744a.3.3,0,0,1,.288-.313.3.3,0,0,1,.313.289l1.321,32.507,6.166,1.241a.3.3,0,0,1,.238.247l1.706,10.464,16.677,19.233a.3.3,0,0,1-.228.5Z" transform="translate(-2685.347 -530.075)" fill="url(#linear-gradient-30)"/>
      <path id="Path_94904" data-name="Path 94904" d="M2850.587,660.967a.3.3,0,0,1-.2-.074.305.305,0,0,1-.03-.428l16.676-19.4,1.706-10.553a.3.3,0,0,1,.238-.249l6.165-1.251,1.322-32.784a.294.294,0,0,1,.313-.291.3.3,0,0,1,.288.316l-1.332,33.022a.3.3,0,0,1-.241.285l-6.193,1.256-1.686,10.431a.3.3,0,0,1-.07.15l-16.732,19.461A.3.3,0,0,1,2850.587,660.967Z" transform="translate(-2776.132 -528.511)" fill="url(#linear-gradient-31)"/>
    </g>
  </g>
</svg>
