<svg xmlns="http://www.w3.org/2000/svg" width="29.369" height="25.364" viewBox="0 0 29.369 25.364">
  <g id="bag" transform="translate(0 -34.909)">
    <g id="Group_130" data-name="Group 130" transform="translate(0.668 48.926)">
      <g id="Group_129" data-name="Group 129">
        <path id="Path_98" data-name="Path 98" d="M39,279.273a.631.631,0,0,0-.667.667v8.677a.631.631,0,0,1-.667.667H13.639a.631.631,0,0,1-.667-.667V279.94a.667.667,0,0,0-1.335,0v8.677a1.967,1.967,0,0,0,2,2H37.668a1.967,1.967,0,0,0,2-2V279.94A.631.631,0,0,0,39,279.273Z" transform="translate(-11.637 -279.273)" fill="#e6af2e"/>
      </g>
    </g>
    <g id="Group_132" data-name="Group 132" transform="translate(0 39.581)">
      <g id="Group_131" data-name="Group 131">
        <path id="Path_99" data-name="Path 99" d="M27.366,116.364H2a1.967,1.967,0,0,0-2,2v4.272a2,2,0,0,0,1.535,1.936l10.479,2.336v2.136a.631.631,0,0,0,.667.667h4a.631.631,0,0,0,.667-.667V126.91l10.479-2.336a2,2,0,0,0,1.535-1.936v-4.272A1.967,1.967,0,0,0,27.366,116.364ZM16.019,128.378h-2.67v-2.67h2.67Zm12.014-5.74a.65.65,0,0,1-.534.667l-10.146,2.269v-.534a.631.631,0,0,0-.667-.667h-4a.631.631,0,0,0-.667.667v.534L1.869,123.306a.65.65,0,0,1-.534-.667v-4.272A.631.631,0,0,1,2,117.7H27.366a.631.631,0,0,1,.667.667Z" transform="translate(0 -116.364)" fill="#e6af2e"/>
      </g>
    </g>
    <g id="Group_134" data-name="Group 134" transform="translate(9.345 34.909)">
      <g id="Group_133" data-name="Group 133">
        <path id="Path_100" data-name="Path 100" d="M171.586,34.909h-6.675a1.967,1.967,0,0,0-2,2v.667a.667.667,0,0,0,1.335,0v-.667a.631.631,0,0,1,.667-.667h6.675a.631.631,0,0,1,.667.667v.667a.667.667,0,1,0,1.335,0v-.667A1.966,1.966,0,0,0,171.586,34.909Z" transform="translate(-162.909 -34.909)" fill="#e6af2e"/>
      </g>
    </g>
  </g>
</svg>
