<svg xmlns="http://www.w3.org/2000/svg" xmlns:xlink="http://www.w3.org/1999/xlink" width="783.356" height="616.086" viewBox="0 0 783.356 616.086">
  <defs>
    <linearGradient id="linear-gradient" y1="0.5" x2="1" y2="0.5" gradientUnits="objectBoundingBox">
      <stop offset="0" stop-color="#563a73"/>
      <stop offset="1" stop-color="#40003b"/>
    </linearGradient>
  </defs>
  <g id="Group_42682" data-name="Group 42682" transform="translate(303.74 -212.902)">
    <g id="Layer_1" data-name="Layer 1" transform="translate(-303.74 212.902)">
      <g id="Group_42681" data-name="Group 42681" transform="translate(0)">
        <path id="Path_97342" data-name="Path 97342" d="M206.808,746.381C150.04,597.75,168.314,538.695,193.87,511.89c46.107-48.361,128.715-5.172,182.742-63.07,47.436-50.836,7.1-109.151,56.6-163.336,54.459-59.61,155.209-45.874,171.421-43.664,125.069,17.051,190.6,127.74,198.913,142.312C870.774,501.921,846.189,657.816,769.587,748,657.089,880.44,406.97,901.088,206.808,746.381Z" transform="translate(-113.916 -238.902)" fill="#4fc3f7"/>
        <g id="Group_42644" data-name="Group 42644" transform="translate(60.133 356.681)">
          <path id="Path_97343" data-name="Path 97343" d="M320,1175.755c-2.291,6.8-8.325,12.609-11.6,15.794-8.884,8.567-13.224,7.394-19.985,13.931-6.817,6.594-13.839,18.793-12.088,30.676,1.695,11.417,9.909,11.864,14.416,28.813,2.85,10.765,1.062,16.409.466,18.123-2.347,6.537-7.227,10.337-11.622,13.466-19.3,13.783-26.522,12.721-35.314,19.985-18.774,15.515-14.7,44.235-20.916,44.142a.406.406,0,0,1-.149-.019c-1.266-.056-2.384-.8-3.576-3.017-1.49-2.682-3.092-7.562-5.253-16.018-1.713-6.649-12.088-8.12-18.588-24.157-8.959-22.108-17.508-47.811-14.248-54.982,13.633-30.061,23.877-18.923,36.208-33.8,1.714-2.068,4.209-1.881,3.743-18.551-.41-14.584-8.679-17.1-10.691-31.142-2.254-15.85,5.457-32.65,16.278-43.21,16.763-16.372,43.6-20.283,64.127-9.76C310.783,1136.083,325.423,1159.718,320,1175.755Z" transform="translate(-180.834 -1120.172)" fill="url(#linear-gradient)"/>
          <g id="Group_42643" data-name="Group 42643" transform="translate(38.797 45.209)">
            <path id="Path_97344" data-name="Path 97344" d="M321.076,1233.454c-23.263,49.972-36.8,113.912-40.808,193.7-1.266-.056-2.384-.8-3.576-3.017,4.228-78.99,17.824-142.447,41.013-192.269Z" transform="translate(-276.692 -1231.871)" fill="#ab47bc"/>
          </g>
          <path id="Path_97345" data-name="Path 97345" d="M387.539,1239.093a5.942,5.942,0,0,1,.807,1.448,9.063,9.063,0,0,1,.536,1.848,11.091,11.091,0,0,1,.216,2.529c-.034.47-.07.961-.106,1.468-.085.5-.209,1-.324,1.539a15.875,15.875,0,0,1-1.2,3.179,16.7,16.7,0,0,1-1.963,3.017c-.391.464-.748.981-1.182,1.409l-1.328,1.254a20.022,20.022,0,0,1-2.859,2.176,18.007,18.007,0,0,1-2.986,1.672,18.4,18.4,0,0,1-2.925,1.2c-.956.3-1.865.565-2.705.783a16.3,16.3,0,0,1-2.352.391c-.7.1-1.325.137-1.833.175a15.923,15.923,0,0,1-1.614.042s.435-.435,1.217-1.081c.393-.319.86-.719,1.416-1.114.54-.429,1.186-.83,1.827-1.363.652-.511,1.36-1.041,2.115-1.573.778-.5,1.514-1.123,2.3-1.712s1.619-1.161,2.371-1.823,1.619-1.222,2.3-1.941a22.463,22.463,0,0,0,2.132-2.03,27.581,27.581,0,0,0,1.872-2.1,25.309,25.309,0,0,0,1.515-2.142l.644-1.06.518-1.048A17.166,17.166,0,0,0,387.539,1239.093Z" transform="translate(-290.888 -1190.961)" fill="#ab47bc"/>
          <path id="Path_97346" data-name="Path 97346" d="M290.7,1268.915s.115.529.345,1.343l.485,1.421c.171.53.474,1.1.718,1.7.314.591.589,1.219.987,1.837.32.64.814,1.242,1.2,1.893.508.6.917,1.266,1.476,1.869a22.762,22.762,0,0,0,1.677,1.828l.862.92c.328.273.634.571.947.857s.618.58.911.883l.963.815c.647.524,1.193,1.149,1.829,1.614.609.5,1.179,1,1.7,1.482,1.045.976,2,1.731,2.615,2.382.632.621.98,1.042.98,1.042a12.361,12.361,0,0,1-1.418-.021c-.445-.031-1-.057-1.606-.151a11.924,11.924,0,0,1-2.05-.372c-.731-.2-1.521-.446-2.351-.733a16.9,16.9,0,0,1-2.512-1.162,13.688,13.688,0,0,1-2.529-1.612c-.41-.312-.837-.615-1.236-.952l-1.135-1.124a15.865,15.865,0,0,1-2.013-2.5,7.779,7.779,0,0,1-.809-1.37c-.238-.472-.488-.926-.677-1.4a14.687,14.687,0,0,1-.8-2.852,12.827,12.827,0,0,1-.192-2.624,10.764,10.764,0,0,1,.872-3.769A5.49,5.49,0,0,1,290.7,1268.915Z" transform="translate(-245.264 -1208.713)" fill="#ab47bc"/>
          <path id="Path_97347" data-name="Path 97347" d="M344.614,1423.461a3.771,3.771,0,0,1,.791.889,4.146,4.146,0,0,1,.526,1.134,4.354,4.354,0,0,1,.212,1.553q-.05.433-.1.9c-.083.3-.205.617-.318.945a7.97,7.97,0,0,1-1.181,1.952,11.356,11.356,0,0,1-1.924,1.853c-.384.284-.733.6-1.159.865l-1.3.77a21.414,21.414,0,0,1-2.8,1.336,22.3,22.3,0,0,1-2.928,1.027,25.127,25.127,0,0,1-2.868.74c-.937.187-1.829.347-2.653.481-.815.151-1.621.175-2.306.24s-1.3.084-1.8.107c-1,.042-1.583.026-1.583.026s.426-.267,1.194-.663c.385-.2.843-.442,1.389-.684.529-.263,1.163-.51,1.791-.836s1.334-.64,2.074-.966c.763-.306,1.484-.689,2.254-1.051s1.587-.713,2.325-1.119,1.588-.751,2.259-1.192a21.061,21.061,0,0,0,2.09-1.247c.7-.41,1.24-.864,1.835-1.288a18.192,18.192,0,0,0,1.486-1.315l.631-.651.508-.643A7.837,7.837,0,0,0,344.614,1423.461Z" transform="translate(-265.588 -1300.709)" fill="#ab47bc"/>
          <path id="Path_97348" data-name="Path 97348" d="M246.479,1443.978s.1.589.3,1.494l.418,1.582c.147.589.409,1.224.618,1.891.271.658.508,1.357.851,2.044.276.712.7,1.382,1.037,2.106.438.67.79,1.41,1.272,2.08a24.2,24.2,0,0,0,1.445,2.035l.742,1.024c.283.3.547.635.816.954s.532.645.785.983l.83.906c.558.583,1.028,1.279,1.576,1.8.525.555,1.016,1.111,1.468,1.65.9,1.086,1.722,1.926,2.253,2.651.545.692.845,1.16.845,1.16a8.237,8.237,0,0,1-1.222-.023,12.41,12.41,0,0,1-1.384-.167,8.2,8.2,0,0,1-1.767-.414c-.63-.225-1.311-.5-2.025-.816a13.305,13.305,0,0,1-2.165-1.293,11.913,11.913,0,0,1-2.179-1.794c-.353-.348-.72-.684-1.065-1.059l-.978-1.251a17.591,17.591,0,0,1-1.734-2.779,9.49,9.49,0,0,1-.7-1.525c-.205-.526-.42-1.031-.583-1.561a20.137,20.137,0,0,1-.69-3.173,18.333,18.333,0,0,1-.166-2.92,14.924,14.924,0,0,1,.751-4.2A6.555,6.555,0,0,1,246.479,1443.978Z" transform="translate(-219.076 -1312.922)" fill="#ab47bc"/>
        </g>
        <g id="Group_42646" data-name="Group 42646" transform="translate(0 463.28)">
          <path id="Path_97349" data-name="Path 97349" d="M105.579,1431.906c26.856,36.66,24.022,84.4,24.022,84.4s-46.376-11.693-73.232-48.352-24.023-84.4-24.023-84.4S78.723,1395.246,105.579,1431.906Z" transform="translate(-32.26 -1383.553)" fill="#00acc1"/>
          <g id="Group_42645" data-name="Group 42645" transform="translate(15.364 21.616)">
            <path id="Path_97350" data-name="Path 97350" d="M149.887,1547.452,70.221,1438.706l2.381-1.744,79.666,108.746v.275l-.038,1.272-.036.85Z" transform="translate(-70.221 -1436.961)" fill="#067b84"/>
          </g>
          <path id="Path_97351" data-name="Path 97351" d="M192.4,1544.469l.063-6.174c.025-3.705.192-8.636.314-13.57.078-2.466.023-4.941.161-7.248a60.652,60.652,0,0,1,.807-6.275,42.491,42.491,0,0,1,1.47-6.073l.294.021a42.448,42.448,0,0,1,.59,6.22,60.655,60.655,0,0,1-.1,6.326c-.192,2.3-.6,4.745-.873,7.2-.581,4.9-1.119,9.805-1.621,13.477l-.817,6.12Z" transform="translate(-127.585 -1455.923)" fill="#067b84"/>
          <path id="Path_97352" data-name="Path 97352" d="M116.9,1551.9l-5.3-.505c-3.184-.291-7.407-.809-11.638-1.285-2.112-.254-4.247-.377-6.216-.679a45.241,45.241,0,0,1-5.313-1.251,32.138,32.138,0,0,1-5.07-1.9l.049-.291a32.078,32.078,0,0,1,5.411-.141,45.17,45.17,0,0,1,5.431.548c1.961.356,4.019.935,6.1,1.383,4.154.929,8.316,1.815,11.421,2.577l5.178,1.25Z" transform="translate(-62.679 -1480.136)" fill="#067b84"/>
          <path id="Path_97353" data-name="Path 97353" d="M104.591,1450.573s.491-5.549,1.276-11.036c.2-1.37.242-2.775.49-4.048a18.711,18.711,0,0,1,1.081-3.393,14.786,14.786,0,0,1,1.725-3.168l.289.061a14.788,14.788,0,0,1,.3,3.6,18.717,18.717,0,0,1-.384,3.541c-.287,1.264-.818,2.565-1.188,3.9-1.5,5.336-3.3,10.609-3.3,10.609Z" transform="translate(-75.316 -1410.563)" fill="#067b84"/>
        </g>
        <g id="Group_42648" data-name="Group 42648" transform="translate(566.273 461.841)">
          <path id="Path_97354" data-name="Path 97354" d="M1504.7,1428.351c26.856,36.66,24.023,84.4,24.023,84.4s-46.377-11.693-73.233-48.353-24.023-84.4-24.023-84.4S1477.844,1391.691,1504.7,1428.351Z" transform="translate(-1431.381 -1379.998)" fill="#00acc1"/>
          <g id="Group_42647" data-name="Group 42647" transform="translate(15.364 21.616)">
            <path id="Path_97355" data-name="Path 97355" d="M1549.009,1543.9l-79.666-108.746,2.381-1.744,79.666,108.746v.274l-.038,1.272-.036.85Z" transform="translate(-1469.342 -1433.406)" fill="#067b84"/>
          </g>
          <path id="Path_97356" data-name="Path 97356" d="M1591.521,1540.913s.025-2.47.063-6.174.192-8.636.314-13.569c.078-2.466.024-4.941.161-7.248a60.616,60.616,0,0,1,.807-6.275,42.5,42.5,0,0,1,1.47-6.073l.294.021a42.412,42.412,0,0,1,.591,6.22,60.563,60.563,0,0,1-.095,6.326c-.192,2.3-.6,4.745-.873,7.2-.582,4.9-1.119,9.805-1.621,13.476s-.817,6.12-.817,6.12Z" transform="translate(-1526.707 -1452.368)" fill="#067b84"/>
          <path id="Path_97357" data-name="Path 97357" d="M1516.022,1548.346l-5.3-.5c-3.184-.291-7.407-.809-11.637-1.285-2.113-.254-4.247-.377-6.217-.679a45.2,45.2,0,0,1-5.312-1.251,32.125,32.125,0,0,1-5.07-1.9l.049-.291a32.1,32.1,0,0,1,5.411-.141,45.149,45.149,0,0,1,5.431.548c1.96.356,4.019.935,6.1,1.383,4.155.929,8.316,1.815,11.421,2.577l5.178,1.25Z" transform="translate(-1461.8 -1476.581)" fill="#067b84"/>
          <path id="Path_97358" data-name="Path 97358" d="M1503.712,1447.018s.491-5.549,1.276-11.036c.2-1.371.242-2.775.491-4.048a18.712,18.712,0,0,1,1.081-3.393,14.8,14.8,0,0,1,1.725-3.169l.289.061a14.778,14.778,0,0,1,.3,3.6,18.708,18.708,0,0,1-.383,3.54c-.287,1.264-.819,2.565-1.189,3.9-1.5,5.336-3.3,10.609-3.3,10.609Z" transform="translate(-1474.437 -1407.008)" fill="#067b84"/>
        </g>
        <g id="Group_42651" data-name="Group 42651" transform="translate(117.773 411.09)">
          <path id="Path_97359" data-name="Path 97359" d="M428.364,1374.713c-38.74,51.975-105.029,68.107-105.029,68.107s-3.479-68.135,35.26-120.11S463.624,1254.6,463.624,1254.6,467.1,1322.738,428.364,1374.713Z" transform="translate(-323.252 -1254.603)" fill="#d81b60"/>
          <g id="Group_42650" data-name="Group 42650" transform="translate(0 30.617)">
            <g id="Group_42649" data-name="Group 42649">
              <path id="Path_97360" data-name="Path 97360" d="M323.249,1484.427,438.166,1330.25l3.376,2.516L326.625,1486.943l-.374.115-1.75.481-1.174.307Z" transform="translate(-323.249 -1330.25)" fill="#e83880"/>
            </g>
            <path id="Path_97361" data-name="Path 97361" d="M438.741,1545.7l8.445-2.5c5.063-1.516,11.856-3.355,18.635-5.255,3.395-.927,6.747-2.037,9.95-2.816a86.567,86.567,0,0,1,8.894-1.528,60.6,60.6,0,0,1,8.9-.538l.095.41a60.613,60.613,0,0,1-8.235,3.41,86.444,86.444,0,0,1-8.666,2.52c-3.221.7-6.721,1.171-10.179,1.824-6.927,1.26-13.839,2.581-19.055,3.433l-8.687,1.449Z" transform="translate(-391.997 -1450.972)" fill="#e83880"/>
            <path id="Path_97362" data-name="Path 97362" d="M474.226,1440.45l-1.533-7.442c-.937-4.463-2-10.439-3.122-16.407-.538-2.987-1.264-5.949-1.677-8.761a64.516,64.516,0,0,1-.519-7.768,45.8,45.8,0,0,1,.463-7.708l.417-.055a45.8,45.8,0,0,1,2.459,7.319,64.461,64.461,0,0,1,1.528,7.635c.336,2.823.408,5.871.668,8.9.473,6.054,1.009,12.1,1.27,16.653.278,4.55.464,7.584.464,7.584Z" transform="translate(-409.037 -1367.191)" fill="#e83880"/>
            <path id="Path_97363" data-name="Path 97363" d="M565.483,1388.453s7.772-1.655,15.583-2.883c1.954-.3,3.886-.832,5.725-1.026a26.69,26.69,0,0,1,5.079.053,21.092,21.092,0,0,1,5.043,1.026l.038.419a21.089,21.089,0,0,1-4.779,1.91,26.678,26.678,0,0,1-4.988.96c-1.844.138-3.841-.042-5.816.013-7.9.187-15.847-.053-15.847-.053Z" transform="translate(-467.442 -1362.511)" fill="#e83880"/>
          </g>
        </g>
        <g id="Group_42654" data-name="Group 42654" transform="translate(642.904 411.09)">
          <path id="Path_97364" data-name="Path 97364" d="M1725.832,1374.713c-38.739,51.975-105.029,68.107-105.029,68.107s-3.479-68.135,35.26-120.11,105.028-68.107,105.028-68.107S1764.572,1322.738,1725.832,1374.713Z" transform="translate(-1620.72 -1254.603)" fill="#d81b60"/>
          <g id="Group_42653" data-name="Group 42653" transform="translate(0 30.617)">
            <g id="Group_42652" data-name="Group 42652">
              <path id="Path_97365" data-name="Path 97365" d="M1620.716,1484.427l114.917-154.177,3.376,2.516-114.917,154.177-.374.115-1.75.481-1.174.307Z" transform="translate(-1620.716 -1330.25)" fill="#e83880"/>
            </g>
            <path id="Path_97366" data-name="Path 97366" d="M1736.208,1545.7l8.445-2.5c5.063-1.516,11.856-3.355,18.635-5.255,3.4-.927,6.747-2.037,9.951-2.816a86.561,86.561,0,0,1,8.894-1.528,60.6,60.6,0,0,1,8.9-.538l.095.41a60.609,60.609,0,0,1-8.235,3.41,86.477,86.477,0,0,1-8.666,2.52c-3.221.7-6.721,1.171-10.179,1.824-6.927,1.26-13.839,2.581-19.055,3.433l-8.687,1.449Z" transform="translate(-1689.464 -1450.972)" fill="#e83880"/>
            <path id="Path_97367" data-name="Path 97367" d="M1771.693,1440.45l-1.533-7.442c-.937-4.463-2-10.439-3.123-16.407-.539-2.987-1.264-5.949-1.678-8.761a64.511,64.511,0,0,1-.519-7.768,45.806,45.806,0,0,1,.463-7.708l.417-.055a45.789,45.789,0,0,1,2.459,7.319,64.533,64.533,0,0,1,1.527,7.635c.336,2.823.408,5.871.669,8.9.473,6.054,1.009,12.1,1.27,16.653.278,4.55.464,7.584.464,7.584Z" transform="translate(-1706.505 -1367.191)" fill="#e83880"/>
            <path id="Path_97368" data-name="Path 97368" d="M1862.95,1388.453s7.773-1.655,15.583-2.883c1.953-.3,3.885-.832,5.724-1.026a26.691,26.691,0,0,1,5.08.053,21.093,21.093,0,0,1,5.043,1.026l.038.419a21.087,21.087,0,0,1-4.779,1.91,26.672,26.672,0,0,1-4.988.96c-1.844.138-3.84-.042-5.816.013-7.9.187-15.847-.053-15.847-.053Z" transform="translate(-1764.909 -1362.511)" fill="#e83880"/>
          </g>
        </g>
        <g id="Group_42656" data-name="Group 42656" transform="translate(56.388 442.491)">
          <path id="Path_97369" data-name="Path 97369" d="M218.872,1488.215s16.976-88.1-18.037-148.161c-9.707-16.652-35.1-4.361-28.03,13.572q.152.385.314.777C183.943,1380.477,219.856,1443.447,218.872,1488.215Z" transform="translate(-171.581 -1332.187)" fill="#673ab7"/>
          <g id="Group_42655" data-name="Group 42655" transform="translate(15.856 20.473)">
            <path id="Path_97370" data-name="Path 97370" d="M243.145,1517.189l-1.462-.2c5.3-39.452-30.564-132.751-30.926-133.689l1.375-.533C212.5,1383.713,248.5,1477.364,243.145,1517.189Z" transform="translate(-210.758 -1382.771)" fill="#421d93"/>
          </g>
        </g>
        <g id="Group_42657" data-name="Group 42657" transform="translate(502.971 81.592)">
          <path id="Path_97371" data-name="Path 97371" d="M1313.76,541.185v46.007H1294.9V541.185h-9.776v6.466l6.242,3.984v21.515l-6.242,3.984v10.533h38.382V577.135l-6.242-3.984V551.636l6.242-3.984v-6.466Z" transform="translate(-1281.018 -500.432)" fill="#036052"/>
          <path id="Path_97372" data-name="Path 97372" d="M1304.636,470.942l-1.433-9.617a.455.455,0,0,0-.906,0l-1.391,9.527c-4.538,7.724-18.406,6.539-18.406,12.832a7.01,7.01,0,0,0,1.511,4.522,9.61,9.61,0,0,0,4.063,2.8h29.359a9.61,9.61,0,0,0,4.063-2.8,7.01,7.01,0,0,0,1.511-4.522C1323.007,477.391,1309.269,478.451,1304.636,470.942Z" transform="translate(-1279.455 -452.651)" fill="#f57f17"/>
          <path id="Path_97373" data-name="Path 97373" d="M1314.7,470.942l-.916-9.617c-.052-.548-.528-.546-.579,0l-.889,9.527c-2.9,7.724-11.768,6.539-11.768,12.832a9.786,9.786,0,0,0,.966,4.522,6.958,6.958,0,0,0,2.6,2.8h18.77a6.957,6.957,0,0,0,2.6-2.8,9.786,9.786,0,0,0,.966-4.522C1326.445,477.391,1317.662,478.451,1314.7,470.942Z" transform="translate(-1290.199 -452.651)" fill="#f9832b"/>
          <path id="Path_97374" data-name="Path 97374" d="M1322.475,527.845V529.6h-42.764v-1.759a2.092,2.092,0,0,1,2.092-2.092h38.581A2.092,2.092,0,0,1,1322.475,527.845Z" transform="translate(-1277.795 -491.246)" fill="#ea9628"/>
          <path id="Path_97375" data-name="Path 97375" d="M1330.572,481.034c0,1.083-1.873,1.962-4.183,1.962s-4.183-.878-4.183-1.962,1.873-1.962,4.183-1.962S1330.572,479.951,1330.572,481.034Z" transform="translate(-1303.09 -463.458)" fill="#d85b05"/>
          <path id="Path_97376" data-name="Path 97376" d="M1331.1,471.636c0,.756-1.4,1.369-3.137,1.369s-3.138-.613-3.138-1.369,1.4-1.369,3.138-1.369S1331.1,470.88,1331.1,471.636Z" transform="translate(-1304.65 -458.217)" fill="#d85b05"/>
          <path id="Path_97377" data-name="Path 97377" d="M1300.907,671.968l1.433,9.617a.455.455,0,0,0,.906,0l1.391-9.527c4.538-7.724,18.406-6.539,18.406-12.832a7.011,7.011,0,0,0-1.511-4.522,9.613,9.613,0,0,0-4.063-2.8H1288.11a9.612,9.612,0,0,0-4.063,2.8,7.009,7.009,0,0,0-1.511,4.522C1282.536,665.519,1296.274,664.459,1300.907,671.968Z" transform="translate(-1279.477 -566.338)" fill="#f57f17"/>
          <path id="Path_97378" data-name="Path 97378" d="M1313.367,671.968l.869,9.617c.05.548.5.546.55,0l.844-9.527c2.753-7.724,11.165-6.539,11.165-12.832a10.233,10.233,0,0,0-.917-4.522,6.829,6.829,0,0,0-2.464-2.8h-17.807a6.829,6.829,0,0,0-2.464,2.8,10.235,10.235,0,0,0-.917,4.522C1302.224,665.519,1310.557,664.459,1313.367,671.968Z" transform="translate(-1291.196 -566.338)" fill="#f9832b"/>
          <path id="Path_97379" data-name="Path 97379" d="M1279.747,653.661V651.9h42.764v1.76a2.092,2.092,0,0,1-2.092,2.092h-38.581A2.092,2.092,0,0,1,1279.747,653.661Z" transform="translate(-1277.816 -566.338)" fill="#ea9628"/>
          <path id="Path_97380" data-name="Path 97380" d="M1322.241,700.365c0-1.084,1.873-1.962,4.183-1.962s4.183.878,4.183,1.962-1.873,1.962-4.183,1.962S1322.241,701.449,1322.241,700.365Z" transform="translate(-1303.112 -594.019)" fill="#d85b05"/>
          <path id="Path_97381" data-name="Path 97381" d="M1324.789,711.508c0-.756,1.4-1.369,3.137-1.369s3.137.613,3.137,1.369-1.4,1.369-3.137,1.369S1324.789,712.264,1324.789,711.508Z" transform="translate(-1304.628 -601.005)" fill="#d85b05"/>
          <path id="Path_97382" data-name="Path 97382" d="M1300.455,533.354h-23.789l.644.512a7.453,7.453,0,0,1,2.358,3.055h39.225a7.453,7.453,0,0,1,2.358-3.055l.645-.512Z" transform="translate(-1275.982 -495.771)" fill="#00695c"/>
          <path id="Path_97383" data-name="Path 97383" d="M1324.592,440.495a5.4,5.4,0,1,0,5.4,5.4A5.4,5.4,0,0,0,1324.592,440.495Zm0,8.612a3.207,3.207,0,1,1,3.207-3.207A3.207,3.207,0,0,1,1324.592,449.107Z" transform="translate(-1301.294 -440.495)" fill="#d85b05"/>
          <path id="Path_97384" data-name="Path 97384" d="M1364.534,582.661l6.242,3.984V557.162l-6.242,3.984Z" transform="translate(-1328.287 -509.943)" fill="#ff903e"/>
          <path id="Path_97385" data-name="Path 97385" d="M1291.367,561.146l-6.242-3.984v29.484l6.242-3.984Z" transform="translate(-1281.018 -509.943)" fill="#ff903e"/>
          <path id="Path_97386" data-name="Path 97386" d="M1323.4,557.162l-6.242,3.984v21.515l6.242,3.984,6.242-3.984V561.146Z" transform="translate(-1300.084 -509.943)" fill="none"/>
          <path id="Path_97387" data-name="Path 97387" d="M1276.664,645.986a1.686,1.686,0,0,0-1.687,1.687v.217a1.687,1.687,0,0,0,1.687,1.687h12.2v-3.59Z" transform="translate(-1274.977 -562.817)" fill="#00695c"/>
          <path id="Path_97388" data-name="Path 97388" d="M1368.072,645.986h-12.2v3.59h12.2a1.687,1.687,0,0,0,1.687-1.687v-.217A1.686,1.686,0,0,0,1368.072,645.986Z" transform="translate(-1323.133 -562.817)" fill="#00695c"/>
          <path id="Path_97389" data-name="Path 97389" d="M1328.138,541.185h-18.859V583.6h18.859Zm-9.429,35.95-6.242-3.984V551.636l6.242-3.984,6.242,3.984v21.515Z" transform="translate(-1295.396 -500.432)" fill="#086b5a"/>
          <rect id="Rectangle_38312" data-name="Rectangle 38312" width="18.859" height="3.59" transform="translate(13.883 83.169)" fill="#0d8470"/>
          <path id="Path_97390" data-name="Path 97390" d="M1323.4,586.645l6.242-3.984V561.146l-6.242-3.984-6.242,3.984v21.515Z" transform="translate(-1300.084 -509.943)" fill="#f79c5e"/>
          <rect id="Rectangle_38313" data-name="Rectangle 38313" width="18.859" height="3.626" transform="translate(13.883 37.583)" fill="#0d8470"/>
        </g>
        <g id="Group_42658" data-name="Group 42658" transform="translate(363.776 98.037)">
          <path id="Path_97391" data-name="Path 97391" d="M980.463,609.387v58.6H956.441v-58.6H943.988v8.237l7.951,5.075v27.406l-7.951,5.075V668.6h48.891V655.181l-7.951-5.075V622.7l7.951-5.075v-8.237Z" transform="translate(-938.756 -557.476)" fill="#036052"/>
          <path id="Path_97392" data-name="Path 97392" d="M968.841,519.912l-1.825-12.249a.58.58,0,0,0-1.154,0L964.09,519.8c-5.781,9.839-23.446,8.33-23.446,16.346a8.925,8.925,0,0,0,1.925,5.76,12.244,12.244,0,0,0,5.175,3.567h37.4a12.244,12.244,0,0,0,5.175-3.567,8.925,8.925,0,0,0,1.925-5.76C992.242,528.127,974.742,529.477,968.841,519.912Z" transform="translate(-936.765 -496.613)" fill="#f57f17"/>
          <path id="Path_97393" data-name="Path 97393" d="M981.66,519.912l-1.167-12.249c-.066-.7-.673-.7-.738,0L978.623,519.8c-3.7,9.839-14.99,8.33-14.99,16.346a12.461,12.461,0,0,0,1.231,5.76,8.866,8.866,0,0,0,3.308,3.567h23.91a8.871,8.871,0,0,0,3.309-3.567,12.467,12.467,0,0,0,1.231-5.76C996.622,528.127,985.434,529.477,981.66,519.912Z" transform="translate(-950.45 -496.613)" fill="#f9832b"/>
          <path id="Path_97394" data-name="Path 97394" d="M991.565,592.395v2.241H937.091v-2.241a2.665,2.665,0,0,1,2.665-2.665H988.9A2.665,2.665,0,0,1,991.565,592.395Z" transform="translate(-934.651 -545.775)" fill="#ea9628"/>
          <ellipse id="Ellipse_191" data-name="Ellipse 191" cx="5.329" cy="2.499" rx="5.329" ry="2.499" transform="translate(24.349 19.889)" fill="#d85b05"/>
          <ellipse id="Ellipse_192" data-name="Ellipse 192" cx="3.997" cy="1.744" rx="3.997" ry="1.744" transform="translate(25.699 15.349)" fill="#d85b05"/>
          <path id="Path_97395" data-name="Path 97395" d="M964.091,775.979l1.825,12.249a.58.58,0,0,0,1.154,0l1.771-12.136c5.781-9.839,23.446-8.33,23.446-16.346a8.925,8.925,0,0,0-1.925-5.76,12.244,12.244,0,0,0-5.175-3.567h-37.4a12.242,12.242,0,0,0-5.175,3.567,8.925,8.925,0,0,0-1.925,5.76C940.69,767.765,958.189,766.415,964.091,775.979Z" transform="translate(-936.793 -641.427)" fill="#f57f17"/>
          <path id="Path_97396" data-name="Path 97396" d="M979.963,775.979l1.107,12.249c.063.7.639.7.7,0l1.075-12.136c3.507-9.839,14.221-8.33,14.221-16.346a13.036,13.036,0,0,0-1.168-5.76,8.7,8.7,0,0,0-3.139-3.567H970.076a8.7,8.7,0,0,0-3.139,3.567,13.035,13.035,0,0,0-1.168,5.76C965.769,767.765,976.383,766.415,979.963,775.979Z" transform="translate(-951.721 -641.427)" fill="#f9832b"/>
          <path id="Path_97397" data-name="Path 97397" d="M937.137,752.659v-2.241h54.474v2.241a2.665,2.665,0,0,1-2.665,2.665H939.8A2.665,2.665,0,0,1,937.137,752.659Z" transform="translate(-934.678 -641.427)" fill="#ea9628"/>
          <path id="Path_97398" data-name="Path 97398" d="M991.266,812.152c0-1.38,2.386-2.5,5.329-2.5s5.329,1.119,5.329,2.5-2.386,2.5-5.329,2.5S991.266,813.532,991.266,812.152Z" transform="translate(-966.899 -676.687)" fill="#d85b05"/>
          <ellipse id="Ellipse_193" data-name="Ellipse 193" cx="3.997" cy="1.744" rx="3.997" ry="1.744" transform="translate(25.681 139.016)" fill="#d85b05"/>
          <path id="Path_97399" data-name="Path 97399" d="M963.515,599.413h-30.3l.821.652a9.49,9.49,0,0,1,3,3.892H987a9.493,9.493,0,0,1,3-3.892l.821-.652Z" transform="translate(-932.341 -551.539)" fill="#00695c"/>
          <path id="Path_97400" data-name="Path 97400" d="M994.262,481.128a6.884,6.884,0,1,0,6.884,6.884A6.884,6.884,0,0,0,994.262,481.128Zm0,10.97a4.085,4.085,0,1,1,4.085-4.085A4.086,4.086,0,0,1,994.262,492.1Z" transform="translate(-964.585 -481.128)" fill="#d85b05"/>
          <path id="Path_97401" data-name="Path 97401" d="M1045.14,662.22l7.951,5.075V629.739l-7.951,5.075Z" transform="translate(-998.968 -569.591)" fill="#ff903e"/>
          <path id="Path_97402" data-name="Path 97402" d="M951.939,634.814l-7.951-5.075V667.3l7.951-5.075Z" transform="translate(-938.756 -569.591)" fill="#ff903e"/>
          <path id="Path_97403" data-name="Path 97403" d="M992.738,629.739l-7.951,5.075V662.22l7.951,5.075,7.951-5.075V634.814Z" transform="translate(-963.042 -569.591)" fill="none"/>
          <path id="Path_97404" data-name="Path 97404" d="M933.209,742.883a2.148,2.148,0,0,0-2.148,2.148v.276a2.148,2.148,0,0,0,2.148,2.148h15.537v-4.573Z" transform="translate(-931.061 -636.942)" fill="#00695c"/>
          <path id="Path_97405" data-name="Path 97405" d="M1049.646,742.883h-15.536v4.573h15.536a2.148,2.148,0,0,0,2.148-2.148v-.276A2.149,2.149,0,0,0,1049.646,742.883Z" transform="translate(-992.402 -636.942)" fill="#00695c"/>
          <path id="Path_97406" data-name="Path 97406" d="M998.778,609.387H974.756v54.03h24.022ZM986.767,655.18l-7.951-5.075V622.7l7.951-5.075,7.951,5.075v27.406Z" transform="translate(-957.071 -557.476)" fill="#086b5a"/>
          <rect id="Rectangle_38314" data-name="Rectangle 38314" width="24.022" height="4.573" transform="translate(17.685 105.941)" fill="#0d8470"/>
          <path id="Path_97407" data-name="Path 97407" d="M992.738,667.3l7.951-5.075V634.814l-7.951-5.075-7.951,5.075V662.22Z" transform="translate(-963.042 -569.591)" fill="#f79c5e"/>
          <rect id="Rectangle_38315" data-name="Rectangle 38315" width="24.022" height="4.619" transform="translate(17.685 47.874)" fill="#0d8470"/>
        </g>
        <g id="Group_42659" data-name="Group 42659" transform="translate(392.418 5.184)">
          <rect id="Rectangle_38316" data-name="Rectangle 38316" width="2.071" height="92.853" fill="#d85b05"/>
        </g>
        <g id="Group_42660" data-name="Group 42660" transform="translate(525.234 11.559)">
          <rect id="Rectangle_38317" data-name="Rectangle 38317" width="2.071" height="70.034" fill="#d85b05"/>
        </g>
        <g id="Group_42662" data-name="Group 42662" transform="translate(405.667 208.205)">
          <rect id="Rectangle_38318" data-name="Rectangle 38318" width="24.361" height="31.55" transform="translate(164.819 131.627) rotate(180)" fill="#ef9e56"/>
          <g id="Group_42661" data-name="Group 42661">
            <rect id="Rectangle_38319" data-name="Rectangle 38319" width="37.221" height="131.39" transform="translate(135.962 263.283)" fill="#343335"/>
            <rect id="Rectangle_38320" data-name="Rectangle 38320" width="37.229" height="131.39" transform="translate(154.573 394.673) rotate(180)" fill="#414042"/>
            <rect id="Rectangle_38321" data-name="Rectangle 38321" width="12.62" height="15.974" transform="translate(160.563 318.794)" fill="#d1d3d4"/>
            <path id="Path_97408" data-name="Path 97408" d="M1330.046,1227.679l-6.138-5.391-2.5,7.05a188.222,188.222,0,0,1-20.378-3.855l2.939-35.016,1.135-15.431,6.933-95.384a27.1,27.1,0,0,1,27.093-27.093h9.729a27.082,27.082,0,0,1,27.077,27.093l7.716,145.831a152.935,152.935,0,0,1-16.066,3.422l-8.129-6.617-2.821,7.94a160.439,160.439,0,0,1-27.069-.021Z" transform="translate(-1193.179 -931.449)" fill="#558b2f"/>
            <path id="Path_97409" data-name="Path 97409" d="M1088.9,1299.052s-16.306,18.35-53.055-1.675a3.235,3.235,0,0,1-.961-4.036h0a1.95,1.95,0,0,1,2.015-1.285l28.116,1.248c1.056.047,1.577-1.7.788-2.638l-4.6-7.288a3.84,3.84,0,0,1,.338-4.434h0a1.855,1.855,0,0,1,2.544-.279l8.843,6.495,10.383-4.808Z" transform="translate(-1034.562 -1065.815)" fill="#ef9e56"/>
            <rect id="Rectangle_38322" data-name="Rectangle 38322" width="78.275" height="108.626" rx="39.137" transform="translate(180.132 113.922) rotate(180)" fill="#ef9e56"/>
            <path id="Path_97410" data-name="Path 97410" d="M1353.974,834.9s-45.128-13.978-45.927-50.719l-43.531,2.4s11.582-49.121,74.681-27.955c0,0,11.182,3.594,14.776,15.575C1353.974,774.2,1376.339,795.362,1353.974,834.9Z" transform="translate(-1171.446 -753.326)" fill="#37474f"/>
            <path id="Path_97411" data-name="Path 97411" d="M1398.842,895.191s5.773-11.626,2.405-20.061-14.432-2.28-19,4.787S1398.842,895.191,1398.842,895.191Z" transform="translate(-1241.141 -823.402)" fill="#ef9e56"/>
            <path id="Path_97412" data-name="Path 97412" d="M1333.139,1156.766h0a13.046,13.046,0,0,0,16.681-7.881l22.1-61.679a13.046,13.046,0,0,0-7.881-16.682h0a13.046,13.046,0,0,0-16.681,7.881l-22.1,61.68A13.045,13.045,0,0,0,1333.139,1156.766Z" transform="translate(-1207.146 -941.685)" fill="#726658"/>
            <rect id="Rectangle_38323" data-name="Rectangle 38323" width="26.092" height="91.61" transform="translate(47.104 239.651) rotate(-105.898)" fill="#726658"/>
            <path id="Path_97413" data-name="Path 97413" d="M1308.289,1370.6h17.7v-15.431h-16.566Z" transform="translate(-1197.502 -1111.581)" fill="#d1d3d4"/>
          </g>
        </g>
        <path id="Path_97414" data-name="Path 97414" d="M641.008,988.815l46.638,56.2,77.068,21.49V1090.3l-86.357-19.884-58.313-63.258a13.931,13.931,0,0,1,1.932-20.622h0A13.931,13.931,0,0,1,641.008,988.815Z" transform="translate(-379.952 -682.302)" fill="#e0e0e0"/>
        <g id="Group_42670" data-name="Group 42670" transform="translate(231.727 170.996)">
          <rect id="Rectangle_38324" data-name="Rectangle 38324" width="42.53" height="159.866" transform="translate(109.861 408.259) rotate(180)" fill="#343435"/>
          <rect id="Rectangle_38325" data-name="Rectangle 38325" width="42.53" height="159.866" transform="translate(56.677 408.259) rotate(180)" fill="#343435"/>
          <path id="Path_97415" data-name="Path 97415" d="M648.3,1010.691l51.238,45.078,75.131,9.132,3.179,21.781-83.626-6.39-63.127-49.942a12.7,12.7,0,0,1-.945-19.146h0A13.42,13.42,0,0,1,648.3,1010.691Z" transform="translate(-617.564 -867.362)" fill="#cfcdd1"/>
          <path id="Path_97416" data-name="Path 97416" d="M709.509,978.515H629.251a6.178,6.178,0,0,0-.641.022A12.855,12.855,0,0,0,616.356,991.4v165.08h74.329a44.391,44.391,0,0,0,15.99-2.979l24.336-9.394L722.4,991.4A12.886,12.886,0,0,0,709.509,978.515Z" transform="translate(-611.679 -850.164)" fill="#e0e0e0"/>
          <path id="Path_97417" data-name="Path 97417" d="M718.494,1028.208l31.66,36.632,13.592,3.647-.995,12.6L718.494,1060.7Z" transform="translate(-672.478 -879.744)" fill="#d2d1d3"/>
          <path id="Path_97418" data-name="Path 97418" d="M718.494,1141.495l13.558,20.982a13.827,13.827,0,0,0,11.614,6.323h15.6l7.293-15.229-42.765-19.7Z" transform="translate(-672.478 -942.641)" fill="#d2d1d3"/>
          <path id="Path_97419" data-name="Path 97419" d="M648.822,1085.974c-7.21,8.812-30.882,17.707-39.345,20.467-2.564.826-4.193,1.26-4.193,1.26s-3.3-117.442,7.344-124.754c.021-.011.032-.021.054-.032,2.36-3.095,5.008-3.876,9.049-4.378a6.18,6.18,0,0,1,.641-.022h26.754C653.654,995,658.449,1074.208,648.822,1085.974Z" transform="translate(-604.8 -850.164)" fill="#757575"/>
          <path id="Path_97420" data-name="Path 97420" d="M813.765,1088.052c7.21,8.812,14.111,15.629,22.573,18.388,2.564.826,6.609,2.223,6.609,2.223s.886-118.406-9.76-125.717c-.022-.011-.032-.021-.054-.032a11,11,0,0,0-9.049-4.378,6.178,6.178,0,0,0-.641-.022h-11C807.918,995,804.138,1076.286,813.765,1088.052Z" transform="translate(-725.614 -850.164)" fill="#757575"/>
          <g id="Group_42664" data-name="Group 42664" transform="translate(14.909)">
            <path id="Path_97421" data-name="Path 97421" d="M748.347,948.381h0a11.027,11.027,0,0,1-11.027-11.027V919.275a11.027,11.027,0,0,1,11.027-11.027h0a11.027,11.027,0,0,1,11.027,11.027v18.079A11.027,11.027,0,0,1,748.347,948.381Z" transform="translate(-698.593 -808.336)" fill="#ef9e56"/>
            <rect id="Rectangle_38326" data-name="Rectangle 38326" width="83.94" height="106.9" rx="41.97" transform="translate(8.935 9.538)" fill="#ef9e56"/>
            <path id="Path_97422" data-name="Path 97422" d="M741.17,762.991s-.05-5.987,0-11.43c.2-22.066-23.638-1.832-18.478-10.251,0,0-19.554,8.69-18.739,0,0,0-14.665,6.789-25.529-3.259,0,0-8.657,4.888-21.03,0,0,0,7.757,13.579,0,24.17,0,0-5.917-7.061-4.287-21.455,0,0,2.324-11.678,4.287-18.739,2.643-9.506,38.318-2.716,38.229-2.716s28.97.272,29.785,1.086,15.926,8.147,15.926,8.147,5.484,16.742,4.287,25.891C744.283,764.667,741.17,762.991,741.17,762.991Z" transform="translate(-648.295 -694.471)" fill="#231f20"/>
            <path id="Rectangle_38327" data-name="Rectangle 38327" d="M46.4,0h0A46.4,46.4,0,0,1,92.8,46.4v3.572a0,0,0,0,1,0,0H0a0,0,0,0,1,0,0V46.4A46.4,46.4,0,0,1,46.4,0Z" transform="translate(4.365)" fill="#b3e5fc"/>
            <path id="Path_97423" data-name="Path 97423" d="M663.712,877.413s4.524,25.737,23.479,31.472,45.077-.31,49.611-8.186,8.012-17.012,9.038-25.091c0,0-3.437,3.808-10.374,4.792-4.829.685-26.876,9.913-60.687,1.086Z" transform="translate(-654.777 -788.907)" fill="#231f20"/>
            <path id="Path_97424" data-name="Path 97424" d="M780.011,910.465H764.984a2.9,2.9,0,0,1-2.9-2.9h0a2.9,2.9,0,0,1,2.9-2.9h15.027a2.9,2.9,0,0,1,2.9,2.9h0A2.9,2.9,0,0,1,780.011,910.465Z" transform="translate(-713.336 -806.208)" fill="#ef9e56"/>
            <path id="Path_97425" data-name="Path 97425" d="M745.983,890.253s3.168-5.408,8.057-6.416,16.5-1.358,19.758.713a27.967,27.967,0,0,1,6.043,5.7l-15.571.724Z" transform="translate(-703.75 -793.328)" fill="#231f20"/>
            <g id="Group_42663" data-name="Group 42663" transform="translate(0 63.681)">
              <circle id="Ellipse_194" data-name="Ellipse 194" cx="13.414" cy="13.414" r="13.414" fill="#ef9e56"/>
              <path id="Path_97426" data-name="Path 97426" d="M665.3,839.759c0,4.549,1.912,8.237-2.638,8.237a8.237,8.237,0,0,1,0-16.474C667.212,831.522,665.3,835.21,665.3,839.759Z" transform="translate(-649.249 -826.345)" fill="#d68441"/>
            </g>
          </g>
          <g id="Group_42666" data-name="Group 42666" transform="translate(142.155 211.712)">
            <rect id="Rectangle_38328" data-name="Rectangle 38328" width="40.718" height="13.499" transform="translate(40.718 22.834) rotate(180)" fill="#ef9e56"/>
            <g id="Group_42665" data-name="Group 42665" transform="translate(31.909)">
              <path id="Path_97427" data-name="Path 97427" d="M1043.358,1207.312l19-14.863a4.458,4.458,0,0,0,.719-6.316h0a4.459,4.459,0,0,0-5.529-1.149l-22.679,11.833Z" transform="translate(-1034.868 -1184.478)" fill="#ef9e56"/>
            </g>
          </g>
          <g id="Group_42668" data-name="Group 42668" transform="translate(141.017 106.705)">
            <path id="Path_97428" data-name="Path 97428" d="M993.237,961.6s1.717-11.832-15.669-26.213c0,0,14.542-15.7,22.537,1.959,7.448,16.447,6.653-10.3,16.956-12.019s21.034,3.434,1.717,36.274Z" transform="translate(-967.713 -925.032)" fill="#fbb040"/>
            <path id="Path_97429" data-name="Path 97429" d="M1098.215,989.792s13.63,1.824,18.566-10.839l4.186,10.3s-8.586,6.976-22.752,3.434Z" transform="translate(-1039.53 -957.129)" fill="#c47d27"/>
            <path id="Path_97430" data-name="Path 97430" d="M1031.312,1050.893a39.047,39.047,0,0,1-78.094,0c0-21.568,16.408-49.669,37.976-49.669a25.473,25.473,0,0,1,3.881.3C1014.926,1004.605,1031.312,1030.636,1031.312,1050.893Z" transform="translate(-953.218 -970.386)" fill="#fbb040"/>
            <path id="Path_97431" data-name="Path 97431" d="M976.341,1063.99c0-13.15,6.106-28.719,15.756-38.876-12.922,6.938-21.77,24.736-21.77,39.114a33.1,33.1,0,0,0,21.168,30.637A38.97,38.97,0,0,1,976.341,1063.99Z" transform="translate(-963.402 -984.607)" fill="#f7cb92"/>
            <path id="Path_97432" data-name="Path 97432" d="M1097.382,1007.92s8.585-2.576,22.322,6.976l-7.405,7.512s-2.147-10.551-16.205-11.661Z" transform="translate(-1038.267 -974.184)" fill="#d88d2b"/>
            <path id="Path_97433" data-name="Path 97433" d="M1080.07,925.391s4.489,6.493-5.653,16.715c0,0,4.508-7.405,4.508-9.82S1080.492,929.04,1080.07,925.391Z" transform="translate(-1025.364 -925.246)" fill="#f2a43d"/>
            <path id="Path_97434" data-name="Path 97434" d="M992.463,939.176s6.447-.87,9.908,8.467C1002.371,947.643,998.814,941.173,992.463,939.176Z" transform="translate(-976.579 -933.439)" fill="#f2a43d"/>
            <path id="Path_97435" data-name="Path 97435" d="M984.791,943.363s3.294-1.149,6.755,3.037c0,0-4.131-3.388-7.331-2.6Z" transform="translate(-971.67 -935.858)" fill="#f2a43d"/>
            <path id="Path_97436" data-name="Path 97436" d="M1025.1,990.387a5.933,5.933,0,0,0-3.381-6.2s3.622.644,5.192,6.2Z" transform="translate(-993.993 -960.247)" fill="#f2a43d"/>
            <path id="Path_97437" data-name="Path 97437" d="M1042,990.387a5.932,5.932,0,0,0-3.38-6.2s3.622.644,5.192,6.2Z" transform="translate(-1004.055 -960.247)" fill="#f2a43d"/>
            <path id="Path_97438" data-name="Path 97438" d="M1061.391,995.7a5.933,5.933,0,0,0-3.38-6.2s3.622.644,5.192,6.2Z" transform="translate(-1015.598 -963.411)" fill="#f2a43d"/>
            <path id="Path_97439" data-name="Path 97439" d="M1092.872,1051.337a39.043,39.043,0,0,1-25.792,36.737c28.549-64.007-10.446-86.105-10.446-86.105C1076.485,1005.049,1092.872,1031.08,1092.872,1051.337Z" transform="translate(-1014.778 -970.83)" fill="#f4a63d"/>
            <path id="Path_97440" data-name="Path 97440" d="M1033.1,1006.415H995.542a4.185,4.185,0,0,1-4.185-4.185h0a4.185,4.185,0,0,1,4.185-4.185H1033.1a4.185,4.185,0,0,1,4.185,4.185h0A4.185,4.185,0,0,1,1033.1,1006.415Z" transform="translate(-975.921 -968.494)" fill="#d88d2b"/>
            <g id="Group_42667" data-name="Group 42667" transform="translate(9.547 64.727)">
              <path id="Path_97444" data-name="Path 97444" d="M1079.387,1090.137c0,3.658-1.922,5.474-4.166,5.474-2.163,0-4.032-1.736-4.059-5.234,0-3.472,1.9-5.421,4.193-5.421C1077.785,1084.956,1079.387,1086.825,1079.387,1090.137Zm-6.355.16c-.053,2.217.774,3.9,2.243,3.9,1.549,0,2.243-1.656,2.243-3.952,0-2.11-.614-3.873-2.243-3.873C1073.806,1086.371,1073.031,1088.107,1073.031,1090.3Zm2.029,12.605,10.2-17.946h1.495l-10.2,17.946Zm15.623-5.582c0,3.659-1.923,5.475-4.14,5.475-2.163,0-4.032-1.736-4.059-5.208,0-3.5,1.9-5.448,4.193-5.448C1089.108,1092.139,1090.684,1094.009,1090.684,1097.32Zm-6.356.16c-.027,2.216.828,3.9,2.27,3.9,1.549,0,2.244-1.656,2.244-3.952,0-2.109-.614-3.872-2.244-3.872C1085.129,1093.555,1084.328,1095.291,1084.328,1097.481Z" transform="translate(-1043.566 -1083.956)" fill="#be1e2d"/>
            </g>
            <text id="_1" data-name="1" transform="translate(20.142 84.299)" fill="#be1e2d" font-size="28" font-family="SegoeUI, Segoe UI"><tspan x="0" y="0">1</tspan></text>
          </g>
          <g id="Group_42669" data-name="Group 42669" transform="translate(151.534 210.93)">
            <path id="Path_97445" data-name="Path 97445" d="M1003.989,1194.955l12.72-3.377a4.592,4.592,0,0,0,3.26-5.617h0a4.592,4.592,0,0,0-5.616-3.26l-12.72,3.377a4.593,4.593,0,0,0-3.26,5.617h0A4.592,4.592,0,0,0,1003.989,1194.955Z" transform="translate(-990.522 -1182.547)" fill="#e5924e"/>
            <circle id="Ellipse_195" data-name="Ellipse 195" cx="7.29" cy="7.29" r="7.29" transform="translate(0 0.648)" fill="#e5924e"/>
          </g>
          <path id="Path_97446" data-name="Path 97446" d="M641.008,988.815l46.638,56.2,77.068,21.49V1090.3l-86.357-19.884-58.313-63.258a13.931,13.931,0,0,1,1.932-20.622h0A13.931,13.931,0,0,1,641.008,988.815Z" transform="translate(-611.679 -853.298)" fill="#e0e0e0"/>
        </g>
        <path id="Path_97447" data-name="Path 97447" d="M897.3,1709.171H272.872a15.7,15.7,0,0,1-15.7-15.7h0a15.7,15.7,0,0,1,15.7-15.7H897.3a15.7,15.7,0,0,1,15.7,15.7h0A15.7,15.7,0,0,1,897.3,1709.171Z" transform="translate(-166.144 -1095.414)" fill="#616161"/>
        <g id="Group_42673" data-name="Group 42673" transform="translate(561.143 62.689)">
          <g id="Group_42671" data-name="Group 42671" transform="translate(18.811)">
            <path id="Path_97448" data-name="Path 97448" d="M1500.217,395.863h-34a1.035,1.035,0,1,1,0-2.071h34a1.035,1.035,0,0,1,0,2.071Z" transform="translate(-1465.184 -393.792)" fill="#f1f2f2"/>
          </g>
          <g id="Group_42672" data-name="Group 42672">
            <path id="Path_97449" data-name="Path 97449" d="M1429.061,395.863h-9.319a1.035,1.035,0,1,1,0-2.071h9.319a1.035,1.035,0,1,1,0,2.071Z" transform="translate(-1418.706 -393.792)" fill="#f1f2f2"/>
          </g>
        </g>
        <g id="Group_42676" data-name="Group 42676" transform="translate(304.403 119.953)">
          <g id="Group_42674" data-name="Group 42674" transform="translate(18.811)">
            <path id="Path_97450" data-name="Path 97450" d="M865.875,537.347h-34a1.035,1.035,0,1,1,0-2.071h34a1.035,1.035,0,1,1,0,2.071Z" transform="translate(-830.842 -535.276)" fill="#f1f2f2"/>
          </g>
          <g id="Group_42675" data-name="Group 42675">
            <path id="Path_97451" data-name="Path 97451" d="M794.719,537.347H785.4a1.035,1.035,0,1,1,0-2.071h9.319a1.035,1.035,0,1,1,0,2.071Z" transform="translate(-784.364 -535.276)" fill="#f1f2f2"/>
          </g>
        </g>
        <path id="Path_97452" data-name="Path 97452" d="M240.083,1091.737H205.361a2.17,2.17,0,0,1-2.164-2.164h0a2.17,2.17,0,0,1,2.164-2.164h34.722a2.17,2.17,0,0,1,2.164,2.164h0A2.17,2.17,0,0,1,240.083,1091.737Z" transform="translate(-134.013 -743.989)" fill="#f1f2f2"/>
        <path id="Path_97453" data-name="Path 97453" d="M331.967,1091.737h-7.13a2.17,2.17,0,0,1-2.164-2.164h0a2.17,2.17,0,0,1,2.164-2.164h7.13a2.171,2.171,0,0,1,2.164,2.164h0A2.171,2.171,0,0,1,331.967,1091.737Z" transform="translate(-205.133 -743.989)" fill="#f1f2f2"/>
        <g id="Group_42677" data-name="Group 42677" transform="translate(439.476 143.035)">
          <path id="Path_97454" data-name="Path 97454" d="M1122.585,602.563c-2.474,0-4.487-2.3-4.487-5.128s2.012-5.129,4.487-5.129,4.488,2.3,4.488,5.129S1125.059,602.563,1122.585,602.563Zm0-9.221c-1.9,0-3.451,1.836-3.451,4.094s1.548,4.093,3.451,4.093,3.452-1.836,3.452-4.093S1124.488,593.341,1122.585,593.341Z" transform="translate(-1118.098 -592.306)" fill="#f1f2f2"/>
        </g>
        <g id="Group_42678" data-name="Group 42678" transform="translate(619.819 350.255)">
          <path id="Path_97455" data-name="Path 97455" d="M1568.167,1114.552c-2.474,0-4.486-2.3-4.486-5.128s2.012-5.129,4.486-5.129,4.488,2.3,4.488,5.129S1570.642,1114.552,1568.167,1114.552Zm0-9.221c-1.9,0-3.451,1.836-3.451,4.093s1.548,4.093,3.451,4.093,3.453-1.836,3.453-4.093S1570.071,1105.331,1568.167,1105.331Z" transform="translate(-1563.681 -1104.295)" fill="#f1f2f2"/>
        </g>
        <g id="Group_42679" data-name="Group 42679" transform="translate(164.517 270.125)">
          <path id="Path_97456" data-name="Path 97456" d="M443.227,916.572c-2.474,0-4.486-2.3-4.486-5.128s2.012-5.129,4.486-5.129,4.488,2.3,4.488,5.129S445.7,916.572,443.227,916.572Zm0-9.222c-1.9,0-3.451,1.837-3.451,4.094s1.548,4.093,3.451,4.093,3.452-1.835,3.452-4.093S445.131,907.35,443.227,907.35Z" transform="translate(-438.741 -906.315)" fill="#f1f2f2"/>
        </g>
        <g id="Group_42680" data-name="Group 42680" transform="translate(597.776 393.989)">
          <path id="Path_97457" data-name="Path 97457" d="M1513.7,1222.608c-2.474,0-4.486-2.3-4.486-5.129s2.012-5.128,4.486-5.128,4.488,2.3,4.488,5.128S1516.177,1222.608,1513.7,1222.608Zm0-9.222c-1.9,0-3.451,1.836-3.451,4.093s1.548,4.093,3.451,4.093,3.453-1.836,3.453-4.093S1515.606,1213.386,1513.7,1213.386Z" transform="translate(-1509.216 -1212.351)" fill="#f1f2f2"/>
        </g>
        <path id="Path_97458" data-name="Path 97458" d="M600.411,1094.9l3.013-2.143-.575,4.539,2.437,3.214-3.368.662-1.506,4.13-1.506-4.13-3.368-.662,2.437-3.214-.575-4.539Z" transform="translate(-367.559 -747.171)" fill="#f1f2f2"/>
        <path id="Path_97459" data-name="Path 97459" d="M1003.665,909.252l3.013-2.143-.575,4.539,2.437,3.214-3.368.662-1.506,4.129-1.506-4.129-3.368-.662,2.437-3.214-.575-4.539Z" transform="translate(-607.602 -636.662)" fill="#f1f2f2"/>
        <path id="Path_97460" data-name="Path 97460" d="M1705.438,1002.864l3.012-2.143-.575,4.539,2.437,3.214-3.368.662-1.506,4.13-1.506-4.13-3.368-.662,2.438-3.214-.576-4.539Z" transform="translate(-1025.343 -692.386)" fill="#f1f2f2"/>
        <path id="Path_97461" data-name="Path 97461" d="M1576.127,685.048l3.013-2.143-.575,4.539,2.437,3.215-3.368.662-1.506,4.13-1.506-4.13-3.368-.662,2.437-3.215-.575-4.539Z" transform="translate(-948.368 -503.202)" fill="#f1f2f2"/>
        <path id="Path_97462" data-name="Path 97462" d="M1108.485,1511.585l3.013-2.143-.575,4.539,2.437,3.214-3.368.662-1.506,4.13-1.506-4.13-3.368-.662,2.437-3.214-.575-4.539Z" transform="translate(-669.998 -995.21)" fill="#f1f2f2"/>
        <path id="Path_97463" data-name="Path 97463" d="M1122.016,307.969l3.013-2.143-.575,4.539,2.437,3.214-3.368.662-1.506,4.13-1.506-4.13-3.368-.662,2.437-3.214-.575-4.539Z" transform="translate(-678.052 -278.74)" fill="#f1f2f2"/>
      </g>
    </g>
  </g>
</svg>
