<svg xmlns="http://www.w3.org/2000/svg" width="26.037" height="29.624" viewBox="0 0 26.037 29.624">
  <g id="location_2_" data-name="location (2)" transform="translate(-31)">
    <g id="Group_136" data-name="Group 136" transform="translate(31)">
      <g id="Group_135" data-name="Group 135">
        <path id="Path_103" data-name="Path 103" d="M48.964,19.573c3.152-4.947,2.756-4.329,2.847-4.458A9.476,9.476,0,0,0,53.565,9.6a9.547,9.547,0,1,0-17.289,5.58l2.8,4.388C36.083,20.033,31,21.4,31,24.417c0,1.1.717,2.665,4.135,3.886a27.394,27.394,0,0,0,8.884,1.322c6.25,0,13.018-1.763,13.018-5.207C57.037,21.4,51.96,20.034,48.964,19.573ZM37.726,14.23l-.03-.044A7.811,7.811,0,1,1,50.4,14.1c-.084.11.353-.567-6.385,10.005Zm6.292,13.658c-6.827,0-11.283-2.007-11.283-3.472,0-.985,2.289-2.6,7.363-3.234l3.188,5a.868.868,0,0,0,1.464,0l3.188-5c5.073.631,7.363,2.25,7.363,3.234C55.3,25.869,50.886,27.888,44.018,27.888Z" transform="translate(-31)" fill="#e6af2e"/>
      </g>
    </g>
    <g id="Group_138" data-name="Group 138" transform="translate(39.679 5.265)">
      <g id="Group_137" data-name="Group 137">
        <path id="Path_104" data-name="Path 104" d="M185.339,91a4.339,4.339,0,1,0,4.339,4.339A4.344,4.344,0,0,0,185.339,91Zm0,6.943a2.6,2.6,0,1,1,2.6-2.6A2.607,2.607,0,0,1,185.339,97.943Z" transform="translate(-181 -91)" fill="#e6af2e"/>
      </g>
    </g>
  </g>
</svg>
