<svg xmlns="http://www.w3.org/2000/svg" width="318.059" height="222.317" viewBox="0 0 318.059 222.317">
  <g id="Group_42588" data-name="Group 42588" transform="translate(-2112.861 -338.568)">
    <path id="Path_97200" data-name="Path 97200" d="M2270.628,487.813s-11.953-40.79,13.936-59.2,47.405,10.8,72.191-2.693,24.323-56.36,83.6-52.936,52.915,78.34,76.618,82.811c0,0,49.258,8.266,44.249,61.419s-102.644,54.468-137.57-18.6S2308.977,584.072,2270.628,487.813Z" transform="translate(-130.666 -26.749)" fill="#eff1f7"/>
    <path id="Path_97201" data-name="Path 97201" d="M2653.219,387.091c5.613,10.335,1.675,18.673,20.626,35.593,7.213,6.44,12.416,18.648,16.1,31.3l-14.008,36.345c-17.782-12.415-37.812-37.528-36.6-50.011,1.215-12.546-4.132-21.427-14.445-32.241-18.76-19.67-6.692-51.853-6.692-51.853S2644.072,370.249,2653.219,387.091Z" transform="translate(-422.743 -12.784)" fill="#cad0eb"/>
    <path id="Path_97202" data-name="Path 97202" d="M2706.392,513.225a.681.681,0,0,1,.938.217c18.956,30.363,35.591,58.048,50.117,90.75l-.694,1.8c-14.627-33.179-31.414-61.133-50.578-91.831A.68.68,0,0,1,2706.392,513.225Z" transform="translate(-500.04 -145.039)" fill="#9fa8d6"/>
    <path id="Path_97203" data-name="Path 97203" d="M2366.716,714.137c3.536,6.876,6.812,18.483,9.455,30.126l-8.88,33.968c-32.048-30.927-45.49-77.775-45.49-77.775-32.175,5.3-37.933-21.909-37.933-21.909C2348.538,664.381,2366.716,714.137,2366.716,714.137Z" transform="translate(-144.149 -282.343)" fill="#b6bee3"/>
    <path id="Path_97204" data-name="Path 97204" d="M2484.28,748.661a124.837,124.837,0,0,1,33.282,26.654c8.957,10.25,15.266,21.322,18.754,32.91q1.073,3.567,1.786,7.2l-1.168,1.521c-3.126-17.253-11.852-30.946-20.369-40.7a123.408,123.408,0,0,0-32.9-26.367.681.681,0,1,1,.614-1.215Z" transform="translate(-312.25 -343.522)" fill="#8d97c7"/>
    <ellipse id="Ellipse_165" data-name="Ellipse 165" cx="145.106" cy="9.071" rx="145.106" ry="9.071" transform="translate(2112.861 537.393)" fill="#e3e7fa"/>
    <ellipse id="Ellipse_166" data-name="Ellipse 166" cx="77.758" cy="9.071" rx="77.758" ry="9.071" transform="translate(2257.298 542.743)" fill="#e3e7fa"/>
    <path id="Path_97205" data-name="Path 97205" d="M2513.2,1609.05h-210.1a9.125,9.125,0,0,1-9.125-9.125v-.73H2522.32v.73A9.125,9.125,0,0,1,2513.2,1609.05Z" transform="translate(-152.661 -1060.531)" fill="#2e315e"/>
    <path id="Path_97206" data-name="Path 97206" d="M2326.183,511.735l42.013.763s-.229-16.722-12.2-15.573c-7.813.75-8.957,8.86-8.957,8.86S2335.588,496.42,2326.183,511.735Z" transform="translate(-179.818 -131.338)" fill="#eff1f7" fill-rule="evenodd"/>
    <path id="Path_97207" data-name="Path 97207" d="M3558.324,558.05l55.886.323s3.443-17.27-9.41-17.772c-9.936-.388-10.654,9.831-10.654,9.831s-1.893-6.238-10.377-5.02c-6.63.952-7.644,7.561-7.644,7.561S3566.35,544.98,3558.324,558.05Z" transform="translate(-1218.436 -168.193)" fill="#cad0eb" fill-rule="evenodd"/>
    <circle id="Ellipse_167" data-name="Ellipse 167" cx="2.806" cy="2.806" r="2.806" transform="translate(2393.585 459.214)" fill="none" stroke="#2d4e73" stroke-linecap="round" stroke-miterlimit="10" stroke-width="4.273"/>
    <circle id="Ellipse_168" data-name="Ellipse 168" cx="2.806" cy="2.806" r="2.806" transform="translate(2246.25 342.084) rotate(-10.527)" fill="none" stroke="#2d4e73" stroke-linecap="round" stroke-miterlimit="10" stroke-width="4.273"/>
    <circle id="Ellipse_169" data-name="Ellipse 169" cx="2.806" cy="2.806" r="2.806" transform="translate(2129.026 459.214)" fill="none" stroke="#2d4e73" stroke-linecap="round" stroke-miterlimit="10" stroke-width="4.273"/>
    <path id="Rectangle_38291" data-name="Rectangle 38291" d="M42.38,0h107.6a42.38,42.38,0,0,1,42.38,42.38V111.81a0,0,0,0,1,0,0H0a0,0,0,0,1,0,0V42.38A42.38,42.38,0,0,1,42.38,0Z" transform="translate(2177.29 427.799)" fill="#2e315e"/>
    <rect id="Rectangle_38292" data-name="Rectangle 38292" width="180.895" height="104.827" transform="translate(2182.819 433.619)" fill="#b6c0f0"/>
    <g id="Group_42582" data-name="Group 42582" transform="translate(2125.341 445.093)">
      <path id="Path_97208" data-name="Path 97208" d="M2508.591,1068.258s-2.854,4.806-2.968,4.806-1.593-2.7-1.593-2.7l2.768-3.289Z" transform="translate(-2455.073 -1057.076)" fill="#c95836"/>
      <path id="Path_97209" data-name="Path 97209" d="M2305.09,1045.292a1.612,1.612,0,0,0-.37-1.263c-2.315-2.91,2.173-5.224,3.468-6.26,1.352-1.081-.386-3.437,2.549-4.557s3.966.4,4.106.348c.206-.077-.244,2.9-.244,2.9s-1.465.541-1.313,3.514,1,4.487-.734,6.9-9.152-.3-9.152-.3C2304.611,1046.51,2304.992,1045.862,2305.09,1045.292Z" transform="translate(-2285.954 -1028.188)" fill="#663a24" fill-rule="evenodd"/>
      <ellipse id="Ellipse_170" data-name="Ellipse 170" cx="22.164" cy="1.651" rx="22.164" ry="1.651" transform="translate(0 105.804)" fill="#e3e7fa"/>
      <path id="Path_97210" data-name="Path 97210" d="M2378.062,1372.988s-3-20.055.874-27.99l-2.115-27.206,12.68.874-8.545,54.48Z" transform="translate(-2347.844 -1268.418)" fill="#e3633d" fill-rule="evenodd"/>
      <path id="Path_97211" data-name="Path 97211" d="M2383.128,1664.207l2.517,1.833a17.259,17.259,0,0,0,3.2,1.333h0c.269.563-.257.859-.7.933l-7.967-.167s-1.84-.382-.208-3.928C2381.412,1664.851,2382.751,1665.31,2383.128,1664.207Z" transform="translate(-2349.923 -1560.425)" fill="#4a2a1a" fill-rule="evenodd"/>
      <path id="Path_97212" data-name="Path 97212" d="M2376.916,1346.564l-2.933,23.04-3.859,23.1h-9.28a32.629,32.629,0,0,0,.764-5.29c-.1-1.275-.44-13.361,2.389-18.922l-.225-22.646Z" transform="translate(-2334.376 -1292.065)" fill="#5b6bb8" fill-rule="evenodd"/>
      <path id="Path_97213" data-name="Path 97213" d="M2363.58,1368.49l-.224-22.646,4.4.241.164,16.583a36.764,36.764,0,0,1-1.155,9.247c-1.505,6.034-1.261,14.444-1.177,15.5a32.607,32.607,0,0,1-.764,5.29h-4.4a32.629,32.629,0,0,0,.764-5.29C2361.089,1386.137,2360.751,1374.051,2363.58,1368.49Z" transform="translate(-2334.025 -1292.065)" fill="#404b82" fill-rule="evenodd"/>
      <path id="Path_97214" data-name="Path 97214" d="M2250.707,1486.964l-11.738,21.786c-2.279.825-2.423-.5-1.78-2.618,2.693-9.187,1.512-14.8,9.091-22.987Z" transform="translate(-2229.863 -1407.801)" fill="#e3633d" fill-rule="evenodd"/>
      <path id="Path_97215" data-name="Path 97215" d="M2260.559,1325.764l-6.923,22.69a20.813,20.813,0,0,1-1.435,3.572l-11.168,19.774-5.878-3.379c1.468-9.461,3.247-14.021,9.69-23.133l2.512-21.93,6,.241Z" transform="translate(-2228.429 -1273.109)" fill="#5b6bb8" fill-rule="evenodd"/>
      <path id="Path_97216" data-name="Path 97216" d="M2224.209,1632.384l.088,3.113a17.273,17.273,0,0,0,.9,3.343h0c-.281.557-.837.322-1.168.014l-4.74-6.406s-.823-1.689,2.981-2.567C2222.65,1631.419,2223.1,1632.759,2224.209,1632.384Z" transform="translate(-2214.99 -1531.49)" fill="#4a2a1a" fill-rule="evenodd"/>
      <path id="Path_97217" data-name="Path 97217" d="M2518.817,1048.116l.945-2.325a2.1,2.1,0,0,1,.985-1.075l1.807-.927a1.014,1.014,0,0,1,1.47.786h0l-1.353,2.855a3.155,3.155,0,0,1-1.564,1.48l-1.178.536Z" transform="translate(-2467.538 -1037.355)" fill="#c95836"/>
      <path id="Path_97218" data-name="Path 97218" d="M2317.037,1231.949l17.332,1.32c2.819,1.035,1.693,17.288,1.693,17.288l-11.4.528c-5.295-.111-11.557,4.042-12.216-4.78C2311.7,1236.221,2317.037,1231.949,2317.037,1231.949Z" transform="translate(-2293.522 -1196.058)" fill="#5b6bb8" fill-rule="evenodd"/>
      <path id="Path_97219" data-name="Path 97219" d="M2310.858,1302.464s11.5,1.238,15.243-3.812l-15.417-1.324A45.126,45.126,0,0,0,2310.858,1302.464Z" transform="translate(-2292.089 -1251.17)" fill="#404b82" fill-rule="evenodd"/>
      <path id="Path_97220" data-name="Path 97220" d="M2324.517,1096.49l-6.365-.745-1.746.069-4.114,1.435c-2.234,1.105-4.181,5.375-3.327,7.725l.015,6.8c-1.725,5.726-2.615,9.741-2.315,15.635,9.405,3.493,22.334,3.322,25.3-.993C2331.465,1114.616,2329.1,1104.083,2324.517,1096.49Z" transform="translate(-2288.657 -1081.247)" fill="#ffba80" fill-rule="evenodd"/>
      <path id="Path_97221" data-name="Path 97221" d="M2377.424,1062.988s-.333,2.505-.61,4.581a1.54,1.54,0,0,1-.949,1.228,1.515,1.515,0,0,1-1.525-.234l-.407-.333a1.991,1.991,0,0,1-.672-2l1.29-5.374,2.873,2.138Z" transform="translate(-2344.797 -1051.832)" fill="#c95836" fill-rule="evenodd"/>
      <path id="Path_97222" data-name="Path 97222" d="M2391.268,1083.241l-.315,1.488-1.244-1.487Z" transform="translate(-2358.707 -1070.706)" fill="#873b24" fill-rule="evenodd"/>
      <path id="Path_97223" data-name="Path 97223" d="M2364.968,1093.614s2.086,5.163-1.458,5.39-5.484-5.139-5.484-5.139l2.588-1.15Z" transform="translate(-2332.001 -1078.692)" fill="#c95836"/>
      <path id="Path_97224" data-name="Path 97224" d="M2373.268,1043.434a1.34,1.34,0,0,1,.828-1.7l2.415-.824a1.413,1.413,0,0,1,1.684.842,14.507,14.507,0,0,1,1.022,3.818,1.624,1.624,0,0,1-.921,1.79c-.741.253-3.2.3-3.865-.97a19.5,19.5,0,0,1-1.162-2.957Z" transform="translate(-2344.789 -1034.969)" fill="#c95836" fill-rule="evenodd"/>
      <path id="Path_97225" data-name="Path 97225" d="M2360.441,1041.45s.018-3.8.926-5.038c1.219-1.662,3.052-2.771,5.5-1.325,0,0-.866,3.081-5.5,6.248Z" transform="translate(-2334.036 -1029.552)" fill="#663a24" fill-rule="evenodd"/>
      <ellipse id="Ellipse_171" data-name="Ellipse 171" cx="0.905" cy="1.099" rx="0.905" ry="1.099" transform="matrix(0.796, -0.605, 0.605, 0.796, 27.965, 10.62)" fill="#c95836"/>
      <path id="Path_97226" data-name="Path 97226" d="M2402.073,1068.2l-1.213.387s.286.83.848.574S2402.073,1068.2,2402.073,1068.2Z" transform="translate(-2368.107 -1058.026)" fill="#fff" fill-rule="evenodd"/>
      <path id="Path_97227" data-name="Path 97227" d="M2427.82,1077.222l-3.44-2.592-4.044,5-9.707-.909a3.636,3.636,0,0,0-1.732.3c-.7.384,5.99,6.6,5.99,6.6l4.547.767s1.834.07,4.213-3.186S2427.82,1077.222,2427.82,1077.222Z" transform="translate(-2374.839 -1063.448)" fill="#ffba80" fill-rule="evenodd"/>
      <line id="Line_1031" data-name="Line 1031" x1="1.506" y1="3.736" transform="translate(38.473 21.079)" fill="none" stroke="#8b939c" stroke-linecap="round" stroke-linejoin="round" stroke-width="3.041"/>
      <path id="Path_97228" data-name="Path 97228" d="M2365.213,1038.035s-1.612-.1-1.939,2.177" transform="translate(-2336.424 -1032.6)" fill="none" stroke="#8b939c" stroke-linecap="round" stroke-linejoin="round" stroke-width="3.041" fill-rule="evenodd"/>
      <g id="Group_42581" data-name="Group 42581" transform="translate(34.456 0)">
        <rect id="Rectangle_38293" data-name="Rectangle 38293" width="9.186" height="4.076" transform="translate(11.152 9.645) rotate(170.166)" fill="#3a446b"/>
        <ellipse id="Ellipse_172" data-name="Ellipse 172" cx="1.425" cy="2.038" rx="1.425" ry="2.038" transform="translate(0 7.442) rotate(-9.831)" fill="#3a446b"/>
        <rect id="Rectangle_38294" data-name="Rectangle 38294" width="15.411" height="6.837" transform="matrix(-0.985, 0.171, -0.171, -0.985, 25.268, 8.6)" fill="#6c7fc7"/>
        <ellipse id="Ellipse_173" data-name="Ellipse 173" cx="2.391" cy="3.419" rx="2.391" ry="3.419" transform="translate(6.56 4.903) rotate(-9.835)" fill="#6c7fc7"/>
        <rect id="Rectangle_38295" data-name="Rectangle 38295" width="9.665" height="8.809" transform="matrix(-0.985, 0.171, -0.171, -0.985, 27.543, 9.206)" fill="#5b6ba8"/>
        <ellipse id="Ellipse_174" data-name="Ellipse 174" cx="3.081" cy="4.405" rx="3.081" ry="4.405" transform="translate(23.003 1.052) rotate(-9.834)" fill="#cbd2f2"/>
        <path id="Path_97229" data-name="Path 97229" d="M2570.669,1017.8c.274,1.58,1.392,2.7,2.5,2.513s1.779-1.627,1.5-3.207-1.391-2.7-2.5-2.513S2570.395,1016.22,2570.669,1017.8Z" transform="translate(-2545.65 -1012.823)" fill="#2e315e"/>
        <ellipse id="Ellipse_175" data-name="Ellipse 175" cx="3.081" cy="4.405" rx="3.081" ry="4.405" transform="translate(13.48 2.703) rotate(-9.834)" fill="#5b6ba8"/>
      </g>
      <path id="Path_97230" data-name="Path 97230" d="M2404.554,1096.895a4.505,4.505,0,0,0,6.276-1.038l6.234-12.325-2.866-.249-6.115,8.391Z" transform="translate(-2371.221 -1070.742)" fill="#c95836" fill-rule="evenodd"/>
      <path id="Path_97231" data-name="Path 97231" d="M2465.958,1070.567l1.837-1.719a2.1,2.1,0,0,1,1.348-.565l2.035-.085a1.016,1.016,0,0,1,1.007,1.333h0l-2.431,2.03a3.163,3.163,0,0,1-2.045.69l-1.3-.007Z" transform="translate(-2422.981 -1058.026)" fill="#c95836"/>
      <path id="Path_97232" data-name="Path 97232" d="M2353.851,1092.18l-3.26-2.68-5.513,7.406c-2.082.69-9.645-4.694-10.419-4.793-1.473-.188-4.806,1.995-3.563,4.188s4,5.828,4,5.828l9.788,1.781s3.051.235,4.933-3.63S2353.851,1092.18,2353.851,1092.18Z" transform="translate(-2309.071 -1075.983)" fill="#ffba80" fill-rule="evenodd"/>
      <path id="Path_97233" data-name="Path 97233" d="M2359.175,1112.374l-3.839,7.705s-1.56,3.332-4.66,3.113-12.981-4.336-12.981-4.336" transform="translate(-2314.862 -1095.264)" fill="none" stroke="#c98851" stroke-linecap="round" stroke-linejoin="round" stroke-width="3.913" fill-rule="evenodd"/>
      <line id="Line_1032" data-name="Line 1032" x1="2.983" y2="4.108" transform="translate(36.243 16.499)" fill="none" stroke="#c98851" stroke-linecap="round" stroke-linejoin="round" stroke-width="3.913"/>
    </g>
    <rect id="Rectangle_38296" data-name="Rectangle 38296" width="165.593" height="87.052" rx="23.481" transform="translate(2191.781 444.513)" fill="#fff"/>
    <g id="Group_42583" data-name="Group 42583" transform="translate(2196.815 443.824)">
      <circle id="Ellipse_176" data-name="Ellipse 176" cx="20.895" cy="20.895" r="20.895" transform="translate(3.267 3.396)" fill="#7585e6"/>
      <path id="Path_97234" data-name="Path 97234" d="M2782.475,1150.024a20.909,20.909,0,0,1-28.284,19.551" transform="translate(-2737.417 -1125.733)" fill="none" stroke="#1f1406" stroke-linecap="round" stroke-linejoin="round" stroke-width="4.991"/>
      <circle id="Ellipse_177" data-name="Ellipse 177" cx="17.085" cy="17.085" r="17.085" transform="translate(0 24.162) rotate(-45)" fill="#5566a1"/>
      <circle id="Ellipse_178" data-name="Ellipse 178" cx="7.078" cy="7.078" r="7.078" transform="translate(17.115 11.597)" fill="#fff"/>
      <path id="Path_97235" data-name="Path 97235" d="M2728.691,1160.1a7.058,7.058,0,0,1-11.277-.018,17.136,17.136,0,0,0-8.956,7.214,17.087,17.087,0,0,0,29.142,0A17.136,17.136,0,0,0,2728.691,1160.1Z" transform="translate(-2698.867 -1134.207)" fill="#fff"/>
    </g>
    <rect id="Rectangle_38297" data-name="Rectangle 38297" width="88.511" height="31.671" rx="15.836" transform="translate(2249.897 453.145)" fill="#e3e6f7"/>
    <path id="Path_97236" data-name="Path 97236" d="M2766.329,1340.186h-81.864a3.333,3.333,0,0,1-3.323-3.323h0a3.333,3.333,0,0,1,3.323-3.323h81.864a3.333,3.333,0,0,1,3.323,3.323h0A3.333,3.333,0,0,1,2766.329,1340.186Z" transform="translate(-479.026 -836.6)" fill="#e3e6f7"/>
    <path id="Path_97237" data-name="Path 97237" d="M2766.329,1465.684h-81.864a3.333,3.333,0,0,1-3.323-3.323h0a3.333,3.333,0,0,1,3.323-3.323h81.864a3.333,3.333,0,0,1,3.323,3.323h0A3.333,3.333,0,0,1,2766.329,1465.684Z" transform="translate(-479.026 -942.387)" fill="#e3e6f7"/>
    <g id="Group_42586" data-name="Group 42586" transform="translate(2261.715 354.644)">
      <g id="Group_42585" data-name="Group 42585" transform="translate(0 0)">
        <path id="Path_97238" data-name="Path 97238" d="M3210.4,615.639c-3.4-4.019-4.506-5.713-7.827-9.827l-3.624.391c5.427,9.253,5.541,12.971,9.461,15.318C3213,619.958,3210.971,616.741,3210.4,615.639Z" transform="translate(-3177.217 -577.815)" fill="#c95836"/>
        <path id="Path_97239" data-name="Path 97239" d="M3186.321,592.752l-1.957-1.8a2.218,2.218,0,0,0-1.428-.582l-2.148-.068a1.072,1.072,0,0,0-1.049,1.417h0l2.586,2.117a3.338,3.338,0,0,0,2.166.707l1.369-.021Z" transform="translate(-3160.979 -564.744)" fill="#c95836"/>
        <path id="Path_97240" data-name="Path 97240" d="M3204.211,612.168l3.836-3.366,6.527,7.783,11.246-7.139a6.758,6.758,0,0,1,2.274-.874c1.063-.124-2.594,10.244-2.594,10.244l-9.333,5.429s-3.769,2.3-5.668-1.379S3204.211,612.168,3204.211,612.168Z" transform="translate(-3181.656 -580.141)" fill="#c5cceb" fill-rule="evenodd"/>
        <g id="Group_42584" data-name="Group 42584">
          <path id="Path_97241" data-name="Path 97241" d="M3236.952,539.09l-.436-.176a2.836,2.836,0,0,1,.549,2.729h0a2.838,2.838,0,0,1-2.278,1.93l.65.181a2.452,2.452,0,0,0,3.089-1.575h0A2.452,2.452,0,0,0,3236.952,539.09Z" transform="translate(-3207.429 -521.424)" fill="#31417a"/>
          <rect id="Rectangle_38298" data-name="Rectangle 38298" width="4.326" height="13.732" rx="2.163" transform="matrix(-0.925, -0.381, 0.381, -0.925, 19.428, 33)" fill="#31417a"/>
          <path id="Path_97242" data-name="Path 97242" d="M3157.1,506.909l9.405,2.45a4.077,4.077,0,0,0,5.137-2.619h0a4.077,4.077,0,0,0-2.619-5.137l-9.258-4.032A75.508,75.508,0,0,0,3157.1,506.909Z" transform="translate(-3141.939 -486.576)" fill="#455dad"/>
          <path id="Path_97243" data-name="Path 97243" d="M3169.936,546.026l-9.264-2.413a3.9,3.9,0,0,1-1.267,1.943l9.337,2.432a4.077,4.077,0,0,0,4.994-2.244A5.022,5.022,0,0,1,3169.936,546.026Z" transform="translate(-3143.886 -525.385)" fill="#31417a"/>
          <path id="Path_97244" data-name="Path 97244" d="M3215.553,522.424l-.725-.292a4.716,4.716,0,0,1,.913,4.538h0a4.718,4.718,0,0,1-3.788,3.209l1.082.3a4.077,4.077,0,0,0,5.137-2.619h0A4.077,4.077,0,0,0,3215.553,522.424Z" transform="translate(-3188.182 -507.278)" fill="#526ecf"/>
          <path id="Path_97245" data-name="Path 97245" d="M3098.047,438.492l6.994,9.9a14.236,14.236,0,0,1-2.656,8.934l-11.8,4.151a.39.39,0,0,1-.526-.478l7.282-22.427A.39.39,0,0,1,3098.047,438.492Z" transform="translate(-3085.416 -436.613)" fill="#445bab"/>
          <ellipse id="Ellipse_179" data-name="Ellipse 179" cx="12.317" cy="4.974" rx="12.317" ry="4.974" transform="translate(0 23.431) rotate(-72.012)" fill="#5775db"/>
          <ellipse id="Ellipse_180" data-name="Ellipse 180" cx="11.306" cy="4.323" rx="11.306" ry="4.323" transform="translate(0.788 23.048) rotate(-72.012)" fill="#3b4f94"/>
          <path id="Path_97246" data-name="Path 97246" d="M3112.58,489.845a3.537,3.537,0,0,0-1.5-1.044c-1.514-.626-3.525,1.071-4.425,3.614s-.305,4.869,1.167,5.592a2.576,2.576,0,0,0,1.943.288,27.087,27.087,0,0,0,1.937-4.724A28.2,28.2,0,0,0,3112.58,489.845Z" transform="translate(-3099.061 -479.073)" fill="#283563"/>
          <path id="Path_97247" data-name="Path 97247" d="M3101.869,445.428c-1.854-.6-4.463,2.1-6.407,6.34,1.846-1.4,4.551-1.961,8.121,1.068h0C3104.116,448.961,3103.518,445.963,3101.869,445.428Z" transform="translate(-3089.987 -442.551)" fill="#31417a"/>
          <path id="Path_97248" data-name="Path 97248" d="M3137.781,489.708c2.128-1.8,5.131-9.859,4.413-15.013l1.358,1.922c.565.8-.382,9.427-3.468,12.281Z" transform="translate(-3125.659 -467.292)" fill="#5877de"/>
          <path id="Path_97249" data-name="Path 97249" d="M3215.426,557.76a4.741,4.741,0,0,1-2.817,1.52l1.04.289.037.01a4.078,4.078,0,0,0,4.994-2.244A5.024,5.024,0,0,1,3215.426,557.76Z" transform="translate(-3188.735 -536.952)" fill="#8b92e3" opacity="0.21" style="mix-blend-mode: multiply;isolation: isolate"/>
          <path id="Path_97250" data-name="Path 97250" d="M3149.859,543.121a12.274,12.274,0,0,0,1.123-2.258l-1.678-.433a22.443,22.443,0,0,1-1.084,2.4Z" transform="translate(-3134.459 -522.702)" fill="#8b92e3" opacity="0.21" style="mix-blend-mode: multiply;isolation: isolate"/>
        </g>
      </g>
      <path id="Path_97251" data-name="Path 97251" d="M3494.629,765.087s4.605-4.8,6.042-1.219l3.416,18.386-3.073.583-5.291-14.429Z" transform="translate(-3426.46 -709.926)" fill="#c95836" fill-rule="evenodd"/>
      <path id="Path_97252" data-name="Path 97252" d="M3529.472,872.7l.2.181c.593.327,2.587.156,4.328.071l2.319-.053c.883-.206.757-.931.206-1.744h0l-3.821-1.839a3.94,3.94,0,0,0-2.8-.2l-1.589.458-.012.4A3.58,3.58,0,0,0,3529.472,872.7Z" transform="translate(-3454.845 -799.621)" fill="#c95836"/>
      <path id="Path_97253" data-name="Path 97253" d="M3464.6,631.62c3.156.31,12,36.5,12,36.5l-6.065.533-9.369-27.522Z" transform="translate(-3398.253 -599.57)" fill="#c5cceb" fill-rule="evenodd"/>
      <circle id="Ellipse_181" data-name="Ellipse 181" cx="3.278" cy="3.278" r="3.278" transform="translate(20.935 47.115) rotate(-80.924)" fill="#324463"/>
      <path id="Path_97254" data-name="Path 97254" d="M3199.505,696.714s-3.523-.175-3.214,9.463c.169,5.281-3.9,16.216-3.9,16.216l-3.2-1.382-1.18-23.9c0-1.937,2.541-3.771,4.53-4.056l3.866,1.845Z" transform="translate(-3168.007 -651.355)" fill="#c95836" fill-rule="evenodd"/>
      <path id="Path_97255" data-name="Path 97255" d="M3157.937,864.081l-2.972,2.137a20.9,20.9,0,0,1-3.911,1.511h0c-.344.673.284,1.048.821,1.152l9.65.055s2.239-.4.378-4.749C3160.128,864.916,3158.358,865.428,3157.937,864.081Z" transform="translate(-3136.765 -795.52)" fill="#915334" fill-rule="evenodd"/>
      <path id="Path_97256" data-name="Path 97256" d="M3167.618,860.937s-4.333.257-9.051,12.859c-2.585,6.906-13.714,20.632-13.714,20.632l-3.054-.963,11.759-34.325a9.043,9.043,0,0,1,6.049-5.253l7.4-1.814Z" transform="translate(-3129.045 -785.398)" fill="#c95836" fill-rule="evenodd"/>
      <path id="Path_97257" data-name="Path 97257" d="M3106.374,1110.853l-2.96,2.153a20.919,20.919,0,0,1-3.9,1.532h0c-.34.674.289,1.046.828,1.148l9.651,0s2.238-.415.353-4.751C3108.57,1111.676,3106.8,1112.2,3106.374,1110.853Z" transform="translate(-3093.318 -1003.534)" fill="#915334" fill-rule="evenodd"/>
      <path id="Path_97258" data-name="Path 97258" d="M3197.421,782.318c-.774,10.2-9.166,12.572-9.166,12.572l-20.639,6.408s-2.369,8.42-5.407,13.833a133.449,133.449,0,0,1-7.6,11.594l-8.8-2.311s7.023-16.674,9.006-25.193,5.852-9.3,5.852-9.3l20.737-13.54S3198.192,772.168,3197.421,782.318Z" transform="translate(-3132.43 -720.861)" fill="#3b4f94" fill-rule="evenodd"/>
      <path id="Path_97259" data-name="Path 97259" d="M3184.862,706.585l7.39,1.145s2.4-8.094,1.669-14.92l9.944,13.505,12.8-9.9s-22.271-13.883-23.607-14.842-7.418-1.617-7.809,2.767C3185.079,686.28,3184.862,706.585,3184.862,706.585Z" transform="translate(-3165.346 -641.085)" fill="#3b4f94" fill-rule="evenodd"/>
      <path id="Path_97260" data-name="Path 97260" d="M3293.7,803.762l8.329-4.29.418-1.361" transform="translate(-3257.09 -739.911)" fill="none" stroke="#83a5c7" stroke-linecap="round" stroke-linejoin="round" stroke-width="3.708" fill-rule="evenodd"/>
      <path id="Path_97261" data-name="Path 97261" d="M3387.471,553.385a2.538,2.538,0,0,1,.278-3.743c2.013-2.017,2.539,2.5,2.474,2.566S3387.471,553.385,3387.471,553.385Z" transform="translate(-3335.547 -530.03)" fill="#572a22" fill-rule="evenodd"/>
      <path id="Path_97262" data-name="Path 97262" d="M3410.6,563.02s-.184,2.344-1.939,2.468-1.982-4.932-1.982-4.932Z" transform="translate(-3352.321 -539.667)" fill="#572a22" fill-rule="evenodd"/>
      <path id="Path_97263" data-name="Path 97263" d="M3396.847,573.594s.271,2.522.5,4.61a1.505,1.505,0,0,0,1.027,1.236,1.938,1.938,0,0,0,1.746-.236l.478-.335a1.951,1.951,0,0,0,.853-2.018l-1.234-5.41-3.364,2.153Z" transform="translate(-3344.036 -548.843)" fill="#c95836" fill-rule="evenodd"/>
      <path id="Path_97264" data-name="Path 97264" d="M3396.888,595.485l.319,1.406,1.456-1.406Z" transform="translate(-3344.07 -569.11)" fill="#633c1d" fill-rule="evenodd"/>
      <path id="Path_97265" data-name="Path 97265" d="M3394.324,555.471a1.345,1.345,0,0,0-1.133-1.521l-2.534-.362a1.418,1.418,0,0,0-1.5,1.144,14.545,14.545,0,0,0-.294,3.955,1.629,1.629,0,0,0,1.242,1.592c.777.111,3.209-.305,3.629-1.677a19.591,19.591,0,0,0,.594-3.132Z" transform="translate(-3337.285 -533.784)" fill="#c95836" fill-rule="evenodd"/>
      <path id="Path_97266" data-name="Path 97266" d="M3398.506,550.568s.337-2.851-.788-3.9c-1.513-1.411-3.526-2.161-5.67-.28,0,0-1.192.757,2.706,1.194.495.056-.168,2.434.462,2.628a10.058,10.058,0,0,0,3.29.359Z" transform="translate(-3339.846 -526.777)" fill="#572a22" fill-rule="evenodd"/>
      <path id="Path_97267" data-name="Path 97267" d="M3416.949,576.958a1.008,1.008,0,0,1-1.312.546,1.031,1.031,0,0,1-.287-1.406,1.008,1.008,0,0,1,1.312-.546A1.032,1.032,0,0,1,3416.949,576.958Z" transform="translate(-3359.506 -552.231)" fill="#c95836" fill-rule="evenodd"/>
      <path id="Path_97268" data-name="Path 97268" d="M3323.671,606.4l6.2-.522,5.319-.032,8.309,3.385c2.2,1.263,1.364,3.344.35,5.676l.182,7.7c1.39,5.921,1.1,10.217.429,16.181a40.8,40.8,0,0,1-16.123,1.113,11.447,11.447,0,0,1-9.82-12.742C3319.3,620.528,3320.293,615.685,3323.671,606.4Z" transform="translate(-3277.937 -577.846)" fill="#c5cceb" fill-rule="evenodd"/>
      <path id="Path_97269" data-name="Path 97269" d="M3386.867,602.62s-2.443,5.109,1.14,5.563,5.89-4.871,5.89-4.871l-2.555-1.331Z" transform="translate(-3334.938 -574.586)" fill="#c95836"/>
      <path id="Path_97270" data-name="Path 97270" d="M3463.707,693l-3.132-8.392.6-.886" transform="translate(-3397.755 -643.486)" fill="none" stroke="#aab5e0" stroke-linecap="round" stroke-linejoin="round" stroke-width="3.607" fill-rule="evenodd"/>
      <path id="Path_97271" data-name="Path 97271" d="M3332.742,665.466c.084-.277.85-1.912.85-1.912" transform="translate(-3289.999 -626.488)" fill="none" stroke="#aab5e0" stroke-linecap="round" stroke-linejoin="round" stroke-width="3.607" fill-rule="evenodd"/>
      <path id="Path_97272" data-name="Path 97272" d="M3391.045,582.377l1.51.139s-.106,1.069-.826.913S3391.045,582.377,3391.045,582.377Z" transform="translate(-3339.145 -558.061)" fill="#fff" fill-rule="evenodd"/>
    </g>
    <g id="Group_42587" data-name="Group 42587" transform="translate(2277.045 451.911)">
      <path id="Path_97273" data-name="Path 97273" d="M3170.441,1258.956H3275.2a6.058,6.058,0,0,0,6.058-6.057v-63.78a10.69,10.69,0,0,0-10.689-10.689h-97.511a14.846,14.846,0,0,0-14.846,14.847v53.447A12.233,12.233,0,0,0,3170.441,1258.956Z" transform="translate(-3158.208 -1157.763)" fill="#7585e6"/>
      <path id="Path_97274" data-name="Path 97274" d="M3449.9,1055.1v13.3h-7.126v-12.115h-31.534v12.115h-8.017v-13.3a8.254,8.254,0,0,1,8.255-8.255h30.168A8.255,8.255,0,0,1,3449.9,1055.1Z" transform="translate(-3364.738 -1046.849)" fill="#4657c7"/>
      <path id="Path_97275" data-name="Path 97275" d="M3840.387,1178.429H3834.2v80.527h10.817a6.057,6.057,0,0,0,6.058-6.057v-63.78A10.69,10.69,0,0,0,3840.387,1178.429Z" transform="translate(-3728.029 -1157.763)" fill="#4d60db"/>
      <path id="Path_97276" data-name="Path 97276" d="M3272.764,1198.151l8.491-9.033a10.69,10.69,0,0,0-10.69-10.689h-97.511a14.846,14.846,0,0,0-14.846,14.847l2.48,2.839A75.645,75.645,0,0,0,3272.764,1198.151Z" transform="translate(-3158.208 -1157.763)" fill="#9ba7f2"/>
      <rect id="Rectangle_38299" data-name="Rectangle 38299" width="39.388" height="14.754" rx="7.377" transform="translate(33.837 54.633)" fill="#fff"/>
      <path id="Path_97277" data-name="Path 97277" d="M3436.2,1425.265H3418.1a3.755,3.755,0,0,1-3.755-3.755h0a3.755,3.755,0,0,1,3.755-3.755H3436.2a3.755,3.755,0,0,1,3.755,3.755h0A3.755,3.755,0,0,1,3436.2,1425.265Z" transform="translate(-3374.111 -1359.5)" fill="#4d60db"/>
    </g>
    <circle id="Ellipse_182" data-name="Ellipse 182" cx="9.806" cy="9.806" r="9.806" transform="matrix(0.847, -0.532, 0.532, 0.847, 2192.062, 448.281)" fill="#ffac66"/>
    <line id="Line_1033" data-name="Line 1033" y2="10.054" transform="translate(2205.397 446.275)" fill="none" stroke="#fff" stroke-linecap="round" stroke-linejoin="round" stroke-width="6"/>
    <line id="Line_1034" data-name="Line 1034" x1="10.054" transform="translate(2200.37 451.302)" fill="none" stroke="#fff" stroke-linecap="round" stroke-linejoin="round" stroke-width="6"/>
  </g>
</svg>
