<svg xmlns="http://www.w3.org/2000/svg" width="264.055" height="252.565" viewBox="0 0 264.055 252.565">
  <g id="Group_42615" data-name="Group 42615" transform="translate(-4399.439 -400.139)">
    <path id="Path_97278" data-name="Path 97278" d="M4538.523,624.151c-86.624,2.587-168.34-65.22-128.87-122.946,26.634-38.953,56.594-18.66,106.891-49.56a123.172,123.172,0,0,0,34.081-31.437c10.261-13.747,34.086-33.459,76.851-7.041C4714.969,467.215,4626.445,621.526,4538.523,624.151Z" fill="#e5e9fc"/>
    <ellipse id="Ellipse_183" data-name="Ellipse 183" cx="54.773" cy="3.716" rx="54.773" ry="3.716" transform="translate(4507.8 644.699)" fill="#e3e7fa"/>
    <rect id="Rectangle_38301" data-name="Rectangle 38301" width="86.66" height="166.086" rx="43.33" transform="translate(4519.219 482.265)" fill="#2e315e"/>
    <rect id="Rectangle_38302" data-name="Rectangle 38302" width="76.772" height="155.555" rx="35.311" transform="translate(4523.778 486.814)" fill="#cacff0"/>
    <g id="Group_42591" data-name="Group 42591" transform="translate(4523.778 486.814)">
      <path id="Path_97279" data-name="Path 97279" d="M5052.756,833.481h-24.6a7.083,7.083,0,0,0-7.062,7.063v44.223Z" transform="translate(-5021.091 -833.481)" fill="#e3e6f7"/>
      <path id="Path_97280" data-name="Path 97280" d="M5090.8,833.481h-23.528l-46.181,74.8v73.7c0,3.884,76.772-141.429,76.772-141.429A7.084,7.084,0,0,0,5090.8,833.481Z" transform="translate(-5021.091 -833.481)" fill="#e3e6f7"/>
    </g>
    <circle id="Ellipse_184" data-name="Ellipse 184" cx="3.574" cy="3.574" r="3.574" transform="matrix(0.973, -0.23, 0.23, 0.973, 4632.158, 607.741)" fill="none" stroke="#2d4e73" stroke-linecap="round" stroke-miterlimit="10" stroke-width="4.273"/>
    <circle id="Ellipse_185" data-name="Ellipse 185" cx="3.574" cy="3.574" r="3.574" transform="translate(4592.008 413.597)" fill="none" stroke="#2d4e73" stroke-linecap="round" stroke-miterlimit="10" stroke-width="4.273"/>
    <circle id="Ellipse_186" data-name="Ellipse 186" cx="3.574" cy="3.574" r="3.574" transform="translate(4450.803 451.995)" fill="none" stroke="#2d4e73" stroke-linecap="round" stroke-miterlimit="10" stroke-width="4.273"/>
    <g id="Group_42592" data-name="Group 42592" transform="translate(4591.934 499.551)">
      <path id="Path_97281" data-name="Path 97281" d="M5363.226,1058.015l-.945-118.447,22.269-.055.944,118.447Z" transform="translate(-5362.194 -931.042)" fill="#ffac66"/>
      <path id="Path_97282" data-name="Path 97282" d="M5362.376,951.835l-.1-12.265,22.269-.055.1,12.265Z" transform="translate(-5362.192 -931.044)" fill="#fff"/>
      <path id="Path_97283" data-name="Path 97283" d="M5361.943,909.485l-.1-12.265,22.34-.055.1,12.265Z" transform="translate(-5361.845 -897.164)" fill="#4e5ead"/>
      <path id="Path_97284" data-name="Path 97284" d="M5367,1531.761l10.753,24.417,11.515-24.472Z" transform="translate(-5365.971 -1404.788)" fill="#eff2fc"/>
      <path id="Path_97285" data-name="Path 97285" d="M5405.967,1620.314l2.967,6.672,3.192-6.76Z" transform="translate(-5397.142 -1475.604)" fill="#172d59"/>
      <line id="Line_1035" data-name="Line 1035" x1="0.203" y2="101.451" transform="translate(11.635 22.193)" fill="none" stroke="#d4813b" stroke-linecap="round" stroke-linejoin="round" stroke-width="4.614"/>
      <path id="Path_97286" data-name="Path 97286" d="M5421.022,1653.272" transform="translate(-5409.186 -1502.04)" fill="none" stroke="#d4813b" stroke-linecap="round" stroke-linejoin="round" stroke-width="4.614"/>
      <path id="Path_97287" data-name="Path 97287" d="M5421.964,1136.212" transform="translate(-5409.939 -1088.399)" fill="none" stroke="#d4813b" stroke-linecap="round" stroke-linejoin="round" stroke-width="4.614"/>
    </g>
    <g id="Group_42605" data-name="Group 42605" transform="translate(4470.106 448.154)">
      <rect id="Rectangle_38303" data-name="Rectangle 38303" width="99.974" height="181.691" rx="3" transform="translate(8.473 0)" fill="#8997de"/>
      <path id="Rectangle_38304" data-name="Rectangle 38304" d="M2.272,0H16.827A2.272,2.272,0,0,1,19.1,2.272v0a2.272,2.272,0,0,1-2.272,2.272H2.272A2.272,2.272,0,0,1,0,2.272v0A2.272,2.272,0,0,1,2.272,0Z" transform="translate(72.414 67.148) rotate(-0.44)" fill="#6b7ccf"/>
      <path id="Rectangle_38305" data-name="Rectangle 38305" d="M2.272,0H16.827A2.272,2.272,0,0,1,19.1,2.272v0a2.272,2.272,0,0,1-2.272,2.272H2.272A2.272,2.272,0,0,1,0,2.272v0A2.272,2.272,0,0,1,2.272,0Z" transform="translate(72.884 50.978) rotate(-0.44)" fill="#6b7ccf"/>
      <path id="Path_97288" data-name="Path 97288" d="M5041.607,1117.193l-37.688.291a2.273,2.273,0,0,1-2.29-2.255h0a2.273,2.273,0,0,1,2.255-2.29l37.688-.291a2.272,2.272,0,0,1,2.29,2.255h0A2.272,2.272,0,0,1,5041.607,1117.193Z" transform="translate(-4951.85 -1018.152)" fill="#6b7ccf"/>
      <path id="Path_97289" data-name="Path 97289" d="M4949.118,1379.355l-60.812.47a2.272,2.272,0,0,1-2.29-2.255h0a2.272,2.272,0,0,1,2.254-2.289l60.812-.47a2.272,2.272,0,0,1,2.29,2.255h0A2.272,2.272,0,0,1,4949.118,1379.355Z" transform="translate(-4859.361 -1227.878)" fill="#6b7ccf"/>
      <path id="Path_97290" data-name="Path 97290" d="M4952.26,1193.747l-60.149.465a2.221,2.221,0,0,1-2.238-2.2v-.1a2.221,2.221,0,0,1,2.2-2.238l60.149-.464a2.221,2.221,0,0,1,2.238,2.2v.1A2.221,2.221,0,0,1,4952.26,1193.747Z" transform="translate(-4862.445 -1079.394)" fill="#6b7ccf"/>
      <path id="Path_97291" data-name="Path 97291" d="M5040.665,1298.185l-36.224.28a2.272,2.272,0,0,1-2.29-2.255h0a2.272,2.272,0,0,1,2.254-2.29l36.224-.28a2.272,2.272,0,0,1,2.29,2.255h0A2.272,2.272,0,0,1,5040.665,1298.185Z" transform="translate(-4952.268 -1162.943)" fill="#6b7ccf"/>
      <g id="Group_42597" data-name="Group 42597" transform="translate(0 12.396)">
        <circle id="Ellipse_187" data-name="Ellipse 187" cx="31.056" cy="31.056" r="31.056" transform="translate(0 4.163) rotate(-3.843)" fill="#c5caf0"/>
        <path id="Path_97292" data-name="Path 97292" d="M4828.089,769.385c-4.475-2.806-4.148-3.909-4.713-11.021s-9.194-13.2-9.194-13.2l-4.52,10.3s-4.307-12.281-11.894-11.641-10.7,12.3-11.844,16.709-.9,11.521-5.823,14.555c-1.97,1.214-3.1,3.649-3.756,6.134a31.059,31.059,0,0,0,57.478-1.9C4832.268,775.1,4830.229,770.727,4828.089,769.385Z" transform="translate(-4771.625 -735.478)" fill="#572a22" fill-rule="evenodd"/>
        <path id="Path_97293" data-name="Path 97293" d="M4857.7,766.469c.064-2.075-.491-10.139.211-12.2,1.216-3.569,3.332-5.507,5.9-6.388l7.271-.61c3.459.309,6.464,2.07,8.214,6.424.812,2.02.69,10.1.866,12.171.571,6.707.926,17-8.413,17.187-.128,0,.4-.784.273-.782l-.055-2.07-5.313.143.056,2.07c-.127.005,1.375.8,1.247.8C4858.62,783.527,4857.49,773.2,4857.7,766.469Z" transform="translate(-4836.59 -738.251)" fill="#ed795a"/>
        <path id="Path_97294" data-name="Path 97294" d="M4882.069,891.195l-7.856-6.838.171-2.553,1.539-23.025,13.189,2.048,1.274,22.135C4890.329,885.813,4884.12,891.513,4882.069,891.195Z" transform="translate(-4849.918 -827.456)" fill="#ed795a"/>
        <g id="Group_42594" data-name="Group 42594" transform="translate(35.563 23.195)">
          <g id="Group_42593" data-name="Group 42593">
            <path id="Path_97295" data-name="Path 97295" d="M4931.156,819.313a.673.673,0,0,1-.559-.316c-.13-.248.021-.519.337-.606a7.152,7.152,0,0,1,4.21.162c.3.134.421.425.263.652a.708.708,0,0,1-.838.168,5.615,5.615,0,0,0-3.162-.085A.781.781,0,0,1,4931.156,819.313Z" transform="translate(-4930.551 -818.14)" fill="#4f261f"/>
          </g>
        </g>
        <path id="Path_97296" data-name="Path 97296" d="M4939.973,836.606a.836.836,0,1,0,.821-1.028A.946.946,0,0,0,4939.973,836.606Z" transform="translate(-4902.525 -808.895)" fill="#572a22"/>
        <path id="Path_97297" data-name="Path 97297" d="M4934.249,836.151a3.094,3.094,0,0,1,3.931-.68" transform="translate(-4897.947 -808.47)" fill="none" stroke="#4f261f" stroke-linecap="round" stroke-miterlimit="10" stroke-width="2.877"/>
        <g id="Group_42596" data-name="Group 42596" transform="translate(23.837 23.397)">
          <g id="Group_42595" data-name="Group 42595">
            <path id="Path_97298" data-name="Path 97298" d="M4876.26,820.235a.672.672,0,0,0,.541-.346c.116-.254-.048-.517-.369-.587a7.15,7.15,0,0,0-4.195.388.44.44,0,0,0-.228.665.708.708,0,0,0,.846.123,5.611,5.611,0,0,1,3.152-.255A.781.781,0,0,0,4876.26,820.235Z" transform="translate(-4871.926 -819.148)" fill="#4f261f"/>
          </g>
        </g>
        <path id="Path_97299" data-name="Path 97299" d="M4882.434,838.155a.836.836,0,1,1-.875-.982A.946.946,0,0,1,4882.434,838.155Z" transform="translate(-4855.196 -810.17)" fill="#572a22"/>
        <path id="Path_97300" data-name="Path 97300" d="M4878.916,837.8a3.035,3.035,0,0,0-3.911-.532" transform="translate(-4850.552 -809.86)" fill="none" stroke="#4f261f" stroke-linecap="round" stroke-miterlimit="10" stroke-width="2.877"/>
        <path id="Path_97301" data-name="Path 97301" d="M4909.758,919.517s-3.929,2.795-10.4.844c0,0,10.773,4.588,10.9,6.892Z" transform="translate(-4870.036 -876.045)" fill="#ba5236"/>
        <ellipse id="Ellipse_188" data-name="Ellipse 188" cx="3.245" cy="5.207" rx="3.245" ry="5.207" transform="translate(15.179 26.82) rotate(-17.932)" fill="#ed795a"/>
        <path id="Path_97302" data-name="Path 97302" d="M4843.455,840.807c2.053.383,2.71,4.8,2.71,4.8s-.9-1.366-1.792-1.054" transform="translate(-4825.313 -813.078)" fill="none" stroke="#a84a31" stroke-linecap="round" stroke-linejoin="round" stroke-width="1.996"/>
        <ellipse id="Ellipse_189" data-name="Ellipse 189" cx="5.32" cy="3.5" rx="5.32" ry="3.5" transform="translate(39.84 33.819) rotate(-69.266)" fill="#ed795a"/>
        <path id="Path_97303" data-name="Path 97303" d="M4975.451,836.705c-2.244.54-2.789,5-2.789,5s.94-1.434,1.929-1.19" transform="translate(-4928.676 -809.797)" fill="none" stroke="#a84a31" stroke-linecap="round" stroke-linejoin="round" stroke-width="1.996"/>
        <path id="Path_97304" data-name="Path 97304" d="M4920,833.521a.827.827,0,0,0,.552-.219,1.231,1.231,0,0,0,.21-1.352l-.591-1.367-.925-2.14s-.832-2.8.41-3.846" transform="translate(-4885.73 -800.11)" fill="none" stroke="#a84a31" stroke-linecap="round" stroke-linejoin="round" stroke-width="1.996"/>
        <line id="Line_1036" data-name="Line 1036" x1="0.824" y1="0.216" transform="translate(31.213 33.203)" fill="none" stroke="#a84a31" stroke-linecap="round" stroke-linejoin="round" stroke-width="1.996"/>
        <path id="Path_97305" data-name="Path 97305" d="M4836.5,977.237a30.454,30.454,0,0,0,18.53-6.377l1.118-.905-9.575-4.307a2.09,2.09,0,0,0-2.906,1.469c-.6,2.874-2.348,7.075-7.378,7.088-4.622.012-6.917-3.725-7.982-6.487a2.978,2.978,0,0,0-3.88-1.685l-8.455,3.356A30.469,30.469,0,0,0,4836.5,977.237Z" transform="translate(-4803.328 -912.8)" fill="#dfeefa"/>
        <path id="Path_97306" data-name="Path 97306" d="M4883.6,730.919s10.036,19.324,24.67,20.882a95.936,95.936,0,0,1-5.368-15.285c-2.054-8.188-14.115-9.633-17.046-9.483S4883.6,730.919,4883.6,730.919Z" transform="translate(-4857.375 -722.053)" fill="#572a22" fill-rule="evenodd"/>
        <path id="Path_97307" data-name="Path 97307" d="M4856.042,746.342c-.445-3.084-3.694-1.851-3.694-1.851s-11.284,7.475-4.538,20.726C4847.81,765.217,4856.487,749.426,4856.042,746.342Z" transform="translate(-4827.076 -735.832)" fill="#572a22" fill-rule="evenodd"/>
        <path id="Path_97308" data-name="Path 97308" d="M4904.238,884.8l5.252-.069s-.379,2.523-2.55,2.5S4904.238,884.8,4904.238,884.8Z" transform="translate(-4873.938 -848.214)" fill="#fff"/>
      </g>
      <g id="Group_42598" data-name="Group 42598" transform="translate(68.61 21.867)">
        <path id="Path_97309" data-name="Path 97309" d="M5095.776,757.934c0-5.218,3.066-8.409,7.2-8.409a5.894,5.894,0,0,1,3.818,1.388.876.876,0,0,1,.119,1.233l-.015.018a.864.864,0,0,1-1.2.132,4.211,4.211,0,0,0-2.7-.965c-3.066,0-5.094,2.523-5.094,6.554,0,4.081,1.954,6.653,5.02,6.653a4.6,4.6,0,0,0,3.153-1.233.865.865,0,0,1,1.213.089h0a.871.871,0,0,1-.051,1.208,6.132,6.132,0,0,1-4.389,1.741C5098.792,766.343,5095.776,763.226,5095.776,757.934Z" transform="translate(-5095.776 -749.525)" fill="#fff"/>
        <path id="Path_97310" data-name="Path 97310" d="M5162.285,751.009h.095a1,1,0,0,1,.954.712l2.385,8.043c.593,1.929.964,3.462,1.583,5.367h.1c.593-1.9.989-3.438,1.558-5.367l2.385-8.043a1,1,0,0,1,.954-.712h0a1,1,0,0,1,.948,1.3l-4.513,14.234a1,1,0,0,1-.948.694h-.944a1,1,0,0,1-.947-.692l-4.556-14.234A1,1,0,0,1,5162.285,751.009Z" transform="translate(-5148.186 -750.712)" fill="#fff"/>
      </g>
      <g id="Group_42600" data-name="Group 42600" transform="translate(19.731 84.98)">
        <g id="Group_42599" data-name="Group 42599">
          <rect id="Rectangle_38306" data-name="Rectangle 38306" width="25.689" height="21.153" rx="10.577" fill="#ffac66"/>
        </g>
      </g>
      <g id="Group_42601" data-name="Group 42601" transform="translate(27.856 90.8)">
        <path id="Path_97311" data-name="Path 97311" d="M4896.456,1103.677h0a.677.677,0,0,1-.566-.309l-3.759-5.809a.677.677,0,1,1,1.137-.736l3.2,4.938,4.8-7.294a.677.677,0,0,1,1.131.745l-5.375,8.16A.676.676,0,0,1,4896.456,1103.677Z" transform="translate(-4892.02 -1094.162)" fill="#fff"/>
      </g>
      <g id="Group_42603" data-name="Group 42603" transform="translate(19.731 121.351)">
        <g id="Group_42602" data-name="Group 42602">
          <rect id="Rectangle_38307" data-name="Rectangle 38307" width="25.689" height="21.153" rx="10.577" fill="#ffac66"/>
        </g>
      </g>
      <g id="Group_42604" data-name="Group 42604" transform="translate(27.856 127.17)">
        <path id="Path_97312" data-name="Path 97312" d="M4896.456,1285.516h0a.678.678,0,0,1-.566-.309l-3.759-5.809a.677.677,0,0,1,1.137-.736l3.2,4.938,4.805-7.294a.677.677,0,0,1,1.13.745l-5.375,8.16A.676.676,0,0,1,4896.456,1285.516Z" transform="translate(-4892.019 -1276.001)" fill="#fff"/>
      </g>
    </g>
    <g id="Group_42614" data-name="Group 42614" transform="translate(4417.667 524.576)">
      <ellipse id="Ellipse_190" data-name="Ellipse 190" cx="37.219" cy="3.888" rx="37.219" ry="3.888" transform="translate(0 120.354)" fill="#e3e7fa"/>
      <path id="Path_97313" data-name="Path 97313" d="M4653.258,1106.764a7.6,7.6,0,0,1,2.491,2.966,4.4,4.4,0,0,1-.028,4.32,5.172,5.172,0,0,1-4.6,1.958,9.258,9.258,0,0,1-4.3-1.237,14.294,14.294,0,0,1-4.484-4.556c-3.327-4.947-6.171-12.555-4.463-18.557,4.927,1.972,5.448,2.484,6.876,4.288a25.01,25.01,0,0,1,3.143,6.118,25.965,25.965,0,0,0,2.436,4.882A2.993,2.993,0,0,1,4653.258,1106.764Z" transform="translate(-4608.006 -1077.781)" fill="#fff" fill-rule="evenodd"/>
      <g id="Group_42607" data-name="Group 42607" transform="translate(27.107 59.62)">
        <g id="Group_42606" data-name="Group 42606">
          <path id="Path_97314" data-name="Path 97314" d="M4628.017,1386.572h.014a1.143,1.143,0,0,0,1.129-1.156l-.773-63.927a1.143,1.143,0,0,0-1.143-1.129h-.014a1.144,1.144,0,0,0-1.129,1.156l.773,63.927A1.143,1.143,0,0,0,4628.017,1386.572Z" transform="translate(-4626.101 -1320.359)" fill="#1f2640"/>
        </g>
      </g>
      <rect id="Rectangle_38308" data-name="Rectangle 38308" width="36.67" height="13.713" rx="6.856" transform="translate(10.442 53.907)" fill="#1f2640"/>
      <g id="Group_42609" data-name="Group 42609" transform="translate(40.86 63.35)">
        <g id="Group_42608" data-name="Group 42608">
          <path id="Path_97315" data-name="Path 97315" d="M4700.024,1400.244l.081,0a1.142,1.142,0,0,0,1.06-1.22l-1.82-25.841-2.2-33.107a1.143,1.143,0,0,0-2.281.152l2.2,33.111,1.82,25.845A1.142,1.142,0,0,0,4700.024,1400.244Z" transform="translate(-4694.858 -1339.006)" fill="#1f2640"/>
        </g>
      </g>
      <g id="Group_42611" data-name="Group 42611" transform="translate(14.397 91.803)">
        <g id="Group_42610" data-name="Group 42610">
          <path id="Path_97316" data-name="Path 97316" d="M4563.7,1483.943h.018l26.192-.4a1.143,1.143,0,0,0-.017-2.286h-.018l-26.193.4a1.143,1.143,0,0,0,.017,2.286Z" transform="translate(-4562.556 -1481.262)" fill="#1f2640"/>
        </g>
      </g>
      <g id="Group_42613" data-name="Group 42613" transform="translate(11.95 61.634)">
        <g id="Group_42612" data-name="Group 42612">
          <path id="Path_97317" data-name="Path 97317" d="M4551.462,1393.536a1.142,1.142,0,0,0,1.139-1.073l3.693-60.822a1.142,1.142,0,0,0-2.281-.139l-3.693,60.822a1.142,1.142,0,0,0,1.071,1.21C4551.416,1393.536,4551.439,1393.536,4551.462,1393.536Z" transform="translate(-4550.318 -1330.429)" fill="#1f2640"/>
        </g>
      </g>
      <path id="Path_97318" data-name="Path 97318" d="M4701.8,1409.135a66.408,66.408,0,0,1-2.437,9.3,5.891,5.891,0,0,0-.466,2.292c0,.049.008.1.014.146a2.936,2.936,0,0,0,3.206,2.519,1.47,1.47,0,0,0,1.17-.614c2.3-3.122,4.383-8.043,6.67-11.2A21.558,21.558,0,0,0,4701.8,1409.135Z" transform="translate(-4657.223 -1331.758)" fill="#c95836"/>
      <path id="Path_97319" data-name="Path 97319" d="M4702.009,1583.279a57.033,57.033,0,0,1,4,7.151,5.035,5.035,0,0,0,1.065,1.681c.031.028.063.054.094.08a2.418,2.418,0,0,0,3.394-.411,1.3,1.3,0,0,0,.339-1.085c-.455-3.3-2.1-7.569-2.584-10.888A18.066,18.066,0,0,0,4702.009,1583.279Z" transform="translate(-4659.719 -1468.293)" fill="#c95836"/>
      <path id="Path_97320" data-name="Path 97320" d="M4697.127,1460.672l.673,4.952a35.857,35.857,0,0,0,1.506,4.348h0c-.222.861-1.068.7-1.624.375l-6.22-6.557s-2.937-3.011,1.041-5.411C4693.5,1460.407,4695.7,1461.531,4697.127,1460.672Z" transform="translate(-4650.446 -1371.153)" fill="#4a2a1a" fill-rule="evenodd"/>
      <path id="Path_97321" data-name="Path 97321" d="M4580.86,1023.1c-.871-.284-1.686.6-2.183,1.365-1,1.562-.9,3.327-1.806,4.927-.944,1.615-1.959,3.807-.79,5.416,2.607,2.608,4.858.629,6.689.215,1.407-.255,1.523.559,2.915.884a4.021,4.021,0,0,0,5.293-3.426c.18-1.98-1.7-3.067-2.521-4.184a29.56,29.56,0,0,1-1.475-2.843C4585.784,1022.869,4582.051,1021.191,4580.86,1023.1Z" transform="translate(-4558.559 -1022.278)" fill="#663a24" fill-rule="evenodd"/>
      <path id="Path_97322" data-name="Path 97322" d="M4571.387,1270.577c5.049,12.734,8.855,26.015,15.463,38.014,7.4.63,7.256-4.265,11.37-5a332.89,332.89,0,0,1-17.3-51.315c-1.181-4.75-2.257-9.527-3.6-14.233-.7-2.454-1.655-5.119-3.891-6.349a6.839,6.839,0,0,0-6.395.326c-1.961,1.052-5.554,1.477-7.505,2.939C4559.431,1235.262,4560.389,1242.836,4571.387,1270.577Z" transform="translate(-4545.733 -1189.285)" fill="#5d6dc7" fill-rule="evenodd"/>
      <path id="Path_97323" data-name="Path 97323" d="M4628.458,1238.105a69.77,69.77,0,0,1,24.05,7.37c2.371,1.231,4.852,2.817,5.669,5.361.846,2.632-.351,5.441-1.522,7.946-3.522,7.53-9.725,20.706-9.626,20.773-3.171-1.644-6.617-.808-9.788-2.452,2.021-7.456,4.234-15.26,9.805-20.709a170.843,170.843,0,0,0-21.641-1.881,115.486,115.486,0,0,1-3.064-18.108c2.468.76,4.937,1.519,7.359,2.327C4629.565,1238.6,4629.431,1238.475,4628.458,1238.105Z" transform="translate(-4595.985 -1193.577)" fill="#5d6dc7" fill-rule="evenodd"/>
      <path id="Path_97324" data-name="Path 97324" d="M4554.613,1079.485a28.58,28.58,0,0,0-7.113,3.55,9.64,9.64,0,0,0-4.04,6.607,14.3,14.3,0,0,0,.524,4.3c1.451,6.4-2.126,10.038-.675,16.435.3,1.308,1.431,10.861,2.649,11.422,11.621,5.35,24.535-6.58,28.57-6.768,1.209-.056.747-1.828-.109-2.684-3.408-3.407-5.411-11.071-5.418-13.982-.009-3.847-1.131-2.722-1.141-6.569a14.269,14.269,0,0,0-.573-4.855,9.607,9.607,0,0,0-5.38-5.222,40.1,40.1,0,0,0-7.5-1.947C4554.507,1079.835,4554.6,1079.9,4554.613,1079.485Z" transform="translate(-4532.479 -1068.043)" fill="#fff" fill-rule="evenodd"/>
      <path id="Path_97325" data-name="Path 97325" d="M4705.3,1138.759a5.638,5.638,0,0,0,1.022-.655l9.792-13-3.664-1.484-9.081,8.09-1.78,1.73A3.287,3.287,0,0,0,4705.3,1138.759Z" transform="translate(-4658.571 -1103.346)" fill="#c95836" fill-rule="evenodd"/>
      <path id="Path_97326" data-name="Path 97326" d="M4724.574,1621.19l4.026,2.961a35.915,35.915,0,0,0,4.171,1.942h0c.465.758-.238,1.256-.86,1.427l-9.038-.091s-4.205.016-3.163-4.511C4721.861,1623.612,4724.2,1622.811,4724.574,1621.19Z" transform="translate(-4673.747 -1501.399)" fill="#4a2a1a" fill-rule="evenodd"/>
      <path id="Path_97327" data-name="Path 97327" d="M4588.741,1073.066c2.161,3.274,6.029,8.588,6.029,8.588a27.661,27.661,0,0,1,2.016-8.013c-2.187-1.066-3.521-2.839-5.493-3.39A5.367,5.367,0,0,1,4588.741,1073.066Z" transform="translate(-4569.106 -1060.656)" fill="#c95836" fill-rule="evenodd"/>
      <path id="Path_97328" data-name="Path 97328" d="M4760.659,1118.572l3.7.665a3.133,3.133,0,0,0,2.145-.391l2.615-1.551a1.518,1.518,0,0,0,.181-2.487h0l-4.687-.559a4.723,4.723,0,0,0-3.119.8l-1.617,1.066Z" transform="translate(-4706.008 -1095.831)" fill="#c95836"/>
      <path id="Path_97329" data-name="Path 97329" d="M4553.833,1223.854a8.279,8.279,0,0,0-2.518,3.555,5,5,0,0,0,1.5,5.3l11.428,9.988,1.747-3.546-7.408-9.646Z" transform="translate(-4538.972 -1183.536)" fill="#c95836" fill-rule="evenodd"/>
      <path id="Path_97330" data-name="Path 97330" d="M4542.607,1094.033c-5.939,2.771-5.586,6.565-6.4,10.976s-.482,8.944-.147,13.418c.148,1.974.086,4.2,1.412,5.668,1.554,1.724,5.592.877,7.216-.781,1.386-1.414.817-2.672.9-4.65C4545.933,1110.307,4546.05,1102.03,4542.607,1094.033Z" transform="translate(-4526.672 -1079.681)" fill="#fff" fill-rule="evenodd"/>
      <path id="Path_97331" data-name="Path 97331" d="M4609.372,1301.038l-.915,3.573a3.071,3.071,0,0,0,.229,2.127l1.331,2.667a1.487,1.487,0,0,0,2.42.348h0l.882-4.55a4.63,4.63,0,0,0-.562-3.109l-.927-1.657Z" transform="translate(-4584.804 -1244.801)" fill="#c95836"/>
      <path id="Path_97332" data-name="Path 97332" d="M4570.453,1164.443c-.925-.907-.231-12.513-.231-12.513l-.862-1.827" transform="translate(-4553.602 -1124.536)" fill="none" stroke="#8b939c" stroke-linecap="round" stroke-linejoin="round" stroke-width="2.54" fill-rule="evenodd"/>
      <path id="Path_97333" data-name="Path 97333" d="M4655.358,1300.776c-.487-1.72-2.153-5.679-2.149-6.031a.788.788,0,0,1,.567-.789" transform="translate(-4620.68 -1239.617)" fill="none" stroke="#414e8c" stroke-linecap="round" stroke-linejoin="round" stroke-width="3.035" fill-rule="evenodd"/>
      <path id="Path_97334" data-name="Path 97334" d="M4662.764,1157.481l-3.191-8.834.092-.872" transform="translate(-4625.77 -1122.674)" fill="none" stroke="#8b939c" stroke-linecap="round" stroke-linejoin="round" stroke-width="2.54" fill-rule="evenodd"/>
      <path id="Path_97335" data-name="Path 97335" d="M4617.826,1073.39a16.725,16.725,0,0,0,2.3,4.276,1.291,1.291,0,0,0,2.241-.27c.166-.411.351-.82.514-1.232a4.891,4.891,0,0,0,0-3.7C4621.336,1068.793,4617.917,1073.387,4617.826,1073.39Z" transform="translate(-4592.374 -1061.289)" fill="#663a24" fill-rule="evenodd"/>
      <path id="Path_97336" data-name="Path 97336" d="M4602.434,1053.311s-.452,3.013-.826,5.51a1.858,1.858,0,0,1-1.168,1.462,1.827,1.827,0,0,1-1.833-.313l-.484-.409a2.4,2.4,0,0,1-.771-2.43c.589-2.287,1.662-6.453,1.662-6.453l3.421,2.634Z" transform="translate(-4575.933 -1044.997)" fill="#c95836" fill-rule="evenodd"/>
      <path id="Path_97337" data-name="Path 97337" d="M4615.007,1072.029l-.409,1.787-1.471-1.818Z" transform="translate(-4588.615 -1062.054)" fill="#873b24" fill-rule="evenodd"/>
      <path id="Path_97338" data-name="Path 97338" d="M4598.021,1035.023a1.616,1.616,0,0,1,1.032-2.032l2.927-.946a1.7,1.7,0,0,1,2.014,1.048,17.5,17.5,0,0,1,1.156,4.623,1.958,1.958,0,0,1-1.146,2.139c-.9.29-3.863.294-4.64-1.246a23.517,23.517,0,0,1-1.342-3.587Z" transform="translate(-4576.468 -1030.034)" fill="#c95836" fill-rule="evenodd"/>
      <path id="Path_97339" data-name="Path 97339" d="M4591.835,1033.281a2.378,2.378,0,0,0,2.665-.391,2.218,2.218,0,0,1,4.052-1.553,1.249,1.249,0,0,0,1.031-.811c.134-.6-.454-1.1-1-1.379a6.218,6.218,0,0,0-3.359-.728,4.2,4.2,0,0,0-2.986,1.586,3.227,3.227,0,0,0-.358,3.288C4591.879,1033.3,4591.879,1033.313,4591.835,1033.281Z" transform="translate(-4571.379 -1027.173)" fill="#663a24" fill-rule="evenodd"/>
      <path id="Path_97340" data-name="Path 97340" d="M4595.067,1056.554a1.211,1.211,0,0,0,1.666.379,1.239,1.239,0,0,0,.053-1.724,1.211,1.211,0,0,0-1.665-.379A1.24,1.24,0,0,0,4595.067,1056.554Z" transform="translate(-4573.912 -1048.162)" fill="#c95836" fill-rule="evenodd"/>
      <path id="Path_97341" data-name="Path 97341" d="M4624.47,1057.979l-1.393.458s.346.958.989.657S4624.47,1057.979,4624.47,1057.979Z" transform="translate(-4596.575 -1050.838)" fill="#fff" fill-rule="evenodd"/>
    </g>
  </g>
</svg>
