<svg xmlns="http://www.w3.org/2000/svg" width="42.427" height="33.585" viewBox="0 0 42.427 33.585">
  <g id="Group_43067" data-name="Group 43067" transform="translate(-3719.35 -347.906)">
    <path id="Path_97606" data-name="Path 97606" d="M3720.381,745.144l-1.031,2.605,1.36,3.8,2.471,1.421,4.523-1.561-2.8-7.829Z" transform="translate(0 -378.298)" fill="#fff"/>
    <path id="Path_97607" data-name="Path 97607" d="M3893.92,434.007l-.585-1.637-.015-.043-.586-1.637-2.841-7.94a1.359,1.359,0,0,0-2.464-.207c-3,5.323-11.3,11.873-14.632,12.543-.759.153-.9.924-.584,1.625l.219.611.635,1.775.316.884.635,1.775.219.611a1.356,1.356,0,0,0,.74.789l2.375,7.444-.006,0,.1.295.33,1.035.023-.007.089.26,5.6-1.925-.544-1.583-1.192.41-1.168-3.659,1.093-.213-.9-1.7-.7.316-.345-1.081c4.548-.45,11.1-.7,15.252.916a1.359,1.359,0,0,0,1.774-1.723Z" transform="translate(-145.996 -70.696)" fill="#fff"/>
    <rect id="Rectangle_38374" data-name="Rectangle 38374" width="8.792" height="3.014" transform="translate(3747.298 353.846) rotate(-42.502)" fill="#fff"/>
    <rect id="Rectangle_38375" data-name="Rectangle 38375" width="3.014" height="8.792" transform="translate(3752.656 366.919) rotate(-86.256)" fill="#fff"/>
    <rect id="Rectangle_38376" data-name="Rectangle 38376" width="8.792" height="3.014" transform="matrix(0.966, -0.258, 0.258, 0.966, 3752.505, 357.467)" fill="#fff"/>
  </g>
</svg>
