<svg xmlns="http://www.w3.org/2000/svg" width="600.002" height="762.691" viewBox="0 0 600.002 762.691">
  <g id="Group_43833" data-name="Group 43833" transform="translate(-908.98 -663.46)">
    <g id="Group_43549" data-name="Group 43549" transform="translate(908.98 663.46)">
      <path id="Path_97638" data-name="Path 97638" d="M2306.336,2784.653V2765.59h-87.252v127.024h21.9v-54.688h51.14v-19.07h-51.14v-34.2Z" transform="translate(-1845.84 -2166.702)" fill="#fff"/>
      <path id="Path_97639" data-name="Path 97639" d="M1881.339,2781.321a52.212,52.212,0,0,0-38.189-15.73h-45.4v127.031h45.4c15.374,0,27.986-4.818,37.481-14.313,11.381-11.384,17.153-27.576,17.153-48.14C1897.783,2808.679,1892.252,2792.246,1881.339,2781.321Zm-61.685,92.235v-88.9h22.783c7.818,0,14.608,2.991,20.758,9.132,7.943,7.941,11.973,20.181,11.973,36.383,0,15.257-4.266,27.266-12.682,35.676-5.183,5.185-11.745,7.712-20.049,7.712Z" transform="translate(-1544.54 -2166.702)" fill="#f9f9f9"/>
      <path id="Path_97640" data-name="Path 97640" d="M1930.156,2878.024c0-16.2-4.028-28.441-11.971-36.385-6.149-6.143-12.94-9.13-20.757-9.13h-22.785v88.9h22.785c8.3,0,14.863-2.525,20.047-7.712C1925.891,2905.286,1930.156,2893.279,1930.156,2878.024Z" transform="translate(-1599.53 -2214.557)" fill="#ff0303"/>
      <path id="Path_97641" data-name="Path 97641" d="M1526.042,2868.954c3.755-3.755,5.58-8.685,5.58-15.079,0-7.235-1.641-12.548-4.868-15.792-3.753-3.746-8.451-5.573-14.368-5.573h-34.147v41.311h34.147C1518.3,2873.82,1522.77,2872.227,1526.042,2868.954Z" transform="translate(-1316.059 -2214.557)" fill="#fc0303"/>
      <path id="Path_97642" data-name="Path 97642" d="M2695.009,752.074c5.128,3.866,11.192,5.746,18.537,5.746h64.533l-17.936-17.938q-6.333-6.329-12.66-12.661l-6.775-6.776q-11.179-11.18-22.362-22.358l-34.619-34.627.049,19.678c.009,3.53-.016,7.14-.036,10.63-.022,2.988-.039,6.078-.039,9.129q0,4.36,0,8.721c-.006,5.73-.009,11.655,0,17.495A28.92,28.92,0,0,0,2695.009,752.074Z" transform="translate(-2178.083 -663.46)" fill="#e6e7e8"/>
      <path id="Path_97643" data-name="Path 97643" d="M908.991,695.106v516.229l7.323.009q3.2,0,6.4.022,3.827.017,7.646.022l117,.044,80.845.027,86.12.032q42.948.013,85.9.033l185.365.064q7.82.005,15.638.006l7.755,0V770h-63.516a66.885,66.885,0,0,1-11.977-.685c-17.406-3.19-30.749-19.148-31.041-37.118-.234-14.33-.157-28.949-.083-43.087.032-6,.065-12.2.074-18.311l.011-7.343H941.691c-9.082,0-21.524,0-29.053,12.539-3.716,6.191-3.683,12.3-3.653,17.688C908.988,694.158,908.991,694.631,908.991,695.106Z" transform="translate(-908.98 -663.46)" fill="#e6e7e8"/>
      <path id="Path_97644" data-name="Path 97644" d="M1508.984,2806.188c-.131-5.307-.086-10.783-.042-16.076.022-2.69.045-5.472.045-8.217V2631.233h-7.333l-.338,0c-.273,0-.545,0-.818,0-5.079.055-10.274.038-15.3.016q-3.859-.023-7.719-.026l-49.16-.016q-33.923-.013-67.839-.024-40.424-.019-80.845-.031l-172.015-.062q-38.951-.013-77.9-.028-32.143-.007-64.289-.024-19.793,0-39.587-.013l-16.85,0V2804.5c0,.292,0,.59,0,.887,0,.663-.008,1.343.006,2.063a25.986,25.986,0,0,0,25.6,25.681c1.224.024,2.448.033,3.66.033s2.387-.009,3.556-.018,2.308-.016,3.461-.016h533.511c.45,0,.9.007,1.353.007.948,0,1.927.006,2.938-.007a26.39,26.39,0,0,0,18.123-7.455,25.981,25.981,0,0,0,7.778-18.088l0-.46C1508.99,2806.815,1508.991,2806.5,1508.984,2806.188Zm-153.71-83.559v19.065h-51.138v54.69h-21.9V2669.361h87.251v19.061h-65.347v34.208ZM1207.6,2796.385h-45.4V2669.361h45.4a52.228,52.228,0,0,1,38.192,15.726c10.91,10.924,16.443,27.358,16.443,48.851,0,20.56-5.772,36.755-17.152,48.138C1235.582,2791.572,1222.97,2796.385,1207.6,2796.385ZM1071.167,2748.8v47.587H1049.26V2669.361h59.606c11.123,0,20.389,3.619,27.54,10.759s10.757,17.132,10.757,29.669-3.378,22.292-10.049,28.959-16.172,10.05-28.249,10.05Z" transform="translate(-908.988 -2070.471)" fill="#f90606"/>
    </g>
    <path id="Path_97645" data-name="Path 97645" d="M1458.374,1440.477c24.06,0,60.39-32.134,86.926-86.267,27.547-10.869,61.792-18.916,88.819-23.958,21.661,16.653,45.583,32.589,57.169,32.589,32.084,0,38.819-18.552,38.819-34.108,0-30.592-34.951-30.592-51.759-30.592-5.221,0-19.221,1.542-37.542,4.613-11.98-9.428-23.365-19.12-30.946-26.7-9.858-9.856-18.638-19.408-26.271-28.507,11.9-36.785,17.122-55.751,17.122-65.86,0-42.951-15.518-51.759-38.818-51.759-17.7,0-38.819,9.2-38.819,53,0,19.307,10.576,42.748,31.54,69.993-5.132,15.656-11.157,33.713-17.933,54.071-3.26,9.767-6.8,18.815-10.538,27.179-3.044,1.353-6,2.729-8.857,4.158-10.287,5.142-20.054,9.769-29.114,14.066-41.322,19.56-68.615,32.5-68.615,58.05C1419.558,1428.99,1439.711,1440.477,1458.374,1440.477Zm219.974-116.456c19.117,0,24.54,1.871,25.879,4.712,0,5.814,0,8.229-12.005,8.3-3.525-.758-11.674-5.561-21.733-12.408C1674.142,1324.223,1676.831,1324.021,1678.349,1324.021Zm-86.786-29.671c2.426,2.427,8.44,7.885,16.452,14.723-15.946,3.473-32.917,7.783-49.142,12.927q1.213-3.374,2.351-6.824c4.8-14.406,9.123-27.344,12.976-39Q1582.257,1285.052,1591.562,1294.35Zm-42.61-111.426c0-27.119,8.418-27.119,12.941-27.119,9.147,0,12.939,0,12.939,25.879,0,5.458-3.639,19.106-10.3,40.41C1554.375,1206.451,1548.952,1193.045,1548.952,1182.925Zm-49.7,192.843c1.68-.8,3.386-1.592,5.119-2.415-19.436,28.179-38.656,41.246-46,41.246-7.391,0-12.4-3.487-12.939-4.158C1445.436,1401.268,1472.794,1388.3,1499.254,1375.767Z" transform="translate(-365.116 -333.572)" fill="#ff0606"/>
  </g>
</svg>
