<svg xmlns="http://www.w3.org/2000/svg" width="477.274" height="237.668" viewBox="0 0 477.274 237.668">
  <g id="Group_41675" data-name="Group 41675" transform="translate(58.642 -91.502)">
    <path id="Path_94933" data-name="Path 94933" d="M132.619,63.593l-.987-.082a1.2,1.2,0,0,1-1.056-1.057l-.083-.986a.939.939,0,1,0-1.877,0l-.082.986a1.2,1.2,0,0,1-1.057,1.057l-.987.082a.939.939,0,1,0,0,1.877l.987.083a1.2,1.2,0,0,1,1.057,1.057l.082.986a.939.939,0,1,0,1.877,0l.083-.986a1.2,1.2,0,0,1,1.056-1.057l.987-.083a.939.939,0,1,0,0-1.877Z" transform="translate(194.622 193.141)" fill="#957bda"/>
    <path id="Path_94934" data-name="Path 94934" d="M104.72,61.255l-.972-.082a1.183,1.183,0,0,1-1.043-1.042l-.082-.972a.926.926,0,1,0-1.85,0l-.082.972a1.182,1.182,0,0,1-1.042,1.042l-.972.082a.926.926,0,1,0,0,1.85l.972.082a1.185,1.185,0,0,1,1.042,1.043l.082.972a.926.926,0,1,0,1.85,0l.082-.972a1.185,1.185,0,0,1,1.043-1.043l.972-.082a.926.926,0,1,0,0-1.85Z" transform="translate(-90.432 173.157)" fill="#39bdd4"/>
    <path id="Path_94935" data-name="Path 94935" d="M188.978,98.2l-.74-.062a.9.9,0,0,1-.793-.793l-.062-.74a.7.7,0,1,0-1.407,0l-.062.74a.9.9,0,0,1-.793.793l-.74.062a.7.7,0,1,0,0,1.407l.74.062a.9.9,0,0,1,.793.793l.062.74a.7.7,0,1,0,1.407,0l.062-.74a.9.9,0,0,1,.793-.793l.74-.062a.7.7,0,1,0,0-1.407Z" transform="translate(24.847 0.449)" fill="#39bdd4"/>
    <path id="Path_94936" data-name="Path 94936" d="M239.167,46.816l-1.234-.1a1.5,1.5,0,0,1-1.322-1.323l-.1-1.233a1.174,1.174,0,1,0-2.346,0l-.1,1.233a1.5,1.5,0,0,1-1.322,1.323l-1.234.1a1.175,1.175,0,1,0,0,2.347l1.234.1a1.5,1.5,0,0,1,1.322,1.323l.1,1.233a1.174,1.174,0,1,0,2.346,0l.1-1.233a1.5,1.5,0,0,1,1.322-1.323l1.234-.1a1.175,1.175,0,1,0,0-2.347Z" transform="translate(-178.313 225.327)" fill="#39bdd4"/>
    <path id="Path_94937" data-name="Path 94937" d="M295.994,147.964l-1.078-.09a1.312,1.312,0,0,1-1.155-1.155l-.09-1.078a1.026,1.026,0,1,0-2.051,0l-.09,1.078a1.312,1.312,0,0,1-1.155,1.155l-1.078.09a1.027,1.027,0,1,0,0,2.052l1.078.089a1.312,1.312,0,0,1,1.155,1.155l.09,1.078a1.026,1.026,0,1,0,2.051,0l.09-1.078a1.312,1.312,0,0,1,1.155-1.155l1.078-.089a1.027,1.027,0,1,0,0-2.052Z" transform="translate(121.571 -22.935)" fill="#39bdd4"/>
    <path id="Path_94938" data-name="Path 94938" d="M59.306,134.893l-1-.084a1.213,1.213,0,0,1-1.067-1.067l-.083-.994a.948.948,0,1,0-1.894,0l-.083.994a1.212,1.212,0,0,1-1.067,1.067l-.995.084a.947.947,0,1,0,0,1.893l.995.084a1.211,1.211,0,0,1,1.067,1.066l.083,1a.948.948,0,1,0,1.894,0l.083-1a1.212,1.212,0,0,1,1.067-1.066l1-.084a.947.947,0,1,0,0-1.893Z" transform="translate(11.36 4.129)" fill="#ffb776"/>
    <path id="Path_94939" data-name="Path 94939" d="M160.345,115.271a4.987,4.987,0,1,0,4.987,4.987A4.986,4.986,0,0,0,160.345,115.271Zm2.136,7.122a3.021,3.021,0,1,1,.884-2.136A3.006,3.006,0,0,1,162.48,122.393Z" transform="translate(-214 70.796)" fill="#957bda"/>
    <path id="Path_94940" data-name="Path 94940" d="M166.1,71.189a3.608,3.608,0,1,0,3.609,3.608A3.607,3.607,0,0,0,166.1,71.189Zm1.545,5.152a2.183,2.183,0,1,1,.641-1.545A2.174,2.174,0,0,1,167.644,76.341Z" transform="translate(-7.225 55.675)" fill="#ffb776"/>
    <path id="Path_94941" data-name="Path 94941" d="M49.3,72.389a3.926,3.926,0,1,0,3.926,3.926A3.926,3.926,0,0,0,49.3,72.389ZM50.985,78a2.38,2.38,0,1,1,.7-1.681A2.367,2.367,0,0,1,50.985,78Z" transform="translate(-30.127 19.112)" fill="#39bdd4"/>
    <path id="Path_94942" data-name="Path 94942" d="M213.145,130.119a3.371,3.371,0,1,0,3.372,3.37A3.371,3.371,0,0,0,213.145,130.119Zm1.443,4.815a2.04,2.04,0,1,1,.6-1.444A2.03,2.03,0,0,1,214.588,134.934Z" transform="translate(27.526 3.96)" fill="#39bdd4"/>
    <path id="Path_94943" data-name="Path 94943" d="M264.348,56.4a2.667,2.667,0,1,0,2.667,2.666A2.665,2.665,0,0,0,264.348,56.4ZM265.49,60.2a1.614,1.614,0,1,1,.473-1.142A1.616,1.616,0,0,1,265.49,60.2Z" transform="translate(125.464 106.902)" fill="#ffb776"/>
    <path id="Path_94944" data-name="Path 94944" d="M81.245,302.84V161.456h44.984c1.578,0,2.869,2.133,2.869,4.746s-1.591,5.421-3.548,6.256l-1.23,1.133a6.673,6.673,0,0,0-2.357,4.882c0,4.577,5.454,8.3,12.192,8.3s12.193-3.72,12.193-8.3a6.693,6.693,0,0,0-2.366-4.894l-1.232-1.128c-1.948-.828-3.538-3.64-3.538-6.249s1.391-4.746,3.09-4.746h84.09c2,0,3.625,2.133,3.625,4.746s-1.6,5.421-3.55,6.256l-1.225,1.133a6.667,6.667,0,0,0-2.362,4.882c0,4.577,5.451,8.3,12.194,8.3s12.186-3.72,12.186-8.3a6.694,6.694,0,0,0-2.367-4.894l-1.095-1.008c-2.025-.9-3.678-3.76-3.678-6.369s1.635-4.746,3.632-4.746h44.231V302.84Z" transform="translate(14.346 7.174)" fill="#b3e3f7"/>
    <rect id="Rectangle_38116" data-name="Rectangle 38116" width="206.739" height="70.791" transform="translate(95.591 239.223)" fill="#a6daf2"/>
    <rect id="Rectangle_38117" data-name="Rectangle 38117" width="86.291" height="3.71" transform="translate(192.155 224.677)" fill="#335687"/>
    <rect id="Rectangle_38118" data-name="Rectangle 38118" width="86.291" height="3.711" transform="translate(192.155 253.091)" fill="#335687"/>
    <rect id="Rectangle_38119" data-name="Rectangle 38119" width="86.291" height="3.71" transform="translate(192.155 281.507)" fill="#335687"/>
    <rect id="Rectangle_38120" data-name="Rectangle 38120" width="61.254" height="83.208" transform="translate(114.557 208.739)" fill="#fff"/>
    <path id="Path_94945" data-name="Path 94945" d="M159.7,276.492V262.848a29.884,29.884,0,0,0-.46-5.2c-1.393-4.9-6.984-15.432-29.317-15.432h-1.7a49.672,49.672,0,0,0-13.941,1.76c-10.926,3.2-14.32,9.979-15.368,13.644a21.866,21.866,0,0,0-.467,4.3v14.575Z" transform="translate(16.11 15.456)" fill="#335687"/>
    <path id="Path_94946" data-name="Path 94946" d="M147.064,259.631l-5.378-15.671-.044.054a14.447,14.447,0,0,0-2.73-4.507H117.18a14.5,14.5,0,0,0-2.75,4.556l-.083-.1-5.377,15.671,5.141,4.722L112,267.583l7,9.186H137.03l7-9.186-2.107-3.23Z" transform="translate(17.189 15.178)" fill="#b3e3f7"/>
    <path id="Path_94947" data-name="Path 94947" d="M136.866,239.507l2.775,4.453-10.719,5.294Z" transform="translate(19.235 15.178)" fill="#b3e3f7"/>
    <path id="Path_94948" data-name="Path 94948" d="M116.581,239.507l-2.775,4.453,10.72,5.294Z" transform="translate(17.685 15.178)" fill="#b3e3f7"/>
    <path id="Path_94949" data-name="Path 94949" d="M146.448,224.827l-.252-.039c-.315-12.243-5.077-20.217-18.182-19.9-14.287.347-17.685,7.654-18,19.9l-.254.039c-1.463.333-2.215,2.508-1.678,4.858.515,2.255,2.032,3.843,3.445,3.671a27.408,27.408,0,0,0,5.659,8.748v.954a22,22,0,0,0,9.64,10.8h2.556a22,22,0,0,0,9.64-10.8v-.725a26.9,26.9,0,0,0,5.719-8.968c1.4.123,2.878-1.458,3.387-3.679C148.663,227.335,147.912,225.16,146.448,224.827Z" transform="translate(17.08 11.627)" fill="#fee5c7"/>
    <path id="Path_94950" data-name="Path 94950" d="M146.95,210.157c-2.092-3.37-3.411-5-6.055-6.068s-13.878-3.623-19.38-3.786c-4.852-.144-6.388,2.678-6.388,2.678l-3.412,4.893c-6.167,5.113-6.057,7.4-3.524,12.4a23.854,23.854,0,0,1,1.528,3.656,47.067,47.067,0,0,1,1.6,5.913h.393s.221-7.72,1.651-9.353c5.287-3.589,5.4-7.5,5.4-7.5s1.651-.327,5.616,2.086a6.108,6.108,0,0,0,6.147.255c.75-.354,2.11-1.055,2.81-1.465,1.551-.907,4.139-2.125,6.568-.55,3.524,2.285,4.294,4.242,4.294,8.7a46.414,46.414,0,0,0,.642,7.83h.531s.205-1.577.78-3.99a24.369,24.369,0,0,1,1.571-4.383A11.142,11.142,0,0,0,146.95,210.157Z" transform="translate(16.942 11.157)" fill="#ca6d6a"/>
    <path id="Path_94951" data-name="Path 94951" d="M121.4,275.742h10.755l.013-.035.029-.064,0-.072c-.233-7.784-2.567-17.871-2.911-19.324a4.043,4.043,0,0,0,1.062-3l0-.028-.008-.029c-.838-3-2.54-3.62-2.612-3.644l-.052-.018h-1.786l-.051.018c-.072.024-1.775.639-2.613,3.644l-.008.029,0,.028a4.043,4.043,0,0,0,1.061,3c-.345,1.453-2.677,11.54-2.911,19.324l0,.072.029.064Z" transform="translate(18.459 16.206)" fill="#f47653"/>
    <path id="Path_94952" data-name="Path 94952" d="M81.45,303.046h2.205V161.661H81.45v2.205h44.984v-.417l-.135.4.135.021v-.417l-.135.4.068-.2-.095.193.026.01.068-.2-.095.193h0a1.706,1.706,0,0,1,.482.722,4.834,4.834,0,0,1,.342,1.85,5.7,5.7,0,0,1-.753,2.706,4.781,4.781,0,0,1-.764,1.023,2.326,2.326,0,0,1-.691.5l-.351.149-.279.258-1.229,1.133a9.968,9.968,0,0,0-2.218,2.916,8.106,8.106,0,0,0-.85,3.588,8.287,8.287,0,0,0,1.289,4.39,12.235,12.235,0,0,0,5.368,4.491,18.6,18.6,0,0,0,7.74,1.621,17.649,17.649,0,0,0,9.863-2.815,11.2,11.2,0,0,0,3.245-3.3,8.288,8.288,0,0,0,1.29-4.39,8.1,8.1,0,0,0-.854-3.6,10.044,10.044,0,0,0-2.219-2.916l-.008-.008-1.232-1.128-.279-.256-.348-.148a2.286,2.286,0,0,1-.682-.493,5.229,5.229,0,0,1-1.076-1.667,5.506,5.506,0,0,1-.437-2.06,4.057,4.057,0,0,1,.551-2.15,1.29,1.29,0,0,1,.338-.375l.04-.022-.044-.14v.146l.044-.005-.044-.14v.146H226.6a.674.674,0,0,1,.337.1,1.9,1.9,0,0,1,.708.806,3.609,3.609,0,0,1,.375,1.638,5.7,5.7,0,0,1-.755,2.7,4.757,4.757,0,0,1-.766,1.024,2.317,2.317,0,0,1-.69.5l-.351.15-.28.26-1.226,1.133.006-.006a9.96,9.96,0,0,0-2.222,2.917,8.079,8.079,0,0,0-.852,3.589,8.29,8.29,0,0,0,1.289,4.39,12.225,12.225,0,0,0,5.367,4.491,18.61,18.61,0,0,0,7.743,1.621,17.636,17.636,0,0,0,9.858-2.815,11.181,11.181,0,0,0,3.244-3.3,8.278,8.278,0,0,0,1.29-4.39,8.09,8.09,0,0,0-.856-3.6,10.063,10.063,0,0,0-2.221-2.915l0,0-1.095-1.009-.269-.247-.332-.147a3.914,3.914,0,0,1-1.581-1.628,5.671,5.671,0,0,1-.784-2.724,3.351,3.351,0,0,1,.613-2.013,1.593,1.593,0,0,1,.473-.431.684.684,0,0,1,.341-.1h44.231v-2.205h-2.205V300.84H81.45v2.205h0v2.205H290.394V159.456H243.958a5.11,5.11,0,0,0-2.48.651,6.283,6.283,0,0,0-2.487,2.636,7.978,7.978,0,0,0-.87,3.665,10.022,10.022,0,0,0,1.375,4.929,8.168,8.168,0,0,0,3.616,3.457l.892-2.017-1.494,1.623s0,0,1.095,1.008l0,0a5.682,5.682,0,0,1,1.26,1.631,3.672,3.672,0,0,1,.4,1.644,3.866,3.866,0,0,1-.625,2.063,7.9,7.9,0,0,1-3.465,2.813,14.2,14.2,0,0,1-5.891,1.216,13.3,13.3,0,0,1-7.385-2.05,6.791,6.791,0,0,1-1.979-1.979,3.861,3.861,0,0,1-.625-2.063,3.662,3.662,0,0,1,.4-1.639,5.584,5.584,0,0,1,1.25-1.62l.006,0,1.225-1.133-1.5-1.619.867,2.028a6.709,6.709,0,0,0,2.066-1.427,9.617,9.617,0,0,0,2.044-3.1,9.846,9.846,0,0,0,.778-3.754,7.743,7.743,0,0,0-1.517-4.691,5.957,5.957,0,0,0-1.835-1.609,5.1,5.1,0,0,0-2.479-.652h-84.09a4.4,4.4,0,0,0-2.4.732,6.073,6.073,0,0,0-2.174,2.679,8.792,8.792,0,0,0-.718,3.54,10.085,10.085,0,0,0,1.324,4.879,9.109,9.109,0,0,0,1.49,1.975,6.632,6.632,0,0,0,2.067,1.424l.862-2.029-1.49,1.626,1.232,1.128-.007-.007a5.668,5.668,0,0,1,1.258,1.63,3.673,3.673,0,0,1,.4,1.645,3.858,3.858,0,0,1-.626,2.063,7.9,7.9,0,0,1-3.465,2.812,14.2,14.2,0,0,1-5.9,1.217,13.291,13.291,0,0,1-7.382-2.05,6.809,6.809,0,0,1-1.98-1.979,3.861,3.861,0,0,1-.625-2.063,3.68,3.68,0,0,1,.4-1.641,5.6,5.6,0,0,1,1.249-1.62l1.23-1.135-1.494-1.621.864,2.028a6.661,6.661,0,0,0,2.069-1.427,9.586,9.586,0,0,0,2.044-3.1,9.862,9.862,0,0,0,.775-3.753,8.756,8.756,0,0,0-1.161-4.5,5.508,5.508,0,0,0-1.533-1.681,4.134,4.134,0,0,0-2.38-.775H79.245V305.251H81.45Z" transform="translate(14.14 6.969)" fill="#335687"/>
    <path id="Path_94953" data-name="Path 94953" d="M159.906,198.04v-2.205H96.447v87.618h65.664V195.835h-2.2v2.205H157.7v81H100.857v-78.8h59.049V198.04h0Z" transform="translate(15.905 10.699)" fill="#335687"/>
    <path id="Path_94954" data-name="Path 94954" d="M41.681,292.1h248.61v-4.41H41.681Zm260.664,0h33.318v-4.41H302.345ZM80.879,309.051H114.4v-4.41H80.879Zm47.151,0h42.22v-4.41h-42.22Zm57.9,0H294.113v-4.41H185.928Z" transform="translate(10.288 20.119)" fill="#335687"/>
  </g>
</svg>
