<svg xmlns="http://www.w3.org/2000/svg" xmlns:xlink="http://www.w3.org/1999/xlink" width="290" height="201.088" viewBox="0 0 290 201.088">
  <defs>
    <clipPath id="clip-path">
      <path id="Path_95021" data-name="Path 95021" d="M223.473,162.926H180.2V119.657h43.269Z" transform="translate(-180.204 -119.657)" fill="none"/>
    </clipPath>
  </defs>
  <g id="Group_41728" data-name="Group 41728" transform="translate(676 -1556)">
    <g id="Group_41685" data-name="Group 41685" transform="translate(-676 1581.088)">
      <g id="Group_41680" data-name="Group 41680" transform="translate(167.65 155.356)">
        <g id="Group_41677" data-name="Group 41677">
          <g id="Group_41676" data-name="Group 41676" transform="translate(0 9.957)">
            <path id="Path_94955" data-name="Path 94955" d="M310.5,311.514H290.267v-9.278a1.214,1.214,0,0,1,2.428,0v6.849h15.379v-6.849a1.214,1.214,0,0,1,2.428,0Z" transform="translate(-290.267 -301.022)" fill="#0891f9"/>
          </g>
          <path id="Path_94956" data-name="Path 94956" d="M307.592,294.071,301.521,288l-6.072,6.071a1.214,1.214,0,1,0,1.717,1.717l3.14-3.14v10.045a1.214,1.214,0,0,0,2.428,0V292.648l3.14,3.14a1.214,1.214,0,1,0,1.716-1.717Z" transform="translate(-291.403 -288)" fill="#0891f9"/>
        </g>
        <g id="Group_41679" data-name="Group 41679" opacity="0.5">
          <g id="Group_41678" data-name="Group 41678" transform="translate(0 9.957)">
            <path id="Path_94957" data-name="Path 94957" d="M310.5,311.514H290.267v-9.278a1.214,1.214,0,0,1,2.428,0v6.849h15.379v-6.849a1.214,1.214,0,0,1,2.428,0Z" transform="translate(-290.267 -301.022)" fill="#fff"/>
          </g>
          <path id="Path_94958" data-name="Path 94958" d="M307.592,294.071,301.521,288l-6.072,6.071a1.214,1.214,0,1,0,1.717,1.717l3.14-3.14v10.045a1.214,1.214,0,0,0,2.428,0V292.648l3.14,3.14a1.214,1.214,0,1,0,1.716-1.717Z" transform="translate(-291.403 -288)" fill="#fff"/>
        </g>
      </g>
      <g id="Group_41681" data-name="Group 41681" transform="translate(3.012 126.301)">
        <path id="Path_94959" data-name="Path 94959" d="M76.142,257.527l5.812,6.236,5.812-6.236a4.639,4.639,0,0,0,0-6.235,3.916,3.916,0,0,0-5.812,0,3.916,3.916,0,0,0-5.812,0A4.639,4.639,0,0,0,76.142,257.527Z" transform="translate(-74.939 -250)" fill="#ff5f81"/>
        <path id="Path_94960" data-name="Path 94960" d="M76.142,257.527l5.812,6.236,5.812-6.236a4.639,4.639,0,0,0,0-6.235,3.916,3.916,0,0,0-5.812,0,3.916,3.916,0,0,0-5.812,0A4.639,4.639,0,0,0,76.142,257.527Z" transform="translate(-74.939 -250)" fill="#fff" opacity="0.5"/>
      </g>
      <g id="Group_41684" data-name="Group 41684" transform="translate(0 0)">
        <g id="Group_41682" data-name="Group 41682">
          <rect id="Rectangle_38121" data-name="Rectangle 38121" width="4.407" height="13.175" transform="translate(0 13.359) rotate(-10)" fill="#e8e9fd"/>
          <path id="Path_94961" data-name="Path 94961" d="M79.077,97.083l2.288,12.975,16.091-2.837a2.58,2.58,0,0,0,2.093-2.989l-1.392-7.894a2.581,2.581,0,0,0-2.989-2.093L86.84,95.715s1.08-7.9-.177-10.083-3.175.56-2.977,1.689S84.155,93.277,79.077,97.083Z" transform="translate(-72.901 -84.813)" fill="#e8e9fd"/>
        </g>
        <g id="Group_41683" data-name="Group 41683" opacity="0.4">
          <rect id="Rectangle_38122" data-name="Rectangle 38122" width="4.407" height="13.175" transform="translate(0 13.359) rotate(-10)" fill="#0891f9"/>
          <path id="Path_94962" data-name="Path 94962" d="M79.077,97.083l2.288,12.975,16.091-2.837a2.58,2.58,0,0,0,2.093-2.989l-1.392-7.894a2.581,2.581,0,0,0-2.989-2.093L86.84,95.715s1.08-7.9-.177-10.083-3.175.56-2.977,1.689S84.155,93.277,79.077,97.083Z" transform="translate(-72.901 -84.813)" fill="#0891f9"/>
        </g>
      </g>
    </g>
    <g id="Group_41727" data-name="Group 41727" transform="translate(-626.971 1556)">
      <g id="Group_41713" data-name="Group 41713" transform="translate(0 0)">
        <rect id="Rectangle_38129" data-name="Rectangle 38129" width="224.026" height="133.804" transform="translate(0 10.704)" fill="#cfd7fe"/>
        <rect id="Rectangle_38130" data-name="Rectangle 38130" width="224.026" height="10.704" fill="#e8e9fd"/>
        <g id="Group_41712" data-name="Group 41712" transform="translate(200.61 3.68)">
          <rect id="Rectangle_38131" data-name="Rectangle 38131" width="3.345" height="3.345" fill="#fff"/>
          <rect id="Rectangle_38132" data-name="Rectangle 38132" width="3.345" height="3.345" transform="translate(6.69)" fill="#fff"/>
          <rect id="Rectangle_38133" data-name="Rectangle 38133" width="3.345" height="3.345" transform="translate(13.38)" fill="#fff"/>
        </g>
      </g>
      <g id="Group_41726" data-name="Group 41726" transform="translate(16.725 21.409)">
        <g id="Group_41715" data-name="Group 41715">
          <path id="Path_95017" data-name="Path 95017" d="M381.026,94V227.8H248.56l-42.183,35.171V227.8H157V94Z" transform="translate(-157 -83.296)" fill="#e8e9fd"/>
          <rect id="Rectangle_38134" data-name="Rectangle 38134" width="224" height="11" transform="translate(0.245 -0.409)" fill="#ffc082"/>
          <g id="Group_41714" data-name="Group 41714" transform="translate(200.61 3.68)">
            <rect id="Rectangle_38135" data-name="Rectangle 38135" width="3.345" height="3.345" fill="#fff"/>
            <rect id="Rectangle_38136" data-name="Rectangle 38136" width="3.345" height="3.345" transform="translate(6.69)" fill="#fff"/>
            <rect id="Rectangle_38137" data-name="Rectangle 38137" width="3.345" height="3.345" transform="translate(13.38)" fill="#fff"/>
          </g>
        </g>
        <g id="Group_41725" data-name="Group 41725" transform="translate(17.742 20.644)">
          <g id="Group_41719" data-name="Group 41719" transform="translate(0 9.677)">
            <rect id="Rectangle_38138" data-name="Rectangle 38138" width="43.269" height="43.269" transform="translate(0 0)" fill="#cfd7fe"/>
            <g id="Group_41718" data-name="Group 41718">
              <g id="Group_41717" data-name="Group 41717" clip-path="url(#clip-path)">
                <g id="Group_41716" data-name="Group 41716" transform="translate(-4.477 9.947)">
                  <path id="Path_95018" data-name="Path 95018" d="M210.5,135.551a2.885,2.885,0,1,1-2.885-2.885A2.884,2.884,0,0,1,210.5,135.551Z" transform="translate(-181.499 -132.666)" fill="#0891f9" opacity="0.25"/>
                  <path id="Path_95019" data-name="Path 95019" d="M206.5,146.889l-9.8,9.8-4.51-4.51a3.605,3.605,0,0,0-5.1,0l-12.746,12.746,10.218,10.219H218.5l10.68-10.681L211.6,146.887A3.607,3.607,0,0,0,206.5,146.889Z" transform="translate(-174.348 -135.765)" fill="#0891f9" opacity="0.25"/>
                  <path id="Path_95020" data-name="Path 95020" d="M222.04,175.146h3.347l10.68-10.681-17.584-17.578a3.607,3.607,0,0,0-5.1,0l-9.8,9.8Z" transform="translate(-181.231 -135.765)" fill="#0891f9" opacity="0.25"/>
                </g>
              </g>
            </g>
          </g>
          <rect id="Rectangle_38139" data-name="Rectangle 38139" width="4" height="103" transform="translate(147.503 15.947)" fill="#cfd7fe"/>
          <rect id="Rectangle_38140" data-name="Rectangle 38140" width="58.109" height="10.704" transform="translate(66.285 9.618)" fill="#ffc082"/>
          <g id="Group_41720" data-name="Group 41720" transform="translate(0 38.099)">
            <rect id="Rectangle_38141" data-name="Rectangle 38141" width="71.107" height="1.529" transform="translate(59.786)" fill="#9cafcd"/>
            <rect id="Rectangle_38142" data-name="Rectangle 38142" width="71.107" height="1.529" transform="translate(59.786 10.835)" fill="#9cafcd"/>
            <rect id="Rectangle_38143" data-name="Rectangle 38143" width="71.107" height="1.529" transform="translate(59.786 21.671)" fill="#9cafcd"/>
            <rect id="Rectangle_38144" data-name="Rectangle 38144" width="130.893" height="1.529" transform="translate(0 32.506)" fill="#9cafcd"/>
            <rect id="Rectangle_38145" data-name="Rectangle 38145" width="130.893" height="1.529" transform="translate(0 43.341)" fill="#9cafcd"/>
            <rect id="Rectangle_38146" data-name="Rectangle 38146" width="130.893" height="1.529" transform="translate(0 54.177)" fill="#9cafcd"/>
            <rect id="Rectangle_38147" data-name="Rectangle 38147" width="101.074" height="1.529" transform="translate(0 65.012)" fill="#9cafcd"/>
          </g>
          <rect id="Rectangle_38148" data-name="Rectangle 38148" width="32.877" height="3.058" transform="translate(162.32 43.582)" fill="#9cafcd"/>
          <g id="Group_41721" data-name="Group 41721" transform="translate(162.32 59.128)">
            <rect id="Rectangle_38149" data-name="Rectangle 38149" width="32.877" height="1.529" fill="#9cafcd"/>
            <rect id="Rectangle_38150" data-name="Rectangle 38150" width="32.877" height="1.529" transform="translate(0 7.072)" fill="#9cafcd"/>
            <rect id="Rectangle_38151" data-name="Rectangle 38151" width="25.232" height="1.529" transform="translate(0 14.145)" fill="#9cafcd"/>
          </g>
          <g id="Group_41722" data-name="Group 41722" transform="translate(161.173)">
            <circle id="Ellipse_130" data-name="Ellipse 130" cx="17.5" cy="17.5" r="17.5" transform="translate(0.33 -0.053)" fill="#fff"/>
            <path id="Path_95022" data-name="Path 95022" d="M412.352,125.763h0A5.352,5.352,0,0,1,407,120.411v-3.058A5.352,5.352,0,0,1,412.352,112h0a5.352,5.352,0,0,1,5.352,5.352v3.058A5.352,5.352,0,0,1,412.352,125.763Z" transform="translate(-394.767 -108.177)" fill="#cfd7fe"/>
            <path id="Path_95023" data-name="Path 95023" d="M409.495,133.579c-7.072,0-12.991,2.988-14.633,7.017a17.586,17.586,0,0,0,29.266,0C422.485,136.567,416.567,133.579,409.495,133.579Z" transform="translate(-391.909 -113.257)" fill="#cfd7fe"/>
          </g>
          <g id="Group_41724" data-name="Group 41724" transform="translate(158.622 85.459)">
            <path id="Path_95024" data-name="Path 95024" d="M388.676,233.407l2.788,2.99,2.788-2.99a2.225,2.225,0,0,0,0-2.991,1.878,1.878,0,0,0-2.788,0,1.878,1.878,0,0,0-2.788,0A2.225,2.225,0,0,0,388.676,233.407Z" transform="translate(-387.766 -221.366)" fill="#ff5f81"/>
            <g id="Group_41723" data-name="Group 41723">
              <path id="Path_95025" data-name="Path 95025" d="M391.361,218.77a4.091,4.091,0,0,0-3.7,2.347,4.088,4.088,0,0,0,7.4,0A4.091,4.091,0,0,0,391.361,218.77Z" transform="translate(-387.663 -218.77)" fill="#9cafcd"/>
              <path id="Path_95026" data-name="Path 95026" d="M393.4,221.439a1.3,1.3,0,1,1-1.3-1.3A1.3,1.3,0,0,1,393.4,221.439Z" transform="translate(-388.401 -219.092)" fill="#e8e9fd"/>
            </g>
            <path id="Path_95027" data-name="Path 95027" d="M393.432,244.847a1.539,1.539,0,1,0-1.539-1.539,1.566,1.566,0,0,0,.062.43l-2.72,1.8a.949.949,0,0,0-.447-.115.959.959,0,1,0,.315,1.861l2.415,2.187a1.234,1.234,0,1,0,1.155-.806,1.223,1.223,0,0,0-.541.13l-2.414-2.187a.961.961,0,0,0,.03-.226c0-.028-.006-.054-.008-.081l2.72-1.8A1.535,1.535,0,0,0,393.432,244.847Z" transform="translate(-387.702 -224.184)" fill="#9cafcd"/>
          </g>
        </g>
      </g>
    </g>
  </g>
</svg>
