<svg xmlns="http://www.w3.org/2000/svg" xmlns:xlink="http://www.w3.org/1999/xlink" width="832" height="666" viewBox="0 0 832 666">
  <defs>
    <clipPath id="clip-path">
      <rect id="Rectangle_26" data-name="Rectangle 26" width="832" height="666" transform="translate(0.286 -0.165)" fill="none"/>
    </clipPath>
  </defs>
  <g id="Group_20765" data-name="Group 20765" transform="translate(-4774.286 -1708.835)">
    <g id="Group_20763" data-name="Group 20763" transform="translate(4774 1709)">
      <g id="Group_6456" data-name="Group 6456" transform="translate(0 0)" clip-path="url(#clip-path)">
        <path id="Path_5741" data-name="Path 5741" d="M1172.4,1284.661q-4.491,0-8.99-.132a297.9,297.9,0,0,1-72.086-10.952,262.193,262.193,0,0,1-65.495-28.276,205.625,205.625,0,0,1-87.464-108.675c-8.75-25.4-13.07-53.17-12.166-78.2a152.821,152.821,0,0,1,6.458-39.771,110.465,110.465,0,0,1,18.081-35.281c7.257-9.325,15.724-16.131,25.167-20.231a62.762,62.762,0,0,1,28.229-4.786,107.614,107.614,0,0,1,29.041,5.918,227.788,227.788,0,0,1,28.039,11.811c24.343,11.922,43.339,18.574,61.592,21.569a123.423,123.423,0,0,0,64.623-6.3c19.575-7.279,37.347-19.717,54.534-31.746,21.2-14.838,43.125-30.182,68.766-36.142a87.083,87.083,0,0,1,36.468-.706,94.459,94.459,0,0,1,32.852,13.251,109.048,109.048,0,0,1,26.7,24.16,115.831,115.831,0,0,1,18.094,32.083h0a169.56,169.56,0,0,1,9.408,76.938c-2.563,24.746-10.12,49.568-22.46,73.777-23.406,45.916-62.467,85.953-107.168,109.847a266.181,266.181,0,0,1-68.219,24.936,297.459,297.459,0,0,1-64,6.9M1000.556,961.6a58.153,58.153,0,0,0-23.322,4.6c-8.925,3.875-16.954,10.342-23.865,19.222a107.153,107.153,0,0,0-17.529,34.224,149.5,149.5,0,0,0-6.311,38.9c-.89,24.632,3.368,51.976,11.987,77a202.3,202.3,0,0,0,86.051,106.918,258.864,258.864,0,0,0,64.664,27.913,297.922,297.922,0,0,0,143.459,4.133,262.838,262.838,0,0,0,67.367-24.621c44.116-23.581,82.668-63.1,105.771-108.423,12.154-23.843,19.594-48.271,22.115-72.608a166.259,166.259,0,0,0-9.219-75.44,112.507,112.507,0,0,0-17.575-31.162,105.73,105.73,0,0,0-25.885-23.426,91.148,91.148,0,0,0-31.7-12.791,83.778,83.778,0,0,0-35.082.68c-11.2,2.6-22.687,7.3-35.1,14.346-11.132,6.32-22,13.926-32.508,21.281-17.359,12.149-35.308,24.711-55.283,32.138a126.66,126.66,0,0,1-66.322,6.461c-18.589-3.049-37.87-9.793-62.518-21.865a224.622,224.622,0,0,0-27.632-11.644,104.368,104.368,0,0,0-28.144-5.75q-1.727-.083-3.422-.083" transform="translate(-771.805 -767.926)" fill="#91b3fa"/>
        <path id="Path_5742" data-name="Path 5742" d="M1383.9,685.218c-31.211-37.935-85.7-53.987-128.193-27.188-39.99,25.222-57.881,74.609-94.028,104.46-37.9,31.3-79.617,32.938-125.5,27.352-39.55-4.814-84.563-4.058-100.192,42.013-16.947,49.959,8.059,108.752,38.326,147.265a203.959,203.959,0,0,0,117.323,73.364c91.41,19.85,199.125-13.345,264.252-83.871,67.325-72.907,96.053-200.7,28.013-283.4" transform="translate(-775.483 -537.504)" fill="#e9effd"/>
        <path id="Path_5743" data-name="Path 5743" d="M1746.486,1214.209l-140.148,120.406,2.608,54.48c0,6.5,7.839,98.632,15.3,98.632l130.862-87.574,117.913,78.584c7.456,0,21.851-85.621,21.851-92.119l8.716-52.13-140.274-120.279a15.085,15.085,0,0,0-16.823,0" transform="translate(-1338.818 -1010.046)" fill="#4042e2"/>
        <path id="Path_5744" data-name="Path 5744" d="M1992.323,1738.231H1766.2a10.909,10.909,0,0,1-10.909-10.909V1496.995a10.91,10.91,0,0,1,10.909-10.91h226.12a10.91,10.91,0,0,1,10.91,10.91v230.327a10.909,10.909,0,0,1-10.91,10.909" transform="translate(-1462.978 -1238.8)" fill="#fff"/>
        <path id="Path_5753" data-name="Path 5753" d="M2505.256,2026.67l67.626-66.538c17.76-17.474,43.11-27.459,69.716-27.459,6.248,0,11.313,3.97,11.313,8.867v177.842c0,4.9-8.447,12.333-14.7,12.333h-38.426l-95.533-94a7.566,7.566,0,0,1,0-11.049" transform="translate(-2086.098 -1611.046)" fill="#4042e2"/>
        <path id="Path_5754" data-name="Path 5754" d="M1738.4,2025.941l-67.626-66.538c-17.76-17.474-43.11-27.459-69.715-27.459-6.248,0-11.314,3.97-11.314,8.867v178.909c0,4.9,7.252,11.387,13.5,11.387l39.621-.121,95.534-94a7.566,7.566,0,0,0,0-11.049" transform="translate(-1324.992 -1610.439)" fill="#4042e2"/>
        <path id="Path_5755" data-name="Path 5755" d="M1892.806,2385.44v38.353c0,5.732-6.045,10.379-13.5,10.379H1603.251c-7.454,0-13.5-4.646-13.5-10.379V2385.44l143.115-87.643a16.121,16.121,0,0,1,7.935-2.255,16.312,16.312,0,0,1,8.889,2.255Z" transform="translate(-1324.994 -1913.504)" fill="#4f51fe"/>
        <path id="Path_5756" data-name="Path 5756" d="M2649.766,2355.166l124.726,63.662v16.316l-126.969-77.771Z" transform="translate(-2206.68 -1963.207)" fill="#1a0f91"/>
        <path id="Path_5757" data-name="Path 5757" d="M1714.476,2355.166l-124.726,63.662v16.316l126.969-77.771Z" transform="translate(-1324.992 -1963.207)" fill="#1a0f91"/>
        <path id="Path_5758" data-name="Path 5758" d="M1660.18,1080.208l-29.251,95-4.687,15.222-13.363-11.276-34.926-29.466Z" transform="translate(-1315.159 -900.488)" fill="#4d50fa"/>
        <path id="Path_5759" data-name="Path 5759" d="M1331.577,1080.208,1229.951,1138.9l-46.226-15.32Z" transform="translate(-986.557 -900.489)" fill="#4d50fa"/>
        <path id="Path_5760" data-name="Path 5760" d="M1563.04,1080.208l-82.224,69.48-15.8,31.6-3.6-42.383Z" transform="translate(-1218.02 -900.489)" fill="#4042e2"/>
        <path id="Path_5761" data-name="Path 5761" d="M1434.932,1943.974a1.667,1.667,0,0,1-.476-.07c-3.394-1.01-6.8-2.169-10.124-3.443a1.665,1.665,0,0,1,1.192-3.109c3.244,1.244,6.568,2.374,9.881,3.36a1.665,1.665,0,0,1-.474,3.261m-22.884-9.1a1.659,1.659,0,0,1-.748-.179c-3.167-1.6-6.315-3.336-9.358-5.168a1.665,1.665,0,0,1,1.718-2.852c2.971,1.789,6.046,3.488,9.139,5.047a1.665,1.665,0,0,1-.751,3.151m-20.936-12.968a1.656,1.656,0,0,1-1-.332c-2.847-2.13-5.645-4.391-8.314-6.722a1.656,1.656,0,0,1-.538-.931,49.183,49.183,0,0,1-4.762,1.41,1.665,1.665,0,1,1-.784-3.236,44.547,44.547,0,0,0,9.548-3.486,1.665,1.665,0,0,1,1.5,2.973q-1.164.586-2.371,1.11c2.485,2.152,5.078,4.241,7.716,6.214a1.665,1.665,0,0,1-1,3m-28.982-5.214-.08,0a60.782,60.782,0,0,1-10.745-1.507,1.665,1.665,0,0,1,.748-3.244,57.45,57.45,0,0,0,10.155,1.425,1.665,1.665,0,0,1-.078,3.327m-23.771-6a1.659,1.659,0,0,1-.679-.146,93.373,93.373,0,0,1-9.537-4.971,1.665,1.665,0,1,1,1.7-2.861,90.09,90.09,0,0,0,9.2,4.793,1.665,1.665,0,0,1-.681,3.185m34.419-5.229a1.659,1.659,0,0,1-1.227-.539,69.725,69.725,0,0,1-6.686-8.506,1.665,1.665,0,1,1,2.773-1.843,66.387,66.387,0,0,0,6.366,8.1,1.665,1.665,0,0,1-1.226,2.79m24.476-2.075a1.665,1.665,0,0,1-1.223-2.794,33.32,33.32,0,0,0,2.865-3.567,29.1,29.1,0,0,0,2.664-4.74,1.665,1.665,0,1,1,3.04,1.356,32.445,32.445,0,0,1-2.971,5.283,36.663,36.663,0,0,1-3.153,3.925,1.661,1.661,0,0,1-1.224.536m-79.866-5.554a1.658,1.658,0,0,1-1.027-.355c-2.789-2.189-5.519-4.543-8.116-7a1.665,1.665,0,0,1,2.287-2.419c2.523,2.385,5.175,4.673,7.884,6.8a1.665,1.665,0,0,1-1.029,2.974m42.689-13.287a1.666,1.666,0,0,1-1.59-1.175,32.1,32.1,0,0,1-1.51-9.422c0-.531.016-1.065.048-1.587a1.665,1.665,0,0,1,3.323.2c-.028.455-.042.921-.042,1.385a28.783,28.783,0,0,0,1.363,8.441,1.666,1.666,0,0,1-1.591,2.155m45.872-3.606a1.665,1.665,0,0,1-1.665-1.658,29.073,29.073,0,0,0-1.691-9.8,1.665,1.665,0,1,1,3.131-1.132,32.392,32.392,0,0,1,1.89,10.922,1.665,1.665,0,0,1-1.658,1.671Zm-106.192-.278a1.661,1.661,0,0,1-1.281-.6c-2.271-2.732-4.45-5.6-6.477-8.532a1.665,1.665,0,0,1,2.738-1.894c1.97,2.849,4.09,5.641,6.3,8.3a1.665,1.665,0,0,1-1.279,2.729m64.115-19.351a1.665,1.665,0,0,1-1.234-2.781,22.588,22.588,0,0,1,9.487-6.115,1.665,1.665,0,1,1,1.075,3.151,19.259,19.259,0,0,0-8.093,5.2,1.66,1.66,0,0,1-1.235.548m-77.818-1.1a1.665,1.665,0,0,1-1.472-.885c-1.67-3.15-3.215-6.407-4.592-9.678a1.665,1.665,0,1,1,3.069-1.292c1.339,3.181,2.841,6.347,4.465,9.41a1.665,1.665,0,0,1-1.469,2.445m110.054-.972a1.658,1.658,0,0,1-1.012-.344,22.414,22.414,0,0,0-8.882-4.026,1.665,1.665,0,1,1,.7-3.254,25.758,25.758,0,0,1,10.207,4.64,1.665,1.665,0,0,1-1.015,2.985m-119.257-21.856a1.665,1.665,0,0,1-1.6-1.209c-.979-3.439-1.8-6.949-2.452-10.434a1.665,1.665,0,0,1,3.273-.609c.629,3.383,1.43,6.792,2.381,10.132a1.666,1.666,0,0,1-1.6,2.121m-4.113-24.262a1.664,1.664,0,0,1-1.66-1.568c-.131-2.246-.2-4.53-.2-6.79,0-1.3.022-2.623.065-3.926a1.665,1.665,0,0,1,3.328.111c-.042,1.266-.064,2.55-.064,3.815,0,2.2.065,4.415.192,6.6a1.665,1.665,0,0,1-1.565,1.759l-.1,0m1.183-24.584a1.692,1.692,0,0,1-.255-.019,1.665,1.665,0,0,1-1.392-1.9c.54-3.513,1.245-7.047,2.094-10.5a1.665,1.665,0,1,1,3.233.794c-.826,3.363-1.511,6.8-2.037,10.216a1.665,1.665,0,0,1-1.643,1.412m6.221-23.815a1.665,1.665,0,0,1-1.558-2.249c1.252-3.339,2.666-6.654,4.2-9.854a1.665,1.665,0,0,1,3,1.442c-1.495,3.11-2.87,6.334-4.087,9.58a1.665,1.665,0,0,1-1.559,1.081m11-22.017a1.665,1.665,0,0,1-1.4-2.563c1.93-3.012,4.015-5.955,6.2-8.746a1.665,1.665,0,0,1,2.622,2.051c-2.119,2.71-4.144,5.567-6.017,8.491a1.663,1.663,0,0,1-1.4.767" transform="translate(-1059.205 -1442.747)" fill="#91b3fa"/>
        <path id="Path_5762" data-name="Path 5762" d="M3275.769,1374.85a1.665,1.665,0,0,1-1.177-2.842L3285.5,1361.1a1.665,1.665,0,0,1,2.354,2.354l-10.909,10.909a1.66,1.66,0,0,1-1.177.488" transform="translate(-2728.956 -1134.214)" fill="#14244d"/>
        <path id="Path_5763" data-name="Path 5763" d="M3273.686,1373.187a2.081,2.081,0,0,1-1.471-3.552l10.909-10.909a2.081,2.081,0,0,1,2.943,2.943l-10.909,10.909a2.066,2.066,0,0,1-1.471.609m10.909-14.237a1.246,1.246,0,0,0-.883.365l-10.908,10.909a1.248,1.248,0,0,0,1.765,1.766l10.909-10.909a1.248,1.248,0,0,0-.883-2.131" transform="translate(-2726.872 -1132.135)" fill="#14244d"/>
        <path id="Path_5764" data-name="Path 5764" d="M3324.981,1509.592a1.7,1.7,0,0,1-.249-.019l-18.155-2.727a1.665,1.665,0,1,1,.495-3.292l18.155,2.727a1.665,1.665,0,0,1-.245,3.311" transform="translate(-2754.841 -1253.345)" fill="#14244d"/>
        <path id="Path_5765" data-name="Path 5765" d="M3322.9,1507.923a2.091,2.091,0,0,1-.311-.023l-18.155-2.727a2.081,2.081,0,1,1,.618-4.115l18.155,2.727a2.081,2.081,0,0,1-.307,4.139m-18.157-6.057a1.249,1.249,0,0,0-.185,2.483l18.155,2.727a1.248,1.248,0,1,0,.371-2.469l-18.155-2.727a1.268,1.268,0,0,0-.186-.014" transform="translate(-2752.758 -1251.26)" fill="#14244d"/>
        <path id="Path_5766" data-name="Path 5766" d="M3184.716,1307.51a1.665,1.665,0,0,1-1.644-1.418l-2.727-18.155a1.665,1.665,0,1,1,3.292-.495l2.727,18.155a1.666,1.666,0,0,1-1.648,1.912" transform="translate(-2650.789 -1072.044)" fill="#14244d"/>
        <path id="Path_5767" data-name="Path 5767" d="M3182.632,1305.842a2.093,2.093,0,0,1-2.055-1.772l-2.727-18.155a2.081,2.081,0,0,1,4.115-.618l2.727,18.155a2.082,2.082,0,0,1-1.749,2.367,2.116,2.116,0,0,1-.312.023m-2.723-21.484a1.281,1.281,0,0,0-.187.014,1.249,1.249,0,0,0-1.049,1.42l2.727,18.155a1.247,1.247,0,0,0,1.42,1.049,1.248,1.248,0,0,0,1.049-1.42l-2.727-18.155a1.25,1.25,0,0,0-1.232-1.063" transform="translate(-2648.704 -1069.96)" fill="#14244d"/>
      </g>
    </g>
    <text id="Thank" transform="matrix(0.921, -0.391, 0.391, 0.921, 5208.421, 2039.835)" fill="#4042e2" font-size="69" font-family="SegoeUI, Segoe UI"><tspan x="-91.826" y="0">Thank</tspan></text>
  </g>
</svg>
