<svg xmlns="http://www.w3.org/2000/svg" width="29.37" height="29.37" viewBox="0 0 29.37 29.37">
  <g id="wallet2" transform="translate(-0.003 0)">
    <g id="Group_141" data-name="Group 141" transform="translate(0.003 0)">
      <g id="Group_140" data-name="Group 140" transform="translate(0 0)">
        <path id="Path_106" data-name="Path 106" d="M28.038,14.809V10.681a2.664,2.664,0,0,0-2.458-2.648l-3.834-6.7A2.642,2.642,0,0,0,18.123.36L4.981,8.011H2.673A2.673,2.673,0,0,0,0,10.681V26.7a2.673,2.673,0,0,0,2.67,2.67h22.7a2.673,2.673,0,0,0,2.67-2.67V22.573a2,2,0,0,0,1.335-1.88V16.688A2,2,0,0,0,28.038,14.809Zm-4.009-6.8H18.211l4.364-2.54Zm-2.118-3.7-6.353,3.7H12.923l8.33-4.85Zm-3.117-2.8a1.291,1.291,0,0,1,.991-.134,1.309,1.309,0,0,1,.8.62V2L10.27,8.011H7.634ZM26.7,26.7a1.337,1.337,0,0,1-1.335,1.335H2.673A1.337,1.337,0,0,1,1.338,26.7V10.681A1.337,1.337,0,0,1,2.673,9.346h22.7A1.337,1.337,0,0,1,26.7,10.681v4.005H22.7a4,4,0,1,0,0,8.01H26.7Zm1.335-6.008a.668.668,0,0,1-.668.668H22.7a2.67,2.67,0,1,1,0-5.34h4.673a.668.668,0,0,1,.668.668Z" transform="translate(-0.003 0)"/>
        <path id="Path_107" data-name="Path 107" d="M342.672,277.341a1.335,1.335,0,1,0,1.335,1.335A1.337,1.337,0,0,0,342.672,277.341Z" transform="translate(-319.977 -259.986)"/>
      </g>
    </g>
  </g>
</svg>
